<svg id="Layer_1" data-name="Layer 1" xmlns="http://www.w3.org/2000/svg" viewBox="0 0 577.56 1080"><defs><style>.cls-1{fill:#fff;}.cls-2{fill:#1b1464;}.cls-3{fill:#ff7f00;}.cls-4{fill:#93278f;}.cls-5{fill:#ed1c24;}</style></defs><path class="cls-1" d="M313.37,336.67c1.2-38.21-10.41-65.72-32.25-85.38a164.94,164.94,0,0,1-18.49,11.93,77.65,77.65,0,0,1,17,15.71l-47.83.31c7.39-9.64,18.08-18.13,33.36-25.65,47.39-23.31,47.85-95.91,47.72-104.72l-17.43.11c0,4.59-.22,9.18-.65,13.74l-79.62.52c-.48-4.55-.74-9.14-.77-13.73l-17.43.11c0,8.09,1.2,69.91,38.3,97.55-25.24,20.29-37,48.27-35.79,90.24m17-.11c0-3.19,0-6.29.15-9.34l79.66-.51c1.15,3,.36,6.14.39,9.33m-3.81-29.11a107.37,107.37,0,0,1,2,12.2l-77.74.5A107.73,107.73,0,0,1,219,308.15Zm-8.09-21.18a68.83,68.83,0,0,1,6.06,13.6l-70,.46a68.81,68.81,0,0,1,5.91-13.68ZM259,232.28c-1.2.59-2.31,1.22-3.48,1.83-1.17-.59-2.31-1.21-3.52-1.78a51.11,51.11,0,0,1-19.53-16.93l45.74-.3A50.65,50.65,0,0,1,259,232.28Zm23.8-24.79-55.06.35A94.27,94.27,0,0,1,221,192l68.3-.45a95.35,95.35,0,0,1-6.51,15.92Zm-66.64-36.67,77.8-.5c-.64,4.61-1.5,9.17-2.56,13.65l-72.54.47C217.75,180,216.84,175.43,216.16,170.82Z"/><path class="cls-1" d="M296.28,327.45a55.53,55.53,0,0,1,.24,13.73l-79.21.52a136.71,136.71,0,0,1-.82-13.73m-17,.11c-1.16,20.27.85,69.91,37.95,97.55-25.24,20.29-36.77,48.62-36.64,90.24l17.83-.11c0-3.19.06-6.29.19-9.34l78.86-.51c.17,3,.67,6.15.7,9.33l16.63-.11c-.28-41.81-9.92-65.72-31.77-85.38a164,164,0,0,1-18.49,11.93,77.7,77.7,0,0,1,17,15.71l-47.84.31c7.39-9.64,18.09-18.13,33.37-25.65,47.39-23.31,46.89-88.54,46-104.71M295,486.13a109.62,109.62,0,0,1,2,12.2l-77.74.5a110,110,0,0,1,1.82-12.22ZM287,465a69.39,69.39,0,0,1,6.05,13.6L223,479A69.4,69.4,0,0,1,229,465.33ZM261.1,410.74c-1.21.59-2.32,1.22-3.48,1.83-1.18-.59-2.32-1.21-3.53-1.78a51,51,0,0,1-19.52-16.93l45.73-.3A50.55,50.55,0,0,1,261.1,410.74ZM284.9,386l-55.06.35a93.48,93.48,0,0,1-6.74-15.82l68.3-.45A96.18,96.18,0,0,1,284.9,386Zm-66.65-36.67,77.8-.5c-.64,4.61-1.5,9.17-2.56,13.65L221,362.9C219.84,358.44,218.94,353.89,218.25,349.28Z"/><path class="cls-1" d="M297.85,506.14a56.06,56.06,0,0,1,.23,13.74l-79.21.51c-.48-4.55-.78-9.13-.82-13.73m-17,.11c-1.16,20.27.85,69.92,37.95,97.56-25.24,20.29-36.37,48.62-36.23,90.24l17.42-.12c0-3.18.06-6.28.19-9.33l78.86-.51q.26,4.56.3,9.33l17.43-.11c-.38-38.66-10.32-65.72-32.16-85.38a165.56,165.56,0,0,1-18.5,11.93,77.21,77.21,0,0,1,17,15.71l-47.83.31c7.39-9.64,18.08-18.14,33.36-25.65,47.39-23.31,46.89-88.54,46-104.72M296.6,664.82a107.72,107.72,0,0,1,2,12.2l-77.74.51a110.56,110.56,0,0,1,1.82-12.23Zm-8.09-21.18a69.15,69.15,0,0,1,6.05,13.61l-70,.45A69.09,69.09,0,0,1,230.52,644Zm-25.85-54.2c-1.2.59-2.32,1.22-3.48,1.83-1.17-.6-2.31-1.21-3.53-1.79a51,51,0,0,1-19.52-16.92l45.73-.3A50.63,50.63,0,0,1,262.66,589.44Zm23.8-24.8L231.4,565a93.21,93.21,0,0,1-6.73-15.83l68.29-.44a94.38,94.38,0,0,1-6.5,15.91ZM219.82,528l77.8-.51q-1,6.93-2.57,13.66l-72.53.47Q220.84,534.9,219.82,528Z"/><path class="cls-2" d="M549.21,316.94s0,0,.51-2-5.06,10.12-7.09,12.15-23.8,9.62-24.3,11.14-29.87,5.06-29.87,5.06-3.55,8.61-5.07,11.14-3.55,17.22-3.55,20.26-2,31.9-1.51,34.93S479.84,477,479.84,477l2.54,15.19s-1.52,31.9-1,33.92-7.08,18.74-7.08,18.74-6.08,27.34-5.57,29.87-1.52,42.53-.51,45.57-5.06,13.67-5.57,16.71-7.6,24.81-9.11,29.37-2.53,16.2-3,19.24.51,6.58.51,8.1,5.06,7.09,5.06,7.09l8.61,13.16s1,11.15,7.59,11.65,7.09,14.68,8.61,15.19-14.18,5.57-14.18,5.57-25.82-4.05-28.35-5.06-20.76-5.57-20.76-5.57,2.53-17.73,3-20.76,3-27.85,3-29.37,1.52-52.15.51-51.14S414,627.33,414,627.33s0-13.67,1-16.2,1-25.32,1-26.84S410.48,524,407.44,519c-.83-1.37-4.56,13.17-3.54,15.19s-4.56,30.89-5.07,35.45-10.13,40-9.11,43.54-3,17.73-3,23.3-2.53,22.78-4.05,28.35-.51,16.71,0,18.73,3,12.16,4.55,15.7,3.55,8.61,2.54,9.62-6.08,18.74-6.08,18.74l-22.78,19.24s-22.79-4.05-25.32-5.07,3-20.25,5.06-23.8,0,0,3-3,11.14-26.33,11.14-26.33-5.06-23.3-5.06-26.33S342.63,637,342.63,637s-15.19-15.19-15.7-16.71,4.56-41.52,4.56-43,.5-29.87.5-29.87,9.63-88.1,8.61-88.1-5.57-6.59-5.57-6.59,6.59-14.17,7.09-16.2,6.08-18.73,6.58-22.28,2.53-23.8,2-26.83,7.59-73.93,7.59-73.93l-2-16.2s-5.57-27.85-5.57-32.41-1-13.16-.51-16.7-1.52-17.22-1.52-19.24-2.53-20.26-2.53-23.8,2-56.21,2-59.75.5-5.06.5-8.1,1-10.64,1.52-15.7a27.23,27.23,0,0,0-1.52-12.15c-1-2.53,1-10.13,1-13.17s-2-8.1-3.54-10.63-3-3-4.56-6.08S347.69,78,347.69,78s5.06-1,7.09-1.52a6.83,6.83,0,0,1,3.54,0s2.54-2.54,3-5.07,4.56-.5,6.59.51,4,4.05,4,4.05,4.06-11.14,3.55-13.17,1.52-12.15,3.55-12.65,4.55,1.52,4.55,1.52-1,14.17-1.52,15.69,1,10.64,3,11.14-1,11.14-1,11.14-1,14.68-2,16.71-5.06,11.14-5.06,11.14-1.52,40-1,41.52,2,26.33,2.54,28.86,5.06,39.49,6.58,41.52,6.08,9.11,7.6,11.64,6.58,8.1,15.18,17.22,0,0,0-3.55.51-2-3-6.58,0-5.06-1-9.11,0-5.06,1-7.09,2-5.57,1.52-7.59,2.53-9.12,4.55-12.16,19.24-19.24,21.27-20.76,9.62-2.53,13.16-1.52,9.12,5.07,12.16,7.6,9.62,19.75,9.11,21.27-1,28.86-1,28.86l11.14,11.64s38.48,25.32,41,25.82,12.66,6.08,15.7,7.6,8.6,8.1,8.6,9.62,7.09,14.68,7.09,14.68Z"/><path class="cls-3" d="M455.88,246.58s-8.1,8.44-7.09,9.79,11.82,7.76,16.21,10.46,7.08,2.7,7.76,1.35-5.4-8.78-6.41-10.13-10.47-11.47-10.47-11.47Z"/><path class="cls-3" d="M435.63,248.61s2.31-14.71.67-14.18C419.43,239.83,435.63,248.61,435.63,248.61Z"/><path class="cls-3" d="M7.48,1078.21c.26-.45,26.23-46.79,78.7-135.43C128.55,871.19,133.3,825.19,139.32,767c1.47-14.22,3-28.94,5.17-44.87,8.14-59.72,20.42-64.16,72.12-82.88,19.39-7,43.53-15.75,75.31-30.15,24.84-11.26,48.23-20.39,70.85-29.23,83.7-32.68,144.17-56.3,164.14-143.33,13.08-57-3.39-99.63-19.51-125.38-17.51-28-38.4-42.64-38.61-42.78l2.08-3c.88.6,21.64,15.16,39.55,43.72,16.53,26.35,33.43,70,20.06,128.27-20.41,88.92-84.82,114.07-166.38,145.92-22.58,8.82-45.92,17.94-70.67,29.15-31.91,14.46-56.12,23.22-75.58,30.27-51.23,18.54-61.9,22.4-69.74,79.92-2.16,15.88-3.68,30.56-5.15,44.76-5.82,56.36-10.85,105-53.63,177.31-52.44,88.61-78.4,134.9-78.66,135.36Z"/><path class="cls-4" d="M120,34l1.66-.71c1.79,2.74,4,5.1,3.86,8.68A66.27,66.27,0,0,0,126,48.8a2,2,0,0,1-.15,1.07,10.51,10.51,0,0,0-.95,4.41c-.07,1.6-1.1,2.65-2.13,3.69-2.86,2.89-5.77,5.73-8.56,8.69a29.66,29.66,0,0,0-3.06,4,7.23,7.23,0,0,0-1,4,16.81,16.81,0,0,1-.36,3.61,22.6,22.6,0,0,0,.1,8.52c1,6.62,2.07,13.22,3,19.84.61,4.33,1,8.7,1.54,13,.4,3.32.8,6.64,1.23,10.23.4-.63.72-1.11,1-1.59a19.07,19.07,0,0,1,20.89-8.79,25,25,0,0,1,4.81,2.13,6.47,6.47,0,0,0,2.9.92,10.94,10.94,0,0,1,6.47,2.17,15.08,15.08,0,0,0,6.31,2.67,16.72,16.72,0,0,1,6.86,3.28,53.73,53.73,0,0,1,15.78,18.16,22.33,22.33,0,0,1,2.78,12.84,18.9,18.9,0,0,1-2.6,8.09c-1.33,2.18-2.75,4.3-4.28,6.34a9.83,9.83,0,0,1-5.68,4.05,2.66,2.66,0,0,0-1.2,1c-3.25,4-5.31,8.69-7.84,13.11-1.09,1.91-2.19,3.8-3.25,5.71a12.33,12.33,0,0,1-3.74,4.23c.69-2.63,2.71-4.34,3.48-6.73-2.79,2.23-5.23,4.79-7.84,7.24l.72-1.22-.81-1a35.44,35.44,0,0,1-11.82,7.26l2.19,2.53c.64-.3,1.18-.55,1.72-.82,5.19-2.58,9.61-1.87,13.55,2.32a4,4,0,0,0,2.85,1.37c6.64.34,13.11,1.82,19.6,3.15,1.47.3,2.87.55,4.17-.5a2.19,2.19,0,0,1,1-.36c1.05-.18,2.12-.32,3.23-.48-.08.12-.13.28-.24.36-1.66,1.19-1.66,1.21.08,2.3.1.07.25.12.29.21.91,2,2.76,1.85,4.52,1.91,6.5.21,13,.5,19.51.63,3.59.07,7.18-.11,10.76-.19,6.45-.14,12.91-.08,19.34-.48a233.79,233.79,0,0,1,23.53-.14c10.39.39,20.78,1,31.16,1.55a43.19,43.19,0,0,0,14.28-1.26,4.76,4.76,0,0,0,2.9-2c.92-1.43,1.92-2.81,2.93-4.18a49.18,49.18,0,0,1,8.57-8.67,43.93,43.93,0,0,0,3.53-2.78,5.12,5.12,0,0,1,2.4-1.15c3.79-.84,7.61-1.57,11.42-2.35.67-.13,1.33-.23,1.81.45a1.46,1.46,0,0,1-.28,2A12.17,12.17,0,0,1,341,205a9.15,9.15,0,0,1-2.19.89c-3.18,1-4.63,3.54-5.81,6.35a2.61,2.61,0,0,0-.25,1,6.81,6.81,0,0,1-1.12,3.42c-.4.74-.76,1.5-1.17,2.33.33.23.54.51.79.54,3.37.44,6.73.85,10.12.19.87-.16,1.83-.44,2.51.5a2.07,2.07,0,0,1-.42,3.07,8.19,8.19,0,0,1-5,2,13.37,13.37,0,0,0-5.14,1.68c-2.26,1.17-4.63,2.13-7,3.16-.5.22-1.05.3-1.55.53-5.1,2.3-10.54,2.91-16,2.94a150.31,150.31,0,0,0-25.76,2.44c-8.73,1.56-17.39,3.48-26.09,5.2-3.7.74-7.4,1.42-11.11,2.07a25.26,25.26,0,0,1-8-.12,173.92,173.92,0,0,0-28.22-1.2c-6.27.16-12.53.21-18.8.3a5.1,5.1,0,0,0-3.07.71l1.88,1.55a1.64,1.64,0,0,1-1.94.7,5.59,5.59,0,0,0-2.66-.14,19.08,19.08,0,0,0-6.83,2.92q-7.08,5.15-14.13,10.35a7.45,7.45,0,0,0-2.21,2.8,51.19,51.19,0,0,1-7.8,12.05,31.36,31.36,0,0,0-5.28,8.06,9.35,9.35,0,0,0-.54,6.94c.79,2.55,1.77,5,2.72,7.54q4.53,11.83,9.1,23.66A43.43,43.43,0,0,0,173.4,338c4.47,3.66,9.1,7.16,12.86,11.59,3.46,4.09,6.81,8.26,10.23,12.37,1.91,2.29,3.85,4.55,5.82,6.87a6.16,6.16,0,0,1-.73.79c-2.74,2.16-4.52,5.07-6.14,8.08a7.68,7.68,0,0,0-.59,2.26c-.32,1.8-.58,3.6-.88,5.4a14,14,0,0,1-2.27,5.53c-1.35,2-2.66,4.07-4,6.12a8.52,8.52,0,0,0-1.13,7.16c.09.35.11.72.19,1.08a2.83,2.83,0,0,1-1.39,3.27c-.72.46-1.46.88-2.2,1.3a11,11,0,0,1-1.12.61c-5,2.33-7.5,6.32-7.81,11.8-.11,2-.45,4-.73,6-.57,3.94-2.78,6.46-6.69,7.21-3.39.65-6.84,1-10.27,1.54l-2.17.34-8.82,18.9c2.52-.5,5-1,7.49-1.49a62.08,62.08,0,0,0,18.29-6.52c5.72-3.1,11.46-6.15,17.16-9.29a39.35,39.35,0,0,0,4.1-2.72,27.77,27.77,0,0,0,2.22-2l-3.32-1.27c-.18-3.43-1-6.92,2.06-9.91a2.08,2.08,0,0,1-1.58-2.31c-.09-2.12-.27-4.25-.39-6.37a5,5,0,0,1,.15-1c.69,0,1.34-.11,2-.11a135.71,135.71,0,0,0,16.36-1.26,12.51,12.51,0,0,1,2.37-.1c1.18.07,1.43.36,1.56,1.57.06.6.08,1.21.13,1.91a14.46,14.46,0,0,0,4.93-1.21,50,50,0,0,1,11.37-3.23,87.74,87.74,0,0,1,22-.52c1.55.19,3.09.52,4.84.81-.17,1.5.32,3-.54,4.37a.75.75,0,0,0-.12.45c.55,2.67-1.36,4.27-2.69,6.08a6.26,6.26,0,0,1-4.85,2.55c-.55,0-1.09.09-1.64.11a6.29,6.29,0,0,0-4,1.48,9.38,9.38,0,0,1-4.8,2,4.5,4.5,0,0,0-1.66.65c-2.72,1.73-5.41,3.51-8.13,5.24a5.25,5.25,0,0,0-2.25,2.92c-.8,2.3-2.86,3.27-5.08,3.58a4.67,4.67,0,0,0-2.74,1.17c-.63.57-1.29,1.11-1.92,1.68a43.83,43.83,0,0,1-12.86,8.21A92.35,92.35,0,0,0,184.59,463c-4.8,3.53-9.65,7-14.46,10.52-.72.52-1.4,1.11-2.41,1.92,2.61.64,4.81,1.23,7,1.72,4.15.91,8.29,1.9,12.48,2.61a29,29,0,0,0,10.71-.2c.87-.18,1.72-.52,2.52-.77.21-2.3.21-2.32,2.36-2.92,2.39-.66,4.79-1.39,7.22-1.85a22.87,22.87,0,0,1,4.14,0,6.25,6.25,0,0,0,1.57-.12c2.22-.64,4.41-1.36,6.63-2,1.47-.44,1.74-.44,2.4.81,1.44,2.74,2.8,5.53,4,8.37a6.37,6.37,0,0,1,.09,2.86c-.11,1.52-.33,3-.54,4.53a2.87,2.87,0,0,0,.87,2.64c1.05,1,2,2.18,3.08,3.11,4.57,3.81,7,8.75,8.08,14.5.91,4.72,2.08,9.38,3.06,14.08a42.56,42.56,0,0,1,.54,4.52c.11,1.08.17,2.16.26,3.36-1.21.43-2.25,1.52-3.8,1.16a.67.67,0,0,0-.48.15c-1.18,1-2.41.56-3.61.09a21.66,21.66,0,0,1-6.81-4.48c-2-1.82-3.84-3.74-5.82-5.54a13.4,13.4,0,0,1-3.13-4.65,7.37,7.37,0,0,0-2.2-2.86l-5.14-4.09a2.21,2.21,0,0,0-2.2-.44c-1.64.53-2.81-.49-3.9-1.42-.35-.29-.28-1.09-.43-1.82a45.7,45.7,0,0,0-9.38-4.45c-3.85-1.33-7.72-2.58-11.58-3.87a57.78,57.78,0,0,0-12.7-2.34,264.67,264.67,0,0,0-28.43-1.16,5.84,5.84,0,0,0-3.95,1.43,119.9,119.9,0,0,1-14.87,10.86,31,31,0,0,1-12,4.61c-7.59.92-14.26-1.19-19-7.51A12.33,12.33,0,0,1,93,499.79c-.52-2.1-.74-4.27-1.23-6.47L91,499.2c-1.11-2.28-1.27-4.73-1.52-7.32-1.74-.43-3.5-.82-5.23-1.32a27.07,27.07,0,0,1-3.61-1.26c-4.41-1.95-6.54-5.44-6.72-10.19-.06-1.52,0-3.05-.09-4.56a16.14,16.14,0,0,1,.33-6.11c-1.26,2.78-1.54,5.78-2.11,8.71-1.1-4.83.4-9.19,2.75-13.73-1.28.81-1.63,2.08-3,2.27A11.57,11.57,0,0,1,73,460.88a1.6,1.6,0,0,1,1.87-1.07c.35,0,.7.05,1.13.08.11-.35.19-.63.29-.9,2-5.61,3.79-11.25,5.88-16.8q4.13-10.92,8.62-21.69a4.29,4.29,0,0,0-.94-5.17,20.66,20.66,0,0,0-4.62,2.33,4.6,4.6,0,0,1-4,.41c0-3,1.25-5.72,1.51-8.75-3.72-2.29-7.94-3.38-12.3-4.58.26-2.46.37-4.83.78-7.15,1.64-9.34,3.38-18.66,5.07-28,.91-5,1.78-10.06,2.68-15.09a19.38,19.38,0,0,1,4.64-9.95,3.2,3.2,0,0,0,.56-.92c.8-1.84,1.55-3.7,2.37-5.53a3.31,3.31,0,0,0,.15-2.26c-.56-2.55-1-5.12-1.48-7.69-.21-1.13-.41-2.26-.59-3.4-.51-3.3-1.23-6.59-1.46-9.91a47.63,47.63,0,0,0-3.08-14.39c-2.31-5.84-3.25-12-3.92-18.13a27.81,27.81,0,0,0-3.4-10.85,14.94,14.94,0,0,1-1-12.85c.88-2.39,1.6-4.85,2.6-7.19,1.55-3.63,2.94-7.31,4.23-11a35.85,35.85,0,0,1,3.26-6.1,3.77,3.77,0,0,0,.56-2.39,87,87,0,0,1,6-40.93,77,77,0,0,0,2.38-7.65,7,7,0,0,0,.1-4.11,4.11,4.11,0,0,1,.11-1.54l.39-.12.71,1.08.62-2.09c1.69.4,2,1.85,2.86,3,.05-.58.13-1.17.16-1.75q.64-13.68,1.28-27.35c.13-2.74.38-5.47.38-8.21a41.73,41.73,0,0,0-.48-7.07,69,69,0,0,1-.45-16.92c.45-5.82,1.2-11.62,1.75-17.43.82-8.67,1.36-17.36.56-26.06C98.32,70.79,97.6,66.89,97.1,63a33.5,33.5,0,0,1,1-11.75,2.25,2.25,0,0,1,.2-.51l6.21-13.39c.13-.28.3-.53.45-.79a1.47,1.47,0,0,1,1.88-.67,1.4,1.4,0,0,1,1.12,1.64,7.58,7.58,0,0,1-.39,2c-.73,1.86-1.5,3.72-2.33,5.54a12.47,12.47,0,0,0-1.33,5.44c0,1.76.74,2.18,2.29,1.37a.83.83,0,0,0,.16-.09c3.37-3.11,7.61-5.23,10.29-9.13a6.16,6.16,0,0,0,.73-5.71,12.74,12.74,0,0,1-.59-2.64,1.65,1.65,0,0,1,.94-1.83c.86-.33,1.35.26,1.77.89C119.59,33.5,119.75,33.68,120,34Zm24.14,178.15,9.72,1.39C150.59,210.62,147.13,210.09,144.11,212.11Z"/><path class="cls-5" d="M347.66,615.77c-1.27.38-1.47,1.31-1.58,2.33-.29,2.74-.72,5.48-.87,8.23a35.89,35.89,0,0,1-3,11.58c-3.65,9.09-7.37,18.15-10.94,27.28-2.46,6.3-4.7,12.69-7.06,19a13.23,13.23,0,0,1-1,2.38c-3.91,6.41-6,13.55-8.3,20.58a40.18,40.18,0,0,1-1.64,4.23,11.39,11.39,0,0,1-6,5.67,21.68,21.68,0,0,0-6.49,4.24c-4,3.82-7.94,7.69-11.94,11.52a5.1,5.1,0,0,0-1.6,4.07c.07,2.6,0,5.2,0,7.8a8.82,8.82,0,0,1-.37,2.39c-.63,2.16-2,3.73-4.31,3.85-3.62.18-6.79,1.71-10.08,2.89a18.7,18.7,0,0,1-3.61.9c-5.46.79-8.08,3.37-8.24,8.88a15.43,15.43,0,0,1-6.38,12.21,56.76,56.76,0,0,1-12.75,7.72c-1.59.69-3.13,1.48-4.68,2.26a6.22,6.22,0,0,0-3.17,3.33,5.69,5.69,0,0,1-4.24,3.44,20.82,20.82,0,0,1-2.72.44c-7.94.89-15,4-21.62,8.35-3.7,2.44-7.2,5.19-10.8,7.79a3.1,3.1,0,0,0-1.36,2.77c0,5.48,0,11,0,16.43a5.64,5.64,0,0,0,.5,2.17c2,4.4,3,8.91,2.12,13.75a23.79,23.79,0,0,0-.32,4.05,42.67,42.67,0,0,1-4.74,18.89,57.69,57.69,0,0,0-3.11,8c-1.64,5.21-3.37,10.4-5.1,15.58-.42,1.28-1,2.51-1.43,3.78a4.19,4.19,0,0,0-.12,1.28,7.2,7.2,0,0,1-3,6,72.28,72.28,0,0,1-7.14,4.47,11,11,0,0,1-5.39,1c-2.87,0-5.74,0-8.61,0a29.39,29.39,0,0,0-9.44,1.43,4,4,0,0,1-5.46-2.85,3.48,3.48,0,0,1,1-3.85,6.78,6.78,0,0,1,3.14-1.6c1-.24,1.95-.59,3.32-1-1.27-1-2.22-1.73-3.22-2.44s-1.81-1.17-2.71-1.78a9.16,9.16,0,0,1-1.13-.93c-2-2-1.91-4.08.26-5.82.5-.4,1-.66.93-1.51a1.45,1.45,0,0,1,.77-1.15,13.15,13.15,0,0,1,4-1.05,28.92,28.92,0,0,1,5,.75c-.24-.56-.49-1-.66-1.49a2.45,2.45,0,0,1,2.15-3.4,5.56,5.56,0,0,1,4,1.1c1.42,1.06,2.75,2.25,4.14,3.36.92.73,1.86,1.43,2.92,2.23a11.4,11.4,0,0,0,.9-4.75c-.43-3.55-.73-7.12-1.29-10.64a24.14,24.14,0,0,0-1.59-5.43,22.18,22.18,0,0,1-1.77-7.7,29.48,29.48,0,0,0-.62-5.47,13.63,13.63,0,0,0-1.77-4.32,8.45,8.45,0,0,1-.36-8.93c.28-.59.7-1.11.94-1.71a15,15,0,0,0,.91-2.75,3.72,3.72,0,0,0-1.15-3.66c-2.75-2.64-3.25-6-2.61-9.62.42-2.39,1.21-4.71,1.8-7.07a41.26,41.26,0,0,0,1.05-4.73,7.3,7.3,0,0,0-2-6,10.72,10.72,0,0,1-2.7-6.47,7.54,7.54,0,0,0-1.58-4c-1.36-1.75-2.8-3.43-4.35-5.3-1.17.55-2.37,1-3.48,1.64a37.36,37.36,0,0,1-13.92,4.66,13.93,13.93,0,0,1-10.18-2.36,6.38,6.38,0,0,1-3-4.43c-.24-1.7-1.5-2.86-2.41-4.18q-8.13-11.76-15.17-24.22a31.16,31.16,0,0,1-3.12-10,30.25,30.25,0,0,1-.08-9.21,11.34,11.34,0,0,1,7-9.47,100.4,100.4,0,0,1,15.72-5.62c4.83-1.3,9.76-1.23,14.65-1.72,3.93-.4,7.86-.82,11.79-1.19,3.54-.33,5.74-2.31,7-5.52.53-1.41,1-2.86,1.47-4.3,1.79-5.46,5-10,8.71-14.34,6.49-7.62,14.77-12.63,23.84-16.47a128.75,128.75,0,0,1,22-6.9,2.61,2.61,0,0,0,.53-.27c-.28-.43-.52-.82-.8-1.19-4-5.37-8.12-10.71-12.13-16.1a28.43,28.43,0,0,0-10.4-8.38,17.75,17.75,0,0,1-5.58-4.13,15.18,15.18,0,0,1-3.52-12.72c.56-4-1.36-6.8-5.22-7.62a10,10,0,0,1-5.45-3.33c-2.59-2.91-5.17-5.82-6.92-9.38a13.52,13.52,0,0,0-4.92-5.51,4.2,4.2,0,0,1-1.6-2.14,25.55,25.55,0,0,1-1.14-5c-.74-6.07-.67-12.09,1.4-18a10.92,10.92,0,0,0-.48-8.69c-2.6-5.35-5.23-10.69-7.85-16-.57-1.17-1.13-2.34-1.68-3.52a5,5,0,0,0-5.19-3.15,19.94,19.94,0,0,1-6.85-1.13,37.24,37.24,0,0,0-4.73-1.1,13.15,13.15,0,0,0-6.51,1c-2.48.92-5,1.85-7.49,2.63a10.1,10.1,0,0,1-6.56-.13,3.9,3.9,0,0,0-3.41.37A37.09,37.09,0,0,1,94.44,555a19.88,19.88,0,0,1-10.89-.49c-3.72-1.25-7.17-5.65-7.28-9.56a6.63,6.63,0,0,1,.68-2.8A68.91,68.91,0,0,1,87.78,525.4a202.18,202.18,0,0,1,19.62-19.65c6.46-5.79,13.06-11.41,19.92-16.73a25.34,25.34,0,0,1,10.53-5.19,17.47,17.47,0,0,1,9,.44,5.61,5.61,0,0,1,2.15,1.37c1.4,1.43,2.69,3,4,4.49a9.37,9.37,0,0,1,2.14,5.34c.11,1,.21,1.94.33,2.91a8.38,8.38,0,0,0,1.43,4.1,15.56,15.56,0,0,1,2.75,7.37c.22,1.5.45,3,.64,4.5a3.53,3.53,0,0,1,0,1.45,3.75,3.75,0,0,0,.43,2.94,119,119,0,0,0,8.45,14.06q8.1,12.16,16.4,24.21a69.57,69.57,0,0,0,4.83,6.13,11.05,11.05,0,0,0,9,4c4.85-.11,6.92,2.44,6,7.27a6.52,6.52,0,0,0,.86,5.13,65.92,65.92,0,0,1,5.31,9.86c2.32,5.08,5.74,9.42,9.25,13.7,2.13,2.6,4.3,5.17,6.56,7.65a24.49,24.49,0,0,0,4,3.57,35.27,35.27,0,0,1,8.53,8.62c1.64,2.29,3.28,4.58,5,6.82,1.91,2.49,3.93,4.9,5.86,7.38,1.39,1.79,2.79,3.59,4.06,5.47a29.88,29.88,0,0,0,6.59,6.69c.6.46,1.2.92,1.82,1.36a48,48,0,0,1,7.33,6.4c1.57,1.75,3.09,1.64,4.16-.38,3.81-7.17,8.27-14,11.55-21.45,1.44-3.27,2.57-6.67,4-9.93,2.06-4.59,4.31-9.09,6.44-13.65,1.09-2.36,2-4.78,3.15-7.13,1-2,2-4.06,3.13-6,.81-1.47,1.76-2.86,2.64-4.29,1.79-2.9,4-5.2,7.53-6,1.4-.31,1.78-1,1.77-2.51s-.14-2.82-.11-4.23a9.46,9.46,0,0,1,4.49-8.18c1-.64,1.67-1.24,1.54-2.57a2.51,2.51,0,0,1,1.46-2.38c2.71-1.49,4.09-4,5.1-6.7a4.89,4.89,0,0,1,2.24-2.67,1.1,1.1,0,0,1,.14-.09c3.86-1.38,5.88-4.63,7.87-7.86,1.73-2.81,3.42-5.66,4.93-8.59A37.91,37.91,0,0,0,345.2,536c1.87-6.28,3.66-12.58,6.07-18.68,1.48-3.75,1.52-7.59,1.18-11.51-.3-3.56-.54-7.13-.77-10.7a7.17,7.17,0,0,1,2.63-6.2c4.39-3.67,9.05-6.92,14.73-8.29a27.66,27.66,0,0,1,5.93-.87c5.3-.12,10.61-.05,15.92,0a8.4,8.4,0,0,1,2.55.34,8,8,0,0,1,2.24,1.26,2.49,2.49,0,0,1,1,3c-.79,2.07-1.66,4.11-2.55,6.14-.38.89-.86,1.75-1.32,2.6a38.7,38.7,0,0,0-4.77,14.4c-.65,5.94-3.91,10.08-9.37,12.48-1.39.61-2.8,1.17-4.21,1.71-2.45.93-4.19,2.44-4.51,5.21s-.64,5.7-1,8.54q-.87,6.51-1.84,13c-.72,4.82-1.52,9.62-2.2,14.45a11.15,11.15,0,0,0,.17,3.2c.47,3,1,6.07,1.51,9.12.19,1.22.31,2.46.4,3.7.06.81,0,1.63,0,2.44a6.88,6.88,0,0,0,1.71,4.94,3.44,3.44,0,0,1,.24,4.35,5.43,5.43,0,0,1-2.62,2.34,5.87,5.87,0,0,0-3.91,6.57,10.39,10.39,0,0,1-2.68,8.07c-1.67,2-3.16,4.12-4.71,6.2-.59.78-1.1,1.62-1.71,2.37-1.15,1.39-2,1.55-3.54.74C349,616.57,348.37,616.17,347.66,615.77Z"/></svg>