<svg width="863" height="1239" viewBox="0 0 863 1239" fill="none" xmlns="http://www.w3.org/2000/svg">
<path d="M109.14 771.81C108.4 766.14 107.68 756.81 107.55 751.11L107.08 731.28C106.95 725.55 106.84 716.2 106.84 710.48V706.08C106.564 699.291 104.86 692.637 101.84 686.55L100.17 683.49C96.7596 677.484 92.8526 671.774 88.49 666.42L65.09 638.74C61.4 634.37 55.5 627.11 51.97 622.61C51.97 622.61 30.3 594.94 27.39 590.13C24.48 585.32 14.84 573.65 11 565C7.16 556.35 3.16 542.1 3.16 542.1C1.45712 535.421 0.514473 528.571 0.350006 521.68V485.25C0.350006 479.52 2.34999 471.34 4.70999 467.1C7.94738 461.563 11.5068 456.22 15.37 451.1L18.27 447.26C22.5293 441.821 27.1144 436.645 32 431.76C32 431.76 55.54 408.99 58.43 407.07C61.32 405.15 73.93 385.75 75.87 381.87C77.81 377.99 83.6 364.44 84.6 361.53C85.2178 359.248 85.5371 356.895 85.55 354.53C85.55 348.8 82.93 342.82 79.74 341.24C75.441 338.885 71.3847 336.111 67.63 332.96C63.9865 329.833 60.5867 326.433 57.46 322.79C55.33 320.16 48.96 317.29 43.31 316.42L31.9 314.69C26.25 313.82 20.75 312.26 19.68 311.18C18.61 310.1 19.92 307.3 22.6 304.9C25.28 302.5 31.78 299.46 37.11 298.1C42.44 296.74 49.2 294.8 52.11 293.76C55.7547 292.308 59.178 290.352 62.28 287.95C64.94 285.81 70.6 283.2 74.85 282.15C79.622 281.013 84.4969 280.364 89.4 280.21C93.308 280.222 97.2012 280.692 101 281.61C104.395 282.939 107.396 285.111 109.72 287.92C112.153 291.026 114.416 294.26 116.5 297.61C118.1 300.27 120.27 306.61 121.35 311.66C122.55 318.13 123.195 324.69 123.28 331.27V350.27C123.123 357.161 122.201 364.013 120.53 370.7L120.22 371.87C118.214 378.427 115.223 384.641 111.35 390.3L108.06 394.82C103.909 400.339 99.3068 405.504 94.3 410.26L85.4 418.46C81.19 422.32 74.69 429.04 70.95 433.36L66.16 438.91C61.7082 444.2 57.6443 449.805 54 455.68L50.2 462C47.26 466.91 43.11 474.42 40.98 478.66C38.375 484.416 36.452 490.457 35.25 496.66L35.1 497.53C34.0524 504.113 33.9144 510.809 34.69 517.43C35.6978 523.659 37.1481 529.808 39.03 535.83C41.259 541.94 44.0405 547.835 47.34 553.44L53.01 562.8C56.7322 568.589 61.1594 573.893 66.19 578.59L75.8 587.07C80.08 590.88 87.04 597.07 91.27 600.98C91.27 600.98 95.27 604.55 99.08 604.55C102.89 604.55 126.21 609.44 129.08 609.44C131.95 609.44 145.81 610 145.81 610C151.52 610.23 158.16 611.74 160.57 613.32C162.98 614.9 169.42 617.49 174.92 619.07L182.05 621.07C188.67 622.723 195.535 623.157 202.31 622.35L206.94 621.66C213.668 620.401 220.15 618.072 226.14 614.76L234.42 609.83C239.33 606.92 247.42 602.19 252.42 599.38L254.7 598.07C259.7 595.26 266.78 590.97 270.52 588.57C274.163 586.218 278.057 584.279 282.13 582.79C284.79 581.97 291.45 582.72 296.9 584.43L305.12 586.96C310.57 588.67 319.44 591.66 324.81 593.6L347.9 601.98C354.403 604.128 361.202 605.241 368.05 605.28L390.89 604.77C396.6 604.62 405.95 604.51 411.66 604.51H419C425.799 604.77 432.483 606.349 438.68 609.16L445.27 612.49C450.39 615.04 458.53 619.62 463.38 622.66L492.25 640.66C498.007 644.447 503.332 648.854 508.13 653.8L530.8 678.26C535.582 683.196 541.036 687.435 547 690.85L578 707.28C583.06 709.94 591.25 714.44 596.23 717.28L600.41 719.63C605.41 722.47 610.99 727.81 612.86 731.52C614.73 735.23 620.79 737.22 626.36 735.91L639.04 732.91C644.61 731.61 653.75 729.62 659.34 728.49C659.34 728.49 668.52 726.68 675.34 730.49C682.16 734.3 688.9 734.37 696.62 739.2L704.39 744.03C697.785 745.156 691.06 745.404 684.39 744.77L680.82 744.34C675.14 743.67 672.46 745.28 674.89 747.92C677.32 750.56 683.89 753.11 689.61 753.56C689.61 753.56 691.83 753.74 698.61 757.63C705.39 761.52 713.17 758.63 714.09 766.37C714.65 770.301 714.984 774.261 715.09 778.23C715.09 783.95 712.92 786.02 710.23 782.83C707.54 779.64 703.44 777.43 701.04 777.97C698.64 778.51 697.53 782.83 698.63 787.63C699.73 792.43 697.07 794.17 692.8 791.52C688.53 788.87 685.29 788.86 685.55 791.52C685.81 794.18 684.06 795.52 681.69 794.43C680.434 793.93 679.05 793.847 677.743 794.192C676.436 794.538 675.275 795.294 674.43 796.35C672.82 798.47 668.68 797.8 665.2 794.89C662.136 792.261 658.902 789.836 655.52 787.63C653.65 786.56 652.52 788.96 653.12 792.95C653.72 796.94 652.12 798.67 649.74 796.81C647.36 794.95 640.74 793.81 635.03 794.3C633.271 794.237 631.529 793.937 629.85 793.41C625.99 792.49 625.59 791.98 625.59 791.98C622.09 787.48 617.46 781.16 615.33 777.98H610.49C605.66 777.98 602.74 780.87 602.74 785.7C602.74 790.53 604.67 798.3 601.74 803.18L598.85 808C594.6 810.15 588.7 811.88 585.78 811.88C582.86 811.88 577.61 813.42 574.16 815.28C570.71 817.14 565.16 822.51 561.95 827.22C561.95 827.22 550.43 843.86 550.43 846.77C550.43 849.68 542.71 861.31 539.79 860.34C536.87 859.37 507.51 856.48 507.51 856.48C501.81 855.94 494.11 854.18 490.39 852.6C485.423 850.753 480.178 849.766 474.88 849.68H472C469.1 849.68 465.88 849.91 465.88 849.91C459.787 850.373 453.735 851.272 447.77 852.6C443.53 853.67 440.66 859.16 441.43 864.84L441.53 865.53C442.738 872.146 445.619 878.343 449.9 883.53L454.38 888.46C458.21 892.68 464.83 899.27 469.08 903.1L481.7 914.4C486.567 918.706 491.741 922.653 497.18 926.21C501.45 928.86 508.73 933.8 513.36 937.14L513.92 937.56C519.487 941.672 524.828 946.082 529.92 950.77L532.28 952.99C536.43 956.9 540.7 962.93 541.76 966.38C543.199 971.837 544.258 977.387 544.93 982.99L545.35 986.6C546.436 993.29 548.949 999.668 552.72 1005.3L558.88 1013.71C562.26 1018.31 567.79 1025.88 571.16 1030.48L622.8 1100.86C626.18 1105.46 631.8 1112.98 635.18 1117.55L654.65 1143.55C658.08 1148.12 660.89 1153.55 660.89 1155.73C660.89 1157.91 663.89 1160.9 667.66 1162.51C671.868 1164.52 675.527 1167.52 678.32 1171.25C680.44 1174.44 683.71 1179.25 685.58 1181.9C687.613 1185.09 688.782 1188.76 688.97 1192.54C688.97 1195.76 685.7 1198.37 681.69 1198.37C677.68 1198.37 674.43 1202.71 674.43 1208.02C674.43 1213.33 672.7 1219.68 670.55 1222.08C668.4 1224.48 663.22 1229.49 658.95 1233.22L654.12 1234.22C649.25 1235.22 646.82 1235.78 646.82 1235.78C641.103 1237.08 635.278 1237.86 629.42 1238.1C625.42 1238.1 625.42 1235.27 629.42 1231.82C633.42 1228.37 637.77 1222.46 639.09 1218.73C640.41 1215 640.85 1207.79 640.09 1202.73C639.33 1197.67 635.16 1191.56 630.89 1189.19C626.62 1186.82 623.14 1183.11 623.14 1180.98C623.065 1178.5 622.575 1176.05 621.69 1173.73C619.734 1169.99 617.469 1166.41 614.92 1163.04C611.98 1159.04 607.07 1151.83 604.01 1147.04L528.96 1029.04C525.15 1023.29 520.826 1017.9 516.04 1012.94L515.23 1012.12C510.277 1007.3 505.019 1002.8 499.49 998.65L494.99 995.41C489.491 991.236 484.365 986.591 479.67 981.53C479.67 981.53 445.91 943.76 440.1 936.96C434.29 930.16 422.76 923.06 422.76 923.06C417.9 920.06 409.76 915.49 404.62 912.96L399.99 910.64C394.699 908.034 389.149 905.992 383.43 904.55C379.43 903.76 376.93 907.7 377.88 913.35L378.33 916.08C379.572 922.877 381.282 929.58 383.45 936.14L385.37 941.71C387.517 948.278 389.142 955.006 390.23 961.83C390.23 961.83 391.65 971.83 391.65 975.73C391.65 979.63 390.3 988.73 390.3 988.73C389.128 995.346 386.974 1001.75 383.91 1007.73C381.26 1012.54 374.91 1017.11 369.91 1017.9C363.415 1018.81 356.868 1019.3 350.31 1019.36H293.5C287.79 1019.36 278.5 1019.64 272.73 1020L246 1021.45C240.28 1021.8 231.71 1022.52 226.92 1023.06C222.13 1023.6 213.55 1024.36 207.85 1024.79L202.42 1025.18C196.72 1025.61 188.35 1027.91 183.82 1030.32C179.29 1032.73 173.82 1036.4 171.7 1038.54C169.58 1040.68 167.83 1046.14 167.83 1050.66C167.545 1056.49 166.249 1062.22 164 1067.6L162.07 1070.51C160.13 1073.4 153.65 1075.32 153.65 1075.32C148.17 1076.96 145.2 1075.88 147.06 1072.94C149.31 1069.22 151.25 1065.33 152.86 1061.29C154.2 1057.84 150.86 1056.41 145.37 1058.12C142.146 1059.15 138.987 1060.36 135.91 1061.77C132.05 1063.77 108.85 1078.49 108.85 1078.49C104.02 1081.56 96.8 1084.06 92.85 1084.06C88.9 1084.06 84.71 1086.06 83.64 1088.43C82.57 1090.8 80.64 1090.43 79.29 1087.43C77.94 1084.43 78.4 1080.56 80.29 1078.69C84.0762 1075.34 88.0854 1072.26 92.29 1069.46L93.51 1068.62C99.0968 1064.6 104.139 1059.88 108.51 1054.56L119.81 1040C123.65 1035.02 127.238 1029.86 130.56 1024.52C132.97 1020.52 134.49 1013.79 133.96 1009.52L136.86 1005.63C139.77 1001.75 139.77 993.06 142.67 992.09C145.57 991.12 145.59 987.2 153.33 987.2C161.07 987.2 262.08 985.49 262.08 985.49C267.79 985.39 277.14 985.31 282.86 985.31H318.26C323.98 985.31 331.04 984.22 333.98 982.89C336.92 981.56 341.9 979.15 345.1 977.55V973.69V969.52C345.5 962.675 344.869 955.808 343.23 949.15L342.1 945C340.55 939.48 338.1 930.45 336.7 924.91L334.13 914.97C332.208 908.403 329.225 902.194 325.3 896.59L317.45 886.12C314.02 881.54 308.62 873.92 305.45 869.12L299.53 860.25C296.36 855.5 292.25 850.52 290.38 849.19C288.51 847.86 282.32 846.4 276.62 845.99L181.12 838.81C174.316 838.086 167.685 836.209 161.51 833.26L151.9 828.31C145.836 825.017 140.091 821.167 134.74 816.81L131.23 813.81C126.153 809.233 121.812 803.9 118.36 798L115.65 793C112.577 786.875 110.46 780.316 109.37 773.55L109.14 771.81Z" fill="#FF4A68"/>
<path d="M681.14 1078C681.75 1075.3 682.14 1073.43 682.63 1071.62C682.943 1070.91 683.361 1070.26 683.87 1069.68C684.46 1070.17 685.59 1070.75 685.53 1071.13C685.284 1073.27 684.732 1075.37 683.89 1077.36C683.58 1078 681.68 1077.88 681.14 1078Z" fill="#FF9D1F"/>
<path d="M853.27 1091.65C856.02 1092.65 858.86 1093.51 861.66 1094.42L862.03 1093.49C847.73 1087.11 834.8 1079.01 825.47 1064.8C831.47 1066.8 836.47 1068.65 841.69 1070.09C846.91 1071.53 852.11 1072.55 857.33 1073.75C849.04 1068.49 840.56 1064.23 832.53 1059.25C813.53 1047.47 797.1 1032.99 785.35 1013.67C784.44 1012.19 783.84 1009.95 781.09 1010.67C780.69 1010.78 779.81 1009.5 779.3 1008.77C778.48 1007.6 777.77 1006.34 776.49 1004.25C778.08 1000.56 776.9 995.98 775.36 991.25C774.36 988.08 774.12 984.61 773.71 981.25C773.72 979.804 773.878 978.364 774.18 976.95C777.75 985.62 781.26 993.2 785.77 1000.23L787.1 999.64L779.16 977.02L780.3 976.41C793.73 1009.41 811.52 1038.98 843.95 1056.73C824.05 1041.73 807.95 1023.48 796.95 1000.95L797.8 1000.11C799.133 1001.93 800.467 1003.76 801.8 1005.59C801.86 1005.45 801.92 1005.3 801.97 1005.16L787.76 973.34C788.91 973.17 789.26 973.34 789.46 973.63C790.46 975.11 791.46 976.63 792.46 978.12C801.61 991.94 811.79 1004.85 825.65 1014.32C831.32 1018.2 837.31 1021.55 844.3 1022.62C841.05 1019.69 837.57 1017.12 834.3 1014.29C812.05 994.97 794.35 972.15 782.44 945.14C779.034 937.69 776.646 929.816 775.34 921.73C773.62 909.82 773.6 897.67 772.64 885.65C772.03 877.91 771.08 870.22 764.35 864.8C763.778 864.351 763.302 863.792 762.948 863.157C762.594 862.522 762.371 861.823 762.29 861.1C762.46 855.8 759.07 852.83 755.64 849.74C752.81 847.19 750.7 844.29 750.49 840.21C750.3 836.49 747.77 834.42 744.75 832.51C742.1 830.83 740.02 828.26 737.52 826.3C736.309 825.324 734.877 824.658 733.35 824.36C729.89 823.82 726.35 823.95 722.9 823.29C708.81 820.58 695.36 821.6 682.9 829.49C678.9 832.04 674.82 834.49 670.14 837.49C669.72 830.3 668.36 823.8 671.79 817.3C674.761 811.954 677.193 806.327 679.05 800.5C682.66 788.24 683.23 775.5 683.66 762.8C683.82 758.1 683.9 753.3 684.92 748.8C687.01 739.55 689.79 730.47 692.13 721.28C693.13 717.28 693.37 713.15 694.59 709.28C696.13 704.37 698.48 699.72 700.17 694.85C703.99 683.85 707.98 672.85 711.17 661.69C713.93 652.12 715.72 642.28 717.96 632.56C718.117 631.998 718.328 631.452 718.59 630.93C720.67 626.36 723.53 621.93 720.46 617.21C725.58 610.88 726.91 603.67 727.46 596.49C728.46 595.94 730.1 595.62 730.46 594.76C731.88 591.47 732.87 587.99 734.09 584.6C735.09 581.84 735.85 578.91 737.32 576.41C738.95 573.66 741.44 571.41 743.25 568.77C748.25 561.45 757.03 556.99 759.25 547.6C759.378 547.26 759.58 546.953 759.84 546.7C765.04 540.6 770.18 534.45 775.49 528.45C776.49 527.32 777.72 526.1 779.8 527.53C785.38 531.37 791.15 534.94 796.8 538.62C800.1 540.74 803.16 543.62 806.8 544.77C811.23 546.22 813.45 549.25 815.46 552.85C821.64 563.9 825.77 564.34 837.46 562.57C839.22 562.3 841.46 561.33 842.36 559.95C844.95 555.84 847.78 551.59 848.98 546.95C850.26 542.03 849.98 536.66 849.98 531.49C849.98 521.59 847.29 512.49 841.18 504.49C840.74 503.923 840.358 503.313 840.04 502.67C836.79 496.26 833.65 489.79 830.3 483.44C824.4 472.28 818.38 461.18 812.42 450.05C810.9 447.21 801.36 439.85 798.25 439.28C794.25 438.55 790.65 439.28 787.63 442.37C781.43 448.76 775.1 455.03 768.83 461.37C764.33 465.9 759.83 470.37 757.83 476.79C757.383 477.781 756.728 478.664 755.91 479.38C754.05 481.38 752.18 483.38 750.2 485.26C749.7 485.74 748.49 486.26 748.11 485.97C743.19 482.62 737.49 482.47 731.92 481.41C723.46 479.81 716.86 482.05 711.28 488.46C709.316 490.891 706.885 492.904 704.13 494.38C700.692 495.85 697.889 498.494 696.22 501.84C691.88 510.66 685.32 517.43 677.63 523.52C666.75 532.14 655.63 540.68 646 550.62C631 566.1 617.26 582.8 602.82 598.82C596.94 605.34 590.47 611.04 582.02 614.45C575.17 617.34 568.573 620.799 562.3 624.79C548.3 633.38 537.07 645.06 526.6 657.45C519.6 665.75 511.6 671.68 500.8 674.45C495.23 675.86 490.05 679.09 484.94 681.93C479.83 684.77 474.53 687.02 468.28 686.82C458.06 686.49 448.22 684.18 438.35 682C436.12 681.51 434.07 680.19 431.7 679.15C437.02 676.75 441.47 674.7 445.96 672.74C447.155 672.185 448.415 671.782 449.71 671.54C454.58 670.76 459.5 670.34 463.61 667.02C464.35 666.42 466.77 666.54 467.23 667.19C469.5 670.34 471.78 670.52 475.6 669.62C487.6 666.8 499.7 664.82 511.77 662.47C515.5 661.75 516.44 659.47 514.57 656.12C514.044 655.32 513.646 654.443 513.39 653.52C511.18 642.31 506.65 632.01 501.21 622.05C495.11 610.91 488.98 599.79 482.97 588.6C477.86 579.11 471.77 570.45 463.68 563.18C460.84 560.62 458.75 560.85 455.96 562.86C449.28 567.68 448.65 570.28 452.39 577.68C453.214 579.283 453.671 581.049 453.73 582.85C453.87 593.85 453.57 604.85 450.98 615.6C450.34 618.23 449.34 620.77 448.5 623.34L446.88 623.6C445.6 621.12 444.29 618.65 443.03 616.15C440.33 610.77 438.1 608.15 433.03 610.95C427.19 614.18 421.24 614.62 414.83 613.81C411.6 613.492 408.342 613.63 405.15 614.22C401.15 614.85 397.35 616.65 393.42 616.77C388.261 616.893 383.14 617.676 378.18 619.1C370.47 621.36 362.49 622.68 354.75 624.86C349.029 626.36 343.086 626.83 337.2 626.25C331.2 625.82 324.9 624.08 319.28 628.11C318.846 628.324 318.354 628.387 317.88 628.29C306.01 626.57 294.75 628.37 284.39 634.53C279.9 637.2 274.47 639.44 271.54 643.41C263.79 653.91 263.05 665.74 269.03 677.51C270.62 680.63 273.27 683.25 275.64 685.92C282.08 693.17 288.64 700.32 295.16 707.5C295.588 707.907 296.077 708.245 296.61 708.5C299.49 710.06 302.61 711.28 305.23 713.22C310.03 716.79 314.42 720.9 319.16 724.56C324.09 728.37 329.85 731.29 334.16 735.69C341.278 742.811 349.205 749.074 357.78 754.35C364.29 758.48 369.98 763.27 371.61 771.48C372.01 773.48 373.38 775.41 374.61 777.2C377.12 781 379.85 784.65 382.38 788.43C386.57 794.67 391.08 795.83 398.14 792.86C400.14 792.03 402.56 792.08 404.79 792.05C407.206 792.025 409.618 792.216 412 792.62C413.16 792.82 415 793.51 415.17 794.28C416.63 800.82 421.71 802.28 427.17 802.71C432.63 803.14 435.76 806.86 437.75 810.4C441.6 817.23 446.65 822.87 451.9 828.4C455.39 832.11 459.16 835.55 462.8 839.11C462.86 838.64 462.91 838.17 462.96 837.71H463.02C463.78 843.87 468.15 849.5 476.17 849.5C476.802 849.496 477.433 849.456 478.06 849.38C477.898 849.804 477.669 850.2 477.38 850.55C476.01 852.22 476.58 853.42 477.68 855.02C480.26 858.78 482.55 862.74 484.93 866.63C493.77 881.07 502.46 895.63 511.48 909.92C515.07 915.62 519.3 920.92 525.48 924.15C528.88 925.94 532.08 928.09 535.43 929.97C542.54 933.97 549.55 938.15 557.73 939.84C564.68 941.27 571.56 943.03 578.48 944.64C578.93 944.74 579.48 945 579.84 944.82C584.55 942.08 586.34 947.01 589.37 948.63L584.13 946.01C587.718 949.2 591.531 952.128 595.54 954.77C602.191 959.316 607.121 965.965 609.54 973.65C610.82 977.54 610.15 982.16 609.92 986.43C609.43 995.43 608.57 1004.48 608.06 1013.52C607.93 1015.9 608.62 1018.31 608.73 1020.72C609.08 1028.53 609.45 1036.34 609.59 1044.16C609.7 1050.16 609.39 1056.25 609.4 1062.29C609.4 1067.83 609.57 1073.37 609.72 1078.91C609.88 1085.06 609.72 1091.24 610.39 1097.34C611.17 1104.64 612.93 1111.84 613.78 1119.14C615.52 1134.14 617.02 1149.14 618.46 1164.21C619.93 1179.69 621.16 1195.21 622.62 1210.68C622.85 1213.14 623.06 1216.04 624.45 1217.84C626.227 1219.95 627.148 1222.65 627.03 1225.4C626.96 1227.8 627.83 1229.63 630.56 1230.01C637.14 1230.93 643.71 1231.88 650.29 1232.81C650.532 1232.81 650.773 1232.78 651.01 1232.73C656.01 1232.38 661.01 1231.73 665.94 1231.73C672.31 1231.81 678.67 1232.88 685.03 1232.83C694.03 1232.75 703.03 1232.12 712.03 1231.57C715.18 1231.38 716.43 1229.11 716.95 1225.78C714.678 1225.52 712.424 1225.12 710.2 1224.58C700.63 1221.73 691.2 1218.45 680.96 1218.58C678.96 1218.58 676.96 1217.74 674.96 1217.33C672.96 1216.92 670.96 1216.59 668.96 1216.2C661.87 1214.83 654.43 1214.61 650.65 1206.44C648.65 1202.1 646.65 1197.98 647.23 1193.18C647.82 1187.9 648.98 1182.69 649.45 1177.4C651.11 1158.73 652.647 1140.07 654.06 1121.4C654.233 1119.51 653.855 1117.6 652.97 1115.92C651.29 1113.16 650.5 1111.32 655.11 1111.4C654.01 1106.05 657.91 1099.81 650 1096.14C654.64 1094.98 654.67 1092.61 653.93 1089.23C652.13 1081.02 650.2 1072.75 649.58 1064.41C648.86 1054.67 649.47 1044.84 649.5 1035.05V1024.71L650.9 1024.11C652.52 1026.11 654.29 1028.05 655.7 1030.2C657.46 1032.89 658.4 1036.36 660.65 1038.46C664.82 1042.34 669.78 1045.35 674.22 1048.98C675.754 1050.42 677.032 1052.11 678 1053.98C680 1057.23 681.49 1060.78 683.64 1063.9C685.92 1067.2 688.71 1070.14 691.27 1073.22C686.96 1077.22 686.58 1082 690.58 1084.29C683.58 1088.85 686.88 1094.95 687.99 1100.83C691.15 1092.83 693.99 1084.66 702.57 1080.17C701 1093.35 705.24 1104.81 709.99 1116.94C710.324 1116.21 710.595 1115.45 710.8 1114.68C711.1 1112.19 710.74 1109.39 711.8 1107.26C713.237 1104.52 715.197 1102.09 717.57 1100.11C718.3 1099.47 720.57 1100.63 722.11 1100.86C723.294 1101.13 724.514 1101.19 725.72 1101.06C732 1099.82 735.45 1103.27 737.97 1108.28C739.66 1111.61 741.24 1115 742.87 1118.36C743.93 1112.03 740.46 1106.74 739.15 1101.49C752.25 1095.49 758.8 1105.05 766.29 1112.64C765.74 1106.28 761.85 1101.64 759.18 1096.51C756.51 1091.38 753.63 1086.26 750.84 1081.15L751.98 1080.29C754.88 1083.37 757.98 1086.29 760.63 1089.58C763.323 1092.96 765.823 1096.48 768.12 1100.14C770.34 1103.6 772.27 1107.25 774.32 1110.81L775.08 1110.39L768.37 1094.33C776.73 1100.63 781.7 1109.45 787.14 1117.95C787.31 1110.95 784.47 1104.95 780.83 1099.47C777.19 1093.99 773.07 1088.94 768.83 1083.26C781.521 1090.49 794.977 1096.29 808.95 1100.55C797.02 1093.99 785.95 1086.48 776.72 1076.89L785.88 1074.61C779.43 1072.79 773.09 1071.79 767.47 1069.2C760.35 1065.93 756.22 1059.71 756.78 1054.83C757.562 1055.62 758.294 1056.46 758.97 1057.34C765.59 1063.86 774.12 1066.92 782.47 1070.34C790.37 1073.57 798.55 1075.57 805.69 1081.17C818.44 1091.17 833.98 1095.9 849.34 1100.56C850.629 1100.8 851.941 1100.89 853.25 1100.82C846.53 1096.26 840.36 1091.7 835.57 1084.19L844.84 1088.19C847.72 1089.31 850.45 1090.59 853.27 1091.65V1091.65ZM665.94 676.46C665.94 677.24 665.94 678.26 665.55 678.75C660.68 684.28 660.82 691.46 659.15 698.02C658.31 701.34 658.04 704.82 657.15 708.13C655.15 715.677 653.053 723.197 650.86 730.69C649.5 735.29 647.69 739.77 646.35 744.38C643.35 754.56 640.77 764.84 637.68 774.97C636.54 779.078 634.791 782.991 632.49 786.58C629.89 790.39 625.27 790.82 620.86 791.24C616.45 791.66 612.3 792.61 608 793.13C606.779 793.106 605.569 792.883 604.42 792.47C602.36 792 600.34 791.36 598.26 791.03C593.451 790.111 588.598 789.443 583.72 789.03C577.11 788.69 573.07 785.03 572.91 778.36C572.83 774.74 572.77 771.11 572.68 767.49C572.6 764.3 573.38 761.49 576.19 759.6C579.44 757.4 580.32 754.38 580.08 750.53C579.97 748.76 581.41 746.92 582.03 745.07C582.72 743.02 583.92 740.89 583.79 738.87C583.41 733.22 583.57 728.03 588.79 724.36C591.023 722.951 593.044 721.231 594.79 719.25C596.57 717 597.64 714.19 598.99 711.6C601.4 706.99 603.17 701.87 606.35 697.88C611.35 691.54 617.5 686.06 622.89 679.97C624.56 678.08 625.05 675.17 626.63 673.15C631 667.56 634.9 661.36 641.63 658.21C645.76 656.28 650.27 655.13 654.28 653C660.44 649.75 666.1 645.51 672.39 642.58C675.39 641.2 678.67 638.81 683.01 639.93C680.27 643.49 677.82 646.51 675.57 649.68C673.96 651.95 673.07 654.44 675.85 657.33C672.06 657.44 670.8 659.57 669.46 662.33C667.88 665.56 668.19 667.74 671.66 670.17L666 671.49C666 673 666 674.74 665.94 676.46V676.46Z" fill="#FF9D1F"/>
<path d="M619.21 661C621.55 599.24 603.08 554.66 567.98 522.65C558.413 529.67 548.391 536.047 537.98 541.74C548.337 548.843 557.563 557.467 565.35 567.32H488C500 551.81 517.41 538.18 542.2 526.2C619.04 489.02 620.54 371.66 620.43 357.41H592.26C592.26 364.84 591.82 372.26 591.06 379.62H462.36C461.627 372.247 461.257 364.843 461.25 357.41H433.08C432.98 370.5 434.29 470.41 493.97 515.51C453 548 433.72 593.15 435.17 661H619.21ZM462.69 661C462.69 655.84 462.79 650.83 463.03 645.91H591.8C593.63 650.75 592.32 655.85 592.33 661H462.69ZM586.49 613.9C587.907 620.414 588.945 627.005 589.6 633.64H463.94C464.584 627.007 465.606 620.417 467 613.9H586.49ZM573.64 579.58C577.637 586.566 580.869 593.962 583.28 601.64H470.19C472.622 593.96 475.874 586.564 479.89 579.58H573.64ZM532.42 491.68C530.47 492.68 528.67 493.68 526.78 494.61C524.89 493.61 523.05 492.61 521.1 491.68C509.1 485.91 498.33 476.46 489.71 464.12H563.64C555.09 476.46 544.38 485.92 532.42 491.68ZM571.16 451.85H482.16C477.81 443.646 474.222 435.06 471.44 426.2H581.84C579.067 435.055 575.496 443.641 571.17 451.85H571.16ZM463.81 391.85H589.58C588.487 399.297 587.057 406.63 585.29 413.85H468C466.267 406.677 464.87 399.357 463.81 391.89V391.85Z" fill="white"/>
<path d="M591.69 645.91C592.676 653.276 592.753 660.735 591.92 668.12H463.92C463.19 660.75 462.75 653.34 462.74 645.91H591.69ZM435.22 645.91C433.12 678.67 435.85 758.91 495.53 804.01C454.53 836.54 435.53 882.22 435.36 949.5H464.18C464.18 944.34 464.35 939.33 464.59 934.41H592C592.25 939.32 593 944.35 593 949.5H619.88C619.88 881.91 604.54 843.16 569.43 811.15C559.865 818.172 549.843 824.55 539.43 830.24C549.789 837.344 559.019 845.967 566.81 855.82H489.51C501.51 840.31 518.93 826.68 543.71 814.7C620.56 777.52 620.45 672.07 619.21 645.91H435.22ZM588 902.4C589.416 908.915 590.455 915.506 591.11 922.14H465.44C466.092 915.508 467.117 908.917 468.51 902.4H588ZM575.15 868.08C579.147 875.066 582.379 882.462 584.79 890.14H471.69C474.121 882.458 477.376 875.061 481.4 868.08H575.15ZM533.93 780.18C531.98 781.18 530.17 782.18 528.29 783.11C526.4 782.11 524.56 781.11 522.61 780.18C510.61 774.41 499.84 764.96 491.22 752.62H565.15C556.6 765 545.88 774.42 533.93 780.18V780.18ZM572.66 740.35H483.66C479.313 732.145 475.728 723.559 472.95 714.7H583.35C580.57 723.554 576.995 732.139 572.67 740.35H572.66ZM465.32 680.35H591.09C589.997 687.803 588.567 695.137 586.8 702.35H469.55C467.79 695.177 466.38 687.857 465.32 680.39V680.35Z" fill="white"/>
<path d="M592.33 934.79C593.319 942.156 593.399 949.615 592.57 957H464.52C463.79 949.63 463.35 942.21 463.34 934.79H592.33ZM435.81 934.79C433.72 967.54 436.45 1047.79 496.13 1092.88C455.13 1125.42 436.83 1171.09 436.61 1238.37H464.78C464.78 1233.22 464.95 1228.21 465.19 1223.29H592.66C592.913 1228.2 593.043 1233.23 593.05 1238.37H621.23C621.02 1175.88 605.23 1132.03 570.13 1100.03C560.562 1107.05 550.541 1113.43 540.13 1119.12C550.488 1126.22 559.715 1134.84 567.5 1144.69H490.16C502.21 1129.19 519.58 1115.56 544.36 1103.57C621.21 1066.4 621.1 960.95 619.86 934.79H435.81ZM588.65 1191.28C590.067 1197.79 591.106 1204.39 591.76 1211.02H466.09C466.741 1204.39 467.766 1197.8 469.16 1191.28H588.65ZM575.79 1157C579.789 1163.96 583.024 1171.34 585.44 1179H472.34C474.776 1171.34 478.032 1163.96 482.05 1157H575.79ZM534.58 1069.1C532.58 1070.04 530.82 1071.1 528.94 1072.03C527.05 1071.03 525.21 1070.03 523.25 1069.1C511.25 1063.33 500.49 1053.88 491.87 1041.54H565.8C557.24 1053.84 546.53 1063.29 534.58 1069.06V1069.1ZM573.31 1029.27H484.31C479.963 1021.07 476.378 1012.48 473.6 1003.62H584C581.22 1012.47 577.645 1021.06 573.32 1029.27H573.31ZM465.97 969.27H591.74C590.653 976.73 589.223 984.063 587.45 991.27H470.19C468.443 984.063 467.047 976.727 466 969.26L465.97 969.27Z" fill="white"/>
<path d="M143.57 1218.9C142.26 1219.38 141.067 1220.13 140.07 1221.1C139.364 1221.87 138.427 1222.39 137.4 1222.59C136.894 1222.65 136.383 1222.54 135.95 1222.27C135.517 1222 135.189 1221.59 135.02 1221.11C134.59 1219.9 134.502 1218.59 134.765 1217.34C135.027 1216.08 135.631 1214.92 136.51 1213.98C137.613 1212.87 139.099 1212.24 140.66 1212.2C142.342 1212.17 144.017 1211.97 145.66 1211.61C146.97 1211.28 147.5 1210.21 146.85 1209.23C146.058 1207.82 145.558 1206.27 145.38 1204.67V1204.3C145.23 1202.77 144.43 1201.51 143.62 1201.51C142.429 1201.54 141.24 1201.64 140.06 1201.81C138.484 1202 136.898 1202.1 135.31 1202.11C133.84 1202.11 131.44 1202.24 129.97 1202.41C128.5 1202.58 126.22 1202.71 124.92 1202.71C123.415 1202.68 121.918 1202.48 120.46 1202.11C119.203 1201.71 118.136 1200.86 117.46 1199.73C116.786 1198.47 115.993 1197.28 115.09 1196.17C114.27 1195.17 114 1193.86 114.49 1193.17C114.98 1192.48 115.91 1191.17 116.57 1190.17C117.331 1188.76 117.736 1187.19 117.75 1185.59V1184.06C117.808 1182.22 118.163 1180.39 118.8 1178.66L119.09 1177.93C119.845 1176.29 121.026 1174.88 122.51 1173.85C123.142 1173.43 123.607 1172.79 123.826 1172.06C124.045 1171.34 124.004 1170.55 123.71 1169.85L122.49 1167.22C121.85 1165.82 120.81 1163.53 120.18 1162.13L114.74 1150.02C114.035 1148.31 113.567 1146.52 113.35 1144.68L112.67 1137.19C112.567 1135.35 112.784 1133.51 113.31 1131.75L113.91 1129.93C114.39 1128.47 115.59 1127.27 116.57 1127.27C117.55 1127.27 119 1128.34 119.82 1129.65L121.64 1132.65C122.639 1134.22 123.731 1135.74 124.91 1137.18L127.26 1140C128.26 1141.18 128.87 1140.9 128.63 1139.38L127.63 1133.05C127.4 1131.21 127.4 1129.35 127.63 1127.51L128.02 1124.75C128.371 1123.03 129.361 1121.51 130.79 1120.5C131.477 1120.1 132.265 1119.92 133.056 1119.98C133.846 1120.03 134.603 1120.32 135.23 1120.8C136.588 1122.02 137.778 1123.42 138.77 1124.96L140.59 1127.96C141.49 1129.55 142.058 1131.31 142.26 1133.13L143.04 1144.13C143.158 1145.99 143.182 1147.85 143.11 1149.71L142.78 1157.19C142.7 1158.72 142.64 1161.19 142.64 1162.78V1166.08C142.619 1166.41 142.682 1166.74 142.822 1167.05C142.962 1167.35 143.176 1167.61 143.443 1167.81C143.71 1168.01 144.023 1168.14 144.352 1168.18C144.682 1168.23 145.018 1168.2 145.33 1168.08L145.91 1167.9C147.683 1167.44 149.532 1167.36 151.34 1167.65L151.78 1167.73C153.591 1168.13 155.352 1168.74 157.03 1169.53L159.13 1170.59C160.51 1171.28 162.7 1172.52 164 1173.34L165.81 1174.49C166.548 1174.9 167.371 1175.14 168.216 1175.19C169.06 1175.23 169.904 1175.08 170.68 1174.74L177.53 1171.32C179.206 1170.51 180.929 1169.8 182.69 1169.19L191.69 1166.19C193.463 1165.64 195.285 1165.27 197.13 1165.07L205.22 1164.37C207.066 1164.26 208.919 1164.39 210.73 1164.77L217.73 1166.44C219.52 1166.92 221.244 1167.62 222.86 1168.53L232.86 1174.53C234.44 1175.51 235.938 1176.62 237.34 1177.84L239.12 1179.44C240.374 1180.52 241.934 1181.17 243.58 1181.31C245.236 1181.18 246.821 1180.58 248.15 1179.58L252.06 1176.51C253.27 1175.51 255.15 1173.89 256.24 1172.81L267.73 1161.33C269.032 1160 270.254 1158.59 271.39 1157.11C271.39 1157.11 275.04 1152.22 283.39 1151.64C291.74 1151.06 297.84 1150.22 297.84 1150.22C299.681 1150.02 301.539 1150.02 303.38 1150.22L311.49 1151.28C313.318 1151.57 315.101 1152.09 316.79 1152.85L326.57 1157.54C327.97 1158.21 330.17 1159.43 331.47 1160.25L338.01 1164.38C339.31 1165.21 341.52 1166.38 342.91 1167.09L351.5 1171.2C352.89 1171.87 353.76 1172.68 353.43 1173H359.36C365.3 1173 385.67 1171.44 385.67 1171.44C387.524 1171.31 389.386 1171.31 391.24 1171.44C391.24 1171.44 402.11 1172.38 406.24 1175.93C409.491 1178.5 413.024 1180.7 416.77 1182.48C418.17 1183.13 418.09 1183.97 416.59 1184.34L410.2 1186C408.71 1186.37 406.28 1187 404.81 1187.51C404.81 1187.51 397.97 1189.64 396.21 1189.64C394.45 1189.64 386.12 1191.42 381.37 1189.05C376.62 1186.68 357.62 1178.36 355.83 1178.36C354.04 1178.36 331.61 1166.6 331.61 1166.6L326.61 1164.02L315.55 1158.29C313.889 1157.5 312.108 1156.98 310.28 1156.77L301.6 1156.04C299.752 1155.93 297.897 1156.03 296.07 1156.33L289.07 1157.66C287.248 1158.04 285.46 1158.57 283.72 1159.23L277.05 1161.9C275.347 1162.63 273.744 1163.57 272.28 1164.71L266.52 1169.46C265.107 1170.67 263.808 1172.01 262.64 1173.46L257.77 1179.73C256.586 1181.17 255.244 1182.48 253.77 1183.62L251.1 1185.62C249.748 1186.59 248.157 1187.17 246.5 1187.3C245.871 1187.3 245.269 1187.55 244.824 1187.99C244.38 1188.44 244.13 1189.04 244.13 1189.67C244.13 1190.97 244.23 1193.29 244.35 1194.83C244.35 1194.83 244.71 1199.16 244.71 1200.94C244.71 1202.72 240.58 1205.1 245.9 1205.1C249.419 1204.98 252.861 1204.04 255.95 1202.35C257.28 1201.57 259.41 1200.24 260.69 1199.35L264.93 1196.53C266.21 1195.67 268.28 1194.24 269.54 1193.35L273.31 1190.66C274.846 1189.64 276.533 1188.86 278.31 1188.36C279.571 1188.07 280.884 1188.1 282.13 1188.45C283.9 1189.04 288.66 1190.83 292.81 1192.6C296.96 1194.37 302.3 1196.17 305.86 1197.35C309.42 1198.53 311.8 1202.1 314.18 1202.1C316.56 1202.1 318.93 1203.29 318.93 1200.91C318.868 1200.08 318.902 1199.24 319.03 1198.41C319.582 1197.75 320.263 1197.21 321.032 1196.83C321.801 1196.44 322.641 1196.22 323.5 1196.17C323.5 1196.17 325.5 1196.17 328.43 1199.17L331.43 1202.17C331.298 1203.83 330.702 1205.42 329.71 1206.75L328.99 1207.68C327.947 1208.95 326.506 1209.83 324.9 1210.18C323.59 1210.35 321.28 1210.67 319.76 1210.91L317.56 1211.24C315.77 1211.43 313.965 1211.1 312.35 1210.31L305.35 1206.49C304 1205.74 301.87 1204.42 300.6 1203.55L297.49 1201.39C296.073 1200.45 294.481 1199.81 292.81 1199.5C291.203 1199.37 289.586 1199.57 288.06 1200.09C286.76 1200.58 286.36 1201.25 287.17 1201.57C288.505 1202.17 289.807 1202.83 291.07 1203.57L293.36 1204.91C294.93 1205.89 296.357 1207.08 297.6 1208.45L304.6 1216.66C305.847 1218.01 307.31 1219.15 308.93 1220.03C311.187 1221.17 313.527 1222.15 315.93 1222.94C318.31 1223.54 326.8 1224.42 326.8 1224.42C328.644 1224.63 330.472 1224.96 332.27 1225.42L333.41 1225.73C334.982 1226.17 336.488 1226.82 337.89 1227.66C338.446 1228.14 338.893 1228.73 339.2 1229.39C339.507 1230.06 339.668 1230.78 339.67 1231.51C339.558 1233.23 338.809 1234.84 337.57 1236.03L337.04 1236.5C335.646 1237.59 333.907 1238.14 332.14 1238.06L325.85 1237.43C324.026 1237.18 322.261 1236.6 320.64 1235.73L315.38 1232.63C313.812 1231.65 312.394 1230.45 311.17 1229.06L305.85 1222.68C304.635 1221.28 303.262 1220.03 301.76 1218.94L296.86 1215.58C295.327 1214.6 293.635 1213.89 291.86 1213.49L290.86 1213.31C289.025 1213.01 287.17 1212.84 285.31 1212.81H278.45C276.615 1212.88 274.811 1213.31 273.14 1214.07L269.82 1215.72C268.45 1216.41 266.24 1217.62 264.92 1218.41L260.83 1220.87C259.51 1221.66 257.4 1223.04 256.15 1223.93L252.4 1226.62C250.872 1227.62 249.132 1228.24 247.32 1228.45L244.59 1228.65C243.05 1228.76 240.59 1228.85 239 1228.85H236.31C234.479 1228.78 232.682 1228.33 231.03 1227.54L225.88 1224.82C224.25 1223.92 222.698 1222.89 221.24 1221.73C221.24 1221.73 216.88 1218.16 215.1 1217.56C213.32 1216.96 207.51 1214.07 207.51 1214.07C206.796 1213.66 206.195 1213.08 205.759 1212.38C205.323 1211.69 205.065 1210.89 205.01 1210.07C205.01 1210.07 205.01 1208.07 202.63 1210.49C200.25 1212.91 199.49 1212.86 199.49 1212.86C197.95 1212.86 195.49 1212.96 193.9 1213.08L191.76 1213.24C189.904 1213.35 188.043 1213.33 186.19 1213.18H185.83C183.984 1212.96 182.163 1212.58 180.39 1212.02L178.57 1211.42C177.063 1210.89 175.803 1209.82 175.03 1208.42C174.53 1207.27 173.33 1207.27 172.36 1208.42C171.127 1209.71 169.563 1210.63 167.84 1211.08L165 1211.69C163.49 1212.01 161.33 1212.54 160.19 1212.86C159.05 1213.18 156.93 1213.86 155.48 1214.41L154.22 1214.88C152.77 1215.4 150.41 1216.29 148.98 1216.88L143.57 1218.9Z" fill="#FBB03B"/>
<path d="M431.59 1047.7C430.16 1046.21 428.14 1043.96 427.08 1042.7C426.02 1041.44 426.72 1041.01 428.62 1041.78L433.23 1043.63C435.14 1044.4 435.58 1043.98 434.23 1042.7C432.434 1041.16 430.439 1039.88 428.3 1038.87L424.74 1037.3C422.498 1036.24 420.368 1034.96 418.38 1033.48C418.38 1033.48 409 1026.12 409 1025C409 1023.88 410.92 1019.21 410.92 1017.29C410.92 1015.37 415.54 1008.06 416.31 1006.91C417.08 1005.76 418.14 1001.28 418.14 1001.28C418.675 998.851 419.045 996.389 419.25 993.91C419.2 991.948 418.585 990.042 417.48 988.42C415.54 985.34 408.24 988.03 407.07 988.03C405.9 988.03 383.6 989.19 378.97 986.51C374.34 983.83 377.04 982.27 376.66 979.51C376.28 976.75 378.22 971.81 378.97 969.51C379.638 967.714 380.443 965.972 381.38 964.3C382.38 962.51 383.92 959.51 384.77 957.65C384.77 957.65 389 948.35 390.15 946.82C391.3 945.29 392.83 936.41 392.83 933.72C392.83 931.03 393.92 922.03 393.92 922.03C394.256 919.565 394.733 917.121 395.35 914.71L397.25 907.71C397.982 905.394 399.246 903.281 400.94 901.54L402.43 900.12C404.209 898.384 405.841 896.505 407.31 894.5L411.47 888.66C412.874 886.61 414.114 884.454 415.18 882.21C415.18 882.21 422.09 867.15 422.85 865.21C423.61 863.27 427.47 847.11 427.47 845.21V843.29C427.26 842.44 425.47 842.29 423.57 843C423.57 843 405.57 849.46 402.46 851C399.35 852.54 382.3 861.24 382.3 861.24C380.47 862.16 377.55 863.83 375.81 864.92L355.96 877.49C353.864 878.846 351.859 880.339 349.96 881.96C349.96 881.96 339.68 891.03 338.15 892.96C336.62 894.89 337.75 919.14 337.75 920.3C337.75 921.46 335.44 929.54 334.29 931.09C333.14 932.64 330.05 938.02 328.9 938.77C328.173 939.275 327.549 939.913 327.06 940.65C325.95 942.38 324.53 944.75 323.9 945.91C323.27 947.07 321.05 948.02 319 948.02H304.65C304.233 945.921 303.235 943.98 301.77 942.42C300.176 940.888 298.367 939.598 296.4 938.59C294.286 937.746 292.036 937.292 289.76 937.25H284.26C283.478 937.191 282.699 937.399 282.05 937.84C280.167 939.47 278.183 940.98 276.11 942.36C276.11 942.36 273.86 943.8 272.71 943.8C270.652 944.176 268.624 944.697 266.64 945.36C264.263 946.06 261.82 946.509 259.35 946.7L225.62 948.59C223.62 948.71 223.62 948.84 225.62 948.88L269.35 949.88C271.82 949.993 274.266 950.416 276.63 951.14L278.77 951.84C281.116 952.674 283.399 953.677 285.6 954.84L287.51 955.84C289.302 956.816 290.877 958.147 292.14 959.75L295.22 964.56C296.17 966.04 297.85 968.67 298.95 970.41L300.34 972.59C301.488 974.418 302.418 976.375 303.11 978.42C303.524 980.511 303.479 982.667 302.98 984.74L302.48 986.74C301.797 989.096 300.703 991.314 299.25 993.29L298.11 994.73C296.537 996.648 294.79 998.415 292.89 1000.01L284.46 1006.87L278.65 1011.57C278.65 1011.57 267.31 1020.78 266.17 1021.16C265.03 1021.54 264.73 1022.05 264.73 1022.05C263.664 1024.3 262.804 1026.64 262.16 1029.05L262.05 1029.49C261.55 1031.49 260.61 1034.71 259.96 1036.66C259.96 1036.66 258.08 1042.37 257.68 1043.52C257.28 1044.67 252.85 1061.85 252.85 1061.85C252.33 1063.85 251.58 1067.12 251.17 1069.14L246.09 1094.5C245.656 1096.94 245.455 1099.42 245.49 1101.9L246.76 1136.03C246.84 1138.03 248.12 1139.93 249.61 1140.13H252.68C255.76 1140.13 255.76 1138.2 256.91 1137.45C258.06 1136.7 273.85 1120.9 275.01 1119.35C276.17 1117.8 286.57 1102.8 287.72 1102.42C288.87 1102.04 298.44 1081.54 298.44 1081.54C299.31 1079.68 300.73 1076.63 301.59 1074.77L305.02 1067.31C306.112 1065.08 307.454 1062.98 309.02 1061.06C309.02 1061.06 318.91 1049.3 319.7 1047.76C320.49 1046.22 326.87 1042.36 326.87 1042.36C328.984 1041.04 331.008 1039.58 332.93 1038L340.32 1031.71C342.162 1030.06 343.764 1028.16 345.08 1026.07L350.88 1016.32C351.889 1014.66 352.663 1012.87 353.18 1011C353.4 1009.83 355.18 1009.45 357.1 1010.14L359.69 1011.07C360.703 1011.49 361.582 1012.17 362.233 1013.06C362.883 1013.94 363.28 1014.98 363.38 1016.07V1016.32C363.566 1018.78 364.115 1021.2 365.01 1023.5L365.19 1023.91C365.99 1025.81 367.38 1028.91 368.27 1030.72L370.79 1035.92C371.883 1038.16 373.03 1040.37 374.23 1042.56L376.39 1046.43C377.39 1048.23 379.39 1049.53 380.89 1049.32C382.97 1048.88 384.966 1048.11 386.8 1047.03L388.8 1045.81C390.875 1044.49 392.714 1042.84 394.24 1040.91L397.49 1036.53C398.114 1035.73 399.006 1035.17 400.004 1034.97C401.002 1034.76 402.04 1034.92 402.93 1035.42L403.04 1035.48C404.766 1036.49 406.364 1037.71 407.8 1039.11C409.22 1040.53 410.793 1041.79 412.49 1042.86L414.65 1044.22C416.37 1045.32 419.01 1047.17 420.5 1048.34C421.99 1049.51 424.41 1051.34 425.89 1052.34C427.37 1053.34 428.89 1053.48 429.36 1052.53C429.83 1051.58 431.69 1051.41 433.59 1052.15C435.49 1052.89 435.9 1052.28 434.47 1050.79L431.59 1047.7ZM419.1 1040.19C418.1 1039.87 416.3 1039.19 415.1 1038.64C413.9 1038.09 412.1 1037.37 411.1 1037C409.594 1036.43 408.142 1035.73 406.76 1034.9C405.533 1034.18 404.404 1033.31 403.4 1032.3C402.858 1031.62 402.584 1030.77 402.63 1029.9C402.74 1029.21 403.95 1028.81 405.33 1029.03C407.308 1029.54 409.151 1030.47 410.73 1031.77L416.49 1036.48C417.791 1037.5 419.014 1038.62 420.15 1039.82C420.58 1040.35 420.1 1040.51 419.1 1040.19ZM424.28 1046.35C423.253 1045.94 422.308 1045.35 421.49 1044.61C420.64 1043.87 420.43 1043.26 421.01 1043.26C421.808 1043.31 422.591 1043.51 423.32 1043.84C424.067 1044.22 424.673 1044.82 425.05 1045.57C425.32 1046.21 425 1046.56 424.28 1046.35Z" fill="#4AFF91"/>
<path d="M431.59 1047.7C430.16 1046.21 428.14 1043.96 427.08 1042.7C426.02 1041.44 426.72 1041.01 428.62 1041.78L433.23 1043.63C435.14 1044.4 435.58 1043.98 434.23 1042.7C432.434 1041.16 430.439 1039.88 428.3 1038.87L424.74 1037.3C422.498 1036.24 420.368 1034.96 418.38 1033.48C418.38 1033.48 409 1026.12 409 1025C409 1023.88 410.92 1019.21 410.92 1017.29C410.92 1015.37 415.54 1008.06 416.31 1006.91C417.08 1005.76 418.14 1001.28 418.14 1001.28C418.675 998.851 419.045 996.389 419.25 993.91C419.2 991.948 418.585 990.042 417.48 988.42C415.54 985.34 408.24 988.03 407.07 988.03C405.9 988.03 383.6 989.19 378.97 986.51C374.34 983.83 377.04 982.27 376.66 979.51C376.28 976.75 378.22 971.81 378.97 969.51C379.638 967.714 380.443 965.972 381.38 964.3C382.38 962.51 383.92 959.51 384.77 957.65C384.77 957.65 389 948.35 390.15 946.82C391.3 945.29 392.83 936.41 392.83 933.72C392.83 931.03 393.92 922.03 393.92 922.03C394.256 919.565 394.733 917.121 395.35 914.71L397.25 907.71C397.982 905.394 399.246 903.281 400.94 901.54L402.43 900.12C404.209 898.384 405.841 896.505 407.31 894.5L411.47 888.66C412.874 886.61 414.114 884.454 415.18 882.21C415.18 882.21 422.09 867.15 422.85 865.21C423.61 863.27 427.47 847.11 427.47 845.21V843.29C427.26 842.44 425.47 842.29 423.57 843C423.57 843 405.57 849.46 402.46 851C399.35 852.54 382.3 861.24 382.3 861.24C380.47 862.16 377.55 863.83 375.81 864.92L355.96 877.49C353.864 878.846 351.859 880.339 349.96 881.96C349.96 881.96 339.68 891.03 338.15 892.96C336.62 894.89 337.75 919.14 337.75 920.3C337.75 921.46 335.44 929.54 334.29 931.09C333.14 932.64 330.05 938.02 328.9 938.77C328.173 939.275 327.549 939.913 327.06 940.65C325.95 942.38 324.53 944.75 323.9 945.91C323.27 947.07 321.05 948.02 319 948.02H304.65C304.233 945.921 303.235 943.98 301.77 942.42C300.176 940.888 298.367 939.598 296.4 938.59C294.286 937.746 292.036 937.292 289.76 937.25H284.26C283.478 937.191 282.699 937.399 282.05 937.84C280.167 939.47 278.183 940.98 276.11 942.36C276.11 942.36 273.86 943.8 272.71 943.8C270.652 944.176 268.624 944.697 266.64 945.36C264.263 946.06 261.82 946.509 259.35 946.7L225.62 948.59C223.62 948.71 223.62 948.84 225.62 948.88L269.35 949.88C271.82 949.993 274.266 950.416 276.63 951.14L278.77 951.84C281.116 952.674 283.399 953.677 285.6 954.84L287.51 955.84C289.302 956.816 290.877 958.147 292.14 959.75L295.22 964.56C296.17 966.04 297.85 968.67 298.95 970.41L300.34 972.59C301.488 974.418 302.418 976.375 303.11 978.42C303.524 980.511 303.479 982.667 302.98 984.74L302.48 986.74C301.797 989.096 300.703 991.314 299.25 993.29L298.11 994.73C296.537 996.648 294.79 998.415 292.89 1000.01L284.46 1006.87L278.65 1011.57C278.65 1011.57 267.31 1020.78 266.17 1021.16C265.03 1021.54 264.73 1022.05 264.73 1022.05C263.664 1024.3 262.804 1026.64 262.16 1029.05L262.05 1029.49C261.55 1031.49 260.61 1034.71 259.96 1036.66C259.96 1036.66 258.08 1042.37 257.68 1043.52C257.28 1044.67 252.85 1061.85 252.85 1061.85C252.33 1063.85 251.58 1067.12 251.17 1069.14L246.09 1094.5C245.656 1096.94 245.455 1099.42 245.49 1101.9L246.76 1136.03C246.84 1138.03 248.12 1139.93 249.61 1140.13H252.68C255.76 1140.13 255.76 1138.2 256.91 1137.45C258.06 1136.7 273.85 1120.9 275.01 1119.35C276.17 1117.8 286.57 1102.8 287.72 1102.42C288.87 1102.04 298.44 1081.54 298.44 1081.54C299.31 1079.68 300.73 1076.63 301.59 1074.77L305.02 1067.31C306.112 1065.08 307.454 1062.98 309.02 1061.06C309.02 1061.06 318.91 1049.3 319.7 1047.76C320.49 1046.22 326.87 1042.36 326.87 1042.36C328.984 1041.04 331.008 1039.58 332.93 1038L340.32 1031.71C342.162 1030.06 343.764 1028.16 345.08 1026.07L350.88 1016.32C351.889 1014.66 352.663 1012.87 353.18 1011C353.4 1009.83 355.18 1009.45 357.1 1010.14L359.69 1011.07C360.703 1011.49 361.582 1012.17 362.233 1013.06C362.883 1013.94 363.28 1014.98 363.38 1016.07V1016.32C363.566 1018.78 364.115 1021.2 365.01 1023.5L365.19 1023.91C365.99 1025.81 367.38 1028.91 368.27 1030.72L370.79 1035.92C371.883 1038.16 373.03 1040.37 374.23 1042.56L376.39 1046.43C377.39 1048.23 379.39 1049.53 380.89 1049.32C382.97 1048.88 384.966 1048.11 386.8 1047.03L388.8 1045.81C390.875 1044.49 392.714 1042.84 394.24 1040.91L397.49 1036.53C398.114 1035.73 399.006 1035.17 400.004 1034.97C401.002 1034.76 402.04 1034.92 402.93 1035.42L403.04 1035.48C404.766 1036.49 406.364 1037.71 407.8 1039.11C409.22 1040.53 410.793 1041.79 412.49 1042.86L414.65 1044.22C416.37 1045.32 419.01 1047.17 420.5 1048.34C421.99 1049.51 424.41 1051.34 425.89 1052.34C427.37 1053.34 428.89 1053.48 429.36 1052.53C429.83 1051.58 431.69 1051.41 433.59 1052.15C435.49 1052.89 435.9 1052.28 434.47 1050.79L431.59 1047.7ZM419.1 1040.19C418.1 1039.87 416.3 1039.19 415.1 1038.64C413.9 1038.09 412.1 1037.37 411.1 1037C409.594 1036.43 408.142 1035.73 406.76 1034.9C405.533 1034.18 404.404 1033.31 403.4 1032.3C402.858 1031.62 402.584 1030.77 402.63 1029.9C402.74 1029.21 403.95 1028.81 405.33 1029.03C407.308 1029.54 409.151 1030.47 410.73 1031.77L416.49 1036.48C417.791 1037.5 419.014 1038.62 420.15 1039.82C420.58 1040.35 420.1 1040.51 419.1 1040.19ZM424.28 1046.35C423.253 1045.94 422.308 1045.35 421.49 1044.61C420.64 1043.87 420.43 1043.26 421.01 1043.26C421.808 1043.31 422.591 1043.51 423.32 1043.84C424.067 1044.22 424.673 1044.82 425.05 1045.57C425.32 1046.21 425 1046.56 424.28 1046.35Z" fill="#4AFF91"/>
<path d="M315.47 330.76C312.35 332.14 311.6 331.15 313.82 328.54L319.99 321.24C322.624 318.041 325.085 314.703 327.36 311.24L333.53 301.7C335.38 298.83 338.26 294.05 339.94 291.08L344.79 282.53C346.47 279.53 349.07 274.61 350.56 271.53L357.39 257.53C358.89 254.44 361.19 249.36 362.5 246.21L369.33 230C370.64 226.86 372.44 222 373.33 219.14C374.262 216.19 375.559 213.369 377.19 210.74C378.43 208.97 380.76 206.07 382.35 204.3C384.102 202.386 386.045 200.657 388.15 199.14C390.436 197.871 392.965 197.101 395.57 196.88C398.06 196.71 402.88 196.56 406.3 196.56H414.49C418.621 196.494 422.74 196.106 426.81 195.4L428.17 195.15C431.52 194.51 435.3 193.26 436.53 192.36C437.76 191.46 437.63 188.27 436.21 185.26C434.506 181.547 433.004 177.745 431.71 173.87L428.44 163.78C427.229 159.83 426.28 155.805 425.6 151.73L424.26 142.73C423.729 138.648 423.642 134.521 424 130.42L425.86 113.11C426.356 109.146 427.23 105.238 428.47 101.44C429.949 97.7771 432.099 94.4229 434.81 91.55L436.98 89.38C439.4 86.96 443.28 82.96 445.63 80.47L447.43 78.54C449.95 75.8364 452.235 72.9225 454.26 69.83C455.694 67.4535 456.677 64.833 457.16 62.1C457.212 59.5336 456.657 56.9912 455.54 54.68C453.774 51.6937 451.584 48.9789 449.04 46.62L402.72 4.05002C400.21 1.74002 399.6 0.0500124 401.37 0.170012C403.14 0.290012 407.05 1.83002 410.06 3.47002L430.06 14.31C433.06 15.94 437.96 18.66 440.92 20.31L443.68 21.89C447.046 23.7098 450.77 24.7713 454.59 25C457.59 25 461.81 25.15 463.94 25.32C466.617 25.6668 469.222 26.4328 471.66 27.59C474.363 29.0831 476.858 30.9256 479.08 33.07C481.187 35.2465 482.93 37.7486 484.24 40.48C485.26 43.2663 485.808 46.2033 485.86 49.17C485.73 52.4772 485.082 55.7436 483.94 58.85C482.351 62.2533 480.108 65.3112 477.34 67.85L475.69 69.31C473.13 71.57 469.17 75.5 466.9 78.04L464.21 81.04C461.514 84.1732 459.073 87.5173 456.91 91.04L454.85 94.52C452.868 98.1044 451.429 101.963 450.58 105.97L450.23 107.97C449.581 112.032 449.37 116.153 449.6 120.26L449.89 124.03C450.341 128.094 451.445 132.058 453.16 135.77L453.42 136.26C455.344 139.901 457.753 143.265 460.58 146.26L460.85 146.52C463.826 149.322 467.229 151.634 470.93 153.37L474.36 154.86C477.816 156.286 481.487 157.118 485.22 157.32H497.08C501.194 157.234 505.288 156.708 509.29 155.75L509.52 155.69C513.491 154.573 517.358 153.118 521.08 151.34L526.73 148.5C530.35 146.566 533.696 144.158 536.68 141.34L542.1 135.92C544.888 132.939 547.123 129.485 548.7 125.72L549.42 123.8C550.757 119.923 551.587 115.89 551.89 111.8L552.64 95.18C552.79 91.77 553.05 86.18 553.23 82.78L553.89 70.05C554.07 66.64 554.5 61.67 554.89 59.05C555.274 56.3382 556.148 53.7188 557.47 51.32C558.73 49.5849 560.548 48.3352 562.62 47.78C564.41 47.43 568.54 47.93 571.81 48.89L581.81 51.82C585.732 53.0729 589.523 54.7039 593.13 56.69L626.9 76.25C630.427 78.314 633.802 80.6265 637 83.17L663.6 105.5C666.696 108.212 669.483 111.257 671.91 114.58L682.84 130.2C684.84 132.99 684.29 133.45 681.71 131.2L676.26 126.44C673.68 124.2 672.83 124.87 674.35 127.92L676.54 132.32C678.342 136.041 679.95 139.853 681.36 143.74L686.93 159.74C688.06 162.96 687.56 163.2 685.8 160.26L681.8 153.55C679.617 150.059 677.081 146.801 674.23 143.83L672.06 141.65C669.65 139.23 668.89 139.77 670.38 142.84L678.48 159.42C679.99 162.49 682.19 167.61 683.36 170.8L685.51 176.58C686.731 180.11 687.134 183.871 686.69 187.58C686.15 190.42 684.58 190.18 683.21 187.06L681.13 182.3C679.76 179.19 677.31 174.16 675.7 171.16L671.93 164C670.31 161 669.76 161.22 670.69 164.51L678.26 191.25C679.2 194.54 678.37 194.92 676.45 192.11L669.3 181.7C667.38 178.89 664.17 174.31 662.19 171.53L643.58 145.53C641.58 142.76 640.34 143.26 640.77 146.63L641.77 154.34C642.2 157.73 642.7 163.11 642.88 166.28C643.217 170.084 644.198 173.804 645.78 177.28C647.19 180.12 646.78 181.42 644.78 180.18C642.78 178.94 642.09 180.18 643.16 183.08C644.056 185.261 644.707 187.535 645.1 189.86C645.1 190.75 643.36 191.02 641.23 190.5C639.1 189.98 637.8 191.56 638.33 194.05C638.86 196.54 638.33 199.16 637.05 199.86C635.547 200.63 633.897 201.066 632.21 201.14C630.79 201.14 630.21 202.31 630.93 203.73C631.65 205.15 634.88 207.18 638.14 208.21L642.41 209.56C645.66 210.56 651.04 212.08 654.41 212.82L684.85 219.76C688.19 220.5 693.61 221.86 696.85 222.76L699.07 223.37C702.36 224.27 702.69 226.49 699.79 228.29L686.47 236.55C682.921 238.684 679.248 240.604 675.47 242.3L672.02 243.81C668.452 245.279 664.689 246.222 660.85 246.61C656.97 246.736 653.087 246.501 649.25 245.91L634.42 243.43C630.363 242.881 626.247 242.949 622.21 243.63L621.47 243.77C618.12 244.44 613.35 245.57 610.86 246.27C608.37 246.97 608.93 248.62 612.09 249.92L622.56 254.24C625.895 255.601 629.324 256.72 632.82 257.59C635.582 258.16 638.373 258.581 641.18 258.85C643.104 258.95 644.978 259.502 646.65 260.46C647.55 261.19 647.55 263.94 646.65 266.59C645.322 270.085 643.579 273.409 641.46 276.49L637.69 281.84C635.69 284.64 632.74 289.36 631.09 292.35L610.67 329.19C608.98 332.284 607.853 335.653 607.34 339.14C607.257 342.703 607.61 346.263 608.39 349.74L608.85 351.8C609.61 355.14 608.64 356.55 606.68 354.96C604.72 353.37 602.12 352.33 600.88 352.7C599.64 353.07 599.64 355.52 600.88 358.18C602.12 360.84 604.3 365.03 605.7 367.51C607.365 370.864 608.421 374.487 608.82 378.21L609.03 380.7C609.353 383.613 609.32 386.555 608.93 389.46C608.56 390.88 606.54 390.01 604.42 387.54C602.3 385.07 600.06 385.77 599.42 389.11L598 396.54L595.4 392.67C594.7 389.49 593.8 384.1 593.4 380.67L592.24 370.43C591.934 367.338 591.262 364.294 590.24 361.36C589.246 358.415 588.621 355.359 588.38 352.26C588.395 351.294 588.585 350.338 588.94 349.44C589.6 347.51 593.32 341.74 593.32 341.74C595.19 338.89 598.16 334.15 599.96 331.25L613.41 309.57C615.22 306.67 618.04 301.85 619.7 298.87L625.92 287.77C627.548 284.867 628.985 281.861 630.22 278.77C630.936 276.801 631.37 274.741 631.51 272.65C631.252 270.689 630.347 268.87 628.94 267.48L626.99 266.85C625.06 266.19 607.57 258.91 607.57 258.91C603.745 257.334 599.908 255.787 596.06 254.27C592.202 252.896 588.153 252.133 584.06 252.01H561.66C558.24 252.01 552.66 251.78 549.27 251.49L546.14 251.23C544.488 251.103 542.851 251.62 541.572 252.673C540.293 253.727 539.472 255.234 539.28 256.88L538.03 268.41C537.742 272.459 538.2 276.526 539.38 280.41L543.09 291.25C544.2 294.49 545.99 299.79 547.09 303.02L552.19 318.3C553.401 321.854 554.813 325.336 556.42 328.73C557.742 331.664 558.404 334.852 558.36 338.07C557.91 341.423 556.684 344.624 554.78 347.42C552.455 350.564 549.968 353.584 547.33 356.47L494.61 413.2C492.29 415.7 490.09 419.2 489.74 420.97C489.368 423.537 489.368 426.143 489.74 428.71C490.082 430.946 490.182 433.212 490.04 435.47C489.86 436.71 488.41 437.15 486.81 436.47C485.242 435.792 483.905 434.673 482.96 433.25C482.42 432.18 481.11 433.96 480.03 437.2L479.43 438.97C478.35 442.21 476.3 447.32 474.88 450.35C473.347 453.553 471.631 456.665 469.74 459.67C468.32 461.79 465.86 463.25 464.26 462.89C462.66 462.53 461.94 460.22 462.65 457.75C463.329 455.419 463.86 453.048 464.24 450.65C464.42 449.23 463.24 449.52 461.68 451.29C459.959 453.277 458.641 455.58 457.8 458.07C457.26 460.07 456.24 460.18 455.54 458.41C454.733 456.018 454.301 453.515 454.26 450.99C454.266 448.613 454.48 446.24 454.9 443.9C455.25 442.3 457.74 439.26 460.41 437.14L462.93 435.14C465.78 432.84 468.288 430.146 470.38 427.14C471.81 424.85 473.98 421.06 475.22 418.77C477.121 415.687 479.482 412.911 482.22 410.54L486.3 407C488.9 404.79 493.14 401.15 495.74 398.93L504.35 391.54C507.444 388.801 510.344 385.851 513.03 382.71L533.46 358.1C535.919 355.039 538.01 351.699 539.69 348.15C540.93 345.31 542.53 341.39 543.26 339.45C544.049 336.519 544.267 333.463 543.9 330.45C543.349 326.568 542.476 322.738 541.29 319L540.06 315.3C538.99 312.06 537.29 306.74 536.3 303.47L531.52 287.62C530.52 284.36 529.28 280.52 528.74 279.1C528.2 277.68 525.86 274.51 523.52 272.02L521.71 270.1C519.051 267.055 516.955 263.56 515.52 259.78C514.45 256.58 513.29 255.87 512.94 258.17C512.59 260.47 511.57 262.51 510.68 262.68C509.79 262.85 508.62 261.97 508.09 260.68C507.56 259.39 506.99 260.03 506.81 261.98C506.63 263.93 505.48 265.09 504.24 264.56C502.553 263.626 501.113 262.303 500.04 260.7C498.97 259.09 497.68 259.7 497.14 261.98C496.533 264.476 495.559 266.869 494.25 269.08C493.98 269.455 493.63 269.766 493.225 269.99C492.821 270.214 492.372 270.347 491.91 270.377C491.449 270.408 490.986 270.336 490.556 270.167C490.125 269.998 489.738 269.736 489.42 269.4C487.81 267.98 486.51 268.4 486.51 270.4C486.51 272.4 485.51 273.96 484.26 273.96C483.01 273.96 481.71 272.51 481.34 270.72C480.97 268.93 479.97 269.23 479.08 271.36C478.259 273.395 477.057 275.255 475.54 276.84C474.47 277.74 472.59 276.57 471.36 274.26C470.13 271.95 468.53 271.52 467.81 273.26C467.085 275.073 465.857 276.642 464.27 277.78C463.02 278.48 461.43 277.03 460.71 274.54C459.99 272.05 458.39 271.63 457.16 273.54C455.93 275.45 453.45 277.09 451.68 277.09C450.772 277.05 449.902 276.713 449.203 276.132C448.504 275.55 448.015 274.756 447.81 273.87C447.48 272.12 446.61 273.4 445.91 276.74V276.82C445.21 280.16 443.34 282.9 441.73 282.9C440.981 282.922 440.243 282.72 439.61 282.319C438.977 281.918 438.479 281.337 438.18 280.65C437.82 279.4 436.82 280.71 435.92 283.55C435.02 286.39 433.59 289.43 432.71 290.31C431.211 291.641 429.59 292.83 427.87 293.86L424.65 295.14C421.43 296.45 421.11 291.05 421.11 291.05C420.91 287.64 420.11 287.57 419.24 290.88L419.03 291.72C418.21 295.03 416.22 299.2 414.63 300.97C413.04 302.74 411.29 302.16 410.76 299.67C410.23 297.18 409.17 297.87 408.4 301.2L407.95 303.28C406.899 307.231 405.211 310.984 402.95 314.39L397.26 322.39C395.26 325.16 393.65 324.64 393.65 321.22V316.87C393.732 312.749 394.238 308.647 395.16 304.63L396.66 298.63C397.582 294.609 398.088 290.504 398.17 286.38V282.7C398.17 279.28 397.24 279.13 396.11 282.34L392.49 292.55C391.068 296.428 389.433 300.224 387.59 303.92L382.31 314.17C380.336 317.776 377.902 321.11 375.07 324.09L371 328.22C368.57 330.65 366.47 330.43 366.28 327.78C366.271 324.146 366.883 320.537 368.09 317.11L371.58 307.5C372.74 304.3 372.31 304.1 370.58 307.06L363.85 318.85C361.864 322.185 359.517 325.29 356.85 328.11C354.73 330.25 352.7 330.39 352.34 328.44C351.98 326.49 353.24 322.56 355.13 319.72L355.99 318.44C357.88 315.6 357.25 315.02 354.58 317.15L345 324.88C342.33 327.02 338.56 329.2 336.62 329.72C334.68 330.24 333.8 329.09 334.68 327.15C336.245 324.191 338.122 321.409 340.28 318.85L342.59 316.1C345.162 312.89 347.359 309.398 349.14 305.69L349.86 304.1C351.26 300.99 350.54 300.53 348.27 303.1L340.42 311.91C337.632 314.941 334.623 317.762 331.42 320.35L326.35 324.35C323.057 326.817 319.522 328.945 315.8 330.7L315.47 330.76Z" fill="#00A99D"/>
<path d="M244.18 535.06C243.373 533.582 242.642 532.063 241.99 530.51C241.552 529.221 241.316 527.871 241.29 526.51C241.29 525.29 241.11 522.9 240.9 521.19C240.9 521.19 240.9 521.1 241.29 520.48L241.69 519.88C242.332 518.741 243.033 517.636 243.79 516.57C244.333 515.79 245.01 515.113 245.79 514.57C246.097 514.312 246.346 513.991 246.518 513.629C246.691 513.266 246.784 512.871 246.79 512.47C246.85 511.59 246.89 509.96 246.89 508.84L245.47 508.05C244.182 507.296 242.846 506.627 241.47 506.05C240.967 505.785 240.401 505.663 239.834 505.697C239.266 505.73 238.718 505.918 238.25 506.24C237.05 507.24 236.45 507.24 234.85 507.65C232.544 508.092 230.198 508.293 227.85 508.25C225.25 508.25 221.85 508.64 220.24 508.25C218.63 507.86 215.82 506.85 213.62 506.85C211.42 506.85 197.76 506.05 195.54 506.05H193.35C192.47 505.39 193.03 504.25 194.58 503.52L198.34 501.76C200.245 500.93 202.237 500.319 204.28 499.94C204.28 499.94 211.21 498.82 212.2 498.41C213.19 498 222.2 495.61 223.03 495.21C223.86 494.81 228.26 492.59 229.67 492C231.08 491.41 231.47 490.59 232.27 490.59H233.94C235.66 490.59 236.4 490.04 235.58 489.39C234.76 488.74 232.93 487.39 231.5 486.39L223.81 481.11C222.39 480.11 219.98 478.67 218.47 477.85L210.94 473.8C209.43 472.98 206.94 471.71 205.35 470.96L201.8 469.27C199.937 468.337 198.151 467.257 196.46 466.04C196.46 466.04 191.74 462.49 191.15 461.89C190.56 461.29 185.62 455.8 185.62 455.8C184.264 454.224 183.081 452.508 182.09 450.68L179.14 445C178.113 443.214 176.756 441.639 175.14 440.36C174.301 439.724 173.531 439.004 172.84 438.21C171.84 437 170.24 436.81 169.25 435.4C168.26 433.99 165.43 429.98 165.25 429.4C165.07 428.82 163.85 427.21 164.46 426.19C165.07 425.17 164.97 424.93 164.97 424.93C164.35 423.32 163.22 420.73 162.46 419.19C162.46 419.19 157.46 409.19 157.46 408.36C157.46 407.53 155.46 400.53 155.46 400.53C154.928 398.514 154.524 396.467 154.25 394.4L153.78 390.4C153.57 388.7 153.32 385.94 153.22 384.28L153.41 383.49C153.61 382.7 153.02 379.49 153.82 379.49H154.62C154.797 379.56 154.986 379.592 155.176 379.584C155.365 379.576 155.551 379.527 155.721 379.443C155.891 379.358 156.041 379.238 156.162 379.091C156.282 378.944 156.37 378.773 156.42 378.59C156.589 377.725 156.858 376.883 157.22 376.08H158.02C158.82 376.08 160.64 376.5 160.83 377.08C161.873 378.559 162.998 379.978 164.2 381.33C165.517 382.938 166.625 384.705 167.5 386.59L169.42 391.05C170.1 392.64 171.3 395.19 172.06 396.74L172.67 397.95C173.44 399.5 174.02 399.35 173.95 397.63L173.4 382.63C173.33 380.92 173.28 378.79 173.28 377.9C173.262 377.104 173.426 376.313 173.76 375.59C174.255 375.071 174.88 374.695 175.57 374.5C176.33 374.278 177.142 374.314 177.88 374.6C178.908 375.425 179.765 376.445 180.4 377.6C181.369 379.35 182.083 381.229 182.52 383.18L183.3 387.07C183.64 388.76 184.3 391.51 184.71 393.17L184.91 393.94C185.36 395.61 186.12 395.62 186.59 393.94L187.45 390.94C187.93 389.28 188.71 386.57 189.2 384.94L189.44 384.14C189.883 382.661 190.247 381.158 190.53 379.64C190.661 378.789 191.086 378.011 191.73 377.44C192.101 377.247 192.512 377.147 192.93 377.147C193.348 377.147 193.759 377.247 194.13 377.44C195.388 378.328 196.461 379.452 197.29 380.75C197.479 381.117 197.565 381.528 197.54 381.94C197.54 382.77 198.76 389.37 198.76 389.94C198.76 390.51 198.85 393.23 198.85 393.23C198.91 394.95 199.25 394.98 199.62 393.29L199.9 392.02C200.203 390.446 200.841 388.956 201.77 387.65C202.492 386.892 203.445 386.396 204.48 386.24C205.68 386.295 206.85 386.638 207.89 387.24C209.219 388.277 210.171 389.72 210.6 391.35V392.96C210.81 393.84 211.4 393.89 211.89 393.06C212.273 392.363 212.785 391.745 213.4 391.24C214.006 391.106 214.639 391.177 215.2 391.44C215.86 391.73 217.27 392.44 218.32 392.96C219.419 393.553 220.349 394.417 221.02 395.47C221.465 396.315 221.737 397.239 221.82 398.19C221.82 398.85 222.23 399.35 222.72 399.28C223.21 399.21 224.27 399.17 225.04 399.17C226.465 399.504 227.782 400.192 228.87 401.17C229.289 401.517 229.758 401.8 230.26 402.01L230.85 402.2C231.824 403.174 232.515 404.394 232.85 405.73C232.85 406.44 233.99 407.87 235.36 408.91L235.96 409.36C237.136 410.201 238.181 411.212 239.06 412.36C239.465 413.556 239.608 414.824 239.48 416.08C239.398 416.726 239.519 417.382 239.825 417.957C240.131 418.532 240.608 418.997 241.19 419.29C242.19 419.61 243.62 420.07 244.29 420.29C245.093 420.655 245.734 421.303 246.09 422.11L246.3 422.91L246.48 423.7C246.716 424.178 247.073 424.586 247.515 424.884C247.957 425.182 248.469 425.36 249 425.4C250 425.46 252.31 425.4 254 425.34C254.432 425.336 254.862 425.39 255.28 425.5C256.09 425.71 258.5 425.71 258.9 426.5C259.3 427.29 260.51 426.89 260.51 427.9V428.9C260.72 430.55 261.8 431.9 262.9 431.9C264.612 431.857 266.321 431.727 268.02 431.51C268.02 431.51 268.13 431.51 268.73 431.9C269.33 432.29 272.55 433.31 272.73 433.9C272.91 434.49 273.1 435.08 273.1 435.08C273.56 436.74 274.27 437.88 274.65 437.6C275.237 437.28 275.904 437.137 276.57 437.19C277.485 437.293 278.391 437.463 279.28 437.7C280.229 438.021 281.039 438.66 281.57 439.51C282.006 440.263 282.343 441.07 282.57 441.91C282.7 442.226 282.927 442.493 283.218 442.673C283.509 442.853 283.849 442.936 284.19 442.91C285.493 443.031 286.773 443.338 287.99 443.82C289.32 444.31 290.45 445.03 290.5 445.42C290.57 446.054 290.607 446.692 290.61 447.33C290.658 447.718 290.815 448.085 291.063 448.387C291.31 448.69 291.639 448.916 292.01 449.04C293.083 449.388 294.189 449.622 295.31 449.74L299.02 450.13L299.22 450.74L299.44 451.35C299.76 452.44 300.2 453.79 300.44 454.35C300.618 454.686 300.861 454.984 301.154 455.225C301.448 455.467 301.786 455.649 302.15 455.76C302.88 455.97 304.15 456.43 305.06 456.76C305.98 457.113 306.83 457.628 307.57 458.28C308.128 458.92 308.449 459.732 308.48 460.58V461.77C308.48 463 308.88 464.22 309.39 464.5C309.9 464.78 311.47 465.5 312.9 466.21L313.09 467C313.28 467.8 314.69 470.22 314.69 470.82V471.41C315.13 472.18 316.33 471.67 317.35 470.29L335.12 446C336.12 444.62 337.79 442.31 338.77 440.9L348.44 427C349.44 425.58 351.14 423.35 352.27 422.05L366.64 405.35C367.77 404.04 369.55 401.85 370.64 400.49L385.46 381.17C386.714 379.502 387.859 377.755 388.89 375.94L393.29 367.99C394.12 366.47 395.55 363.99 396.44 362.56L404.79 348.86C405.69 347.39 407.09 344.94 407.9 343.41L421 318.81C421.714 317.385 422.772 316.161 424.08 315.25C424.96 314.81 425.41 315.83 425.08 317.53L424.31 321.39C423.866 323.416 423.195 325.385 422.31 327.26L394.87 380.87C394.09 382.4 393.72 383.93 394.04 384.25C394.463 384.641 394.933 384.977 395.44 385.25L395.66 386.25C395.892 387.642 396.019 389.049 396.04 390.46C396.04 391.46 382.68 416.58 382.68 416.58C381.887 418.064 381.388 419.687 381.21 421.36H380.01C378.79 421.36 376.8 419.55 375.79 421.96L374.79 424.35C375.028 425.586 375.663 426.71 376.6 427.55L376.02 428.55C375.41 429.55 373.33 433.23 373.33 433.23C372.49 434.74 371.06 435.97 370.18 435.97V438.18C370.18 440.38 371.39 439.38 370.18 440.38C368.97 441.38 366.57 442.18 365.37 442.98C364.17 443.78 362.96 443.79 363.37 445.79C363.78 447.79 365.37 448.01 365.37 449.79C365.37 451.57 365.76 457.41 364.95 458.02C364.14 458.63 361.95 458.22 361.36 459.81C360.77 461.4 362.14 465.44 362.14 466.05C362.14 466.66 362.57 469.44 361.56 469.85C360.55 470.26 358.56 470.44 357.14 471.05C355.72 471.66 350.72 472.05 352.32 473.05L353.93 474.05C354.655 474.574 355.256 475.252 355.688 476.035C356.12 476.818 356.373 477.687 356.43 478.58V479.58C356.413 480.841 356.582 482.098 356.93 483.31L355.73 484.7C354.52 486.12 353.52 487.7 352.3 487.91C351.08 488.12 351.71 485.91 350.1 488.12C348.49 490.33 349.1 491.54 347.69 493.35C346.28 495.16 345 496 344.19 496H343.39C341.838 495.331 340.467 494.303 339.39 493C339.39 493 339.03 492.57 338.39 494.39C337.75 496.21 337.01 499.74 337.01 499.74C336.755 501.167 336.265 502.543 335.56 503.81L334.97 504.21C334.38 504.61 333.15 505.21 333.35 505.82C333.55 506.43 334.16 508.23 333.56 508.62C333.073 508.956 332.673 509.403 332.395 509.925C332.117 510.447 331.967 511.028 331.96 511.62C331.96 513.21 332.56 515.42 332.16 516.43C331.76 517.44 332.16 517.83 331.16 518.22C330.16 518.61 329.36 518.84 329.36 520.22C329.36 521.6 329.95 524.03 329.36 525.86C328.77 527.69 328.56 527.65 326.95 527.86C325.34 528.07 324.34 526.67 324.54 528.66C324.74 530.65 325.75 533.48 326.34 533.48H327C328.478 533.474 329.955 533.571 331.42 533.77C332.451 533.993 333.433 534.4 334.32 534.97C335.439 535.813 336.511 536.718 337.53 537.68C338.99 538.88 340.697 539.741 342.53 540.2L355.67 543.2C357.36 543.59 360.08 544.31 361.74 544.8L369.16 547.02C370.81 547.52 373.16 548.37 374.48 548.92C374.764 549.01 375.023 549.168 375.233 549.379C375.443 549.591 375.599 549.85 375.687 550.135C375.776 550.42 375.794 550.722 375.74 551.015C375.687 551.309 375.563 551.585 375.38 551.82C374.636 552.841 373.719 553.725 372.67 554.43C371.842 554.933 371.179 555.666 370.76 556.54C370.48 557 370.102 557.393 369.652 557.691C369.203 557.988 368.693 558.182 368.16 558.26C366.997 558.425 365.82 558.458 364.65 558.36C363.82 558.24 363.14 559.14 363.14 560.36C363.142 560.952 362.973 561.532 362.654 562.03C362.334 562.528 361.878 562.924 361.34 563.17H360.14C358.904 563.257 357.687 563.527 356.53 563.97C355.375 564.407 354.162 564.674 352.93 564.76L352.3 564.57C351.607 564.27 350.836 564.2 350.1 564.37L348.91 564.57C348.46 565.34 346.75 566.15 345.09 566.38V565.79C345.09 565.17 344.48 564.79 343.47 564.37L342.47 563.97C342.038 563.8 341.56 563.786 341.118 563.93C340.677 564.074 340.299 564.368 340.05 564.76L339.26 564.97C337.663 565.15 336.056 565.216 334.45 565.17H333C331.871 565.229 330.75 564.95 329.78 564.37C329.35 563.94 329.53 564.88 330.21 566.46L330.98 568.3C331.65 569.89 332.86 572.44 333.65 573.97L335.16 576.83C336.157 578.66 337.3 580.406 338.58 582.05L341.45 585.59C342.53 586.93 344.36 589.08 345.51 590.38L349.36 594.72C350.424 595.945 351.633 597.036 352.96 597.97C353.79 598.48 354.96 599.25 355.57 599.69C356.264 600.24 356.845 600.919 357.28 601.69C357.755 602.881 358.091 604.122 358.28 605.39C358.654 607.234 359.248 609.027 360.05 610.73L370.95 633.16C371.71 634.71 373.1 637.16 374.04 638.62L379.44 646.99C380.549 648.758 381.551 650.592 382.44 652.48L382.66 653C383.38 654.57 384.66 657.08 385.53 658.57L396.19 677C396.893 678.026 397.364 679.193 397.57 680.42C397.47 680.81 396.92 680.76 396.36 680.32C395.334 679.28 394.434 678.122 393.68 676.87L390.82 672.35C389.9 670.9 389.5 670.88 389.95 672.35C390.356 673.718 390.999 675.004 391.85 676.15C392.52 677.011 392.905 678.06 392.95 679.15V680.34C392.845 682.012 393.161 683.683 393.87 685.2L394.65 686.9C395.311 688.283 395.75 689.761 395.95 691.28C395.95 692.11 395.34 691.51 394.61 689.94L393.69 687.94C392.768 686.069 391.695 684.276 390.48 682.58L389.8 681.63C388.649 679.931 387.856 678.016 387.47 676C387.339 675.32 387.092 674.667 386.74 674.07C386.14 673.07 384.28 670.71 384.28 670.71C383.21 669.36 382.69 668.16 383.13 668.05L382.13 664.84C381.13 661.63 377.71 657.84 377.13 657.21C376.55 656.58 376.91 655.82 375.93 653.02C374.95 650.22 373.14 646.02 373.14 646.02C372.46 644.43 371.22 641.9 370.38 640.4C370.38 640.4 364.86 630.5 364.48 629.49C364.1 628.48 357.66 615.66 354.85 612.24C352.04 608.82 351.85 609.05 351.04 607.24C350.23 605.43 350.84 603.24 350.23 602.01C349.214 600.523 348.066 599.131 346.8 597.85C345.61 596.61 343.69 594.54 342.54 593.25L337.07 587.11C335.93 585.81 334 583.76 332.77 582.55C331.54 581.34 329.47 579.46 328.12 578.38L325 576C323.64 574.92 321.48 573.11 320.18 572L320.09 571.92C318.78 570.78 316.81 568.99 315.71 567.92C314.61 566.85 313.17 565.47 312.51 564.82C311.744 564.082 310.862 563.474 309.9 563.02C309.12 562.68 307.9 562.02 307.08 561.6C306.757 561.391 306.388 561.263 306.005 561.228C305.621 561.193 305.235 561.252 304.88 561.4C304.351 561.97 304.065 562.723 304.08 563.5C304.182 565.041 304.4 566.572 304.73 568.08L305.42 571.37C305.906 573.38 306.713 575.298 307.81 577.05C307.81 577.05 312.91 584.68 313.29 585.48C313.67 586.28 319.34 594.34 319.34 594.34C320.34 595.75 321.98 598.05 323.02 599.43L325.87 603.23C327.164 604.843 328.703 606.243 330.43 607.38C330.943 607.695 331.335 608.174 331.54 608.74C331.74 609.54 332.96 610.98 332.96 611.56C332.96 612.14 333.56 617.06 333.56 617.06C333.79 618.77 334.28 621.55 334.66 623.22L336.47 630.98C336.86 632.66 337.58 635.39 338.07 637.04L341.51 648.65C342 650.31 342.84 653.01 343.37 654.65L344.64 658.55C345.17 660.19 345.79 662.25 346 663.13H349.21C350.601 663.876 351.826 664.896 352.81 666.13L356.05 670.13C357.254 671.574 358.634 672.861 360.16 673.96C361.23 674.672 362.234 675.478 363.16 676.37C363.737 677.194 364.047 678.174 364.05 679.18C364.05 680.18 363.78 680.54 363.45 679.98C362.924 679.307 362.176 678.843 361.34 678.67C360.567 678.543 359.861 678.155 359.34 677.57C358.737 676.744 358.068 675.968 357.34 675.25C356.156 674.171 354.877 673.201 353.52 672.35C352.25 671.59 352.09 672.05 353.16 673.41L357.08 678.32C358.15 679.67 359.71 681.77 360.53 682.98C361.457 684.295 362.658 685.394 364.05 686.2V686.8C364.039 687.136 364.069 687.472 364.14 687.8C364.52 689.49 364.43 690.64 363.94 690.36C362.952 689.544 362.077 688.599 361.34 687.55C360.4 686.29 359.81 686.24 360.03 687.45C360.285 688.912 360.452 690.388 360.53 691.87C360.59 693.09 360.23 692.98 359.74 691.66C359.25 690.34 358.53 688.53 358.13 687.66C357.73 686.79 356.76 684.82 355.94 683.3C355.319 682.091 354.607 680.931 353.81 679.83L353.21 679.25C352.151 677.929 351.338 676.429 350.81 674.82L350.41 676.82C350 678.82 352.19 683.97 352.19 683.97C352.86 685.56 354.09 688.09 354.93 689.61L355.32 690.32C356.15 691.83 357.52 694.32 358.32 695.8L359.06 697.17C359.943 698.784 360.593 700.514 360.99 702.31C361.22 703.63 360.67 703.67 359.79 702.41C358.91 701.15 357.44 698.9 356.54 697.41L353.63 692.72C352.537 690.932 351.536 689.09 350.63 687.2L349.32 684C348.486 682.087 347.774 680.123 347.19 678.12C347.19 678.12 346.19 674.55 346.01 673.93C345.83 673.31 343.6 670.53 343.21 669.93C343.049 669.706 342.902 669.472 342.77 669.23C342.17 667.765 341.678 666.257 341.3 664.72C341.13 663.84 340.75 661.72 340.44 660.03L339.34 653.96C339.04 652.26 338.44 649.49 338.02 647.82L336.54 641.89C336.12 640.23 335.35 637.51 334.83 635.89L332.7 629.21C332.18 627.57 331.44 625.47 331.06 624.54C330.503 623.289 329.812 622.102 329 621C328.23 620 327.16 618.66 326.62 618L326.21 617.18C325.802 615.674 325.594 614.12 325.59 612.56C325.59 611.77 323.79 609.18 322.78 608.16C321.77 607.14 316.91 599.92 316.91 599.92C315.91 598.5 314.23 596.26 313.09 594.92L303.98 584.42C302.85 583.12 300.92 581.05 299.7 579.83L294.1 574.23C292.676 572.754 291.365 571.173 290.18 569.5C289.131 567.896 288.259 566.182 287.58 564.39C287.057 562.799 286.755 561.143 286.68 559.47C286.683 558.197 286.613 556.925 286.47 555.66C286.35 554.83 285.09 553.98 283.66 553.76C281.91 553.417 280.224 552.807 278.66 551.95L278.07 551.55C277.46 551.15 276.01 550.14 276.01 550.14C274.6 549.14 273.01 548.06 272.55 547.73C271.417 547.432 270.218 547.506 269.13 547.94C267.733 548.394 266.292 548.695 264.83 548.84C263.83 548.84 262.2 548.93 261.21 548.93C260.003 548.882 258.814 548.618 257.7 548.15C256.77 547.7 254.82 546.57 253.37 545.63L252.8 545.24C251.175 544.145 249.685 542.863 248.36 541.42C247.122 539.894 246.018 538.265 245.06 536.55L244.18 535.06Z" fill="#BF0046"/>
</svg>
