<svg id="Layer_1" data-name="Layer 1" xmlns="http://www.w3.org/2000/svg" viewBox="0 0 1563.65 1480.14"><defs><style>.cls-1{fill:#1f008a;}.cls-2{fill:#6a72ff;}.cls-3{fill:#ff7ff9;}.cls-4{fill:#ffdf55;}.cls-5{fill:#9d1fff;}.cls-6{fill:#ff7bac;}.cls-7{fill:#bf0060;}.cls-8{fill:#ff8d0a;}.cls-9{fill:#93278f;}.cls-10{fill:#00940c;}</style></defs><path d="M983.26,839c1.94-51.06-13.34-87.93-42.36-114.39a220.85,220.85,0,0,1-24.82,15.78,103.34,103.34,0,0,1,22.63,21.15H874.78c10-12.82,24.32-24.09,44.81-34,63.54-30.74,64.78-127.77,64.69-139.55H961q0,9.21-1,18.36H853.58q-.92-9.14-.92-18.36h-23.3c-.07,10.82,1,93.45,50.35,130.71C845.8,745.6,829.9,782.89,831.09,839m22.76,0c0-4.26.08-8.41.28-12.48H960.6c1.51,4,.43,8.22.44,12.48m-4.83-38.94a145.12,145.12,0,0,1,2.57,16.32H854.88a147.36,147.36,0,0,1,2.53-16.32Zm-10.63-28.38a92.41,92.41,0,0,1,8,18.24H860.05a92.26,92.26,0,0,1,8-18.24ZM911.5,699c-1.61.78-3.1,1.61-4.66,2.41-1.56-.8-3.08-1.63-4.7-2.41-9.92-4.78-18.82-12.59-25.95-22.79h61.13C930.25,686.41,921.39,694.23,911.5,699Zm32-32.94h-73.6a124.9,124.9,0,0,1-8.85-21.21h91.28a128,128,0,0,1-8.83,21.21Zm-88.75-49.58h104c-.89,6.16-2.08,12.25-3.54,18.23h-97C856.82,628.73,855.65,622.64,854.78,616.48Z"/><path d="M960.5,826.51a74.77,74.77,0,0,1,.2,18.37H854.82c-.6-6.09-1-12.23-1-18.37m-22.76,0c-1.73,27.09.52,93.46,49.87,130.72-33.91,26.9-49.57,64.67-49.75,120.3H855c0-4.27.14-8.41.34-12.48h105.4c.2,4.06.84,8.22.86,12.48h22.22c0-55.89-12.69-87.93-41.71-114.39a221.76,221.76,0,0,1-24.82,15.78A103.79,103.79,0,0,1,940,1000.07H876c10-12.82,24.32-24.09,44.81-34,63.54-30.74,63.44-117.93,62.42-139.56m-25.8,212.08a144.76,144.76,0,0,1,2.57,16.32H856.12a147.38,147.38,0,0,1,2.54-16.32Zm-10.63-28.38a92.88,92.88,0,0,1,8,18.23H861.29a92.45,92.45,0,0,1,8-18.23Zm-34.08-72.68c-1.61.78-3.1,1.62-4.66,2.42-1.57-.81-3.09-1.63-4.7-2.42-9.92-4.77-18.82-12.59-25.95-22.79h61.13C931.49,925,922.64,932.77,912.75,937.53Zm32-32.93h-73.6a125.75,125.75,0,0,1-8.86-21.21H953.6a127.15,127.15,0,0,1-8.82,21.21ZM856,855H960c-.9,6.16-2.08,12.25-3.54,18.23h-97C858.07,867.27,856.9,861.18,856,855Z"/><path d="M961,1065.36a74.66,74.66,0,0,1,.19,18.36H855.36c-.6-6.08-1-12.22-1-18.36m-22.76,0c-1.73,27.09.52,93.46,49.87,130.72-33.92,26.9-49,64.66-49.22,120.29h23.3c0-4.26.13-8.4.33-12.47h105.4q.3,6.09.33,12.47h23.29c-.17-51.67-13.22-87.92-42.25-114.38a220.85,220.85,0,0,1-24.82,15.78,102.86,102.86,0,0,1,22.63,21.15H876.56c10-12.82,24.33-24.09,44.82-34,63.54-30.74,63.44-117.93,62.42-139.56M958,1277.44a144.76,144.76,0,0,1,2.57,16.32H856.66a144.71,144.71,0,0,1,2.54-16.32Zm-10.63-28.38a92.88,92.88,0,0,1,8,18.23H861.83a92.43,92.43,0,0,1,8-18.23Zm-34.08-72.68c-1.62.78-3.11,1.62-4.67,2.42-1.56-.81-3.08-1.63-4.7-2.42-9.92-4.77-18.82-12.59-25.94-22.79H939.1C932,1163.8,923.17,1171.61,913.29,1176.38Zm32-32.93H871.72a125.75,125.75,0,0,1-8.86-21.21h91.28a126.35,126.35,0,0,1-8.83,21.21Zm-88.75-49.58h104c-.9,6.16-2.09,12.25-3.55,18.23h-97C858.6,1106.12,857.43,1100,856.56,1093.87Z"/><path class="cls-1" d="M804.9,1304.72s.18-1.72-2.74-6.35-19-4.81-22.84-4.81-6-4.28-9.6-7.89-10.48-6.69-10.48-6.69l-1.2-4.81s-.85-2.58-1.53-4.46-3.44-4.64-3.44-4.64l-.86-3.94a43.15,43.15,0,0,1-.35-7.72c.17-4.64.68-5.83.17-8.42s-4.45-5-4.45-5,4.28-18.36,7-31.39,2.75-38.3,2.75-38.3,7.38.36,8.42,0,1.88-5.3,2.74-8.56.16-4.12-.86-5.49-2.92-.69-2.92-.69.52-7.73.52-12.52-.85-13.92-.85-13.92,3.6-12.51,4.11-17.16,1.54-11.67,1.54-17.15,1-22.14,1-28.67,2.23-17.52,3.26-22.83,1.54-12.36.69-17.51-3.78-23.84-3.78-23.84l1.88-3.78a31.72,31.72,0,0,0,1.56-4s1.88-1.54,2.73-2.41,2.06-3.42,4.12-7.54,0-7.56-1.36-12.37-2.93-10.81-4.3-14.92a18.42,18.42,0,0,1,.18-11.84c1.19-3.1,1-3.95.33-6.87s6.36-19,10-27.64,4.27-24.2,4.27-24.2a9.69,9.69,0,0,0,2.06-4.28c.53-2.58.7-5.16-.85-11s1.55-19.39,1.2-26.94-3.42-29.69-3.77-34-2.07-7-3.76-9.79S781,791.73,780.19,790a7.78,7.78,0,0,0-3.61-3.77,23.93,23.93,0,0,0-8.41-2.93c-3.6-.34-14.24-5.49-17.34-6.68s-6.34-4-8.23-5.5-1.72-5.32-1.72-5.32l-4.11-.17a8.14,8.14,0,0,1-1-3.77c0-2.06.35-5.32.35-5.32s2.92-1.72,6.35-6.88,7.37-12.18,8.92-16.3,1.19-8.75.51-14.07-3.77-17-5-18.89-4.29-3.08-4.29-3.08-1.88-12.53-6-19.4-10.12-13.21-21.46-14.41-16.64,2.07-16.64,2.07l-7.89-40-12.54,2.22,10.13,45s-2.23,2.58-3.43,4.29a23.91,23.91,0,0,0-2.23,4.47s-2.92.5-5.15,1-3.26,2.57-6,4.63-7.56,1.71-10.3,1.38-5,1.36-9.79,2.55-13.73-.34-25.91-.51-27.46,3.62-35.36,6-16,1.38-19.74,5.14-3.43,13.22,1.38,22,13.9,17.16,13.9,17.16-1.38,9.45-1,12.37,2.92,5.31,6.19,8.75,6.17,9.09,13,18.7,17.67,23.17,17.67,23.17-1.2,10.81-.86,17.16,2.06,25.4,1.88,37.76,1.55,24,.53,34.15a220.72,220.72,0,0,1-5.16,29.87c-2.23,8.93-7,34.84-7.89,39.82s7.21,6,12,9.09a105.11,105.11,0,0,1,10.47,8.07s-.17,7.55-.17,11.5-.68,6.87-1.89,8.75-.51,5-.86,10.82-5.33,34-6.68,47.53-2.58,37.93-2.75,45.15-.19,16.82-1,21.8-.69,18.52-.69,18.52l-2.23,1.73a37.9,37.9,0,0,0,.52,5.65c.52,3.1-.86,5.66-.86,10.82s10.65,7.37,10.65,7.37-.35,3.78-.35,9.27,1.37,15.45,4.29,28,7,43.78,7,43.78-.69,2.57-1.37,4.45-.87,7.9-.87,7.9a62.88,62.88,0,0,0-3.59-6.19c-1.21-1.54-2.4-.51-4.3,1.2s.34,8.07.34,8.07-3.25,0-4.79,1.21,1,8.06,2.23,10.64a5.22,5.22,0,0,0,3.78,2.91l2.9,3.6a39.28,39.28,0,0,1-.34,9.79c-.85,5.66-4.12,14.59-4.63,18s.33,10.82.51,11.5,46.16-.17,48.74-1,1.56-3.09,1-6.69a14.22,14.22,0,0,0-2.58-6.19,7.47,7.47,0,0,0,1.72-4.63c-.18-2.4-2.06-6-2.06-6a39.51,39.51,0,0,0,2.92-3.77c.69-1.21-.52-3.78-2.23-7.57a12.83,12.83,0,0,1-1.56-6.34c-.16-1.89,1.73-5,1.73-5a16.38,16.38,0,0,0,4.46-2.58c1.71-1.55.51-3.43,0-4.79s.17-2.77,1.37-5.16-1.89-4.47-5-5.84a49.72,49.72,0,0,0-7.54-2.4s-1-5-2.23-10-.18-7.9-.36-16,4.14-24.37,6.36-34.14,2.06-24.21,2.06-24.21l6.18-.69s6.18-1.54,8.06-2.91,2.06-6.71,1.54-8.25-.34-2.58.7-4.46-2.57-5.15-2.57-5.15.68-4.81.85-7.72,1-6.35,1.38-10.29,1.18-16.48,1.53-20.09,2.42-13.55,2.42-13.55,6.34,7.54,8.06,10.81-.52,11.15-1.38,16.65,1.89,10.29,2.75,13.2,2.74,11.84,2.74,11.84a11.8,11.8,0,0,0-3.09,2.76c-.86,1.37-.51,2.75.35,4.63s-.52,5-.68,8.25,6.52,2,6.52,2a122.74,122.74,0,0,0-2.4,16.65c-.87,10.13,3.08,22.83,6,30.72s2.93,33.3,1.39,34.69l.33,9.77a62.72,62.72,0,0,1-5.48,7.89c-2.23,2.41-2.41,9.62-4.47,17.34a71.86,71.86,0,0,0-1.88,17,113.56,113.56,0,0,0-1.38,11.32c-.17,4.28,2.23,5.15,6.68,5.66s23.53-.68,40.68-1,53.9-2,57.5-2.74S804.9,1304.72,804.9,1304.72ZM750.33,917c1.88-.85,3.77-.68,2.91-4.28a39.71,39.71,0,0,0-2.22-6.54l2.91-8.23,2.4,6.86h3.09s.68,14.43-.35,18.88a25.45,25.45,0,0,1-2.91,7.39s-.68-4.47-2.58-6.71S748.43,917.87,750.33,917Zm-58-166.48c-.51,2.23-.86,4.3-.86,4.3l-2.22.68s-.52,3.09-2.23,4.11-6,1.56-6,1.56a13.46,13.46,0,0,0-5.83-5,29.42,29.42,0,0,0-7.38-1.89s-.7-3.44-3.09-4.64a22.09,22.09,0,0,0-6.36-1.54s-.16-4.29-4-5.49-5.83-1.37-8.06-2.06-6.86-2.23-6.86-2.23-4.64-5.16-7.38-6.19-3.44-3.08-4.47-4.27-4.46-1.38-6-2.58a55.15,55.15,0,0,0-5.31-3.26s6.7-6.7,20.42-8.58,22.48-1.9,26.61-2.74,7.72-1.91,9.78-.71a15.32,15.32,0,0,0,7.55,1.9h5.15L687.5,715l1.55,2.41s-.86,8.06,0,13.37,1.37,6.36,2.57,8.25a37.08,37.08,0,0,1,2.58,6A43.25,43.25,0,0,0,692.3,750.53Z"/><path class="cls-2" d="M1218.59,274.74c1.31-.72,3.5-1.82,4.87-2.45a14.73,14.73,0,0,1,2.74-1c.57,0,4.63-.51,4.63-.51a45,45,0,0,1,5.44-.28l7.4.16c1.5,0,1.59-.4.19-1l-5.8-2.33c-1.39-.56-3.66-1.51-5-2.11,0,0-12.75-5.56-13-6s-3.77-4.1-3.77-4.1a20.5,20.5,0,0,1-3.07-4.43s-2.48-5.16-2.48-6-.19-6.6-.19-6.6a20.66,20.66,0,0,0-.66-4.5,12.5,12.5,0,0,1-.22-4.47l.16-1.21c.19-1.49.59-3.92.89-5.38l.46-2.29a14.18,14.18,0,0,0,.2-4.51,7.43,7.43,0,0,1,1-4.19l5.33-9.25c.75-1.31,1.65-2.84,2-3.42a3.43,3.43,0,0,1,2.68-1.05,13.5,13.5,0,0,1,4.45,1.05,25.24,25.24,0,0,1,4.53,2.75l7.3,5.78a30.29,30.29,0,0,1,3.88,3.8L1257.94,230c1,1.16,2.41,3.13,3.25,4.38l7.41,11.12c.84,1.26,2.17,3.32,3,4.59l6.42,10.2c.8,1.27,1.86,3.1,2.37,4.07s1.36,2.73,1.9,3.89,1.38,1.92,1.84,1.68a5.33,5.33,0,0,1,2-.42c.62,0,.45-1-.38-2.27l-2.21-3.36c-.83-1.25-2.24-3.26-3.13-4.46l-2.82-3.81a22.87,22.87,0,0,1-2.33-3.87,6.47,6.47,0,0,0-1.49-2.26,4.78,4.78,0,0,1-1.27-1.77,6.15,6.15,0,0,1-.43-2.19c0-.54.42-.9.85-.79s1.1,1.13,1.49,2.26,1,3,1.41,4.11a17.81,17.81,0,0,0,2.36,4.21l8.55,11.2c.91,1.19,2.26,1.94,3,1.67a18.66,18.66,0,0,1,2.33-.7,11.49,11.49,0,0,1,2-.21,3.2,3.2,0,0,1,1.61.42,1.57,1.57,0,0,1,.5,1.27c0,.46,1,.36,2.4-.22s3.61-1.52,5-2.08l.16-.07a52.7,52.7,0,0,0,4.92-2.34l10.19-5.56a10.5,10.5,0,0,0,2.81-2,9.89,9.89,0,0,1,.85-1.19.74.74,0,0,1,1-.08.85.85,0,0,1,.21,1.06,8.48,8.48,0,0,1-1.13,1.41,3.1,3.1,0,0,1-1.48.84A15.7,15.7,0,0,0,1318,260l-8,4.32c-1.33.71-3.54,1.77-4.92,2.35l-6.41,2.69c-1.38.58-2.52,1.47-2.52,2a6.43,6.43,0,0,1-.2,1.56c-.12.35.19,1,.7,1.41a3.68,3.68,0,0,0,1.55.84,7.32,7.32,0,0,0,2.68-1.35c1.13-.77,3.08-2.07,4.34-2.89l3-2c1.26-.81,3.38-2,4.73-2.7l3-1.52c1.34-.67,3.51-1.82,4.82-2.56l5.26-3c1.31-.74,3.48-1.89,4.82-2.57l14.75-7.43a51.38,51.38,0,0,1,5-2.13l6.15-2.14a36.66,36.66,0,0,1,5.27-1.34l3.37-.55a46.82,46.82,0,0,1,5.42-.48l3.29,0c1.5,0,2.92.27,3.15.65a1.7,1.7,0,0,1-.07,1.56,7,7,0,0,1-1.13,1.41,3.23,3.23,0,0,0-.84,1.41,4.59,4.59,0,0,1-.92,1.64,4.88,4.88,0,0,0-.85,2.39,13.32,13.32,0,0,1-.49,2.67c-.19.59-.64,2-1,3.12a11.6,11.6,0,0,1-1.69,3.32c-.59.7-1.92,2.15-3,3.22l-3.38,3.45c-1,1.07-2.71,2.87-3.69,4l-5.19,6a31.65,31.65,0,0,1-3.95,3.73l-.47.35a6.57,6.57,0,0,0-2.37,3.07,3.75,3.75,0,0,1-1.14,2.12,2.87,2.87,0,0,0-1,1.83,2.72,2.72,0,0,1-.64,1.62,2.2,2.2,0,0,1-1.27.5.68.68,0,0,0-.7.63c0,.35-.54,1-1.2,1.35s-1,1-.79,1.34a9,9,0,0,1,.78,2.4,5.75,5.75,0,0,1-.21,3,14.55,14.55,0,0,0-.85,3.33,7.72,7.72,0,0,1-2.32,3.93l-1,.88a11.81,11.81,0,0,1-3,2.09,2,2,0,0,0-1.2.84,1,1,0,0,1-1,.5c-.43,0-1,.51-1.27,1.21a2.12,2.12,0,0,1-1.83,1.27,4.73,4.73,0,0,0-2.62,1.13,4.38,4.38,0,0,1-2,1.13,7.48,7.48,0,0,0-2.68,1.34,21.11,21.11,0,0,1-4.49,2.22l-1,.36a40.83,40.83,0,0,0-4.78,2,18.21,18.21,0,0,1-4.24,1.48,23.65,23.65,0,0,0-3.17.78,13.19,13.19,0,0,1-3.11.56,6.92,6.92,0,0,0-3.11,1,8.59,8.59,0,0,1-3.53,1.05,7.49,7.49,0,0,1-3.88-.7,29.32,29.32,0,0,0-2.69-1.48,6,6,0,0,0-2.18-.57,14.63,14.63,0,0,0-2.33.28,5.13,5.13,0,0,1-2.9-.55,11.53,11.53,0,0,1-3.07-3.12l-.77-1.13a17.55,17.55,0,0,1-2.09-4.8c-.31-1.4-1-1.77-1.41-.84s-1.29,2.39-1.83,3.24-1.44,2.12-2,2.82a4.06,4.06,0,0,1-1.77,1.41,1.93,1.93,0,0,1-1.48-.56,8.48,8.48,0,0,1-1.16-3.4l-.23-1.38c-.25-1.49-.67-1.49-.93,0l0,.14c-.27,1.48-.74,3.86-1,5.29a6.21,6.21,0,0,1-2.68,3.74,16.28,16.28,0,0,1-4.83,1.43l-.93.1a15,15,0,0,1-4.9-.33,17.55,17.55,0,0,0-4.92-.47l-1.47.1a37.12,37.12,0,0,1-4.77-.05,5.8,5.8,0,0,1-3-1.21,16.6,16.6,0,0,1-1.62-1.9,10.09,10.09,0,0,0-3.12-2.06l-3.65-1.68a10.28,10.28,0,0,1-3.55-2.69,22,22,0,0,0-3.11-3.34l-3.51-3.06a36.65,36.65,0,0,1-3.77-3.91l-3.2-3.94a32.47,32.47,0,0,1-2.92-4.39,17.64,17.64,0,0,1-1.56-4.38,16.84,16.84,0,0,1,.07-4.58,15.07,15.07,0,0,1,1.34-4.1,17.23,17.23,0,0,1,3-3.43l2.14-1.89a29.26,29.26,0,0,1,4.43-3.13Z"/><path class="cls-3" d="M609.54,499.88a8.92,8.92,0,0,0,1.46,3.46l.23.29c.64.85,1.72,2.22,2.39,3.05l1.09,1.38a15.08,15.08,0,0,0,2.83,2.58l1.4.92c.89.59,2.39,1.48,3.33,2l3.12,1.65a16.5,16.5,0,0,0,3.61,1.28l7,1.41c.55.11,10.57-.27,11.38-.11s10.4-2,10.4-2a12.85,12.85,0,0,0,3.51-1.51l2.35-1.56c.89-.59,2.32-1.58,3.18-2.21l.53-.39a15.45,15.45,0,0,0,2.72-2.7l1.19-1.58a19.25,19.25,0,0,1,2.53-2.7c.75-.64,1.3-.28,1.21.78l-.07.9a3.83,3.83,0,0,1-1.9,2.79l-.8.4a10.08,10.08,0,0,0-2.91,2.41l-.74,1c-.65.85-1.62,2.3-2.17,3.21l-3.57,5.93c-.55.91-1.37,2.45-1.82,3.41l-.07.13a10.52,10.52,0,0,1-2.31,3l-6.27,5.28c-.82.69-1.15,1.64-.74,2.11s1.45.35,2.31-.29l4.89-3.61a11.43,11.43,0,0,0,2.55-2.82l1.25-2.12c.54-.91,1.38-2.44,1.86-3.4l4.46-8.91a7.68,7.68,0,0,1,2.53-2.72l1.5-.88c.92-.54,1.5-.13,1.31.92l-1.46,7.67a31.07,31.07,0,0,0-.41,3.84l-.27,10c0,1.06,0,2.81,0,3.88l.15,13.48c0,1.07-.06,2.81-.16,3.87l-.52,5.47c-.11,1.07.27,2.06.82,2.2s1.4-.51,1.87-1.47l3.08-6.19c.47-1,1.26-2.51,1.75-3.46l6.1-11.73c.49-1,1.22-2.53,1.62-3.52l3.38-8.35a22.76,22.76,0,0,0,1.06-3.71l1.13-6.47c.18-1,.49-1,.69,0l.38,2a30.52,30.52,0,0,1,.43,3.69,13.67,13.67,0,0,1-.48,3.65l-1.25,4.33a12.12,12.12,0,0,0-.36,3.79l0,.48a13.46,13.46,0,0,0,1,3.68l3.92,8.41c.45,1,1.32,1.48,1.94,1.13s.71-1.4.21-2.34c0,0-4.74-8.95-4.61-9.62s.83-5.52,1-6.2.35-5.79.35-5.79a18.14,18.14,0,0,0-.34-3.83l-1-4.25c-.23-1,0-1.12.46-.16l.58,1.14c.48,1,1.21,2.54,1.62,3.53l1.28,3.07a9,9,0,0,0,2.26,3l3.46,2.74c.84.67,2.24,1.7,3.12,2.3l3.54,2.43a33.85,33.85,0,0,0,3.33,2l5.18,2.57a16.56,16.56,0,0,0,3.64,1.21l11.8,2.17a26.09,26.09,0,0,0,3.84.34l5.79,0a12.33,12.33,0,0,0,3.75-.71l4.56-1.78a20.8,20.8,0,0,0,3.41-1.77l.38-.25a5.63,5.63,0,0,0,2.06-3l.16-.71a6.92,6.92,0,0,0-.32-3.66l-.4-.95a29.32,29.32,0,0,0-1.8-3.42l-.08-.14c-.57-.9-.17-1.53.89-1.4l3.49.44a14.88,14.88,0,0,0,3.83-.1l5.46-1a16.84,16.84,0,0,0,3.66-1.19l3.13-1.53a15.5,15.5,0,0,0,3.16-2.16l1.9-1.79a8.75,8.75,0,0,0,2-3.18l1.19-3.78a9.32,9.32,0,0,0,.24-3.75l-.72-4a7.87,7.87,0,0,0-1.66-3.33l-2.73-2.92c-.72-.78-2-2-2.78-2.69l-.7-.61a13,13,0,0,0-3.27-2l-4.16-1.59c-1-.38-2.65-.93-3.67-1.22L754,484.18a25.68,25.68,0,0,0-3.8-.7l-5.34-.5a29.27,29.27,0,0,0-3.86-.08l-6.05.35a27.44,27.44,0,0,0-3.82.54l-13.48,3a31.44,31.44,0,0,0-3.69,1.13l-7.35,2.91c-1,.38-2.6,1.06-3.58,1.49l-4.87,2.13a3.65,3.65,0,0,1-3,0,2.24,2.24,0,0,1-1.15-1.65c0-.5.83-1.26,1.81-1.69l3.31-1.46a5.84,5.84,0,0,0,2.56-2.55L704,482a11.61,11.61,0,0,1,1.77-2.77,20.69,20.69,0,0,1,2.22-1.9c.69-.48,1-1.19.68-1.57s-1.3-.2-2.18.39l-1.21.81a6.46,6.46,0,0,0-2.21,2.92l-.74,2.31a15.74,15.74,0,0,1-1.68,3.45l0,0a7.15,7.15,0,0,1-2.91,2.28l-.07,0c-1,.38-2,.35-2.3,0s0-1.32.55-2a5.08,5.08,0,0,0,1.1-2.26,4.4,4.4,0,0,0-.46-1.93,10.54,10.54,0,0,0-1-1.56c-.28-.33.15-1.16,1-1.85l5.6-4.73a11.88,11.88,0,0,1,3.32-1.85l5.14-1.68c1-.34,2.66-.9,3.66-1.26l3.7-1.33a3.61,3.61,0,0,0,2.07-1.53c.14-.48-.61-.76-1.67-.62l-3.31.45a16.92,16.92,0,0,0-3.7,1l-6.55,2.82a22.61,22.61,0,0,0-3.36,1.89l-2,1.41a25.77,25.77,0,0,0-2.91,2.52l-2.2,2.32a3.35,3.35,0,0,1-2.49,1.17,4.59,4.59,0,0,1-2.23-1.85l-.47-.7c-.59-.89-1.47-2.39-2-3.34l-3.94-7.65a19.65,19.65,0,0,0-2.16-3.19l-4-4.65a27.07,27.07,0,0,0-2.78-2.68l-3.09-2.48c-.83-.68-1.57-.89-1.66-.47s.54,1.28,1.39,1.92l.73.56A21.23,21.23,0,0,1,674.4,457l4.14,4.8a16,16,0,0,1,2.05,3.24l4.38,9.87a3,3,0,0,1,0,2.68,10.44,10.44,0,0,1-1.67,1.59,3.12,3.12,0,0,0-.89,2.3,10,10,0,0,0,.59,3c.32.76-.17.95-1.09.4l-1.74-1a3.36,3.36,0,0,1-1.49-2.92l.1-1.17a35.52,35.52,0,0,0,.08-3.86l-.16-3.59a10.11,10.11,0,0,0-.69-3.19,3.74,3.74,0,0,0-2-1.68c-.78-.23-1.2.26-.94,1.09s.74,2.11,1.07,2.84a8.21,8.21,0,0,1,.44,3.26l-.48,6.92a4.43,4.43,0,0,0,1.31,3.22l2.89,2.57a2.91,2.91,0,0,1,1,2.62,4.34,4.34,0,0,1-1.16,1.89c-.42.3-1.34-.1-2.05-.89l-8.77-9.77c-.71-.8-1.87-2.1-2.57-2.91l-6.91-7.92a19.44,19.44,0,0,0-2.85-2.59l-8.38-6a38.26,38.26,0,0,0-3.26-2.08l-3.77-2.12a19,19,0,0,0-3.56-1.46l-1.91-.53c-1-.28-2.73-.68-3.77-.88L618.58,452a38,38,0,0,0-3.84-.48l-4.13-.25a15.77,15.77,0,0,0-3.81.35l-2.22.56a16.15,16.15,0,0,0-3.55,1.45l-1.17.68c-.92.54-2.46,1.35-3.43,1.8l-.1.05a8.38,8.38,0,0,0-2.52,1.79,9.47,9.47,0,0,0-1.23,2.86L592,463a10.44,10.44,0,0,0-.07,3.78l.29,1.39a10.38,10.38,0,0,0,1.57,3.45l2.37,3.11a23.37,23.37,0,0,0,2.62,2.83l4,3.51a20.23,20.23,0,0,0,3.16,2.19L611,486l2.6,1.39c.5.25.5.7,0,1s-1.48.92-2.2,1.4a6.59,6.59,0,0,0-2,2.58A8.14,8.14,0,0,0,609,496Z"/><path class="cls-4" d="M1129.8,275.63c-.69.74-1.5.13-1.8-1.36l-1.32-6.57c-.29-1.49-.88-3.9-1.29-5.36l-4.76-16.85c-.41-1.45-1.17-3.81-1.69-5.24l-9.6-26.25c-.52-1.43-1.47-3.72-2.12-5.1l-10.15-21.64a41.86,41.86,0,0,0-2.72-4.79s-8.68-12.78-9.72-13.88-6.29-7-7.05-7.37-2.45-2.69-5.09-3.64-4.27-1.58-4.27-1.58a30.43,30.43,0,0,0-5.14-1.46,12.29,12.29,0,0,1-4.71-2.19s-.55-.45-2.13,1.59-2.39,3.29-2.39,3.29a18,18,0,0,0-2,5l-.57,2.78c-.31,1.48-.75,3.92-1,5.43l-1.7,11.62c-.22,1.5-.44,4-.48,5.48l-.12,4.28a20.81,20.81,0,0,1-1,5.36s-3,8.26-2.93,9.51.09,4.12.09,4.12a20,20,0,0,1-.76,5.39l-.21.68a21.79,21.79,0,0,0-.84,5.39v4.38a7.44,7.44,0,0,1-1.79,4.56,23.14,23.14,0,0,1-4.17,3.15l-.27.15a9.12,9.12,0,0,0-3.3,3.26,34.64,34.64,0,0,1-2,3.55,13.21,13.21,0,0,1-3.44,3.11l-1,.61a11,11,0,0,0-3.24,3c-.5.88-1.48,2.69-2.18,4l-.56,1.06a5.48,5.48,0,0,1-4,2.63l-9.51.61a42,42,0,0,1-5.5-.08l-7.55-.7a17.69,17.69,0,0,0-5.06.37,4.89,4.89,0,0,0-2.9,1.88,1.12,1.12,0,0,0,.47,1.62c.59.19.37.65-.49,1a4.44,4.44,0,0,0-2,1.67c-.26.56.75,1.2,2.25,1.42l.33.06c1.5.22,3.95.6,5.44.85l4.62.76a23,23,0,0,1,5.21,1.63l1.1.52a46,46,0,0,1,4.79,2.71l.12.08a12,12,0,0,1,3.48,3.94,46.39,46.39,0,0,0,2.73,4.71h0a6.41,6.41,0,0,1,1,4.36,15.86,15.86,0,0,1-1.73,4l.15,1c.15,1,.16,1,.16,1a5.68,5.68,0,0,0,2.57,3.65l.77.37c.76.35,5.82,2.73,6.58,3.1a8,8,0,0,1,2.29,1.07l.89.74a11.54,11.54,0,0,0,4.2,2.91l.88.12c.87.09,3.52.28,3.52.28a11.47,11.47,0,0,0,5.19-1.08l14.43-7.54a37.46,37.46,0,0,1,5.08-2.1l4.57-1.45a36.3,36.3,0,0,1,5.36-1.16l4.4-.56c1.5-.18,4-.42,5.49-.52l8.25-.55a32.34,32.34,0,0,1,5.48.2l3.85.53c1.5.21,4,.47,5.48.58,0,0,1.13.08,2.39,0s2.14-.13,2.14-.13c1.51-.19,1.66.27.34,1l-1.15.65a16.25,16.25,0,0,0-4,3.53,24.13,24.13,0,0,0-2.64,4.74s-1.84,4.76-2.32,5.77-2.37,7.33-2.37,7.33c-.43,1.45-1,3.86-1.35,5.34l-1.59,7.58a52.14,52.14,0,0,0-.76,5.45l-.47,6.17a21.49,21.49,0,0,0,.22,4.8c.23,1.14,1,2.13,1.75,2.22a7.18,7.18,0,0,0,3.6-1.4s3.64-2.47,4.88-3.12A20.07,20.07,0,0,0,1104,336a15.83,15.83,0,0,0,3.38-4.21s2.7-5.27,3.06-6,6-11.16,6-11.16c.73-1.33,1.69-3.22,2.15-4.2l.6-1.26c.6-1.26,1.87-5.94,2.23-6.69l.36-.75a7.17,7.17,0,0,1,3-2.09l1.49-.64a18,18,0,0,0,4.54-3l1.65-1.56a20.2,20.2,0,0,0,3.28-4.35l.31-.58c.7-1.34,1.77-3.46,2.36-4.72a6,6,0,0,1,3.07-2.89,4.59,4.59,0,0,0,2.64-2.32,8.94,8.94,0,0,0,.56-3.13,3.48,3.48,0,0,0-1-2.17,2.31,2.31,0,0,0-1.57-.6c-.38.08.39-.48,1.7-1.25l.79-.47a27.2,27.2,0,0,1,5-2.15l9.77-2.83a39.83,39.83,0,0,1,5.39-1.07l5.65-.63c1.5-.17,4-.4,5.49-.51l2.5-.17a16.59,16.59,0,0,0,4.73-1.11,6.51,6.51,0,0,0,2.76-2.57,8.91,8.91,0,0,0,.82-2.72,2.5,2.5,0,0,0-.73-1.73c-.42-.37-.89,0-1,.9a13.7,13.7,0,0,1-.94,3,5.73,5.73,0,0,1-3.32,2.1l-1.4.37c-1.47.38-3.9.87-5.4,1.08l-3.15.44c-1.5.21-3.95.61-5.44.88l-6.43,1.15a48.52,48.52,0,0,0-5.34,1.35l-1.34.44c-1.44.47-3.77,1.33-5.18,1.9l-1.22.49a24.87,24.87,0,0,0-4.07,2.12c-.83.58-.71.12.26-1a19.32,19.32,0,0,1,4.14-3.51l3-1.76a27.91,27.91,0,0,1,5-2.2l6.3-1.91c1.45-.44,3.84-1.11,5.31-1.48l.82-.21a18.17,18.17,0,0,0,3.54-1.21l.35-1.07.36-1.09a12.11,12.11,0,0,0-.34-3.56l-.51-.24-.5-.23a1.81,1.81,0,0,0-1.74.73l.38.17c.38.18,1.53.72,1.41,1.28s.16,1.63-.2,2.08a8.22,8.22,0,0,1-1.46,1.1,25.62,25.62,0,0,1-5,2.21l-1.76.53c-1.46.43-3.85,1.08-5.32,1.44h-.06a23.42,23.42,0,0,0-5,2c-1.28.72-3.39,1.94-4.69,2.72l-.46.29a22.57,22.57,0,0,0-4.24,3.44l0,0c-1,1.11-2.43,1.87-3.11,1.68a12.08,12.08,0,0,0-2.7-.34,7,7,0,0,0-3,.91A16.28,16.28,0,0,0,1129.8,275.63Z"/><path class="cls-5" d="M560.81,585.34a7.51,7.51,0,0,0-2.56-2.56l-1.55-.95a32,32,0,0,0-3.93-2L548.06,578a18.1,18.1,0,0,0-4.23-1l-4.37-.39c-1.2-.11-3.18-.16-4.39-.13l-8.48.29c-1.21,0-3.18.21-4.38.38l-11.06,1.53c-1.2.17-3.14.54-4.31.83L489,583.91c-1.17.29-3.06.86-4.2,1.27l-8.19,3c-1.14.41-3,1.17-4.07,1.67l-3.9,1.8A18.19,18.19,0,0,0,465,594l-1.28,1.11c-.92.79-2.28,1.94-3,2.54s-2.1,1.62-3,2.25-1.73.7-1.85.14a8,8,0,0,1,.12-2.66,3.25,3.25,0,0,0-.87-2.76l-2.34-2.17a2.56,2.56,0,0,0-2.09-.73c-.52.17-.87-.67-.76-1.88l.23-2.72a28.69,28.69,0,0,1,.8-4.31l5-17.26c.34-1.16.91-2.84,1.28-3.72s.48-1.84.23-2.14a.84.84,0,0,0-1-.28,2.09,2.09,0,0,0-.58,1.53,18.67,18.67,0,0,1-.62,3.38l-4.71,17.28a39.41,39.41,0,0,0-.86,4.3l-.4,3a4.58,4.58,0,0,1-.94,2.57l-.66.38-.83.12a4.58,4.58,0,0,1-2.4-1.41l-2.21-2.11a41.23,41.23,0,0,0-3.37-2.82l-14.5-10.53a19.87,19.87,0,0,1-2.6-2.24c-.45-.52-1.08-.89-1.4-.82a.83.83,0,0,0-.59.82c0,.39.69,1.08,1.53,1.52s2.33,1.39,3.31,2.08l14.7,10.37a25.73,25.73,0,0,1,3.31,2.86l1.89,2c.83.88,1.1,1.76.58,1.95a2.57,2.57,0,0,0-1.17,1.87c-.13.84-.34,2.25-.47,3.16a3.27,3.27,0,0,0,1.05,2.7,8.07,8.07,0,0,1,1.76,2c.26.52-.43,1-1.52,1.06s-2.79.12-3.75.12-2.75,0-3.95-.09l-1.71-.06a18.05,18.05,0,0,0-4.33.45l-4.17,1c-1.18.3-3.08.86-4.22,1.25l-8.25,2.79c-1.15.39-3,1.13-4.08,1.64l-16.65,7.75c-1.09.51-2.84,1.44-3.88,2l-9.58,5.73c-1,.61-2.69,1.72-3.65,2.45l-6.8,5.09a43.43,43.43,0,0,0-3.35,2.85l-3.15,3a17.87,17.87,0,0,0-2.68,3.44L358,648.35a31.21,31.21,0,0,0-1.83,4l-.62,1.72a7.83,7.83,0,0,0-.4,3.6,7.5,7.5,0,0,0,2,3l.07.06a9.1,9.1,0,0,0,3.77,1.93l2.71.54a35.64,35.64,0,0,0,4.35.54l10.38.49c1.21.06,3.19.09,4.4.06l5.45-.14c1.21,0,3.18,0,4.39.12,0,0,4.13.31,4.84.31a14.29,14.29,0,0,1,2.81.22,11.86,11.86,0,0,0,3.75.47h2.34a19.44,19.44,0,0,1,2.12.12c.51.07,1.88.22,3,.35l.71-.47.7-.47a28.9,28.9,0,0,0,3.64-.7,3.31,3.31,0,0,1,2.58.24,6.32,6.32,0,0,1,1.28,2.85s.71,3.24.94,4.18a12,12,0,0,0,.36,1.24,5.85,5.85,0,0,0,2.22,2.74l1.4.95c1.41.92,1.41,1.41,2.11,1.87a6.05,6.05,0,0,1,2.12,2.12c.23.68,1.4,2.1,1.4,2.81v.69c.39,1,1.08,1.94,1.53,2a29.36,29.36,0,0,0,3,.12h0a10.22,10.22,0,0,1,4.13,1.05,8.81,8.81,0,0,0,1.36.59,4.06,4.06,0,0,1,1.41,1.11,3.46,3.46,0,0,0,3.49,1l.95-.47.94-.48c0,.13.42.57.94.95a10,10,0,0,1,1.76,1.87,17.42,17.42,0,0,0,1.64,2,4.47,4.47,0,0,1,.82,2.7,17.2,17.2,0,0,0,.61,4l.66,2.32a21,21,0,0,0,1.72,4s1.23,2.09,1.7,2.78l.47.72c1-.14,1.88-.72,1.88-1.3a9.16,9.16,0,0,0-.59-2.58c-.32-.83-1-2.42-1.41-3.52A18.29,18.29,0,0,1,457,698.8a38.63,38.63,0,0,1-.23-4,11,11,0,0,1,.47-3.28,11.19,11.19,0,0,1,1.52-2.46,6.94,6.94,0,0,1,2.23-1.76,6.64,6.64,0,0,1,2-.47c.45,0,1-.58,1.29-1.29a4.08,4.08,0,0,1,1.17-1.75,17,17,0,0,1,2.79-1.17l.73-.24.7-.24a2.48,2.48,0,0,0,.94-2.58,20,20,0,0,1-.58-3.4c-.07-1-.17-2.38-.24-3.16a5.49,5.49,0,0,1,.24-2.22,3.93,3.93,0,0,1,.93-1.29l1.29-1.06a3.55,3.55,0,0,0,.92-1.87c.12-.7.66-.88,1.2-.4a3.53,3.53,0,0,0,1.9.89c.5,0,1.25,0,1.67,0a4,4,0,0,1,1.54.42,5.69,5.69,0,0,1,1.57,1.6l1.8,2.61a19.13,19.13,0,0,1,1.67,3,2.44,2.44,0,0,0,2.35,1.4l.69-.25.71-.27a18.23,18.23,0,0,1,2.92-.83,4.31,4.31,0,0,1,2,.64,1.85,1.85,0,0,0,1.81.2,6.51,6.51,0,0,1,1.85-.89,6.74,6.74,0,0,1,2.84,0,11.58,11.58,0,0,1,2.73,1,10.72,10.72,0,0,1,2.42,2.27,36.89,36.89,0,0,1,2.31,3.24,17.85,17.85,0,0,1,1.6,3.68c.34,1.14.84,2.77,1.11,3.62a8.72,8.72,0,0,0,1.16,2.37c.36.46,1.38.38,2.27-.15l-.08-.85c-.08-.84-.42-3.25-.42-3.25a21.4,21.4,0,0,0-1.17-4.21l-.95-2.22a17.19,17.19,0,0,0-2-3.49,4.49,4.49,0,0,1-1.05-2.61,18.36,18.36,0,0,0,0-2.59,10,10,0,0,1,.2-2.57,2.9,2.9,0,0,0,.14-1.31l1-.21,1.05-.24a3.43,3.43,0,0,0,2.09-3,4.12,4.12,0,0,1,.41-1.77,8.65,8.65,0,0,0,.68-1.3,8.48,8.48,0,0,1,1.49-2.54l1.73-1.4a18.66,18.66,0,0,0,1.67-1.49,3.23,3.23,0,0,0-.07-2.5l-.44-.56c-.44-.54-.4-2.38-.66-3.07a6.06,6.06,0,0,1,.32-3,23.31,23.31,0,0,1,.48-2.79l.51-1.61a5.91,5.91,0,0,0,0-3.52,12.63,12.63,0,0,0-.5-1.2c-.4-.88-1.88-3.85-1.88-3.85a6.44,6.44,0,0,1-.79-3,3.37,3.37,0,0,1,1.86-1.8,30.18,30.18,0,0,0,3.27-1.73l.84-.07.85-.08,2.16-2.18c.36-.37,1.06-1,1.56-1.41l1.83-1.46a11.76,11.76,0,0,0,2.63-2.72,13.89,13.89,0,0,1,2-1.95c.55-.44,3.58-3.27,3.58-3.27.89-.83,2.4-2.1,3.36-2.84l4.33-3.3c1-.74,2.49-2,3.39-2.8l7.78-6.88a36.27,36.27,0,0,0,3.06-3.14l1.78-2.13a9.13,9.13,0,0,0,1.73-3.86v-.07A7.5,7.5,0,0,0,560.81,585.34Z"/><path class="cls-5" d="M560.81,585.34a7.51,7.51,0,0,0-2.56-2.56l-1.55-.95a32,32,0,0,0-3.93-2L548.06,578a18.1,18.1,0,0,0-4.23-1l-4.37-.39c-1.2-.11-3.18-.16-4.39-.13l-8.48.29c-1.21,0-3.18.21-4.38.38l-11.06,1.53c-1.2.17-3.14.54-4.31.83L489,583.91c-1.17.29-3.06.86-4.2,1.27l-8.19,3c-1.14.41-3,1.17-4.07,1.67l-3.9,1.8A18.19,18.19,0,0,0,465,594l-1.28,1.11c-.92.79-2.28,1.94-3,2.54s-2.1,1.62-3,2.25-1.73.7-1.85.14a8,8,0,0,1,.12-2.66,3.25,3.25,0,0,0-.87-2.76l-2.34-2.17a2.56,2.56,0,0,0-2.09-.73c-.52.17-.87-.67-.76-1.88l.23-2.72a28.69,28.69,0,0,1,.8-4.31l5-17.26c.34-1.16.91-2.84,1.28-3.72s.48-1.84.23-2.14a.84.84,0,0,0-1-.28,2.09,2.09,0,0,0-.58,1.53,18.67,18.67,0,0,1-.62,3.38l-4.71,17.28a39.41,39.41,0,0,0-.86,4.3l-.4,3a4.58,4.58,0,0,1-.94,2.57l-.66.38-.83.12a4.58,4.58,0,0,1-2.4-1.41l-2.21-2.11a41.23,41.23,0,0,0-3.37-2.82l-14.5-10.53a19.87,19.87,0,0,1-2.6-2.24c-.45-.52-1.08-.89-1.4-.82a.83.83,0,0,0-.59.82c0,.39.69,1.08,1.53,1.52s2.33,1.39,3.31,2.08l14.7,10.37a25.73,25.73,0,0,1,3.31,2.86l1.89,2c.83.88,1.1,1.76.58,1.95a2.57,2.57,0,0,0-1.17,1.87c-.13.84-.34,2.25-.47,3.16a3.27,3.27,0,0,0,1.05,2.7,8.07,8.07,0,0,1,1.76,2c.26.52-.43,1-1.52,1.06s-2.79.12-3.75.12-2.75,0-3.95-.09l-1.71-.06a18.05,18.05,0,0,0-4.33.45l-4.17,1c-1.18.3-3.08.86-4.22,1.25l-8.25,2.79c-1.15.39-3,1.13-4.08,1.64l-16.65,7.75c-1.09.51-2.84,1.44-3.88,2l-9.58,5.73c-1,.61-2.69,1.72-3.65,2.45l-6.8,5.09a43.43,43.43,0,0,0-3.35,2.85l-3.15,3a17.87,17.87,0,0,0-2.68,3.44L358,648.35a31.21,31.21,0,0,0-1.83,4l-.62,1.72a7.83,7.83,0,0,0-.4,3.6,7.5,7.5,0,0,0,2,3l.07.06a9.1,9.1,0,0,0,3.77,1.93l2.71.54a35.64,35.64,0,0,0,4.35.54l10.38.49c1.21.06,3.19.09,4.4.06l5.45-.14c1.21,0,3.18,0,4.39.12,0,0,4.13.31,4.84.31a14.29,14.29,0,0,1,2.81.22,11.86,11.86,0,0,0,3.75.47h2.34a19.44,19.44,0,0,1,2.12.12c.51.07,1.88.22,3,.35l.71-.47.7-.47a28.9,28.9,0,0,0,3.64-.7,3.31,3.31,0,0,1,2.58.24,6.32,6.32,0,0,1,1.28,2.85s.71,3.24.94,4.18a12,12,0,0,0,.36,1.24,5.85,5.85,0,0,0,2.22,2.74l1.4.95c1.41.92,1.41,1.41,2.11,1.87a6.05,6.05,0,0,1,2.12,2.12c.23.68,1.4,2.1,1.4,2.81v.69c.39,1,1.08,1.94,1.53,2a29.36,29.36,0,0,0,3,.12h0a10.22,10.22,0,0,1,4.13,1.05,8.81,8.81,0,0,0,1.36.59,4.06,4.06,0,0,1,1.41,1.11,3.46,3.46,0,0,0,3.49,1l.95-.47.94-.48c0,.13.42.57.94.95a10,10,0,0,1,1.76,1.87,17.42,17.42,0,0,0,1.64,2,4.47,4.47,0,0,1,.82,2.7,17.2,17.2,0,0,0,.61,4l.66,2.32a21,21,0,0,0,1.72,4s1.23,2.09,1.7,2.78l.47.72c1-.14,1.88-.72,1.88-1.3a9.16,9.16,0,0,0-.59-2.58c-.32-.83-1-2.42-1.41-3.52A18.29,18.29,0,0,1,457,698.8a38.63,38.63,0,0,1-.23-4,11,11,0,0,1,.47-3.28,11.19,11.19,0,0,1,1.52-2.46,6.94,6.94,0,0,1,2.23-1.76,6.64,6.64,0,0,1,2-.47c.45,0,1-.58,1.29-1.29a4.08,4.08,0,0,1,1.17-1.75,17,17,0,0,1,2.79-1.17l.73-.24.7-.24a2.48,2.48,0,0,0,.94-2.58,20,20,0,0,1-.58-3.4c-.07-1-.17-2.38-.24-3.16a5.49,5.49,0,0,1,.24-2.22,3.93,3.93,0,0,1,.93-1.29l1.29-1.06a3.55,3.55,0,0,0,.92-1.87c.12-.7.66-.88,1.2-.4a3.53,3.53,0,0,0,1.9.89c.5,0,1.25,0,1.67,0a4,4,0,0,1,1.54.42,5.69,5.69,0,0,1,1.57,1.6l1.8,2.61a19.13,19.13,0,0,1,1.67,3,2.44,2.44,0,0,0,2.35,1.4l.69-.25.71-.27a18.23,18.23,0,0,1,2.92-.83,4.31,4.31,0,0,1,2,.64,1.85,1.85,0,0,0,1.81.2,6.51,6.51,0,0,1,1.85-.89,6.74,6.74,0,0,1,2.84,0,11.58,11.58,0,0,1,2.73,1,10.72,10.72,0,0,1,2.42,2.27,36.89,36.89,0,0,1,2.31,3.24,17.85,17.85,0,0,1,1.6,3.68c.34,1.14.84,2.77,1.11,3.62a8.72,8.72,0,0,0,1.16,2.37c.36.46,1.38.38,2.27-.15l-.08-.85c-.08-.84-.42-3.25-.42-3.25a21.4,21.4,0,0,0-1.17-4.21l-.95-2.22a17.19,17.19,0,0,0-2-3.49,4.49,4.49,0,0,1-1.05-2.61,18.36,18.36,0,0,0,0-2.59,10,10,0,0,1,.2-2.57,2.9,2.9,0,0,0,.14-1.31l1-.21,1.05-.24a3.43,3.43,0,0,0,2.09-3,4.12,4.12,0,0,1,.41-1.77,8.65,8.65,0,0,0,.68-1.3,8.48,8.48,0,0,1,1.49-2.54l1.73-1.4a18.66,18.66,0,0,0,1.67-1.49,3.23,3.23,0,0,0-.07-2.5l-.44-.56c-.44-.54-.4-2.38-.66-3.07a6.06,6.06,0,0,1,.32-3,23.31,23.31,0,0,1,.48-2.79l.51-1.61a5.91,5.91,0,0,0,0-3.52,12.63,12.63,0,0,0-.5-1.2c-.4-.88-1.88-3.85-1.88-3.85a6.44,6.44,0,0,1-.79-3,3.37,3.37,0,0,1,1.86-1.8,30.18,30.18,0,0,0,3.27-1.73l.84-.07.85-.08,2.16-2.18c.36-.37,1.06-1,1.56-1.41l1.83-1.46a11.76,11.76,0,0,0,2.63-2.72,13.89,13.89,0,0,1,2-1.95c.55-.44,3.58-3.27,3.58-3.27.89-.83,2.4-2.1,3.36-2.84l4.33-3.3c1-.74,2.49-2,3.39-2.8l7.78-6.88a36.27,36.27,0,0,0,3.06-3.14l1.78-2.13a9.13,9.13,0,0,0,1.73-3.86v-.07A7.5,7.5,0,0,0,560.81,585.34Z"/><path class="cls-6" d="M581.48,338.31l-.64-.8a20.18,20.18,0,0,0-2.42-1.06c-.91-.35-2.75-1-4.08-1.43l-1.49-.5a32.38,32.38,0,0,0-5-1.13l-1.81-.24c-1.39-.17-3.68-.36-5.08-.4l-2.13-.07a43.39,43.39,0,0,0-5.1.18l-9.29,1c-1.4.15-3.67.49-5.05.76l-8,1.58a46.47,46.47,0,0,0-4.93,1.31l-6.58,2.22a48.1,48.1,0,0,0-4.72,1.92l-2.24,1.08c-1.27.61-3.28,1.72-4.47,2.46,0,0-7.77,4.88-8.12,5.18s-7,6.77-7.23,7.15-4,4.46-4.71,5.73-.49.56-1.16.52-.81-.64-1.16-.77-.29-1.1-.55-2.11l-.26-1a1.29,1.29,0,0,0,1.1-1.14l-1-1.24c-1-1.26-.65-.47-1.34-.63a3.23,3.23,0,0,0-1.4-.05l-.3.08a1.44,1.44,0,0,1-1.55-1.2,14.52,14.52,0,0,1,0-4,2.62,2.62,0,0,0,0-.85l-.11-.41c.44-1,1.19-2.9,1.67-4.22l.44-1.22c.48-1.31,1.23-3.49,1.67-4.82l1.5-4.55a46.42,46.42,0,0,0,1.26-4.94,64.75,64.75,0,0,1,1.41-6.32c.52-1.31-.11-1.25-.4-1.93s-1.51,0-1.63.32.36.55.59,1a10,10,0,0,1,0,4.17,30.69,30.69,0,0,1-1.26,5.36,60.7,60.7,0,0,1-2.07,6.43c-.33.41-3.36,9.67-3.53,10.24a13.47,13.47,0,0,0-.2,2.32,30.78,30.78,0,0,0,.16,3.69c.1.62.12,1.18,0,1.22a1.88,1.88,0,0,1-.57.14c-.23,0-.63-.42-.9-1a28,28,0,0,0-2-3.11,14,14,0,0,0-1.49-1.8c-.46-.37-8.26-6.24-8.76-6.37a64,64,0,0,1-5.37-4.1,30.78,30.78,0,0,1-4.11-3.67,10.06,10.06,0,0,1-2.37-3.44c-.09-.52.2-1-.1-1.18s-1.68,0-1.52.68-.39,1,.77,1.81a61.79,61.79,0,0,1,4.78,4.37,42.19,42.19,0,0,0,3.86,3.34l3.82,2.85c1.13.84,3,2.2,4.14,3l1.06.76c1.15.81,2.85,1.93,3.79,2.49l.14.39a2.65,2.65,0,0,0,.46.74,14.33,14.33,0,0,1,2.27,3.23,1.41,1.41,0,0,1-.58,1.86l-.29.11a3.33,3.33,0,0,0-1.12.86c-.48.51-.66-.3-.75,1.28l-.08,1.57a1.29,1.29,0,0,0,1.55.31l.37,1c.35,1,1,1.72.74,2s0,.88-.51,1.3.09.85-1.24.23-6.74-1.82-7.15-2-9.55-1.66-10-1.71-9.62.4-9.62.4c-1.41.06-3.69.3-5.08.52l-2.45.4a47.18,47.18,0,0,0-5,1.13l-6.65,1.95a47.23,47.23,0,0,0-4.79,1.75l-7.49,3.29c-1.29.57-3.35,1.59-4.58,2.27l-8.18,4.53a44.67,44.67,0,0,0-4.28,2.77l-1.71,1.27c-1.12.85-2.89,2.3-3.93,3.25L394.06,388a32.87,32.87,0,0,0-3.42,3.76l-.93,1.25c-.85,1.13-2,2.71-2.54,3.51a23,23,0,0,0-1.37,2.27l-.06,1a3.52,3.52,0,0,0,.47,2.48,22.14,22.14,0,0,0,2.51,2.62c.92,1,1.64,2,2.62,2l1-.05c1.21.16,3.35.4,4.76.54,0,0,2.94.27,4-.22a4.16,4.16,0,0,1,3.4-.37,6.23,6.23,0,0,0,4.18-.33c1.36-.5,3.42-1.8,4.09-1.5a3.14,3.14,0,0,0,2.51.51c1.7-.18,3.27-1.32,3.91-.77s.09,1.17,1.52,1.42a9.47,9.47,0,0,0,3.76,0c.68-.25,1-1.56,2-.62l1,.95a22.72,22.72,0,0,1,3.21.92l1.26-.47c1.26-.46,2.37-1.65,2.79-.8s1.48,1.32,2.09,1.76l.6.44a4.38,4.38,0,0,1,2,.83l.58,1.57c.57,1.54.87.87.69,3.05s-.26,2.29.25,3.66,1,2.63,1.52,3.84.66,2.09,1.93,2.84,1.48.12,1.56,1.85a11.1,11.1,0,0,0,.95,4.06c.38.75,3.1,1.52,3.79,2.8a19,19,0,0,1,1.49,3.44c.72,1.94.33,2.09,2.92,3.44s3.23,2.46,5.43,3.64S461,445,464.59,445s5,.47,5.91.14a12.36,12.36,0,0,1,3.64-.89c1.31,0,.52-.09,4.08-.63s3.56-1.42,4.9-2.25,1.62-2.8,1.87-3.33a26.54,26.54,0,0,0,1.14-5.29,32.43,32.43,0,0,1,.6-4.08c.07-.69-.62-12.41-.62-12.41-.08-1.4-.27-3.69-.41-5.09l-.37-3.64c-.14-1.39-.44-3.67-.66-5.06l-.27-1.74c-.23-1.39-.6-3.66-.84-5.05l-.72-4.07c-.24-1.39.09-1.5.72-.24l3.81,7.53c.63,1.25,1.61,3.34,2.17,4.62,0,0,.39.89.5,1.19a1.72,1.72,0,0,0,.15.34,10.79,10.79,0,0,0,2.46,2.39,5.7,5.7,0,0,0,2,.41,6.12,6.12,0,0,1,1.16.06,6.63,6.63,0,0,0,1-.63,5.87,5.87,0,0,0,1.42-1.5,10.67,10.67,0,0,0,.65-3.38,1.22,1.22,0,0,0-.07-.36c-.08-.3-.27-1.25-.27-1.25-.27-1.38-.66-3.65-.86-5l-1.19-8.36c-.2-1.4.12-1.5.72-.22l1.75,3.77c.6,1.28,1.58,3.35,2.2,4.62l.77,1.58c.62,1.26,1.68,3.3,2.36,4.53l1.78,3.2c.69,1.22,1.85,3.21,2.58,4.41,0,0,6.14,10,6.59,10.52a31.34,31.34,0,0,1,2.82,3,25.7,25.7,0,0,0,4,3.69c.5.29,1.85,1.77,3.43,1.67s2.1.63,5.32-1,2.6-1.11,3.69-1.82A12.35,12.35,0,0,1,538,424c.91-.24,1.77-1.42,4.76-3.5s1.31-1.52,2.45-3.74,1-3.48,2.37-6.08,1-2.51.43-4.51a18.82,18.82,0,0,1-.75-3.66c-.16-1.45,1.62-3.64,1.51-4.47a11,11,0,0,0-1.55-3.87c-.92-1.48-.39-1.08.23-2.42s.2-2.08,0-3.42-.59-2.63-1-4-.5-1.5-1.89-3.15-.78-1.31-1.2-2.91l-.42-1.6a4.47,4.47,0,0,1,1.14-1.81l.24-.69a6,6,0,0,0,.7-2.65c-.13-.93,1.45-.58,2.76-.94l1.3-.33a24.83,24.83,0,0,1,2.1-2.6l.3-1.35c.28-1.36,1.27-.45,2-.62a9.78,9.78,0,0,0,3.07-2.2c1-1,.21-1.23.43-2.05s2.15-.77,3.65-1.59a3,3,0,0,0,1.76-1.85c.37-.64,2.8-.74,4.22-1.1a6.45,6.45,0,0,0,3.62-2.13,4.11,4.11,0,0,1,3-1.65c1.13-.18,3.39-2.1,3.39-2.1,1.07-.91,2.69-2.33,3.59-3.15l.82-.54c.83-.54.81-1.81,1-3.15a22.59,22.59,0,0,0,.56-3.57A3.47,3.47,0,0,0,581.48,338.31Z"/><path class="cls-6" d="M581.48,338.31l-.64-.8a20.18,20.18,0,0,0-2.42-1.06c-.91-.35-2.75-1-4.08-1.43l-1.49-.5a32.38,32.38,0,0,0-5-1.13l-1.81-.24c-1.39-.17-3.68-.36-5.08-.4l-2.13-.07a43.39,43.39,0,0,0-5.1.18l-9.29,1c-1.4.15-3.67.49-5.05.76l-8,1.58a46.47,46.47,0,0,0-4.93,1.31l-6.58,2.22a48.1,48.1,0,0,0-4.72,1.92l-2.24,1.08c-1.27.61-3.28,1.72-4.47,2.46,0,0-7.77,4.88-8.12,5.18s-7,6.77-7.23,7.15-4,4.46-4.71,5.73-.49.56-1.16.52-.81-.64-1.16-.77-.29-1.1-.55-2.11l-.26-1a1.29,1.29,0,0,0,1.1-1.14l-1-1.24c-1-1.26-.65-.47-1.34-.63a3.23,3.23,0,0,0-1.4-.05l-.3.08a1.44,1.44,0,0,1-1.55-1.2,14.52,14.52,0,0,1,0-4,2.62,2.62,0,0,0,0-.85l-.11-.41c.44-1,1.19-2.9,1.67-4.22l.44-1.22c.48-1.31,1.23-3.49,1.67-4.82l1.5-4.55a46.42,46.42,0,0,0,1.26-4.94,64.75,64.75,0,0,1,1.41-6.32c.52-1.31-.11-1.25-.4-1.93s-1.51,0-1.63.32.36.55.59,1a10,10,0,0,1,0,4.17,30.69,30.69,0,0,1-1.26,5.36,60.7,60.7,0,0,1-2.07,6.43c-.33.41-3.36,9.67-3.53,10.24a13.47,13.47,0,0,0-.2,2.32,30.78,30.78,0,0,0,.16,3.69c.1.62.12,1.18,0,1.22a1.88,1.88,0,0,1-.57.14c-.23,0-.63-.42-.9-1a28,28,0,0,0-2-3.11,14,14,0,0,0-1.49-1.8c-.46-.37-8.26-6.24-8.76-6.37a64,64,0,0,1-5.37-4.1,30.78,30.78,0,0,1-4.11-3.67,10.06,10.06,0,0,1-2.37-3.44c-.09-.52.2-1-.1-1.18s-1.68,0-1.52.68-.39,1,.77,1.81a61.79,61.79,0,0,1,4.78,4.37,42.19,42.19,0,0,0,3.86,3.34l3.82,2.85c1.13.84,3,2.2,4.14,3l1.06.76c1.15.81,2.85,1.93,3.79,2.49l.14.39a2.65,2.65,0,0,0,.46.74,14.33,14.33,0,0,1,2.27,3.23,1.41,1.41,0,0,1-.58,1.86l-.29.11a3.33,3.33,0,0,0-1.12.86c-.48.51-.66-.3-.75,1.28l-.08,1.57a1.29,1.29,0,0,0,1.55.31l.37,1c.35,1,1,1.72.74,2s0,.88-.51,1.3.09.85-1.24.23-6.74-1.82-7.15-2-9.55-1.66-10-1.71-9.62.4-9.62.4c-1.41.06-3.69.3-5.08.52l-2.45.4a47.18,47.18,0,0,0-5,1.13l-6.65,1.95a47.23,47.23,0,0,0-4.79,1.75l-7.49,3.29c-1.29.57-3.35,1.59-4.58,2.27l-8.18,4.53a44.67,44.67,0,0,0-4.28,2.77l-1.71,1.27c-1.12.85-2.89,2.3-3.93,3.25L394.06,388a32.87,32.87,0,0,0-3.42,3.76l-.93,1.25c-.85,1.13-2,2.71-2.54,3.51a23,23,0,0,0-1.37,2.27l-.06,1a3.52,3.52,0,0,0,.47,2.48,22.14,22.14,0,0,0,2.51,2.62c.92,1,1.64,2,2.62,2l1-.05c1.21.16,3.35.4,4.76.54,0,0,2.94.27,4-.22a4.16,4.16,0,0,1,3.4-.37,6.23,6.23,0,0,0,4.18-.33c1.36-.5,3.42-1.8,4.09-1.5a3.14,3.14,0,0,0,2.51.51c1.7-.18,3.27-1.32,3.91-.77s.09,1.17,1.52,1.42a9.47,9.47,0,0,0,3.76,0c.68-.25,1-1.56,2-.62l1,.95a22.72,22.72,0,0,1,3.21.92l1.26-.47c1.26-.46,2.37-1.65,2.79-.8s1.48,1.32,2.09,1.76l.6.44a4.38,4.38,0,0,1,2,.83l.58,1.57c.57,1.54.87.87.69,3.05s-.26,2.29.25,3.66,1,2.63,1.52,3.84.66,2.09,1.93,2.84,1.48.12,1.56,1.85a11.1,11.1,0,0,0,.95,4.06c.38.75,3.1,1.52,3.79,2.8a19,19,0,0,1,1.49,3.44c.72,1.94.33,2.09,2.92,3.44s3.23,2.46,5.43,3.64S461,445,464.59,445s5,.47,5.91.14a12.36,12.36,0,0,1,3.64-.89c1.31,0,.52-.09,4.08-.63s3.56-1.42,4.9-2.25,1.62-2.8,1.87-3.33a26.54,26.54,0,0,0,1.14-5.29,32.43,32.43,0,0,1,.6-4.08c.07-.69-.62-12.41-.62-12.41-.08-1.4-.27-3.69-.41-5.09l-.37-3.64c-.14-1.39-.44-3.67-.66-5.06l-.27-1.74c-.23-1.39-.6-3.66-.84-5.05l-.72-4.07c-.24-1.39.09-1.5.72-.24l3.81,7.53c.63,1.25,1.61,3.34,2.17,4.62,0,0,.39.89.5,1.19a1.72,1.72,0,0,0,.15.34,10.79,10.79,0,0,0,2.46,2.39,5.7,5.7,0,0,0,2,.41,6.12,6.12,0,0,1,1.16.06,6.63,6.63,0,0,0,1-.63,5.87,5.87,0,0,0,1.42-1.5,10.67,10.67,0,0,0,.65-3.38,1.22,1.22,0,0,0-.07-.36c-.08-.3-.27-1.25-.27-1.25-.27-1.38-.66-3.65-.86-5l-1.19-8.36c-.2-1.4.12-1.5.72-.22l1.75,3.77c.6,1.28,1.58,3.35,2.2,4.62l.77,1.58c.62,1.26,1.68,3.3,2.36,4.53l1.78,3.2c.69,1.22,1.85,3.21,2.58,4.41,0,0,6.14,10,6.59,10.52a31.34,31.34,0,0,1,2.82,3,25.7,25.7,0,0,0,4,3.69c.5.29,1.85,1.77,3.43,1.67s2.1.63,5.32-1,2.6-1.11,3.69-1.82A12.35,12.35,0,0,1,538,424c.91-.24,1.77-1.42,4.76-3.5s1.31-1.52,2.45-3.74,1-3.48,2.37-6.08,1-2.51.43-4.51a18.82,18.82,0,0,1-.75-3.66c-.16-1.45,1.62-3.64,1.51-4.47a11,11,0,0,0-1.55-3.87c-.92-1.48-.39-1.08.23-2.42s.2-2.08,0-3.42-.59-2.63-1-4-.5-1.5-1.89-3.15-.78-1.31-1.2-2.91l-.42-1.6a4.47,4.47,0,0,1,1.14-1.81l.24-.69a6,6,0,0,0,.7-2.65c-.13-.93,1.45-.58,2.76-.94l1.3-.33a24.83,24.83,0,0,1,2.1-2.6l.3-1.35c.28-1.36,1.27-.45,2-.62a9.78,9.78,0,0,0,3.07-2.2c1-1,.21-1.23.43-2.05s2.15-.77,3.65-1.59a3,3,0,0,0,1.76-1.85c.37-.64,2.8-.74,4.22-1.1a6.45,6.45,0,0,0,3.62-2.13,4.11,4.11,0,0,1,3-1.65c1.13-.18,3.39-2.1,3.39-2.1,1.07-.91,2.69-2.33,3.59-3.15l.82-.54c.83-.54.81-1.81,1-3.15a22.59,22.59,0,0,0,.56-3.57A3.47,3.47,0,0,0,581.48,338.31Z"/><path class="cls-7" d="M1084.49,491.74a15.21,15.21,0,0,0-2.76-3.76l-2.78-2.67a35.31,35.31,0,0,0-3.88-3.12l-6.58-4.42a42.06,42.06,0,0,0-4.32-2.49l-2.72-1.32c-1.23-.6-3.29-1.51-4.57-2l-13.83-5.51c-1.28-.51-3.4-1.25-4.72-1.66l-12.48-3.83c-1.31-.4-3.46-1.07-4.77-1.49l-11.14-3.52c-1.31-.41-3.48-1-4.83-1.29,0,0-9.38-2-9.79-2s-20.22-2.54-20.22-2.54c-1.36-.18-2.6-1-2.75-1.74a10.53,10.53,0,0,1-.2-2.24,2,2,0,0,1,.74-1.3,13.51,13.51,0,0,0,1.43-1.23,4.54,4.54,0,0,0,1-1.69,4.69,4.69,0,0,0,.07-1.9,3,3,0,0,0-.69-1.36c-.26-.23-.59-.53-.74-.68s-.06-.55.21-.88a6.35,6.35,0,0,1,1.9-1.29,29.07,29.07,0,0,1,3.84-1.35l2.65-.72a30.18,30.18,0,0,1,4.9-.81l1.95-.1c1.37-.09,3.6-.32,5-.52l2.4-.35a29.45,29.45,0,0,1,5-.22l1.8.11a38.86,38.86,0,0,1,4.94.68h0a11.38,11.38,0,0,1,3.53,1.36l.41.14.41.13a3.37,3.37,0,0,0,2,.08,1.46,1.46,0,0,0,.68-.95,1.73,1.73,0,0,0-.68-1.23,3.12,3.12,0,0,0-1.7-.62,5.1,5.1,0,0,0-1.5.21,9.33,9.33,0,0,1-2.65-.07l-4.58-.59-1.3-.18a26.52,26.52,0,0,0-5-.06l-9.31,1c-1.36.14-3.59.47-4.94.72l-.11,0a45.32,45.32,0,0,0-4.56,1.14,31,31,0,0,0-3.74,1.5,7.75,7.75,0,0,0-2.24,1.63,1.53,1.53,0,0,1-1.51.54l-.88-.27s-.41-.15-.92-.31a1.52,1.52,0,0,1-1-1.3,7.44,7.44,0,0,0-.93-2.61,32.46,32.46,0,0,0-2.23-3.36,44.68,44.68,0,0,0-3.13-3.51l-.09-.1c-1-1-2.62-2.49-3.67-3.38l-7.12-6a25.79,25.79,0,0,0-4.13-2.75l-1.17-.59-4.12-2.1a9.38,9.38,0,0,1-2.22-1.45,5.21,5.21,0,0,0-1.12-1,3.15,3.15,0,0,0-1.75-.46,1.73,1.73,0,0,0-1.25.63,1.42,1.42,0,0,0,0,1.16,3.39,3.39,0,0,0,1.67,1.07l.41.11.41.13a11.11,11.11,0,0,1,3.68.87h0a37.79,37.79,0,0,1,4.46,2.22l1.55.92a28.94,28.94,0,0,1,4,3l1.78,1.64c1,.94,2.72,2.38,3.81,3.23l1.53,1.18a29.28,29.28,0,0,1,3.6,3.44l1.78,2.09a28.38,28.38,0,0,1,2.41,3.28,6.75,6.75,0,0,1,.85,2.15c0,.43-.13.81-.34.85s-.65.09-1,.12a2.82,2.82,0,0,0-1.33.73,4.81,4.81,0,0,0-1,1.63,4.64,4.64,0,0,0-.12,2,13.38,13.38,0,0,0,.49,1.81,2,2,0,0,1-.12,1.49,10.7,10.7,0,0,1-1.43,1.74c-.56.56-2,.51-3.25-.12,0,0-17.79-9.09-18.13-9.32s-9.24-3.84-9.24-3.84c-1.27-.52-3.39-1.27-4.71-1.66l-11.17-3.38c-1.32-.39-3.47-1.06-4.78-1.46l-12.47-3.89c-1.31-.41-3.48-1-4.82-1.29L880,417.21c-1.34-.31-3.55-.71-4.91-.91l-3-.43a43.58,43.58,0,0,0-5-.38l-7.95-.07a35.77,35.77,0,0,0-5,.38l-3.79.63A15.77,15.77,0,0,0,846,418a10.27,10.27,0,0,0-3.1,3.22,12.79,12.79,0,0,0-1.39,3.83,17.7,17.7,0,0,0,.16,4,27.07,27.07,0,0,0,.81,3.51,25.46,25.46,0,0,0,1.42,3.12,20.57,20.57,0,0,0,2.57,3.56,22.76,22.76,0,0,0,3.23,2.88,8.47,8.47,0,0,0,3.32,1.28,14.55,14.55,0,0,1,4,1.25l1.82.86a16.87,16.87,0,0,0,3.66,1.3,10.36,10.36,0,0,1,3.43,1.71l12,8.79a27.59,27.59,0,0,0,4.3,2.51l.35.16a19.27,19.27,0,0,0,4.63,1.32c1.3.16,2.39.62,2.44,1a9.36,9.36,0,0,1,0,1.27,14.06,14.06,0,0,0,.76,2.92l.14.4a8,8,0,0,0,1.78,3.11,14,14,0,0,0,1.89,1.2,2.28,2.28,0,0,1,1.06,1,2.28,2.28,0,0,0,1.06,1,4,4,0,0,1,1.47,2.06,5.39,5.39,0,0,0,1.61,2.33,10.55,10.55,0,0,0,2.72,1.2,9.11,9.11,0,0,1,3.07,1.77,23,23,0,0,1,2.4,2.63,8.52,8.52,0,0,0,3.32,2.21,2.35,2.35,0,0,0,1.27.11c.46-.18.65-.07.65-.07,1.17.72,3.1,1.88,4.29,2.57l2.15,1.26,4.33,2.51,2.15,1.27a17.2,17.2,0,0,0,4.61,1.72l1.06.26a31.76,31.76,0,0,0,5,.32l.54,0a19,19,0,0,0,4.39-.66,13.37,13.37,0,0,1,3.07-.63,6.55,6.55,0,0,0,2.92-1.38,5.37,5.37,0,0,1,2.6-1.26c.46,0,.61,1.18.32,2.53a14,14,0,0,0-.36,3.53,3,3,0,0,0,.85,1.65c.37.3.69.55.68.56l.88-.07a2.94,2.94,0,0,0,1.63-.88,13.91,13.91,0,0,0,1.7-3.12c.52-1.27,1.29-2.13,1.7-1.9a5.58,5.58,0,0,1,1.42,2.51,6.42,6.42,0,0,0,1.64,2.78,14.34,14.34,0,0,1,2.17,2.25,19.6,19.6,0,0,0,3.25,3l.44.32a30.72,30.72,0,0,0,4.28,2.54,27.83,27.83,0,0,0,3.31,1.37c.41,0,5,.35,5,.35l5,.38,2.49.18c1.37.11,3.11.22,3.86.25a19.33,19.33,0,0,1,3.39,1.09,5.83,5.83,0,0,0,3.33.07,22.49,22.49,0,0,1,3.48-.82,9.18,9.18,0,0,1,3.53.27,11.15,11.15,0,0,0,2.92.54,5.34,5.34,0,0,0,2.65-1,4.06,4.06,0,0,1,2.38-.89,2.37,2.37,0,0,0,1.43-.2,2.25,2.25,0,0,1,1.42-.2,14.83,14.83,0,0,0,2.24.06,7.94,7.94,0,0,0,3.23-1.57l.34-.25a13.78,13.78,0,0,0,2.27-2,8.11,8.11,0,0,1,.76-1c.26-.3,1.42-.05,2.58.55a19.2,19.2,0,0,0,4.57,1.53l.38.07a29.34,29.34,0,0,0,5,.36l14.85-.52a10.32,10.32,0,0,1,3.78.53,17.65,17.65,0,0,0,3.76,1l2,.31a15.49,15.49,0,0,1,4,1.21,8.56,8.56,0,0,0,3.47.82,22.77,22.77,0,0,0,4.28-.54,21.92,21.92,0,0,0,4.14-1.51,28.87,28.87,0,0,0,2.93-1.76,30.9,30.9,0,0,0,2.65-2.45,17.68,17.68,0,0,0,2.38-3.19,12.52,12.52,0,0,0,1-3.95A10.38,10.38,0,0,0,1084.49,491.74Z"/><path class="cls-7" d="M1084.49,491.74a15.21,15.21,0,0,0-2.76-3.76l-2.78-2.67a35.31,35.31,0,0,0-3.88-3.12l-6.58-4.42a42.06,42.06,0,0,0-4.32-2.49l-2.72-1.32c-1.23-.6-3.29-1.51-4.57-2l-13.83-5.51c-1.28-.51-3.4-1.25-4.72-1.66l-12.48-3.83c-1.31-.4-3.46-1.07-4.77-1.49l-11.14-3.52c-1.31-.41-3.48-1-4.83-1.29,0,0-9.38-2-9.79-2s-20.22-2.54-20.22-2.54c-1.36-.18-2.6-1-2.75-1.74a10.53,10.53,0,0,1-.2-2.24,2,2,0,0,1,.74-1.3,13.51,13.51,0,0,0,1.43-1.23,4.54,4.54,0,0,0,1-1.69,4.69,4.69,0,0,0,.07-1.9,3,3,0,0,0-.69-1.36c-.26-.23-.59-.53-.74-.68s-.06-.55.21-.88a6.35,6.35,0,0,1,1.9-1.29,29.07,29.07,0,0,1,3.84-1.35l2.65-.72a30.18,30.18,0,0,1,4.9-.81l1.95-.1c1.37-.09,3.6-.32,5-.52l2.4-.35a29.45,29.45,0,0,1,5-.22l1.8.11a38.86,38.86,0,0,1,4.94.68h0a11.38,11.38,0,0,1,3.53,1.36l.41.14.41.13a3.37,3.37,0,0,0,2,.08,1.46,1.46,0,0,0,.68-.95,1.73,1.73,0,0,0-.68-1.23,3.12,3.12,0,0,0-1.7-.62,5.1,5.1,0,0,0-1.5.21,9.33,9.33,0,0,1-2.65-.07l-4.58-.59-1.3-.18a26.52,26.52,0,0,0-5-.06l-9.31,1c-1.36.14-3.59.47-4.94.72l-.11,0a45.32,45.32,0,0,0-4.56,1.14,31,31,0,0,0-3.74,1.5,7.75,7.75,0,0,0-2.24,1.63,1.53,1.53,0,0,1-1.51.54l-.88-.27s-.41-.15-.92-.31a1.52,1.52,0,0,1-1-1.3,7.44,7.44,0,0,0-.93-2.61,32.46,32.46,0,0,0-2.23-3.36,44.68,44.68,0,0,0-3.13-3.51l-.09-.1c-1-1-2.62-2.49-3.67-3.38l-7.12-6a25.79,25.79,0,0,0-4.13-2.75l-1.17-.59-4.12-2.1a9.38,9.38,0,0,1-2.22-1.45,5.21,5.21,0,0,0-1.12-1,3.15,3.15,0,0,0-1.75-.46,1.73,1.73,0,0,0-1.25.63,1.42,1.42,0,0,0,0,1.16,3.39,3.39,0,0,0,1.67,1.07l.41.11.41.13a11.11,11.11,0,0,1,3.68.87h0a37.79,37.79,0,0,1,4.46,2.22l1.55.92a28.94,28.94,0,0,1,4,3l1.78,1.64c1,.94,2.72,2.38,3.81,3.23l1.53,1.18a29.28,29.28,0,0,1,3.6,3.44l1.78,2.09a28.38,28.38,0,0,1,2.41,3.28,6.75,6.75,0,0,1,.85,2.15c0,.43-.13.81-.34.85s-.65.09-1,.12a2.82,2.82,0,0,0-1.33.73,4.81,4.81,0,0,0-1,1.63,4.64,4.64,0,0,0-.12,2,13.38,13.38,0,0,0,.49,1.81,2,2,0,0,1-.12,1.49,10.7,10.7,0,0,1-1.43,1.74c-.56.56-2,.51-3.25-.12,0,0-17.79-9.09-18.13-9.32s-9.24-3.84-9.24-3.84c-1.27-.52-3.39-1.27-4.71-1.66l-11.17-3.38c-1.32-.39-3.47-1.06-4.78-1.46l-12.47-3.89c-1.31-.41-3.48-1-4.82-1.29L880,417.21c-1.34-.31-3.55-.71-4.91-.91l-3-.43a43.58,43.58,0,0,0-5-.38l-7.95-.07a35.77,35.77,0,0,0-5,.38l-3.79.63A15.77,15.77,0,0,0,846,418a10.27,10.27,0,0,0-3.1,3.22,12.79,12.79,0,0,0-1.39,3.83,17.7,17.7,0,0,0,.16,4,27.07,27.07,0,0,0,.81,3.51,25.46,25.46,0,0,0,1.42,3.12,20.57,20.57,0,0,0,2.57,3.56,22.76,22.76,0,0,0,3.23,2.88,8.47,8.47,0,0,0,3.32,1.28,14.55,14.55,0,0,1,4,1.25l1.82.86a16.87,16.87,0,0,0,3.66,1.3,10.36,10.36,0,0,1,3.43,1.71l12,8.79a27.59,27.59,0,0,0,4.3,2.51l.35.16a19.27,19.27,0,0,0,4.63,1.32c1.3.16,2.39.62,2.44,1a9.36,9.36,0,0,1,0,1.27,14.06,14.06,0,0,0,.76,2.92l.14.4a8,8,0,0,0,1.78,3.11,14,14,0,0,0,1.89,1.2,2.28,2.28,0,0,1,1.06,1,2.28,2.28,0,0,0,1.06,1,4,4,0,0,1,1.47,2.06,5.39,5.39,0,0,0,1.61,2.33,10.55,10.55,0,0,0,2.72,1.2,9.11,9.11,0,0,1,3.07,1.77,23,23,0,0,1,2.4,2.63,8.52,8.52,0,0,0,3.32,2.21,2.35,2.35,0,0,0,1.27.11c.46-.18.65-.07.65-.07,1.17.72,3.1,1.88,4.29,2.57l2.15,1.26,4.33,2.51,2.15,1.27a17.2,17.2,0,0,0,4.61,1.72l1.06.26a31.76,31.76,0,0,0,5,.32l.54,0a19,19,0,0,0,4.39-.66,13.37,13.37,0,0,1,3.07-.63,6.55,6.55,0,0,0,2.92-1.38,5.37,5.37,0,0,1,2.6-1.26c.46,0,.61,1.18.32,2.53a14,14,0,0,0-.36,3.53,3,3,0,0,0,.85,1.65c.37.3.69.55.68.56l.88-.07a2.94,2.94,0,0,0,1.63-.88,13.91,13.91,0,0,0,1.7-3.12c.52-1.27,1.29-2.13,1.7-1.9a5.58,5.58,0,0,1,1.42,2.51,6.42,6.42,0,0,0,1.64,2.78,14.34,14.34,0,0,1,2.17,2.25,19.6,19.6,0,0,0,3.25,3l.44.32a30.72,30.72,0,0,0,4.28,2.54,27.83,27.83,0,0,0,3.31,1.37c.41,0,5,.35,5,.35l5,.38,2.49.18c1.37.11,3.11.22,3.86.25a19.33,19.33,0,0,1,3.39,1.09,5.83,5.83,0,0,0,3.33.07,22.49,22.49,0,0,1,3.48-.82,9.18,9.18,0,0,1,3.53.27,11.15,11.15,0,0,0,2.92.54,5.34,5.34,0,0,0,2.65-1,4.06,4.06,0,0,1,2.38-.89,2.37,2.37,0,0,0,1.43-.2,2.25,2.25,0,0,1,1.42-.2,14.83,14.83,0,0,0,2.24.06,7.94,7.94,0,0,0,3.23-1.57l.34-.25a13.78,13.78,0,0,0,2.27-2,8.11,8.11,0,0,1,.76-1c.26-.3,1.42-.05,2.58.55a19.2,19.2,0,0,0,4.57,1.53l.38.07a29.34,29.34,0,0,0,5,.36l14.85-.52a10.32,10.32,0,0,1,3.78.53,17.65,17.65,0,0,0,3.76,1l2,.31a15.49,15.49,0,0,1,4,1.21,8.56,8.56,0,0,0,3.47.82,22.77,22.77,0,0,0,4.28-.54,21.92,21.92,0,0,0,4.14-1.51,28.87,28.87,0,0,0,2.93-1.76,30.9,30.9,0,0,0,2.65-2.45,17.68,17.68,0,0,0,2.38-3.19,12.52,12.52,0,0,0,1-3.95A10.38,10.38,0,0,0,1084.49,491.74Z"/><path class="cls-8" d="M1009.46,223.06a26.85,26.85,0,0,0,.55-6l-.28-6.93a34,34,0,0,0-.92-6.11l-1.56-5.89c-.44-1.65-1.26-4.32-1.83-5.94l-1.68-4.75a49.43,49.43,0,0,0-2.5-5.68l-5.75-10.84a39.46,39.46,0,0,0-3.41-5.17l-7.68-9.5c-1.07-1.33-2.83-3.51-3.89-4.84L965.79,133a56.45,56.45,0,0,0-4.18-4.57l-27.85-26.52c-1.23-1.18-3.22-2.88-4.41-3.79a22.26,22.26,0,0,0-4.41-2.54,14.54,14.54,0,0,0-3-.94,2.59,2.59,0,0,1-1.55-.87,4.71,4.71,0,0,1-.35-3.22,22.49,22.49,0,0,1,.87-3.51A8.48,8.48,0,0,1,922,85a5.65,5.65,0,0,0,1-2.31,9,9,0,0,0,.1-2.17,3.11,3.11,0,0,0-.88-1.47,1,1,0,0,1,0-1.47,12.12,12.12,0,0,1,3.7-1.66l2.78-.85a57.46,57.46,0,0,1,6-1.41L950,71.12a32.76,32.76,0,0,1,5.72-.38,20.59,20.59,0,0,0,4.08-.16,4.22,4.22,0,0,0,2.09-1.1c.37-.45.38-1,0-1.12a6,6,0,0,0-1.7-.39,22.89,22.89,0,0,0-2.6,0,14,14,0,0,0-3.32.77A35.81,35.81,0,0,1,949.46,70l-16.79,3.12c-1.68.31-4.39,1-6,1.46l-2.16.66a13.12,13.12,0,0,0-4,1.81c-.55.51-1,.68-1,.39a1.69,1.69,0,0,0-.49-1c-.27-.25-.49-.45-.49-.46h0a6.36,6.36,0,0,1-.64-.13,1.64,1.64,0,0,0-1.11.13c-.24.16-.34-.32-.22-1a13.13,13.13,0,0,0-.66-4.32l-.65-2.14c-.49-1.64-1.44-4.26-2.11-5.84l-6.66-15.73a36.83,36.83,0,0,1-1.63-4.72,13.49,13.49,0,0,0-1.19-3.2,25.44,25.44,0,0,0-1.41-2.18,6,6,0,0,0-1.26-1.2c-.34-.21-.75.07-.92.63a4.36,4.36,0,0,0,.23,2.37,21,21,0,0,0,2.11,3.49,32.45,32.45,0,0,1,2.86,5l6.3,14.18a57.77,57.77,0,0,1,2.15,5.82l.83,2.8a12,12,0,0,1,.65,4,1,1,0,0,1-1.26.78,3.17,3.17,0,0,0-1.7.08A8.47,8.47,0,0,0,910.47,76a5.56,5.56,0,0,0-1.4,2.06,8.67,8.67,0,0,1-1,2.08,22.7,22.7,0,0,1-2.46,2.66,4.76,4.76,0,0,1-2.87,1.49,2.78,2.78,0,0,1-1.59-.82,13.85,13.85,0,0,0-2.46-2,22.48,22.48,0,0,0-4.55-2.27c-1.4-.5-3.92-1.21-5.59-1.59L851.06,69a55.24,55.24,0,0,0-6.12-1l-23.5-2.1-6.18-.57-12.17-1.15a37.63,37.63,0,0,0-6.19,0l-12.22,1.19a50.62,50.62,0,0,0-6.11,1l-4.89,1.23c-1.66.41-4.35,1.19-6,1.74l-5.78,1.94a33.09,33.09,0,0,0-5.6,2.6l-5.94,3.58a27,27,0,0,0-4.69,3.76,16.68,16.68,0,0,0-2.52,3.27c-.26.62-.63,1.64-.82,2.28a4,4,0,0,0,.28,2.44,11.46,11.46,0,0,0,1.48,2.26,3.94,3.94,0,0,0,1.66,1.14A5.62,5.62,0,0,1,747.71,94l-.1.46-.1.43a9.31,9.31,0,0,0,2.85,3.34c1.06.71,3.06,2.12,4.44,3.13l7,5.07a25.83,25.83,0,0,1,3.42,2.89,26.74,26.74,0,0,0,3.43,2.88l.52.38a18.38,18.38,0,0,0,3.58,2.15c.59.18,1.68.43,2.41.56a4.63,4.63,0,0,1,2.1.94,3.28,3.28,0,0,0,1.5.81,15.8,15.8,0,0,0,2.56-.11,12.1,12.1,0,0,0,4.37-2l.74-.51a42.59,42.59,0,0,1,4-2.5,5.14,5.14,0,0,0,2.06-2l.87,1.59c.88,1.56,1.63,3,.77,4a27,27,0,0,1-2.38,2.4,17.58,17.58,0,0,0-3.48,4.41l-.31.69a33.59,33.59,0,0,0-1.22,3.27c-.12.57.88,1.58,1.31,1.68s2.09.94,2.93.65,2.91-1.94,3.77-2.36,2.9-1.94,3.4-2.12l.51-.19c.8-.15,2.11-.47,2.93-.71l.36,1.13a4.3,4.3,0,0,1-.19,3.5c-.66,1.55-2.3,3.32-2.68,4.32l-.38,1a4.15,4.15,0,0,0-.41,3.14l.36.4a13.05,13.05,0,0,0,2,2c.55.27,1.72,2.56,2.06,3.09a25,25,0,0,1,1,4.37,27.69,27.69,0,0,1-.73,4.5c-.38,1.66-1,4.38-1.46,6l0,.08a7.12,7.12,0,0,0,.5,4.92c.69,1.05,1.56,2.52,1.94,3.28a16.4,16.4,0,0,1,1.06,3.08,13.78,13.78,0,0,1-.32,4.73,7.7,7.7,0,0,1-.45,1.33c-.29.56-.64,1.14-.64,1.14a48,48,0,0,1-3.63,5l-6.27,7.35c-1.11,1.31-2.84,3.51-3.84,4.89l-2.66,3.67c-1,1.38-2.45,3.58-3.21,4.89a26,26,0,0,0-2.1,4.76c-.38,1.3.22,1.3,1.33,0l3.95-4.65c1.11-1.3,3-3.39,4.14-4.65l2.49-2.66a40.2,40.2,0,0,1,4.62-4.13l.56-.41a14.76,14.76,0,0,1,4.36-2.27,11.58,11.58,0,0,1,3.35-.23c.83.11,2.22.36,3.11.55s2.21.46,3,.55l.45.7c.46.72,1.16,1.66,1.5,2.19l.34.54a14.81,14.81,0,0,0,2.78.64,5.76,5.76,0,0,0,2.19-.88l1.13-.19,1.13-.23a19.51,19.51,0,0,1,5.13-.2l.36.39.37.4c1.08,1.16,2.2,2.33,2.48,2.57l.95-.1.94-.08a33.9,33.9,0,0,0,4-1.86,10.85,10.85,0,0,0,3.12-2.82,14.16,14.16,0,0,0,1.66-3.94,12.52,12.52,0,0,0,.18-4.11l1.46-.29a17.34,17.34,0,0,0,4.21-1.63c1-.52,3.39-1.39,3.64-1.79s1.43-2.08,1.43-2.08a48.55,48.55,0,0,0,3.15-5.34,13.37,13.37,0,0,1,1.09-1.89c.43-.52,2.53-3,2.73-3.83s1.4-4.14,1.54-4.71.91-3.33.94-4.1a43.76,43.76,0,0,1,.81-4.9c.3-1.29.72-5.82,1.67-7.29s9.4-17.66,9.4-17.66a41.23,41.23,0,0,1,3.35-5.21s4-5.12,4.23-5.54a23.06,23.06,0,0,1,3.1-2.81,20.75,20.75,0,0,1,2.67-.94,46.4,46.4,0,0,0,4.32-2.45c1.44-.9,1.69-.61.54.66l-3.88,4.31c-1.14,1.27-2.76,3.15-3.58,4.19a30.63,30.63,0,0,0-2.78,4.35c-.69,1.37-1.73,3.66-2.32,5.09s-1.43,3.94-1.9,5.59l-2.17,7.59a20.06,20.06,0,0,0-.76,5.24,18.3,18.3,0,0,0,.58,3.84,8.88,8.88,0,0,0,1.36,2.58c.48.54.87,1,.87,1h0a0,0,0,0,1,0,0s0,0,0,0,.61.06,1.34.16a8.86,8.86,0,0,0,2.92-.29,19.4,19.4,0,0,0,3.51-1.62,20.72,20.72,0,0,0,4-3.53l5.14-6c1.11-1.3,2.74-3.4,3.61-4.67s2.2-3.41,3-4.74a31.55,31.55,0,0,0,2.11-4.71c.4-1.27,1.08-3.66,1.51-5.31l1.45-5.6c.43-1.66.82-1.62.86.09a48.92,48.92,0,0,0,.32,4.93,22.72,22.72,0,0,1,.7,2.76,23.1,23.1,0,0,1-.64,4.15c-.19.42-2.27,6.56-2.27,6.56a42.67,42.67,0,0,1-2.5,5.66s-8.86,16-9.55,17.6-4.24,4.44-5.17,5.42a42.37,42.37,0,0,1-3.63,3.37,36.8,36.8,0,0,0-2.89,3c-.41.45-2.48,3.25-3.1,3.91s-1.5,3.73-1.69,4.39a13.57,13.57,0,0,1-1,1.94,47,47,0,0,0-2.72,5.57s-.75,1.91-1,2.34.39,2.85.52,4a18,18,0,0,0,1,4.43l.55,1.37a12.56,12.56,0,0,0-3.33,2.41,14.54,14.54,0,0,0-2.35,3.56,10.88,10.88,0,0,0-.63,4.15,34.62,34.62,0,0,0,.62,4.34l.44.83.45.84c.35.11,1.93.4,3.51.65l.54.11.53.09a19.24,19.24,0,0,1,2.65,4.38l.45,1,.45,1a5.51,5.51,0,0,0,.48,2.33,15,15,0,0,0,2.06,2l.64,0c.64,0,1.81.07,2.65.05l.84,0c.48.57,1.42,1.55,2.08,2.17s1.63,1.65,2.17,2.28a12,12,0,0,1,1.66,2.93,14.78,14.78,0,0,1,.52,4.89l0,.69a40.79,40.79,0,0,1-.89,6.13l-.86,3.55c-.4,1.66-1.11,4.37-1.59,6l-1.69,5.88c-.47,1.64-.14,2.14.73,1.09a25.78,25.78,0,0,0,2.81-4.35c.66-1.36,1.7-3.78,2.31-5.38l1.59-4.24c.61-1.6,1.48-4.25,2-5.9l2.68-9.3a45.85,45.85,0,0,1,2.18-5.79s.29-.63.6-1.16a6.75,6.75,0,0,1,.85-1.12,13.74,13.74,0,0,1,3.77-2.87,17.09,17.09,0,0,1,3.16-.81,36.81,36.81,0,0,1,3.8-.19,7.2,7.2,0,0,0,4.37-2.31l.07-.07c1.14-1.26,3-3.3,4.23-4.54a26.43,26.43,0,0,1,3.35-3.08,25.09,25.09,0,0,1,4.2-1.58c.63,0,3.16-.3,3.71,0a14.36,14.36,0,0,0,2.77.57l.53.09a4.29,4.29,0,0,0,2.39-2.08l.61-.87c.62-.86,1.2-3.2,2.12-4.6a4.32,4.32,0,0,1,2.81-2.1l1.15-.34c.26.81.72,2.09,1,2.84l.12.53c.12.54,0,3.07.1,4s-.12,3.6.11,4.45,1.84,1.76,2.16,2.06,1.72.6,2.13.16a28.6,28.6,0,0,0,2-2.8l.42-.63a17.54,17.54,0,0,0,1.76-5.35,27.94,27.94,0,0,1,.68-3.32c.39-1.28,2-1.43,3.78-1.57l1.79-.15a5.19,5.19,0,0,0-.51,2.82,42.93,42.93,0,0,1,.14,4.76l0,.88a12.2,12.2,0,0,0,.77,4.73,16.19,16.19,0,0,0,1.33,2.2,3.13,3.13,0,0,0,1.5.81,4.74,4.74,0,0,1,1.93,1.23c.52.54,1.32,1.3,1.8,1.7a18.2,18.2,0,0,0,3.77,1.81l.6.21a25.76,25.76,0,0,0,4.29,1.26,25.78,25.78,0,0,1,4.3,1.27l8.08,3c1.6.6,3.88,1.49,5.06,2a9.31,9.31,0,0,0,4.36.54l.31-.34.31-.32a5.31,5.31,0,0,1,2.19.84,3.88,3.88,0,0,0,1.88.75,11.21,11.21,0,0,0,2.71,0,3.88,3.88,0,0,0,2.19-1.1,23.09,23.09,0,0,0,1.43-1.94A17.12,17.12,0,0,0,1009.46,223.06Z"/><path class="cls-8" d="M1009.46,223.06a26.85,26.85,0,0,0,.55-6l-.28-6.93a34,34,0,0,0-.92-6.11l-1.56-5.89c-.44-1.65-1.26-4.32-1.83-5.94l-1.68-4.75a49.43,49.43,0,0,0-2.5-5.68l-5.75-10.84a39.46,39.46,0,0,0-3.41-5.17l-7.68-9.5c-1.07-1.33-2.83-3.51-3.89-4.84L965.79,133a56.45,56.45,0,0,0-4.18-4.57l-27.85-26.52c-1.23-1.18-3.22-2.88-4.41-3.79a22.26,22.26,0,0,0-4.41-2.54,14.54,14.54,0,0,0-3-.94,2.59,2.59,0,0,1-1.55-.87,4.71,4.71,0,0,1-.35-3.22,22.49,22.49,0,0,1,.87-3.51A8.48,8.48,0,0,1,922,85a5.65,5.65,0,0,0,1-2.31,9,9,0,0,0,.1-2.17,3.11,3.11,0,0,0-.88-1.47,1,1,0,0,1,0-1.47,12.12,12.12,0,0,1,3.7-1.66l2.78-.85a57.46,57.46,0,0,1,6-1.41L950,71.12a32.76,32.76,0,0,1,5.72-.38,20.59,20.59,0,0,0,4.08-.16,4.22,4.22,0,0,0,2.09-1.1c.37-.45.38-1,0-1.12a6,6,0,0,0-1.7-.39,22.89,22.89,0,0,0-2.6,0,14,14,0,0,0-3.32.77A35.81,35.81,0,0,1,949.46,70l-16.79,3.12c-1.68.31-4.39,1-6,1.46l-2.16.66a13.12,13.12,0,0,0-4,1.81c-.55.51-1,.68-1,.39a1.69,1.69,0,0,0-.49-1c-.27-.25-.49-.45-.49-.46h0a6.36,6.36,0,0,1-.64-.13,1.64,1.64,0,0,0-1.11.13c-.24.16-.34-.32-.22-1a13.13,13.13,0,0,0-.66-4.32l-.65-2.14c-.49-1.64-1.44-4.26-2.11-5.84l-6.66-15.73a36.83,36.83,0,0,1-1.63-4.72,13.49,13.49,0,0,0-1.19-3.2,25.44,25.44,0,0,0-1.41-2.18,6,6,0,0,0-1.26-1.2c-.34-.21-.75.07-.92.63a4.36,4.36,0,0,0,.23,2.37,21,21,0,0,0,2.11,3.49,32.45,32.45,0,0,1,2.86,5l6.3,14.18a57.77,57.77,0,0,1,2.15,5.82l.83,2.8a12,12,0,0,1,.65,4,1,1,0,0,1-1.26.78,3.17,3.17,0,0,0-1.7.08A8.47,8.47,0,0,0,910.47,76a5.56,5.56,0,0,0-1.4,2.06,8.67,8.67,0,0,1-1,2.08,22.7,22.7,0,0,1-2.46,2.66,4.76,4.76,0,0,1-2.87,1.49,2.78,2.78,0,0,1-1.59-.82,13.85,13.85,0,0,0-2.46-2,22.48,22.48,0,0,0-4.55-2.27c-1.4-.5-3.92-1.21-5.59-1.59L851.06,69a55.24,55.24,0,0,0-6.12-1l-23.5-2.1-6.18-.57-12.17-1.15a37.63,37.63,0,0,0-6.19,0l-12.22,1.19a50.62,50.62,0,0,0-6.11,1l-4.89,1.23c-1.66.41-4.35,1.19-6,1.74l-5.78,1.94a33.09,33.09,0,0,0-5.6,2.6l-5.94,3.58a27,27,0,0,0-4.69,3.76,16.68,16.68,0,0,0-2.52,3.27c-.26.62-.63,1.64-.82,2.28a4,4,0,0,0,.28,2.44,11.46,11.46,0,0,0,1.48,2.26,3.94,3.94,0,0,0,1.66,1.14A5.62,5.62,0,0,1,747.71,94l-.1.46-.1.43a9.31,9.31,0,0,0,2.85,3.34c1.06.71,3.06,2.12,4.44,3.13l7,5.07a25.83,25.83,0,0,1,3.42,2.89,26.74,26.74,0,0,0,3.43,2.88l.52.38a18.38,18.38,0,0,0,3.58,2.15c.59.18,1.68.43,2.41.56a4.63,4.63,0,0,1,2.1.94,3.28,3.28,0,0,0,1.5.81,15.8,15.8,0,0,0,2.56-.11,12.1,12.1,0,0,0,4.37-2l.74-.51a42.59,42.59,0,0,1,4-2.5,5.14,5.14,0,0,0,2.06-2l.87,1.59c.88,1.56,1.63,3,.77,4a27,27,0,0,1-2.38,2.4,17.58,17.58,0,0,0-3.48,4.41l-.31.69a33.59,33.59,0,0,0-1.22,3.27c-.12.57.88,1.58,1.31,1.68s2.09.94,2.93.65,2.91-1.94,3.77-2.36,2.9-1.94,3.4-2.12l.51-.19c.8-.15,2.11-.47,2.93-.71l.36,1.13a4.3,4.3,0,0,1-.19,3.5c-.66,1.55-2.3,3.32-2.68,4.32l-.38,1a4.15,4.15,0,0,0-.41,3.14l.36.4a13.05,13.05,0,0,0,2,2c.55.27,1.72,2.56,2.06,3.09a25,25,0,0,1,1,4.37,27.69,27.69,0,0,1-.73,4.5c-.38,1.66-1,4.38-1.46,6l0,.08a7.12,7.12,0,0,0,.5,4.92c.69,1.05,1.56,2.52,1.94,3.28a16.4,16.4,0,0,1,1.06,3.08,13.78,13.78,0,0,1-.32,4.73,7.7,7.7,0,0,1-.45,1.33c-.29.56-.64,1.14-.64,1.14a48,48,0,0,1-3.63,5l-6.27,7.35c-1.11,1.31-2.84,3.51-3.84,4.89l-2.66,3.67c-1,1.38-2.45,3.58-3.21,4.89a26,26,0,0,0-2.1,4.76c-.38,1.3.22,1.3,1.33,0l3.95-4.65c1.11-1.3,3-3.39,4.14-4.65l2.49-2.66a40.2,40.2,0,0,1,4.62-4.13l.56-.41a14.76,14.76,0,0,1,4.36-2.27,11.58,11.58,0,0,1,3.35-.23c.83.11,2.22.36,3.11.55s2.21.46,3,.55l.45.7c.46.72,1.16,1.66,1.5,2.19l.34.54a14.81,14.81,0,0,0,2.78.64,5.76,5.76,0,0,0,2.19-.88l1.13-.19,1.13-.23a19.51,19.51,0,0,1,5.13-.2l.36.39.37.4c1.08,1.16,2.2,2.33,2.48,2.57l.95-.1.94-.08a33.9,33.9,0,0,0,4-1.86,10.85,10.85,0,0,0,3.12-2.82,14.16,14.16,0,0,0,1.66-3.94,12.52,12.52,0,0,0,.18-4.11l1.46-.29a17.34,17.34,0,0,0,4.21-1.63c1-.52,3.39-1.39,3.64-1.79s1.43-2.08,1.43-2.08a48.55,48.55,0,0,0,3.15-5.34,13.37,13.37,0,0,1,1.09-1.89c.43-.52,2.53-3,2.73-3.83s1.4-4.14,1.54-4.71.91-3.33.94-4.1a43.76,43.76,0,0,1,.81-4.9c.3-1.29.72-5.82,1.67-7.29s9.4-17.66,9.4-17.66a41.23,41.23,0,0,1,3.35-5.21s4-5.12,4.23-5.54a23.06,23.06,0,0,1,3.1-2.81,20.75,20.75,0,0,1,2.67-.94,46.4,46.4,0,0,0,4.32-2.45c1.44-.9,1.69-.61.54.66l-3.88,4.31c-1.14,1.27-2.76,3.15-3.58,4.19a30.63,30.63,0,0,0-2.78,4.35c-.69,1.37-1.73,3.66-2.32,5.09s-1.43,3.94-1.9,5.59l-2.17,7.59a20.06,20.06,0,0,0-.76,5.24,18.3,18.3,0,0,0,.58,3.84,8.88,8.88,0,0,0,1.36,2.58c.48.54.87,1,.87,1h0a0,0,0,0,1,0,0s0,0,0,0,.61.06,1.34.16a8.86,8.86,0,0,0,2.92-.29,19.4,19.4,0,0,0,3.51-1.62,20.72,20.72,0,0,0,4-3.53l5.14-6c1.11-1.3,2.74-3.4,3.61-4.67s2.2-3.41,3-4.74a31.55,31.55,0,0,0,2.11-4.71c.4-1.27,1.08-3.66,1.51-5.31l1.45-5.6c.43-1.66.82-1.62.86.09a48.92,48.92,0,0,0,.32,4.93,22.72,22.72,0,0,1,.7,2.76,23.1,23.1,0,0,1-.64,4.15c-.19.42-2.27,6.56-2.27,6.56a42.67,42.67,0,0,1-2.5,5.66s-8.86,16-9.55,17.6-4.24,4.44-5.17,5.42a42.37,42.37,0,0,1-3.63,3.37,36.8,36.8,0,0,0-2.89,3c-.41.45-2.48,3.25-3.1,3.91s-1.5,3.73-1.69,4.39a13.57,13.57,0,0,1-1,1.94,47,47,0,0,0-2.72,5.57s-.75,1.91-1,2.34.39,2.85.52,4a18,18,0,0,0,1,4.43l.55,1.37a12.56,12.56,0,0,0-3.33,2.41,14.54,14.54,0,0,0-2.35,3.56,10.88,10.88,0,0,0-.63,4.15,34.62,34.62,0,0,0,.62,4.34l.44.83.45.84c.35.11,1.93.4,3.51.65l.54.11.53.09a19.24,19.24,0,0,1,2.65,4.38l.45,1,.45,1a5.51,5.51,0,0,0,.48,2.33,15,15,0,0,0,2.06,2l.64,0c.64,0,1.81.07,2.65.05l.84,0c.48.57,1.42,1.55,2.08,2.17s1.63,1.65,2.17,2.28a12,12,0,0,1,1.66,2.93,14.78,14.78,0,0,1,.52,4.89l0,.69a40.79,40.79,0,0,1-.89,6.13l-.86,3.55c-.4,1.66-1.11,4.37-1.59,6l-1.69,5.88c-.47,1.64-.14,2.14.73,1.09a25.78,25.78,0,0,0,2.81-4.35c.66-1.36,1.7-3.78,2.31-5.38l1.59-4.24c.61-1.6,1.48-4.25,2-5.9l2.68-9.3a45.85,45.85,0,0,1,2.18-5.79s.29-.63.6-1.16a6.75,6.75,0,0,1,.85-1.12,13.74,13.74,0,0,1,3.77-2.87,17.09,17.09,0,0,1,3.16-.81,36.81,36.81,0,0,1,3.8-.19,7.2,7.2,0,0,0,4.37-2.31l.07-.07c1.14-1.26,3-3.3,4.23-4.54a26.43,26.43,0,0,1,3.35-3.08,25.09,25.09,0,0,1,4.2-1.58c.63,0,3.16-.3,3.71,0a14.36,14.36,0,0,0,2.77.57l.53.09a4.29,4.29,0,0,0,2.39-2.08l.61-.87c.62-.86,1.2-3.2,2.12-4.6a4.32,4.32,0,0,1,2.81-2.1l1.15-.34c.26.81.72,2.09,1,2.84l.12.53c.12.54,0,3.07.1,4s-.12,3.6.11,4.45,1.84,1.76,2.16,2.06,1.72.6,2.13.16a28.6,28.6,0,0,0,2-2.8l.42-.63a17.54,17.54,0,0,0,1.76-5.35,27.94,27.94,0,0,1,.68-3.32c.39-1.28,2-1.43,3.78-1.57l1.79-.15a5.19,5.19,0,0,0-.51,2.82,42.93,42.93,0,0,1,.14,4.76l0,.88a12.2,12.2,0,0,0,.77,4.73,16.19,16.19,0,0,0,1.33,2.2,3.13,3.13,0,0,0,1.5.81,4.74,4.74,0,0,1,1.93,1.23c.52.54,1.32,1.3,1.8,1.7a18.2,18.2,0,0,0,3.77,1.81l.6.21a25.76,25.76,0,0,0,4.29,1.26,25.78,25.78,0,0,1,4.3,1.27l8.08,3c1.6.6,3.88,1.49,5.06,2a9.31,9.31,0,0,0,4.36.54l.31-.34.31-.32a5.31,5.31,0,0,1,2.19.84,3.88,3.88,0,0,0,1.88.75,11.21,11.21,0,0,0,2.71,0,3.88,3.88,0,0,0,2.19-1.1,23.09,23.09,0,0,0,1.43-1.94A17.12,17.12,0,0,0,1009.46,223.06Z"/><path class="cls-9" d="M855,256a30.23,30.23,0,0,0-6.79.2l-9.24,1.57a35.55,35.55,0,0,0-6.55,1.89l-7.62,3.15a55.59,55.59,0,0,0-6.12,3.08l-43,25.7a38.08,38.08,0,0,0-5.45,4.1l-2.75,2.59c-1.37,1.3-3.36,3.27-4.4,4.39s-2.15.51-2.47-1.36l-.19-1.12a17.4,17.4,0,0,0-1.73-5.22c-.64-1-1.92-2.91-2.85-4.22a5.82,5.82,0,0,1-.13-5.44l3.3-6.51a46.9,46.9,0,0,1,3.64-5.79l18.75-24.5c1.15-1.5,1.06-1.57-.19-.15,0,0-23,26.06-23.11,26.73s-4.67,8.38-4.67,8.38c-1,1.63-2.16,2.79-2.66,2.58s-1.5-.67-2.2-1a6.94,6.94,0,0,0-2.57-.64,5.36,5.36,0,0,0-1.27.06,10.61,10.61,0,0,1-1.21.33,7,7,0,0,0-2.33,1.19c-.61.49-1.48,1.16-1.92,1.47s-1.87-.54-3.17-1.9c0,0-6.18-6.52-6.44-7.12s-28.53-20.85-28.53-20.85c-1.53-1.09-1.6-1-.14.19l23.77,19.66a45.14,45.14,0,0,1,4.86,4.82l4.67,5.59a5.86,5.86,0,0,1,1.1,5.34c-.6,1.49-1.43,3.62-1.82,4.74a17.12,17.12,0,0,0-.52,5.48l.07,1.14c.11,1.88-.84,2.73-2.12,1.87s-3.65-2.33-5.28-3.29l-3.24-1.88a37.76,37.76,0,0,0-6.23-2.79l-47.69-15.36a52.55,52.55,0,0,0-6.66-1.62l-8.13-1.36a36.15,36.15,0,0,0-6.82-.36l-9.34.54a29.87,29.87,0,0,0-6.68,1.34l-.13,0a3.31,3.31,0,0,0-2.11,4.22,30.32,30.32,0,0,0,3.14,5.88l4.74,6.58a64.67,64.67,0,0,0,4.34,5.3l3.66,4a49,49,0,0,0,5.06,4.61l9.15,7a52.59,52.59,0,0,0,5.12,3.43,12.25,12.25,0,0,0,5.83,1l.71-.07c1.88-.16,4.93-.47,6.77-.71s2.21.36.82,1.33-3.22,2.25-4.05,2.87a4.81,4.81,0,0,0-1.61,3.15,5.56,5.56,0,0,0,.93,3.23,19.41,19.41,0,0,0,4,2.92l3.67,2.12c1.63.94,4.39,2.32,6.13,3.06l1,.45a44.09,44.09,0,0,0,6.51,2.1l2.29.51c1.84.41,4.86,1,6.72,1.38l6.06,1.14a44.43,44.43,0,0,0,6.81.61h1.14a20.39,20.39,0,0,0,6.21-1.13,29.74,29.74,0,0,0,5.42-3.07,53.33,53.33,0,0,1,4.78-3.13,16,16,0,0,1,4.55-1.54c1.32-.2,3.16-.4,4.08-.46s.78.68-.32,1.61a10.15,10.15,0,0,0-2.72,4.07,20.84,20.84,0,0,0-.49,5.78l.71,11.87a24.3,24.3,0,0,0,1.5,6.61l1.1,2.69c.72,1.75,1.9,4.61,2.64,6.35l2.47,5.82c.74,1.75,2.09,4.52,3,6.17l5.9,10.59c.92,1.65,1.68,3.06,1.69,3.14s0,.12,0,.07.05,0,.08,0,0,0,0-.13.4-1.72.93-3.54l3.35-11.64c.52-1.81,1.22-4.82,1.56-6.68l1.1-6.23c.33-1.86.84-4.9,1.15-6.77l.47-2.9a25.23,25.23,0,0,0,0-6.78l-2-11.7a20.63,20.63,0,0,0-1.8-5.53,10.06,10.06,0,0,0-3.56-3.35c-1.3-.67-1.6-1.34-.69-1.49s2.76-.38,4.09-.47a16.45,16.45,0,0,1,4.79.46,53.2,53.2,0,0,1,5.35,2,29.61,29.61,0,0,0,6,1.78,20.9,20.9,0,0,0,6.31-.29l1.12-.26a41.51,41.51,0,0,0,6.5-2.13l5.65-2.46c1.72-.77,4.54-2.05,6.24-2.86l2.11-1a46.45,46.45,0,0,0,5.87-3.51l.91-.66c1.53-1.12,3.9-3.09,5.28-4.37l3.1-2.89a19.66,19.66,0,0,0,3.24-3.75,5.34,5.34,0,0,0,.18-3.34,4.72,4.72,0,0,0-2.27-2.71c-1-.43-3-1.29-4.6-1.91s-1.34-1.29.5-1.48,4.9-.57,6.77-.83l.71-.1a11.94,11.94,0,0,0,5.44-2.32,51.9,51.9,0,0,0,4.23-4.48l7.33-8.86a48.55,48.55,0,0,0,3.89-5.63l2.69-4.7c.93-1.64,2.3-4.41,3-6.14l3.14-7.48a29,29,0,0,0,1.73-6.43,3.3,3.3,0,0,0-3-3.63Z"/><path class="cls-9" d="M855,256a30.23,30.23,0,0,0-6.79.2l-9.24,1.57a35.55,35.55,0,0,0-6.55,1.89l-7.62,3.15a55.59,55.59,0,0,0-6.12,3.08l-43,25.7a38.08,38.08,0,0,0-5.45,4.1l-2.75,2.59c-1.37,1.3-3.36,3.27-4.4,4.39s-2.15.51-2.47-1.36l-.19-1.12a17.4,17.4,0,0,0-1.73-5.22c-.64-1-1.92-2.91-2.85-4.22a5.82,5.82,0,0,1-.13-5.44l3.3-6.51a46.9,46.9,0,0,1,3.64-5.79l18.75-24.5c1.15-1.5,1.06-1.57-.19-.15,0,0-23,26.06-23.11,26.73s-4.67,8.38-4.67,8.38c-1,1.63-2.16,2.79-2.66,2.58s-1.5-.67-2.2-1a6.94,6.94,0,0,0-2.57-.64,5.36,5.36,0,0,0-1.27.06,10.61,10.61,0,0,1-1.21.33,7,7,0,0,0-2.33,1.19c-.61.49-1.48,1.16-1.92,1.47s-1.87-.54-3.17-1.9c0,0-6.18-6.52-6.44-7.12s-28.53-20.85-28.53-20.85c-1.53-1.09-1.6-1-.14.19l23.77,19.66a45.14,45.14,0,0,1,4.86,4.82l4.67,5.59a5.86,5.86,0,0,1,1.1,5.34c-.6,1.49-1.43,3.62-1.82,4.74a17.12,17.12,0,0,0-.52,5.48l.07,1.14c.11,1.88-.84,2.73-2.12,1.87s-3.65-2.33-5.28-3.29l-3.24-1.88a37.76,37.76,0,0,0-6.23-2.79l-47.69-15.36a52.55,52.55,0,0,0-6.66-1.62l-8.13-1.36a36.15,36.15,0,0,0-6.82-.36l-9.34.54a29.87,29.87,0,0,0-6.68,1.34l-.13,0a3.31,3.31,0,0,0-2.11,4.22,30.32,30.32,0,0,0,3.14,5.88l4.74,6.58a64.67,64.67,0,0,0,4.34,5.3l3.66,4a49,49,0,0,0,5.06,4.61l9.15,7a52.59,52.59,0,0,0,5.12,3.43,12.25,12.25,0,0,0,5.83,1l.71-.07c1.88-.16,4.93-.47,6.77-.71s2.21.36.82,1.33-3.22,2.25-4.05,2.87a4.81,4.81,0,0,0-1.61,3.15,5.56,5.56,0,0,0,.93,3.23,19.41,19.41,0,0,0,4,2.92l3.67,2.12c1.63.94,4.39,2.32,6.13,3.06l1,.45a44.09,44.09,0,0,0,6.51,2.1l2.29.51c1.84.41,4.86,1,6.72,1.38l6.06,1.14a44.43,44.43,0,0,0,6.81.61h1.14a20.39,20.39,0,0,0,6.21-1.13,29.74,29.74,0,0,0,5.42-3.07,53.33,53.33,0,0,1,4.78-3.13,16,16,0,0,1,4.55-1.54c1.32-.2,3.16-.4,4.08-.46s.78.68-.32,1.61a10.15,10.15,0,0,0-2.72,4.07,20.84,20.84,0,0,0-.49,5.78l.71,11.87a24.3,24.3,0,0,0,1.5,6.61l1.1,2.69c.72,1.75,1.9,4.61,2.64,6.35l2.47,5.82c.74,1.75,2.09,4.52,3,6.17l5.9,10.59c.92,1.65,1.68,3.06,1.69,3.14s0,.12,0,.07.05,0,.08,0,0,0,0-.13.4-1.72.93-3.54l3.35-11.64c.52-1.81,1.22-4.82,1.56-6.68l1.1-6.23c.33-1.86.84-4.9,1.15-6.77l.47-2.9a25.23,25.23,0,0,0,0-6.78l-2-11.7a20.63,20.63,0,0,0-1.8-5.53,10.06,10.06,0,0,0-3.56-3.35c-1.3-.67-1.6-1.34-.69-1.49s2.76-.38,4.09-.47a16.45,16.45,0,0,1,4.79.46,53.2,53.2,0,0,1,5.35,2,29.61,29.61,0,0,0,6,1.78,20.9,20.9,0,0,0,6.31-.29l1.12-.26a41.51,41.51,0,0,0,6.5-2.13l5.65-2.46c1.72-.77,4.54-2.05,6.24-2.86l2.11-1a46.45,46.45,0,0,0,5.87-3.51l.91-.66c1.53-1.12,3.9-3.09,5.28-4.37l3.1-2.89a19.66,19.66,0,0,0,3.24-3.75,5.34,5.34,0,0,0,.18-3.34,4.72,4.72,0,0,0-2.27-2.71c-1-.43-3-1.29-4.6-1.91s-1.34-1.29.5-1.48,4.9-.57,6.77-.83l.71-.1a11.94,11.94,0,0,0,5.44-2.32,51.9,51.9,0,0,0,4.23-4.48l7.33-8.86a48.55,48.55,0,0,0,3.89-5.63l2.69-4.7c.93-1.64,2.3-4.41,3-6.14l3.14-7.48a29,29,0,0,0,1.73-6.43,3.3,3.3,0,0,0-3-3.63Z"/><path class="cls-10" d="M328.42,1414.09c-2.44.79-6.49,1.85-9,2.35l-11.94,2.39c-2.52.51-6.66,1.15-9.2,1.43l-21.08,2.34c-2.55.28-6.73.65-9.29.82l-16.54,1.09c-2.55.16-6.72.62-9.26,1l-32.39,5a73.59,73.59,0,0,1-9.27.71H164.35c-1.13,0-12.37-2-13.2-2.51s-15.46-5.92-16.61-6.75-7-4.22-8.13-5.63a28.19,28.19,0,0,1-2.27-3.49,34.46,34.46,0,0,1-3.07-8.59v-1.41c0-1.4,0-2.09,0-2.09a26,26,0,0,1,1.65-7.74,28.12,28.12,0,0,1,4.36-6.19,46.21,46.21,0,0,1,6.84-5.65l1.2-.78c2.15-1.4,5.77-3.51,8.06-4.67l8.84-4.49c2.29-1.16,6.08-2.93,8.44-3.94,0,0,10.89-4.64,12-5.2s5.52-3.72,5.52-3.72c2.07-1.51,2.42-1.14.75.82l-.16.19a32.19,32.19,0,0,1-7,5.9s-4.68,2.71-5.52,3.28-10.95,5.32-10.95,5.32c-2.31,1.09-6.07,3-8.34,4.15l-4.11,2.14a31.45,31.45,0,0,0-7.26,5.62,24.41,24.41,0,0,0-3.05,4.13c-.85,1.69-1.42,3.93-2.27,5.62a9.21,9.21,0,0,0-1.39,5.62c0,3.37-.29,4.21.27,7s2.38,3.47,2.38,3.47c2.41.88,6.41,2.12,8.9,2.75l10.63,2.74a60.8,60.8,0,0,0,9.17,1.47l19.64,1.35a52.16,52.16,0,0,0,9.26-.37l4.27-.61c2.54-.38,6.64-1.2,9.13-1.82l21-5.31c2.49-.63,6.57-1.58,9.08-2.11l29.09-6.2c2.51-.54,6.64-1.28,9.17-1.66,0,0,21.81-3.26,22.67-3.54s13.34-1.71,13.34-1.71c2.55-.29,6.68-1,9.19-1.5l1.55-.32a49.26,49.26,0,0,0,8.79-2.92l6.73-3.11a87.25,87.25,0,0,0,8.18-4.44l10.93-6.84a59.25,59.25,0,0,0,7.37-5.65l9.19-8.55c1.88-1.75,4.88-4.68,6.67-6.51,0,0,8.54-8.75,9.4-9a7.71,7.71,0,0,0,2-1.49c1.81-1.81,2-3.36.34-3.43s-3.7-.15-4.63-.15h-2.68a2,2,0,0,0-1.54,1.27c-.31.7-.87,1.14-1.26,1s-.71-1.1-.71-2.1a4,4,0,0,1,1.26-2.82,6.42,6.42,0,0,1,2.95-1.12,57.09,57.09,0,0,1,5.76.14c2.25.16,3.45-.79,2.69-2.11a59.08,59.08,0,0,0-4.41-6l-2.45-2.94a30.54,30.54,0,0,0-4.95-4.85,8,8,0,0,0-3.38-1.27,2.3,2.3,0,0,0-2,1.27c-.31.7-.63.7-.71,0a5.1,5.1,0,0,1,.56-2.54c.39-.7,2.35-1.53,4.35-1.84l.84.3c.87.27,7.82,7.81,7.82,7.81,1.73,1.89,3.15,2.23,3.15.76a5.74,5.74,0,0,0-1.54-3.94,14.79,14.79,0,0,0-2.8-1.82c-.7-.31-1-.94-.58-1.4a3.54,3.54,0,0,1,2.39-.85,9.13,9.13,0,0,1,4.2,2l.29.85c.3.84.85.84,1.68,1.41s1.14-.57,2.26,1.13l1.13,1.69a17.77,17.77,0,0,0,4.08,2.24c.39,0,1.27-2,2-4.36a52.17,52.17,0,0,1,3.45-8.46l1.79-3.31c1.2-2.26,3.15-5.5,4.29-7.2s2.88-4.16,3.81-5.48a21.4,21.4,0,0,1,3.52-3.8,6.77,6.77,0,0,1,3.93-1.26,14.33,14.33,0,0,1,3.51.7,15.67,15.67,0,0,1,3.94,3.66c1.39,1.7,3.85,2.52,5.47,1.83a71.79,71.79,0,0,0,6.93-3.68s9.52-5.75,10.65-5.75,15.91-6.09,15.91-6.09a70.17,70.17,0,0,1,8.85-2.85,67.57,67.57,0,0,1,7.85-1.45,61.39,61.39,0,0,0,10.09-1.41c1.71-.56,9.58-2.8,10.4-2.8s.85.84,4.22-.85l3.39-1.69a78.24,78.24,0,0,0,3.36-7.44,38,38,0,0,0,1.69-5.2,43.23,43.23,0,0,1,1.39-7.31c.58-1.4,1.46-3.34,1.46-3.34,1-2.34,2.94-6,4.18-8a60.44,60.44,0,0,1,5.32-7.29l2-2.27c1.69-1.93,4.16-4.77,5.46-6.32a65.81,65.81,0,0,1,5.92-5.85l1.09-.94c1.93-1.67,4.86-4,6.48-5.15s4-2.74,5.35-3.51,3.07-1.92,3.92-2.54a26.89,26.89,0,0,0,3.09-2.8,19.83,19.83,0,0,1,2.38-2.25,7.52,7.52,0,0,1,2-.84,8.71,8.71,0,0,1,2.8,0,21.29,21.29,0,0,0,2.4.27,4.71,4.71,0,0,0,2.11-1.55c.77-.84,1.9-2.11,2.52-2.8a22.55,22.55,0,0,0,2-2.66,14,14,0,0,0,1.27-3c.23-.85.68-1.49,1-1.41a3.54,3.54,0,0,0,1.69-.28c.62-.23.75.53.28,1.69a29.56,29.56,0,0,1-2,3.94c-.62,1-.49,1.57.27,1.26a37.34,37.34,0,0,0,4.93-3.09c1.93-1.39,2.5-1,1.26.85a14.09,14.09,0,0,1-4.91,4.49,45.15,45.15,0,0,0-4.36,2.11,4.35,4.35,0,0,0-2,2.38,39.83,39.83,0,0,0-.28,5.21,44,44,0,0,1-1.07,8.33l-.11.47c-.59,2.5-1.8,6.51-2.67,8.92l-.18.52c-.87,2.4-2.42,6.15-3.42,8.31s-2.32,4.88-3,6a28,28,0,0,0-1.84,4.65,43.22,43.22,0,0,0-.92,7.17l-.38,7.56a64.77,64.77,0,0,1-.81,7.6,22,22,0,0,1-3.23,6.77l-.56.8c-1.47,2.1-4,5.42-5.67,7.37a3.59,3.59,0,0,0-.08,1.21c0,1.13-1,6.12-1,6.12a49.08,49.08,0,0,1-2.07,7.24,25.93,25.93,0,0,0-1.42,4.21c-.15.85.48,2.94,1.41,4.64a39.1,39.1,0,0,1,2.81,7.59c.63,2.47,1.51,6,2,7.88v1.4c0,1.41,3.65,5.34,4.21,6.18s2.81,3.94,2.81,5.34-.27,3.09,0,3.94a1.18,1.18,0,0,0,1.69.85l.83-.29a30.39,30.39,0,0,1,5.9-1.82,10.33,10.33,0,0,1,2.81.14h2.82a20.42,20.42,0,0,1,4.78.84l.27,1.13c.28,1.11,1.43,1.11,2.54,1.68s2.52,2,2.52,3.09v1.12a18.87,18.87,0,0,0,1.12,5.06v1.69c-.29,2.16-1.25,3.05-2.1,2a16.69,16.69,0,0,0-3.23-3.1l-1.12-.28-1.12-.28a29,29,0,0,0-5.21.43c-1,.23-.7,1.11.7,2s2.91,1.8,3.38,2.11v1.69c0,1.68,0,3.36-1.12,3.93l-1.13.57c-2,.15-3.41-.23-3.1-.85a3.74,3.74,0,0,0-.28-2.82l-.84-.56c-.84-.56-6.18-4.21-7-4.77a8.82,8.82,0,0,0-2-.92,39.88,39.88,0,0,1-6.44-2.46l-2.25-1.12c-2.26-1.12-4.49-2.25-4.78-3.65a30.77,30.77,0,0,0-3.09-7.31c-1.13-1.68-4.21-5.9-4.21-7.58a16.1,16.1,0,0,0-1.14-6.19l-.83-1.69a43.71,43.71,0,0,1-3.22-5.35,2.69,2.69,0,0,0-4.36-.7c-1.55,1.32-4.33,3.79-6.19,5.49s-5,4.38-7.06,6l-2.74,2.13a45.28,45.28,0,0,1-7.94,4.74l-10,4.41a89.4,89.4,0,0,1-8.74,3.19l-7.35,2.15c-2.46.72-6.5,1.86-9,2.52l-5.6,1.51c-2.48.66-4.63,3-4.79,5.29a47.18,47.18,0,0,1-1.13,7.31A49.63,49.63,0,0,1,459,1370l-.33.66a67.46,67.46,0,0,0-2.78,6.27,21,21,0,0,1-2.24,4.36,12.13,12.13,0,0,1-4.78,3.52,75.46,75.46,0,0,1-7.76,2.36s-5.88,1.44-6.73,1.44-5.44.13-5.44.13c-2.57.08-5.75.14-7.06.14a33.28,33.28,0,0,1-4.77-.42c-1.32-.23-2.47,1.29-2.55,3.37s-.13,4.18-.13,4.64.69.9,1.54,1,2.56.27,3.8.42a3,3,0,0,1,2.53,2.26v.84c0,.83.56,3.08-.56,3.08h-1.13a6.08,6.08,0,0,0-3.37-2.52l-.84.55-.85.58c-1.4,0-2.41.88-2.25,2a4.91,4.91,0,0,0,2.41,3.09c1.16.62,2.86,1.57,3.78,2.11a3.63,3.63,0,0,1,1.69,2.8,4.55,4.55,0,0,1-1,2.82c-.54.54-1.17.16-1.4-.84a2.54,2.54,0,0,0-1.95-2,5.67,5.67,0,0,1-3-1.54c-.77-.77-2.3-2.16-3.38-3.08l-.28-.85-.28-.84c-.93-1.86-1.81-1.86-2,0l-.26,1.12-.29,1.13a5.63,5.63,0,0,0,1.69,4.06c.92.7,2.12,1.59,2.67,2a10.92,10.92,0,0,1,2,2.1,7.93,7.93,0,0,1,1.13,3.24c.07,1,.14,2.46.14,3.23s-1,1.65-2.11,2a17.44,17.44,0,0,1-2.82.57c-.38,0-.38-.57,0-1.27a8.32,8.32,0,0,0,.85-2.67,4,4,0,0,0-1.69-2.81,19.9,19.9,0,0,1-3.79-5.06l-.84-.85-.86-.84a26.31,26.31,0,0,1-1.11-6.74c0-1.86-1-1.53-2.23.72a9.77,9.77,0,0,0-1.15,3.22V1415c0,1.12-.68,5.51-.68,5.51-.39,2.53-1.15,6.66-1.69,9.16l-.29,1.28A24.81,24.81,0,0,1,394,1438c-.93,1.4-2.44,2.54-3.37,2.54a3.25,3.25,0,0,1-2.39-1c-.37-.54-.06-1.11.72-1.27s1.39-1.29,1.39-2.53a21.73,21.73,0,0,1,1.89-6.5,5.18,5.18,0,0,0,.36-1.92c0-1.14,1.12-6.48,1.12-8.44s.28-7.59.28-8.43v-.84a32,32,0,0,1,2.25-7.17,16.29,16.29,0,0,0,1.55-5.47c.08-1.55-.86-2.75-2.11-2.67a31.48,31.48,0,0,1-3.65,0c-.78-.08-1.72-.21-2.11-.29a7.09,7.09,0,0,0-1-.14l-.57,1.12-.57,1.13c-.77.93-1.47,1.18-1.55.56a12.33,12.33,0,0,1,.15-2.81,4.42,4.42,0,0,1,2.25-2.67,11.58,11.58,0,0,1,4.35-1,15.22,15.22,0,0,0,3.24-.28l2-1.4c2-1.41,3.92-3.39,4.2-5.07s-.28-4.21,1.4-4.77a9.25,9.25,0,0,0,2.47-1.14,40.29,40.29,0,0,1,8.07-4.48h0c2.38-.92,5.8-2.18,7.58-2.81a23,23,0,0,1,6.32-1.12,40.29,40.29,0,0,1,4.92.28,37.33,37.33,0,0,1,4.5,1.13c1.46.46,2.28.08,1.82-.85a33.18,33.18,0,0,1-1.68-4.78c-.47-1.7-1.17-4.29-1.56-5.76s-2.46-2.17-4.63-1.54a64.93,64.93,0,0,0-8.14,3.13l-3.94,1.88a72.06,72.06,0,0,0-8,4.65l-2.16,1.47c-2.12,1.45-5.52,3.91-7.56,5.45l-3,2.24c-2,1.55-5.32,4.16-7.29,5.81l-1.56,1.32c-2,1.64-5.29,4.22-7.36,5.71l-4.54,3.27a92.93,92.93,0,0,1-7.87,5l-3.61,2a88.46,88.46,0,0,1-8.43,4l-9.87,3.89c-2.38.94-6.32,2.36-8.76,3.15Z"/></svg>