<svg id="Layer_1" data-name="Layer 1" xmlns="http://www.w3.org/2000/svg" viewBox="0 0 837.62 1080"><defs><style>.cls-1{fill:#29abe2;opacity:0.9;}.cls-2{fill:#d9e021;}.cls-3{fill:#231f20;}.cls-4{fill:#592b84;}.cls-5{fill:#39b54a;}.cls-6{fill:#f7931e;}.cls-7{fill:#ed1873;}.cls-8{fill:#82c672;}.cls-9{fill:none;stroke:#000;stroke-miterlimit:10;}</style></defs><path class="cls-1" d="M739.25,649.53c2.75,2.94,7.45,7.54,10.46,10.22L760,668.93a115.65,115.65,0,0,0,11.62,8.82s15.94,10.23,18.3,11,14.74,7,14.74,7c3.59,1.8,8.5,3.46,10.88,3.68s2.36-2.24-.06-5.45l-.67-.9a132.84,132.84,0,0,1-8-12.24l-7.84-14.05c-2-3.51-5.42-9.11-7.68-12.44l-5.18-7.62a127.44,127.44,0,0,1-7.27-12.33,61.07,61.07,0,0,1-4.33-11.82,45.23,45.23,0,0,1-.17-12.76l1.15-8.39A88.49,88.49,0,0,1,779,587.26l7-20a80.23,80.23,0,0,1,6.29-13.12l.13-.21c2.13-3.41,4.06-8,4.28-10.15a2.94,2.94,0,0,1,4-2.74c1.95.65,3.89-1.3,4.33-4.33a49.59,49.59,0,0,1,2.36-9.47c.86-2.18,2.46-5.91,3.54-8.29s-1.12-3.2-4.9-1.8l-1.22.44a79.14,79.14,0,0,0-13,6.53l-3.5,2.28c-3.38,2.2-8.78,6-12,8.37l-6.79,5c-3.22,2.41-8.55,6.28-11.83,8.62l-8.55,6.1c-3.28,2.33-8.43,6.42-11.44,9.08l-2.85,2.53c-3,2.65-7,6.52-8.82,8.58a43.23,43.23,0,0,0-5.91,9.46,5.49,5.49,0,0,1-8.08,2.37c-3-1.84-8.29-5.13-11.68-7.3l-3-2c-3.39-2.17-4.39-4.56-2.22-5.32a48.54,48.54,0,0,0,8.48-4.35c2.5-1.62,1.25-2.78-2.77-2.58l-.77,0c-4,.2-9.25.65-11.64,1s-7.07-1.22-10.42-3.46l-5.57-3.71c-3.35-2.24-8.94-5.71-12.42-7.73l-15.31-8.85c-3.49-2-9.34-5-13-6.66l-6.75-3.06c-3.67-1.64-9.78-4.1-13.57-5.44l-5.12-1.82c-3.8-1.33-9.21-3.24-12-4.2a20.17,20.17,0,0,1-8.48-6.7,65.91,65.91,0,0,1-5.91-11.8l-2.38-6.38c-1.39-3.77-3.42-10-4.5-13.92l-1.22-4.4c-1.08-3.88-3.12-10.14-4.55-13.91l-4.66-12.3c-1.43-3.77-4.37-6.49-6.54-6.06a39.55,39.55,0,0,0-9.66,4.13A120.33,120.33,0,0,0,535,457.42,66.85,66.85,0,0,0,525,467.59l-2.21,2.92c-2.42,3.2-6.05,8.68-8.08,12.17l-5.68,9.79a15.61,15.61,0,0,1-11,6.9L482,500.6c-4,.31-10.6.57-14.62.57h-16.1c-4,0-10.62.1-14.64.24l-10.2.31c-4,.13-10.58.7-14.56,1.27l-24.14,3.45c-4,.57-10.53,1.4-14.53,1.83L359,509.83c-4,.43-10.52,1.38-14.48,2.11l-19.89,3.68c-4,.72-10.42,2-14.36,2.79l-18.37,3.77c-3.94.8-10.32,2.44-14.17,3.61L267.27,529c-3.85,1.18-10.08,3.3-13.85,4.73l-4,1.53c-3.77,1.42-9.87,3.89-13.56,5.49l-1.16.49c-3.69,1.6-8.84,3.8-11.44,4.88s-5.25,3-5.91,4.35a6.09,6.09,0,0,0,.4,5.1,43,43,0,0,0,6.11,7.09,69.84,69.84,0,0,0,10.85,8l3.51,2.07a72.2,72.2,0,0,0,13.35,5.73l4.88,1.44c3.86,1.12,9.15,2.41,11.74,2.84a61.29,61.29,0,0,0,7.49.78c1.51,0,4.53-.17,6.7-.39s3.49.32,2.95,1.18a10.87,10.87,0,0,0-1.17,4.15,9,9,0,0,0,.78,4.33c.54,1,3.29,3.37,6.11,5.32a82.81,82.81,0,0,0,11.84,6.46l1.14.49a112.38,112.38,0,0,0,13.81,4.72l15,3.86c3.9,1,10.34,2.37,14.31,3l6.45,1.1c4,.67,10.48,1.7,14.46,2.27l7.6,1.07a131.36,131.36,0,0,0,14.56,1.11l22.79.24a7.79,7.79,0,0,1,7.61,7.39l.21,5.48A79.43,79.43,0,0,0,423,649.74l.55,2a82,82,0,0,0,4.85,13c1.63,3.25,4.38,8,6.11,10.64a28.47,28.47,0,0,0,6.5,6.9,48.76,48.76,0,0,0,6.7,3.55,10.31,10.31,0,0,0,5.5.79c1.2-.33,3.86-2.56,5.92-4.94a53.5,53.5,0,0,0,6.71-11l6.29-14.21a73.79,73.79,0,0,1,6.12-11,26.35,26.35,0,0,1,4.53-5.11,40.38,40.38,0,0,1,6.7-2,66.27,66.27,0,0,0,6.7-1.77,7.12,7.12,0,0,0,2.57-2.77c.64-1.2,4.46-1.89,8.47-1.54l17.73,1.5c4,.35,10.59.54,14.62.43l12.94-.38c4-.11,10.59-.6,14.59-1.08l14.64-1.8c4-.48,10.5-1.46,14.47-2.17L605.8,627c4-.71,8,0,9,1.66a37.86,37.86,0,0,0,4.54,5.73,41,41,0,0,0,5.9,4.72h2.37a20.54,20.54,0,0,0,5.51-4.14,40.2,40.2,0,0,1,6.51-5.33c2.06-1.3,5.79-3.51,8.28-4.92l7.68-4.33a14,14,0,0,1,4.93-1.77c1,0,5.06-.23,9.08-.52l1.95-.15c4-.28,9.25.1,11.63.86a39.94,39.94,0,0,1,8.86,4.52,28.06,28.06,0,0,0,7.11,3.76c1.41.32,2.92.24,3.35-.2s.52-2,.19-3.56a18.42,18.42,0,0,1-.4-4.52c.11-1,3.5-1.67,7.52-1.57h.74c4,.1,8,2.5,8.89,5.32a42.37,42.37,0,0,0,4.93,9.84,116,116,0,0,0,8.35,10.09Z"/><path class="cls-2" d="M497.55,571.1a14.93,14.93,0,0,0,1.16-2.43c.13-.45.54-1.75.93-2.9l-.93-1.15-.92-1.16a17.27,17.27,0,0,1-1.16-6v-.72a11.62,11.62,0,0,1,.81-4.73c.44-.7,1.43-2.62,2.2-4.28a43.8,43.8,0,0,1,3.24-5.67,35,35,0,0,1,3.93-4.63,9.46,9.46,0,0,0,2.43-3.47,8,8,0,0,1,2.08-3.13,19,19,0,0,0,2.9-3.59c.63-1.07,1.73-3.1,2.43-4.51a35.87,35.87,0,0,1,2.54-4.28,13.56,13.56,0,0,1,2.08-2.32c.45-.31.3.9-.31,2.7l-.07.18c-.61,1.8-1.49,4.72-1.93,6.5a18.92,18.92,0,0,0-.58,5.2c.13,1.09,1.78,2,3.69,2h.26a44.81,44.81,0,0,1,5.07.24c.9.12,2.41.38,3.36.57s2.56-1,3.57-2.58a3.34,3.34,0,0,0,.48-1.47v-2.33a65.83,65.83,0,0,0-.43-6.88l-.06-.55c-.24-1.89.61-2.28,1.88-.88a45,45,0,0,1,4.14,5.48l.51.84c1,1.61,2.58,4.29,3.51,6l.11.21c.93,1.67,2.52,4.28,3.54,5.81l.45.91a7,7,0,0,1,.54,2.34c.09,1.9.31,5,.5,6.89,0,0,.12,1.19.12,1.88a9.84,9.84,0,0,1-.39,2,9.7,9.7,0,0,0,.62,6.37l.93,1.76c.9,1.68,2.41,4.39,3.38,6l1.12,1.9a53.16,53.16,0,0,1,2.67,5.18,17.48,17.48,0,0,0,2.43,3.93,14.9,14.9,0,0,1,2.2,3.48,8.06,8.06,0,0,0,3.35,3.12,41,41,0,0,1,4.51,2.78l3.25,2.42a20.63,20.63,0,0,0,4.68,2.12l2.68.87c1.81.59,4.77,1.52,6.6,2.07l7.26,2.17a52.11,52.11,0,0,1,6.43,2.49l6.73,3.25a47.76,47.76,0,0,1,5.92,3.51l.86.61a65.67,65.67,0,0,1,5.36,4.35l.46.42a25.45,25.45,0,0,1,4.22,5.36l.12.2c.92,1.66,2.52,4.33,3.54,5.93l.43.66a57.4,57.4,0,0,1,3.26,5.92c.77,1.65,1.91,4.41,2.55,6.13a30.42,30.42,0,0,1,1.43,6.56l.83,10.25a45.35,45.35,0,0,0,2.6,12,54.4,54.4,0,0,0,2.19,5.08,27.89,27.89,0,0,1,1.92,6l.33,1.77c.36,1.86,1,4.91,1.39,6.77l.6,2.73a18.75,18.75,0,0,0,2.7,6,15.38,15.38,0,0,1,2.43,5,15.15,15.15,0,0,0,2.61,5l.11.14a16.05,16.05,0,0,1,2.73,6.11l.22,1.29a30.59,30.59,0,0,0,2.06,6.53l.75,1.62c.81,1.72,2.2,4.5,3.09,6.18l1.41,2.68a59.89,59.89,0,0,1,2.53,5.49,5.13,5.13,0,0,1,.23,3.58,6.37,6.37,0,0,1-2.55,2,12.58,12.58,0,0,1-4.27.81,29.26,29.26,0,0,1-3.81-.23,14,14,0,0,1-2.9-.92c-.84-.38-1.58-2.25-1.67-4.15l-.38-8.14a29.64,29.64,0,0,0-1.27-6.72l-.78-2.25c-.61-1.8-1.71-4.71-2.44-6.46l-.82-2c-.73-1.76-1.85-4.5-2.48-6.09a40.29,40.29,0,0,0-3.05-5.78l-5-7.64c-1-1.59-2.74-4.2-3.76-5.8l-1.6-2.5a25.92,25.92,0,0,0-3.72-4.54,20.76,20.76,0,0,1-3.53-4.64l-1-1.83c-.92-1.66-2.54-4.31-3.59-5.9l-5.67-8.58a2.46,2.46,0,0,0-4.15-.25l-.84,1c-1.24,1.45-3,3.67-4,4.94a15.75,15.75,0,0,0-2.32,4.64,29.46,29.46,0,0,0-.57,5.67,21.54,21.54,0,0,0,.69,5.44,23.27,23.27,0,0,0,2.71,4.88l.13.18a46.59,46.59,0,0,0,4.5,5.21l1.75,1.68a9.41,9.41,0,0,1,2.48,5.86v.25a29.83,29.83,0,0,1-.81,6.47c-.45,1.66-1.13,4.53-1.51,6.4l-1.14,5.49a32.18,32.18,0,0,1-2.24,6.47L606,720.51a7.41,7.41,0,0,1-4.09,3.67,28.27,28.27,0,0,1-5.21.58,19.84,19.84,0,0,1-4.63-.58,2.64,2.64,0,0,1-2-2.19,4.87,4.87,0,0,1,1.5-3,15.82,15.82,0,0,1,3.59-2.32l.93-.46.92-.46a28.48,28.48,0,0,0,3.24-4,16.22,16.22,0,0,0,1.79-5.63l.12-1a38.94,38.94,0,0,0,.18-6.2,13.22,13.22,0,0,0-1.62-5,24.46,24.46,0,0,0-2.54-3.36,30.73,30.73,0,0,0-4.11-3l-.13-.09a49.49,49.49,0,0,1-5.14-3.66,54.67,54.67,0,0,1-4.5-4.43l-1.18-1.32c-1.27-1.42-2.37-1-2.46.87l-1.32,29.2c-.08,1.9-.1,5,0,6.9l.48,14.61c.06,1.9.11,5,.11,6.91v16.7c0,1.9.1,4.39.23,5.54a6.16,6.16,0,0,1-.58,3.36c-.45.7-2.32,1.37-4.16,1.5s-4.92.24-6.82.24h-.72a28.07,28.07,0,0,1-4.84-.35,23.9,23.9,0,0,1-3.36-1.28,3.42,3.42,0,0,1-2-2.66,4.91,4.91,0,0,1,1-2.89c.56-.64,1.76-1.89,2.65-2.78A29.55,29.55,0,0,0,564,751a6.71,6.71,0,0,0,.92-3.36,38.36,38.36,0,0,1,.47-5c.25-1.59.69-4.43,1-6.31l.6-4a68.66,68.66,0,0,0,.61-6.88l.27-9.05c.05-1.9.13-5,.17-6.91l.08-4.2a29.89,29.89,0,0,0-.81-6.8l-.32-1.19c-.49-1.83-1.25-4.64-1.69-6.23a43.25,43.25,0,0,1-1.11-6.34l-.55-6.3a13.34,13.34,0,0,0-.77-4,.67.67,0,0,0-1,0,2.5,2.5,0,0,1-1.51.58,3,3,0,0,1-1.85-1.28c-.51-.7-2.46-1.56-4.32-1.91l-6.87-1.27c-1.86-.35-3.6-.17-3.86.41a2.89,2.89,0,0,1-1.38,1.38,2.55,2.55,0,0,1-2-.34,3.22,3.22,0,0,1-1-2.43c0-1-1.39-2.43-3.08-3.28l-.3-.15a2.24,2.24,0,0,0-3.46,1.89l-3.65,33.85c-.21,1.9-.55,5-.75,6.88l-1.8,16.73a46.91,46.91,0,0,0-.14,6.8,47,47,0,0,1,.11,5.09,18.62,18.62,0,0,1-.58,3.35c-.25.9-1,1.47-1.61,1.27s-1.37,1.06-1.63,2.78a35.8,35.8,0,0,1-1,4.86c-.31,1-.73,2.36-.92,3.12s-1.9,1.53-3.8,1.68l-1.2.11a56.6,56.6,0,0,1-6.89.08l-4-.26c-1.89-.12-3.5-1-3.56-2a7.4,7.4,0,0,1,1.73-4,47,47,0,0,1,3.83-4.17,25.18,25.18,0,0,0,3.58-4.63c.89-1.53,2.3-4.17,3.12-5.89v0a22.66,22.66,0,0,0,1.79-6.56l.58-7c.16-1.9.26-5,.23-6.9l-.35-20.39a45.12,45.12,0,0,0-.74-6.85s-.93-4.71-.93-5.41.15-7.65.15-7.65c0-1.9.23-5,.42-6.81a17.92,17.92,0,0,0-.82-6.61l-.91-2.52c-.64-1.78-1.72-4.7-2.39-6.48l-1.25-3.26a21.78,21.78,0,0,1-1.17-6.69s.17-9.74.17-10.43,1.9-16.24,1.9-16.24a33.91,33.91,0,0,1,1.67-6.65l.73-1.89c.69-1.77,1.57-4.21,2-5.42a14.59,14.59,0,0,0,.7-3.35c0-.64-.73-1.37-1.62-1.62a8.27,8.27,0,0,0-3-.23c-.76.12-2.94.37-4.83.55l-.52,0c-1.89.18-4-.09-4.6-.6a3.63,3.63,0,0,1-1.27-2.09,2.84,2.84,0,0,0-1.39-1.85,6.26,6.26,0,0,1-2.09-2.78,16.73,16.73,0,0,1-.81-5,27.63,27.63,0,0,1,.94-6.22l.21-.75A29.47,29.47,0,0,1,497.55,571.1Z"/><path class="cls-3" d="M473.33,346.12C475.26,295.06,460,258.2,431,231.74a221.87,221.87,0,0,1-24.83,15.78,103.31,103.31,0,0,1,22.64,21.14H364.85c10-12.81,24.32-24.08,44.81-34,63.54-30.74,64.77-127.78,64.69-139.56h-23.3c0,6.14-.37,12.28-1,18.36H343.64q-.9-9.14-.91-18.36h-23.3c-.08,10.82,1,93.46,50.35,130.72C335.87,252.73,320,290,321.16,346.12m22.75,0c0-4.26.09-8.4.29-12.47H450.67c1.51,4,.42,8.22.44,12.47m-4.83-38.94a145.29,145.29,0,0,1,2.57,16.33H344.94a145.24,145.24,0,0,1,2.54-16.33Zm-10.63-28.37a92.88,92.88,0,0,1,8,18.23H350.11a92.45,92.45,0,0,1,8-18.23Zm-34.08-72.68c-1.61.78-3.11,1.62-4.67,2.42-1.56-.81-3.08-1.64-4.69-2.42-9.93-4.77-18.83-12.59-25.95-22.79h61.12C420.31,193.54,411.45,201.36,401.57,206.13Zm32-32.93H360A126.09,126.09,0,0,1,351.14,152h91.28a127.15,127.15,0,0,1-8.82,21.21Zm-88.76-49.58h104c-.9,6.16-2.08,12.25-3.55,18.23H348.33C346.88,135.87,345.72,129.78,344.84,123.62Z"/><path class="cls-3" d="M450.57,333.65a74.66,74.66,0,0,1,.19,18.36H344.89c-.61-6.09-1-12.22-1-18.36m-22.75,0c-1.74,27.08.52,93.45,49.86,130.71-33.91,26.91-49.56,64.67-49.75,120.3H345.1q0-6.39.34-12.47h105.4c.2,4.06.85,8.22.86,12.47h22.22c0-55.89-12.68-87.92-41.71-114.39a222.37,222.37,0,0,1-24.82,15.79A103,103,0,0,1,430,507.2H366.09c10-12.82,24.33-24.08,44.82-34,63.53-30.73,63.44-117.92,62.42-139.55M447.52,545.72a142.7,142.7,0,0,1,2.57,16.33H346.19a147.54,147.54,0,0,1,2.53-16.33Zm-10.63-28.38a92.66,92.66,0,0,1,8,18.24H351.36a92.52,92.52,0,0,1,8-18.24Zm-34.08-72.67c-1.61.78-3.1,1.61-4.66,2.42-1.56-.81-3.08-1.64-4.7-2.42-9.92-4.77-18.82-12.59-25.95-22.79h61.13C421.56,432.08,412.7,439.9,402.81,444.67Zm32-32.93H361.25a126.44,126.44,0,0,1-8.86-21.21h91.28a126.35,126.35,0,0,1-8.83,21.21Zm-88.75-49.59h104c-.9,6.17-2.09,12.26-3.55,18.23H349.58C348.13,374.41,347,368.32,346.09,362.15Z"/><path class="cls-3" d="M451.11,572.5a75.15,75.15,0,0,1,.19,18.36H345.42c-.6-6.09-1-12.22-1-18.36m-22.76,0c-1.73,27.08.52,93.45,49.87,130.71-33.91,26.91-49,64.67-49.21,120.3h23.29q0-6.39.34-12.47h105.4q.3,6.09.32,12.47H475c-.17-51.67-13.22-87.93-42.24-114.39a223.29,223.29,0,0,1-24.82,15.79,103.49,103.49,0,0,1,22.63,21.14H366.63c10-12.82,24.32-24.08,44.81-34C475,681.32,474.89,594.13,473.87,572.5M448.06,784.57a145.12,145.12,0,0,1,2.57,16.32H346.73a145,145,0,0,1,2.53-16.32Zm-10.63-28.38a92.66,92.66,0,0,1,8,18.24H351.89a93.13,93.13,0,0,1,8-18.24Zm-34.08-72.67c-1.61.78-3.1,1.61-4.66,2.42-1.57-.81-3.08-1.64-4.7-2.42-9.92-4.77-18.82-12.59-25.95-22.79h61.13C422.09,670.93,413.24,678.75,403.35,683.52Zm32-32.93h-73.6a126.2,126.2,0,0,1-8.86-21.22h91.29a127.79,127.79,0,0,1-8.83,21.22ZM346.62,601h104q-1.35,9.25-3.54,18.23H350.12C348.67,613.26,347.5,607.17,346.62,601Z"/><path class="cls-4" d="M268.53,767.52s-.35-4.36-3.67-6.1-15.51,1.92-18.65,3.83-5.4-.35-9.06-2.61c-1.51-.93-4.2-1.19-7.05-1.16-3.75-3.15-9.89-8.2-13.35-10.52a8.06,8.06,0,0,0-9.42-.18s-1.4-5.06-2.79-9.41a23.62,23.62,0,0,0-5.75-9.25c-1.75-1.74-4.89,2.62-4.89,2.62s-4-10.82-4.53-19.69-2.61-36.63-2.61-36.63a60,60,0,0,0,7.66-3.31,20.89,20.89,0,0,0,3.67-3.14,22.05,22.05,0,0,0-1.21-4.36,5,5,0,0,1,.17-4l-1.93-1.74s-1.22-13.25-1.38-20.22-7.33-37.32-9.77-45.16-9.24-22.14-9.77-28.94-3.31-10.3-5-13.77-11.33-26.17-11.33-26.17l6.63-.68s-6.12-16.22-9.6-26.51-5.4-23.89-7.49-36.44-6.63-46.55-7.67-54-.53-27.56-.53-27.56l13.78-1.05s5.24.18,9.59,0,8.36-17.08,8.36-17.08a70.83,70.83,0,0,0,9.24-1.73c3.49-1.06,6.81-4.37,9.42-6.64s1.57-5.4.52-9.06a99.62,99.62,0,0,0-7.32-16.56c-3.32-6.11-9.42-15.7-13.25-20.06A254.36,254.36,0,0,1,154,288.93c-2.09-3.49-6.45-9.59-6.45-9.59a29.34,29.34,0,0,0,8-5.41c3.84-3.66,7.68-8,16.56-14.46s24.06-14.66,27.2-15,6.8,4,9.59,5.93,10.46,3.14,14.3,4.18,4.19,3.66,6.45,5.92,8.37,3.32,10.12,3.49,3.48-.35,3.82-2.44-5.39-4.88-9.06-6.79-5.93-5.93-7.14-7.51-3.66-3.31-3-5.4,4.53-2.79,7.49-3.83,3.85-.7,7.68-.35,9.59-.53,12.72-1,6.1-1.21,7.68-2.62.87-3.49-.35-3.82-8.37.68-8.37.68a32,32,0,0,0,3.14-2.43c.87-.87.87-1.57.35-2.79s-2.79-.18-5.76.52-10.8,1.4-10.8,1.4a30.47,30.47,0,0,0,2.43-2.45,1.69,1.69,0,0,0-.52-2.62c-1.05-.69-8.2,1.59-11.86,2.28s-5.05-.35-7-.53-8,1-11.33,1.92-13.78,1.22-17.79,1.4-7.33,2.79-10.11,5.4-16.91,5.93-16.91,5.93l9.93-6.45a6.79,6.79,0,0,0-1.57-3.14,13.69,13.69,0,0,0-3.65-3l-40.28,24.76s-1.22-3-3.13-4-6.46,3.66-6.46,3.66a3.65,3.65,0,0,0-2.61-1.91c-1.75-.17-3,4.36-3,4.36s-.87-3.14-3.66-1.58-2.27,7.33-2.27,7.33l-3.3.7-.36-2.26s.53-1.4,1.22-2.8-1.56-3-1.56-3,9.76-10.11,10.8-18.47-2.78-16-13.24-16-19,10.47-19,10.47-5-3.14-9.07-4-10.81.69-18.31,3.14S44,232.79,42.23,237a20.87,20.87,0,0,1-4.89,7.67c-2.1,2.26-3.13,5.93-3,14.83S38.9,278.29,41,280.73s3.31,4.88,5.23,7.32,3.49,1.23,4.71,3a45.49,45.49,0,0,1,2.79,5.23l-1.91,2.28s-3.49,2.61-6.46,5.23S40.13,312,37.51,320,36,343.49,36.13,352s-.18,29.64.69,38S45.88,414.8,48,421.78s2.45,10.11,2.45,13.42S53,442.71,53,442.71v8c0,3.48,4.89,12.91,4.89,12.91a38.23,38.23,0,0,1-1.05,7.14c-.87,3.14-.53,13.08-1.75,21.8s-3.13,19.86-3.3,26.67a45.28,45.28,0,0,0,2.08,13.6s1.05,7.33,1.4,12.56,0,20.39.69,34.34,0,23.54.18,27.37,2.61,4.37,5.41,6.46S64,616.71,64,616.71s-5.92,2.09-8.37,5.4-4.35,23.71-4.87,29.47a112.68,112.68,0,0,1-2.28,13.07l-2.61-.52a78.34,78.34,0,0,1,.17,8c-.17,3-.87,8.55-.87,8.55l2.45,1.57s-1.22,6.62-1.58,12,2.44,21.27,3.15,38.53S45.71,768,45.71,768l-4,.52s-3.84,10.63-6.1,17.09a27.29,27.29,0,0,0-.88,13.08s-1.74,5.4-2.26,8.19,2.44,3.32,7.49,5.23,11.51,4.36,31.92,5.23,50.72-1,56.31-1.91,10.81-1.75,11.15-5.41a5.89,5.89,0,0,0-2.26-5.4,11.87,11.87,0,0,0-1.4-6.28c-1.75-3.32-21.79-5.23-21.79-5.23s-3-3.84-5.22-4.53-8.73-6.8-10.12-8.9-4.19-7.84-6.63-9.77-7.15,2.28-7.15,2.28l-1.21-2.46a27.61,27.61,0,0,0,1-3.82c.35-1.91-1.75-6.45-2.1-10.81s1.4-7.15-.17-8S78,753.58,78,753.58s3-18.49,6.79-31.92,7.85-34.34,7.85-34.34a88,88,0,0,1,15.52.53c7.14,1,17.26,2.08,17.26,2.08l1.74-12.73,4.71,9.07,9.76-.35a63.75,63.75,0,0,0,3.5,12.38,142.21,142.21,0,0,0,8.71,17.6c4.52,7.86,13.24,31.22,13.24,31.22l-3,2.43a42.54,42.54,0,0,1,5.24,11.52c1.56,6.09-1.05,14.47-1.92,22.83s4.36,22,8.19,24.76,14.47,2.27,27-3.66,17.25-7.15,32.77-9.59,34.52-13.94,38-20.39S268.53,767.52,268.53,767.52ZM132.71,329.9c-1.05-.7-4.89-1.4-7.32-2.44s-4.71-3.15-6.28-3.84a56.61,56.61,0,0,1-5.58-3.48s.7-3.14,3.32-11.69a108.42,108.42,0,0,1,7-16.73l6.63-3.32s8,7.15,11.68,13.78,7,10.63,8.71,17.26,1.74,9.76,1.74,9.76a11,11,0,0,1-6.79,2.27c-3.84-.18-4.71-3.84-7-2.8S133.75,330.6,132.71,329.9Zm79,427.86a6.42,6.42,0,0,1,6.1-.87c1.75.57,4.28,2.78,6.42,4.91-1.9.15-3.49.31-4.34.31C217.09,762.11,211.7,757.76,211.7,757.76Z"/><path class="cls-5" d="M70.49,870.41c-.61-1.34-1.47-3.11-1.9-3.92a22.12,22.12,0,0,1-1.14-2.56,5.14,5.14,0,0,1-.15-2.21,6.54,6.54,0,0,1,.93-2.14,11.52,11.52,0,0,1,3-2.28c1.26-.71,2.89-1.6,3.64-2a6.72,6.72,0,0,1,2.91-.64,19.25,19.25,0,0,1,3.2.49,18.7,18.7,0,0,0,3.29.5,9.92,9.92,0,0,1,2.7.5,3.68,3.68,0,0,1,1.56,1.28,2.91,2.91,0,0,0,1.5,1.14,32.9,32.9,0,0,1,3.21,1.28c1.21.55,3.07,1.48,4.12,2.07a19.36,19.36,0,0,1,3.77,3A5.86,5.86,0,0,0,102.4,866l.43.14a16,16,0,0,1,1.5,2.7,9,9,0,0,1,.36,2.42A7.1,7.1,0,0,1,104,874a5.3,5.3,0,0,0-.57,2.57,9.92,9.92,0,0,0,1.13,2.92,18,18,0,0,1,1.36,2.84,16.33,16.33,0,0,1,.29,3.82l0,.77a14,14,0,0,1-.69,4.17c-.36.82-.9,2-1.22,2.7s-.73,1.66-.93,2.21a7.38,7.38,0,0,0-.35,2,2.12,2.12,0,0,0,.64,1.49,7.63,7.63,0,0,0,1.7.93,5.11,5.11,0,0,0,2.14.28,22.56,22.56,0,0,0,3.57-1.09l1-.38a33.62,33.62,0,0,0,4.78-2.35l3.13-1.9c1.25-.77,3.34-2,4.64-2.65l7.81-4.18a46,46,0,0,1,4.87-2.17l6.37-2.31c1.38-.5,3.68-1.2,5.11-1.56l1.65-.41a44.1,44.1,0,0,1,5.26-.9l2.07-.21c1.46-.14,3.86-.28,5.34-.3l2.77-.05a47.47,47.47,0,0,1,5.33.29l2.79.34a39.18,39.18,0,0,1,5.23,1.09l2,.6a32.09,32.09,0,0,1,4.93,2l5.23,2.77a46.24,46.24,0,0,1,4.54,2.81l8.47,6.13c1.2.86,3.18,2.23,4.41,3l11.34,7.46c1.23.81,3.22,2.16,4.43,3l7.57,5.32a51.66,51.66,0,0,1,4.17,3.34s4.3,3.9,4.72,4,2.9,3.77,2.9,3.77a47,47,0,0,1,2.71,4.6l.74,1.49a21.08,21.08,0,0,1,1.64,5l.25,1.42a28.57,28.57,0,0,1,.28,5.31l-.39,6.48a25.11,25.11,0,0,1-1,5.21l-2.58,7.87a22.87,22.87,0,0,1-2.34,4.76l-5.26,7.68a17.27,17.27,0,0,1-3.7,3.74l-5.44,3.78a16.23,16.23,0,0,1-4.81,2.09l-3.88.86a30.14,30.14,0,0,1-5.28.57H190.53c-1.48,0-3.88-.1-5.34-.21l-1.93-.16c-1.47-.11-3.72-.4-5-.63s-1.59.31-.65,1.21,2.55,2.49,3.59,3.53l.07.06c1,1,2.43,2.49,3.1,3.24s1.91,2,2.77,2.78a19,19,0,0,0,3,2.21,29.22,29.22,0,0,0,3.13,1.42,14.71,14.71,0,0,0,4.4.58l1.34,0c1.47,0,3.88-.06,5.35-.06h.77a36,36,0,0,1,5.16.43,50,50,0,0,1,5,1.22l.43.13a15.43,15.43,0,0,1,4.13,2c.86.66,2.55,1.91,3.74,2.77l.21.15c1.19.86,2.14,1.79,2.11,2.06s-.78.37-1.64.21a10.16,10.16,0,0,1-3.2-1.42,12.4,12.4,0,0,0-4.28-1.57,31.24,31.24,0,0,0-5.3-.29h-.07c-1.47.08-3.86.33-5.31.56l-1,.15c-1.46.23-3.85.48-5.32.56h-.07c-1.46.08-3.6.17-4.73.21a23.89,23.89,0,0,1-4.67-.47l-1.61-.34a22.23,22.23,0,0,1-4.83-1.68c-1.22-.62-3.31-1.62-4.66-2.21l-.93-.41a27.14,27.14,0,0,1-4-2.22l-2.85-2.06a10.84,10.84,0,0,0-2.42-1.29,12.64,12.64,0,0,0-3.7-.07,14.07,14.07,0,0,0-4.84,1.7l0,0c-1.25.78-3.33,2-4.64,2.65l-2.37,1.23c-1.31.68-3.49,1.68-4.86,2.23l-2.86,1.14a34.88,34.88,0,0,1-5.11,1.52l-5.43,1.09a45.26,45.26,0,0,1-5.29.67l-2.79.14c-1.46.08-3.87.14-5.34.14h-2c-1.47,0-3.87-.1-5.34-.21l-1.65-.14a44.58,44.58,0,0,1-5.26-.82l-7-1.64c-1.43-.33-3.75-1-5.14-1.45l-7-2.31a51.82,51.82,0,0,1-5-2l-7.12-3.39a35.9,35.9,0,0,1-4.59-2.71l-4.34-3.14a26.17,26.17,0,0,1-3.9-3.61l-1-1.17a27.91,27.91,0,0,1-2.94-4.43l-.41-.8a18.05,18.05,0,0,1-1.57-5L57.33,976a29.41,29.41,0,0,1-.1-5.31l.2-2.07a26.09,26.09,0,0,1,1.17-5.18l.18-.53A34.72,34.72,0,0,1,61,958.09l.72-1.22a42.72,42.72,0,0,1,3-4.38l.46-.56A31.06,31.06,0,0,1,69,948.18l1.83-1.48c1.14-.93,3.06-2.38,4.27-3.22l1.74-1.21a29.23,29.23,0,0,1,4.66-2.55l4-1.66c1.37-.56,3.63-1.35,5-1.77l5.14-1.49c1.41-.41,3.75-.95,5.2-1.2l4-.67a45,45,0,0,1,5.31-.49l3.07-.05c1.47,0,3.76,0,5.09,0s3.61.14,5.07.31l3.24.38c1.46.17,3.84.53,5.29.79l5.69,1a36.52,36.52,0,0,1,5.14,1.41l6.1,2.26c1.38.51,3.65,1.31,5.05,1.77l6.59,2.17c1.39.46,3.65,1.28,5,1.82l5.86,2.31c1.37.54,3.64,1.31,5.06,1.72l3.24.94c1.42.4,3.75,1,5.19,1.29l.89.18a26.07,26.07,0,0,0,5.29.44l4.77-.2a22.23,22.23,0,0,0,4.53-.68,18.66,18.66,0,0,0,3.63-1.71,7.69,7.69,0,0,0,2.49-2.78,8.85,8.85,0,0,0,.64-3.27,8.44,8.44,0,0,0-.58-2.71,12.19,12.19,0,0,0-2.51-2.82l-.23-.19a31.21,31.21,0,0,0-4.36-3h0c-1.29-.71-3.45-1.78-4.78-2.38l-1.12-.51a31.39,31.39,0,0,1-4.58-2.69l-3.24-2.38c-1.18-.87-3.08-2.35-4.21-3.29l-2.43-2c-1.14-.93-3.06-2.37-4.29-3.18l-1.11-.74a43.23,43.23,0,0,0-4.64-2.63l-.29-.14a36.61,36.61,0,0,0-5-1.84l-2.1-.58a21.44,21.44,0,0,0-4.64-.7h-4.21a37.31,37.31,0,0,0-4.78.42l-1.82.29a34,34,0,0,0-5.16,1.32l-.94.33c-1.38.5-3.64,1.33-5,1.85l-1.83.68c-1.38.52-3.6,1.42-4.95,2l-2.53,1.11c-1.35.6-3.58,1.5-5,2l-.39.14a20.19,20.19,0,0,1-4.71,1.07l-4.88.29-4.49.26a25.4,25.4,0,0,1-5.3-.34l-.73-.14a27.6,27.6,0,0,1-5.07-1.59l-.52-.23a35.11,35.11,0,0,1-4.43-2.45A15.9,15.9,0,0,1,87,914.61a19.44,19.44,0,0,1-2-3.77,24.23,24.23,0,0,1-1-4,27.94,27.94,0,0,1-.21-4,14.61,14.61,0,0,1,.85-4,38,38,0,0,1,1.92-4.06c.63-1.13,1.65-2.86,2.28-3.84a17.94,17.94,0,0,0,1.5-2.85,5.17,5.17,0,0,0,.21-2,3.43,3.43,0,0,0-.78-1.57,4,4,0,0,0-2.06-.79c-.79-.07-2.2-.23-3.15-.35s-2.44-.37-3.34-.57a13.92,13.92,0,0,1-3.71-1.71,13.28,13.28,0,0,1-3.4-3.56A51,51,0,0,1,71.68,873Z"/><path class="cls-5" d="M136.36,979.81l4.79-.62c1.17-.16,1.46-.67.63-1.14s-2.58-1.38-3.9-2l-.17-.08c-1.33-.65-3.49-1.71-4.8-2.37l-.34-.17c-1.32-.65-3.51-1.64-4.88-2.19h0a48.71,48.71,0,0,0-4.76-1.56,46.83,46.83,0,0,0-4.84-.85c-1.42-.15-3.56-.31-4.78-.36a27.28,27.28,0,0,0-4.42.29,29.53,29.53,0,0,0-3.9.92,23.7,23.7,0,0,0-3.35,1.5A12.1,12.1,0,0,0,99.14,973a3.61,3.61,0,0,0-.86,2.14,5.31,5.31,0,0,0,.57,2.2,9.55,9.55,0,0,0,2.63,2.29,16.26,16.26,0,0,0,4.71,1.75l1.85.33a32.59,32.59,0,0,0,5.31.42l2.61,0c1.47,0,3.87-.2,5.33-.38l8.37-1.05L135,980Z"/><path class="cls-6" d="M217.2,435.4a22,22,0,0,0,.2,8.2l2.35,9.29a49.58,49.58,0,0,0,2.87,7.86l2,4.07a59.46,59.46,0,0,0,4.31,7.19l1.39,1.92a20.31,20.31,0,0,0,6.24,5.27l1.27.63a12.21,12.21,0,0,0,6.92,1.13,15.74,15.74,0,0,0,5.68-2.91,11.15,11.15,0,0,0,3.16-5.08c.34-1.6-.08-3.24-1-3.64a8.15,8.15,0,0,0-4.41,0c-1.56.4-3,.07-3.14-.72s-1.31-1-2.52-.37a5.65,5.65,0,0,1-4.42,0c-1.21-.6-2.49-2.73-2.84-4.72s.36-4.13,1.58-4.73a4.43,4.43,0,0,0,2.2-3.64,2.4,2.4,0,0,0-2.2-2.54,5.79,5.79,0,0,1-3.79-1.82,30.88,30.88,0,0,1-2.84-4,7.31,7.31,0,0,1-.62-4.73,16.76,16.76,0,0,1,3.47-5.64l5-5.43a79.23,79.23,0,0,1,6.07-5.81l10-8.39a22.72,22.72,0,0,1,7.27-3.82l2.6-.71a33.4,33.4,0,0,0,7.62-3.34l6.76-4.24a52,52,0,0,0,6.61-5.13l.82-.76a3.79,3.79,0,0,1,5.67.4l1.69,2.13a46.55,46.55,0,0,0,5.89,5.94l6.08,4.9c1.8,1.46,4.71,3.88,6.46,5.4l3.72,3.21c1.75,1.51,1.9,3.73.34,4.93s-4.25,3.17-6,4.37-3.15,3.48-3.15,5.08,1.71,2.9,3.78,2.9a24.62,24.62,0,0,0,7.68-1.59l1.05-.44c2.15-.87,5-.61,6.41.59a7.42,7.42,0,0,1,2.52,4.73c0,1.39.86,1.56,1.9.36s2.88-3.33,4.1-4.72a12.34,12.34,0,0,0,2.52-5.82,14,14,0,0,0-1.79-6.91s-2.94-5.08-4.84-5.08-8-10.89-8-10.89c-1.14-2-.27-3.07,1.92-2.34l.86.28a27,27,0,0,0,8.19,1.09l4.84-.28c2.31-.12,5.19-.39,6.41-.59s3.09,1.3,4.18,3.34l1.09,2a45.12,45.12,0,0,0,4.73,6.88l3.95,4.56c1.51,1.75,3.74,4.65,5,6.45a8.08,8.08,0,0,1,.95,6.54,12,12,0,0,1-5,5.24l-.78.42a19.19,19.19,0,0,1-7.49,2,9.73,9.73,0,0,0-6,2.19c-1.21,1.2-2.19,4.08-2.19,6.39V455a21.72,21.72,0,0,0,1.25,7.11c.69,1.6,1.82,1.92,2.52.72a17.68,17.68,0,0,1,3.47-4c1.21-1,3.78-.76,5.69.53l.59.4a19.35,19.35,0,0,1,5.39,6c1,2,.89,4.62-.32,5.82s-1.93,3.16-1.58,4.36a3.67,3.67,0,0,0,3.47,2.18,9.29,9.29,0,0,0,5-1.82,7.43,7.43,0,0,0,2.2-5.08,70.21,70.21,0,0,0-.55-7.43l-.15-1.13a16.75,16.75,0,0,0-2.13-6.35,12.39,12.39,0,0,0-3.8-3.27c-1.2-.6-.31-1.23,2-1.41l1.09-.09c2.3-.18,5.89-.32,8-.32a19.81,19.81,0,0,0,6.94-1.45,12.5,12.5,0,0,0,4.72-4,15.31,15.31,0,0,0,1.57-6.75V437.9a28.61,28.61,0,0,0-1.44-8.15l-2.15-5.91c-.79-2.17-2.2-5.69-3.12-7.81l-4.85-11.2a27.46,27.46,0,0,0-3.25-5.67c-.87-1-1.43-3.45-1.26-5.44a15.85,15.85,0,0,1,2.89-7l10.61-13.71c1.42-1.83,3.63-4.9,4.91-6.83l7.95-11.91a43.81,43.81,0,0,0,3.8-7.44l.85-2.28a36,36,0,0,0,1.8-8.14l1.85-23.61a28.48,28.48,0,0,1,2.08-8l2.81-6.16a12,12,0,0,1,5.67-5.33l7.29-2.81c2.16-.82,5.6-2.38,7.66-3.43l10.82-5.59c2.05-1.06,5.39-2.84,7.42-3.95l5.87-3.23a50.54,50.54,0,0,0,6.9-4.74l3-2.57a14.16,14.16,0,0,0,4-6.84l.23-1.21a39.28,39.28,0,0,0,.59-8.32l-.15-2.5a20,20,0,0,0-2.44-7.79l-3.18-5.19c-1.21-2-3.2-5.19-4.43-7.16L457,222.06a55.25,55.25,0,0,1-3.81-7.47L448.11,202c-.87-2.15-2.44-5.59-3.49-7.65l-4.37-8.5c-1.05-2.06-2.91-5.35-4.12-7.33l-6.31-10.28a55.07,55.07,0,0,1-3.7-7.51L424.69,157a23.58,23.58,0,0,1-1.5-6.84,14.8,14.8,0,0,1,2.27-6.46l4.31-6.73a76.06,76.06,0,0,0,4.05-7.35l.85-1.83c1-2.09,2.44-5.58,3.24-7.75l.85-2.29c.8-2.18.75-5.1-.12-6.49a12.14,12.14,0,0,0-3.47-3.63,15.52,15.52,0,0,0-6.09-1.09h-2.31a37.41,37.41,0,0,0-5.78.36,26.25,26.25,0,0,0-4.41,1.81,2.29,2.29,0,0,0-.94,3.64,17.15,17.15,0,0,1,2.77,6.29s1,4.62.37,6.8l-.61,2.18-2.85,1.09c-1.56.6-2.84-.54-2.84-2.54s-.15-5.27-.31-7.27a25.76,25.76,0,0,0-1.58-6.55,10,10,0,0,0-5-4.36v2.17a35.86,35.86,0,0,0,.93,6.1,44.44,44.44,0,0,1,.95,8.29v9.78a11.73,11.73,0,0,0,2.84,7.11,10.39,10.39,0,0,1,2.5,7.09l-.58,6.89a19.94,19.94,0,0,0,1.33,8.05L419,176.1c.92,2.12,2.23,5.67,2.92,7.87l7,22.5c.69,2.22,1.62,5.88,2.08,8.14l2.76,13.57a32.94,32.94,0,0,0,2.85,7.81l3.52,6.43c1.11,2,.13,3.69-2.18,3.69H399.66a35,35,0,0,0-7,.74,16.09,16.09,0,0,0-5.36,2.9,16.6,16.6,0,0,0-3.85,6.18l-.49,1.47a3.32,3.32,0,0,1-5,1.9l-.27-.17a34.71,34.71,0,0,0-7.75-3.05l-1.26-.29a42.52,42.52,0,0,0-7.88-.95,20.3,20.3,0,0,0-7.55,1.87l-1.29.63a17.26,17.26,0,0,0-6,5.47l0,.06a32.09,32.09,0,0,0-2.81,5.78c-.34,1.2-1.62,1.2-2.84,0a11,11,0,0,0-5.67-2.54,46.29,46.29,0,0,0-7.26,0,10.44,10.44,0,0,0-6.3,3.64,75.1,75.1,0,0,0-4.63,6.92l-.84,1.43a38.16,38.16,0,0,0-3.2,7.7l-1,3.52a63.94,63.94,0,0,0-1.54,8.24L307,324.1a63.94,63.94,0,0,1-1.54,8.24l-3.49,13a43.64,43.64,0,0,1-3.08,7.77l-1.08,2a37,37,0,0,1-4.91,6.74l-6.77,7a40.52,40.52,0,0,1-6.49,5.25l-16.18,10.1a80,80,0,0,0-6.84,4.87l-12.37,10c-1.8,1.45-4.62,4-6.25,5.61l-7.91,7.88a40.84,40.84,0,0,0-5.16,6.56l-4.48,7.35a29,29,0,0,0-3,7.72Zm102.9-59.5a20.78,20.78,0,0,1,3.7-6.45l.17-.19a13.14,13.14,0,0,0,2.75-7.38v-3.79c0-2.19,2.4-9.12,2.4-9.12.76-2.18,2.09-2.82,3-1.43a25,25,0,0,1,2.43,6.66l1.45,7.05a39.93,39.93,0,0,1,.63,8.31l-.19,4a5.43,5.43,0,0,1-4.37,4.84l-1.15.17a63.52,63.52,0,0,1-7.94.63C320.87,379.17,319.58,377.7,320.1,375.9Z"/><path class="cls-6" d="M217.2,435.4a22,22,0,0,0,.2,8.2l2.35,9.29a49.58,49.58,0,0,0,2.87,7.86l2,4.07a59.46,59.46,0,0,0,4.31,7.19l1.39,1.92a20.31,20.31,0,0,0,6.24,5.27l1.27.63a12.21,12.21,0,0,0,6.92,1.13,15.74,15.74,0,0,0,5.68-2.91,11.15,11.15,0,0,0,3.16-5.08c.34-1.6-.08-3.24-1-3.64a8.15,8.15,0,0,0-4.41,0c-1.56.4-3,.07-3.14-.72s-1.31-1-2.52-.37a5.65,5.65,0,0,1-4.42,0c-1.21-.6-2.49-2.73-2.84-4.72s.36-4.13,1.58-4.73a4.43,4.43,0,0,0,2.2-3.64,2.4,2.4,0,0,0-2.2-2.54,5.79,5.79,0,0,1-3.79-1.82,30.88,30.88,0,0,1-2.84-4,7.31,7.31,0,0,1-.62-4.73,16.76,16.76,0,0,1,3.47-5.64l5-5.43a79.23,79.23,0,0,1,6.07-5.81l10-8.39a22.72,22.72,0,0,1,7.27-3.82l2.6-.71a33.4,33.4,0,0,0,7.62-3.34l6.76-4.24a52,52,0,0,0,6.61-5.13l.82-.76a3.79,3.79,0,0,1,5.67.4l1.69,2.13a46.55,46.55,0,0,0,5.89,5.94l6.08,4.9c1.8,1.46,4.71,3.88,6.46,5.4l3.72,3.21c1.75,1.51,1.9,3.73.34,4.93s-4.25,3.17-6,4.37-3.15,3.48-3.15,5.08,1.71,2.9,3.78,2.9a24.62,24.62,0,0,0,7.68-1.59l1.05-.44c2.15-.87,5-.61,6.41.59a7.42,7.42,0,0,1,2.52,4.73c0,1.39.86,1.56,1.9.36s2.88-3.33,4.1-4.72a12.34,12.34,0,0,0,2.52-5.82,14,14,0,0,0-1.79-6.91s-2.94-5.08-4.84-5.08-8-10.89-8-10.89c-1.14-2-.27-3.07,1.92-2.34l.86.28a27,27,0,0,0,8.19,1.09l4.84-.28c2.31-.12,5.19-.39,6.41-.59s3.09,1.3,4.18,3.34l1.09,2a45.12,45.12,0,0,0,4.73,6.88l3.95,4.56c1.51,1.75,3.74,4.65,5,6.45a8.08,8.08,0,0,1,.95,6.54,12,12,0,0,1-5,5.24l-.78.42a19.19,19.19,0,0,1-7.49,2,9.73,9.73,0,0,0-6,2.19c-1.21,1.2-2.19,4.08-2.19,6.39V455a21.72,21.72,0,0,0,1.25,7.11c.69,1.6,1.82,1.92,2.52.72a17.68,17.68,0,0,1,3.47-4c1.21-1,3.78-.76,5.69.53l.59.4a19.35,19.35,0,0,1,5.39,6c1,2,.89,4.62-.32,5.82s-1.93,3.16-1.58,4.36a3.67,3.67,0,0,0,3.47,2.18,9.29,9.29,0,0,0,5-1.82,7.43,7.43,0,0,0,2.2-5.08,70.21,70.21,0,0,0-.55-7.43l-.15-1.13a16.75,16.75,0,0,0-2.13-6.35,12.39,12.39,0,0,0-3.8-3.27c-1.2-.6-.31-1.23,2-1.41l1.09-.09c2.3-.18,5.89-.32,8-.32a19.81,19.81,0,0,0,6.94-1.45,12.5,12.5,0,0,0,4.72-4,15.31,15.31,0,0,0,1.57-6.75V437.9a28.61,28.61,0,0,0-1.44-8.15l-2.15-5.91c-.79-2.17-2.2-5.69-3.12-7.81l-4.85-11.2a27.46,27.46,0,0,0-3.25-5.67c-.87-1-1.43-3.45-1.26-5.44a15.85,15.85,0,0,1,2.89-7l10.61-13.71c1.42-1.83,3.63-4.9,4.91-6.83l7.95-11.91a43.81,43.81,0,0,0,3.8-7.44l.85-2.28a36,36,0,0,0,1.8-8.14l1.85-23.61a28.48,28.48,0,0,1,2.08-8l2.81-6.16a12,12,0,0,1,5.67-5.33l7.29-2.81c2.16-.82,5.6-2.38,7.66-3.43l10.82-5.59c2.05-1.06,5.39-2.84,7.42-3.95l5.87-3.23a50.54,50.54,0,0,0,6.9-4.74l3-2.57a14.16,14.16,0,0,0,4-6.84l.23-1.21a39.28,39.28,0,0,0,.59-8.32l-.15-2.5a20,20,0,0,0-2.44-7.79l-3.18-5.19c-1.21-2-3.2-5.19-4.43-7.16L457,222.06a55.25,55.25,0,0,1-3.81-7.47L448.11,202c-.87-2.15-2.44-5.59-3.49-7.65l-4.37-8.5c-1.05-2.06-2.91-5.35-4.12-7.33l-6.31-10.28a55.07,55.07,0,0,1-3.7-7.51L424.69,157a23.58,23.58,0,0,1-1.5-6.84,14.8,14.8,0,0,1,2.27-6.46l4.31-6.73a76.06,76.06,0,0,0,4.05-7.35l.85-1.83c1-2.09,2.44-5.58,3.24-7.75l.85-2.29c.8-2.18.75-5.1-.12-6.49a12.14,12.14,0,0,0-3.47-3.63,15.52,15.52,0,0,0-6.09-1.09h-2.31a37.41,37.41,0,0,0-5.78.36,26.25,26.25,0,0,0-4.41,1.81,2.29,2.29,0,0,0-.94,3.64,17.15,17.15,0,0,1,2.77,6.29s1,4.62.37,6.8l-.61,2.18-2.85,1.09c-1.56.6-2.84-.54-2.84-2.54s-.15-5.27-.31-7.27a25.76,25.76,0,0,0-1.58-6.55,10,10,0,0,0-5-4.36v2.17a35.86,35.86,0,0,0,.93,6.1,44.44,44.44,0,0,1,.95,8.29v9.78a11.73,11.73,0,0,0,2.84,7.11,10.39,10.39,0,0,1,2.5,7.09l-.58,6.89a19.94,19.94,0,0,0,1.33,8.05L419,176.1c.92,2.12,2.23,5.67,2.92,7.87l7,22.5c.69,2.22,1.62,5.88,2.08,8.14l2.76,13.57a32.94,32.94,0,0,0,2.85,7.81l3.52,6.43c1.11,2,.13,3.69-2.18,3.69H399.66a35,35,0,0,0-7,.74,16.09,16.09,0,0,0-5.36,2.9,16.6,16.6,0,0,0-3.85,6.18l-.49,1.47a3.32,3.32,0,0,1-5,1.9l-.27-.17a34.71,34.71,0,0,0-7.75-3.05l-1.26-.29a42.52,42.52,0,0,0-7.88-.95,20.3,20.3,0,0,0-7.55,1.87l-1.29.63a17.26,17.26,0,0,0-6,5.47l0,.06a32.09,32.09,0,0,0-2.81,5.78c-.34,1.2-1.62,1.2-2.84,0a11,11,0,0,0-5.67-2.54,46.29,46.29,0,0,0-7.26,0,10.44,10.44,0,0,0-6.3,3.64,75.1,75.1,0,0,0-4.63,6.92l-.84,1.43a38.16,38.16,0,0,0-3.2,7.7l-1,3.52a63.94,63.94,0,0,0-1.54,8.24L307,324.1a63.94,63.94,0,0,1-1.54,8.24l-3.49,13a43.64,43.64,0,0,1-3.08,7.77l-1.08,2a37,37,0,0,1-4.91,6.74l-6.77,7a40.52,40.52,0,0,1-6.49,5.25l-16.18,10.1a80,80,0,0,0-6.84,4.87l-12.37,10c-1.8,1.45-4.62,4-6.25,5.61l-7.91,7.88a40.84,40.84,0,0,0-5.16,6.56l-4.48,7.35a29,29,0,0,0-3,7.72Zm102.9-59.5a20.78,20.78,0,0,1,3.7-6.45l.17-.19a13.14,13.14,0,0,0,2.75-7.38v-3.79c0-2.19,2.4-9.12,2.4-9.12.76-2.18,2.09-2.82,3-1.43a25,25,0,0,1,2.43,6.66l1.45,7.05a39.93,39.93,0,0,1,.63,8.31l-.19,4a5.43,5.43,0,0,1-4.37,4.84l-1.15.17a63.52,63.52,0,0,1-7.94.63C320.87,379.17,319.58,377.7,320.1,375.9Z"/><path d="M232.8,179.64c0,.51.1.52.2,0l.15-.91c.09-.5.23-1.34.3-1.84l.06-.41a8.8,8.8,0,0,0,0-1.85l-.12-1.21a14.43,14.43,0,0,0-.36-1.83l-.61-2.09a11.74,11.74,0,0,0-.71-1.72l-.07-.13c-.25-.45-.69-1.17-1-1.6l-2.18-3.21a18.15,18.15,0,0,0-1.15-1.47l-4.72-5.23c-.35-.38-.94-1-1.33-1.31l-1.74-1.51c-.39-.34-1-.87-1.46-1.18l-2.29-1.7c-.41-.31-.73-.76-.71-1a2.8,2.8,0,0,0-.45-1.24l-.87-1.39a18.43,18.43,0,0,1-.89-1.64l-1.79-3.88a12.77,12.77,0,0,0-.76-1.38,4.3,4.3,0,0,1-.53-1.44h0a7.84,7.84,0,0,0-.56-1.76h0a8.5,8.5,0,0,0-1-1.56l-2.34-2.77c-.34-.39-.91-1-1.29-1.36l-1.78-1.69c-.38-.36-1-.95-1.34-1.33l-1.11-1.15c-.36-.37-.94-1-1.3-1.28s-.52-.83-.36-1.09.67-.33,1.15-.13l1.25.5c.47.2,1.26.49,1.75.64l4.76,1.53,1.78.58,5.73,1.84c.49.16.89.13.89-.07s.16-.24.36-.09a7,7,0,0,0,1.23.65l.94.4a10.38,10.38,0,0,1,1.62.92h0c.42.31.9.45,1.08.32s.49.14.71.61l2.29,5a16.34,16.34,0,0,0,.87,1.66l1.7,2.84c.26.44.71.79,1,.76a.92.92,0,0,1,.76.32,3.43,3.43,0,0,0,1.1.76l.56.26c.47.22,1.22.6,1.67.84l1.74,1c.45.24,1.17.68,1.6,1l2.49,1.69c.42.29,1.11.78,1.52,1.1l4,3.06a15,15,0,0,1,1.4,1.24l2.58,2.69a16.61,16.61,0,0,1,1.21,1.43l1.87,2.52a10.32,10.32,0,0,1,.93,1.62l1,2.39c.21.48.46.87.57.87s.11-.38,0-.86a13.11,13.11,0,0,0-.56-1.71l-.73-1.74a11.84,11.84,0,0,0-.89-1.64l-1.21-1.76c-.29-.43-.79-1.1-1.12-1.5L246.82,154a10.21,10.21,0,0,0-1.32-1.31l-3.62-2.87c-.4-.32-1.07-.83-1.49-1.14l-2.85-2.11a16.91,16.91,0,0,0-1.58-1l-5.37-2.91a6,6,0,0,0-1.27-.52,1,1,0,0,1-.65-.65,7.2,7.2,0,0,0-.75-1.32l-.67-.9c-.3-.42-.77-1.13-1-1.57l-1.47-2.5c-.26-.45-.66-1.19-.9-1.65l-.21-.42c-.23-.47-.53-1.1-.66-1.4s-.37-.59-.52-.61a.37.37,0,0,1-.28-.37,1.44,1.44,0,0,0-.49-.76,4.15,4.15,0,0,0-1.38-.71l-1.44-.44c-.49-.14-1.18-.32-1.54-.38a1.43,1.43,0,0,1-.85-.48,2,2,0,0,0-1.12-.56l-1.23-.26c-.5-.11-1.32-.3-1.82-.43l-10.62-2.84a7.41,7.41,0,0,0-1.43-.24c-.29,0-.45-.2-.36-.44s.57-.53,1.08-.62l9.86-1.84a3.35,3.35,0,0,0,1.37-.57,4.14,4.14,0,0,1,1.09-.65,4.25,4.25,0,0,0,1.29-.92l2.5-2.6c.35-.37.91-1,1.23-1.4l2.7-3.38c.33-.4.52-.75.43-.78s.09-.38.4-.79l.57-.76a14.36,14.36,0,0,0,1-1.57l2.51-4.73c.24-.46.61-1.21.83-1.68L229,96.09a18.46,18.46,0,0,0,.66-1.75l1-3.22c.15-.49.35-1.31.44-1.81l.72-3.89a10.4,10.4,0,0,0,.13-1.85l0-.56a8.15,8.15,0,0,0-.31-1.83l-.15-.47c-.16-.49-.26-.47-.23,0l0,.79a8.93,8.93,0,0,1-.09,1.86l-.75,4.78A14.45,14.45,0,0,1,230,90l-2.17,6.69a18.51,18.51,0,0,1-.69,1.74l-1.86,4c-.22.46-.62,1.21-.88,1.65l-1.3,2.19c-.27.44-.69,1.17-.94,1.62l-.53,1a2.62,2.62,0,0,1-1,1,3.52,3.52,0,0,0-1.17.91l-1,1.16c-.33.39-.86,1.05-1.19,1.45l-3.76,4.74c-.32.4-.78.66-1,.57a3.23,3.23,0,0,0-1.35.07l-1.41.35-1.81.47L202.34,121a17.4,17.4,0,0,0-1.76.61l-1.17.49c-.17.07-.34-.08-.36-.32a3.13,3.13,0,0,1,.12-1,3.89,3.89,0,0,1,.81-1.2l.08-.09c.35-.38.92-1,1.25-1.4l5.4-6.33a18.34,18.34,0,0,0,1.14-1.49l4.11-6a2.6,2.6,0,0,0,.49-1.21,1.81,1.81,0,0,1,.4-1,2.83,2.83,0,0,0,.43-1.51l-.21-10a2.38,2.38,0,0,1,.67-1.57l.72-.66c.38-.35,1-1,1.32-1.33l1.89-2.07,1.27-1.39,5.34-5.74c.35-.37.9-1,1.22-1.42l2.88-3.69a13.61,13.61,0,0,0,1-1.57l2.51-4.71c.24-.46.6-1.22.79-1.7l1.15-2.79c.19-.48.47-1.27.61-1.77l.86-3a12.87,12.87,0,0,0,.36-1.83l.2-1.86a4.57,4.57,0,0,0-.1-1.53c-.11-.34-.31-.63-.44-.65s-.18.27-.09.65a5.59,5.59,0,0,1,.06,1.61l-.2,1.78a10.36,10.36,0,0,1-.39,1.82L233.78,60c-.17.49-.47,1.27-.67,1.74l-1.36,3.14a15.27,15.27,0,0,1-.85,1.66L229.43,69c-.26.44-.72,1.15-1,1.57L226,74c-.29.42-.81,1.09-1.15,1.48l-3.37,3.91c-.34.39-.91,1-1.26,1.38L216.12,85c-.35.37-1,1-1.36,1.29l-1.48,1.28a2.54,2.54,0,0,0-.79,1,.72.72,0,0,1-.53.48c-.24,0-.42.5-.4,1L211.8,95c0,.51,0,1.36,0,1.87l-.06,4c0,.51,0,1.08,0,1.26a.52.52,0,0,1-.28.48,3.25,3.25,0,0,0-.82,1l-1.19,2c-.27.44-.74,1.14-1,1.55l-2.94,4.06c-.3.42-.82,1.08-1.14,1.48l-2.61,3.23-1.2,1.44-.41.5c-.33.4-.6.3-.6-.22v-.3a4,4,0,0,0-.44-1.7,3.84,3.84,0,0,0-1.09-1.17,2.79,2.79,0,0,0-1.25-.41h-1.34a4.23,4.23,0,0,0-1.17.16,4.1,4.1,0,0,0-1,.61,5.27,5.27,0,0,0-.89,1,5.36,5.36,0,0,0-.53,1.33c-.09.4-.44.41-.77,0l-3.54-4.07a17.69,17.69,0,0,1-1.13-1.49l-5.5-8.21c-.29-.42-.72-1-1-1.3a2.15,2.15,0,0,1-.31-1.45l.22-1.62c.08-.51.15-1.35.17-1.86l.25-7.26A1.76,1.76,0,0,0,180,88.7a.72.72,0,0,1-.28-.69c.07-.21-.19-.66-.56-1l-1.3-1.21c-.37-.36-1-1-1.31-1.34l-3.67-4.1L171.59,79l-3.3-3.84a13.34,13.34,0,0,1-1.09-1.5l-2.26-3.73-1-1.59-2.48-4a17.31,17.31,0,0,1-.87-1.65l-1.35-3.13a16,16,0,0,1-.63-1.76l-1.19-4.33a12.44,12.44,0,0,1-.34-1.84l-.71-7.65c0-.52-.16-1-.25-1s-.23.18-.32.45a5,5,0,0,0-.13,1.42l.1,2.81a13.05,13.05,0,0,0,.2,1.86l.79,4.37a18.36,18.36,0,0,0,.44,1.81l1.15,3.7a15.3,15.3,0,0,0,.68,1.74l1.77,3.64c.22.47.62,1.21.88,1.66l2.2,3.79c.26.44.71,1.15,1,1.58l2.4,3.46c.29.42.8,1.09,1.13,1.49l3.08,3.73c.33.39.88,1,1.23,1.42L175,84.36c.34.38.92,1,1.28,1.37l1.68,1.72c.36.37.54.88.41,1.12a3.45,3.45,0,0,0-.21,1.38l.42,10.41a5.64,5.64,0,0,0,.15,1.21,1.3,1.3,0,0,1,0,.77,1.86,1.86,0,0,0,.35,1.27l3.58,5.53c.28.43.78,1.11,1.11,1.51l7.36,9a5.1,5.1,0,0,1,.8,1.37c.11.36-.15.44-.59.17L191,121a6.71,6.71,0,0,0-1.72-.68l-4.95-1.06a14.4,14.4,0,0,0-1.85-.24l-1.92-.09-1.3,0c-.2,0-.48-.27-.61-.6a6.77,6.77,0,0,0-.81-1.35l-5-6.5c-.31-.41-.82-1-1.13-1.35a1.79,1.79,0,0,0-1-.61c-.22,0-.33-.14-.24-.32s-.12-.64-.46-1l-.7-.78a8.86,8.86,0,0,1-1-1.54L167,102.13c-.23-.46-.6-1.22-.81-1.69L165,97.94c-.22-.47-.54-1.24-.72-1.73l-1-2.6c-.18-.48-.44-1.29-.57-1.78l-.57-2.22c-.13-.5-.3-1.33-.37-1.84l-.31-2.19c-.07-.51-.14-1.35-.16-1.86l-.09-2.8a11.67,11.67,0,0,1,.11-1.87l.28-1.78c.08-.51,0-.77-.22-.57A2.5,2.5,0,0,0,161,78l-.32,3.54a16.67,16.67,0,0,0,0,1.87l.22,4a11.52,11.52,0,0,0,.28,1.84l.84,3.35c.12.5.36,1.31.53,1.79l1.4,4a15.28,15.28,0,0,0,.75,1.71l.91,1.74c.24.46.65,1.19.92,1.64l.88,1.45c.26.45.68,1.18.91,1.64l.44.85a3.68,3.68,0,0,1,.39,1.51,2.18,2.18,0,0,0,.59,1.37l6.81,7.42a9.52,9.52,0,0,0,1.07,1,3.61,3.61,0,0,1,.61.52,5.6,5.6,0,0,0,.85.65,4.15,4.15,0,0,0,1.61.54l2.74.29c.52,0,1.35.16,1.86.25l1.54.26,1.85.3,1.54.26a7.08,7.08,0,0,1,1.45.39c.29.14.47.34.4.45a2.76,2.76,0,0,1-1,.49l-.23.07c-.49.16-1.31.39-1.81.51l-6,1.49c-.5.13-1.31.36-1.8.51L175,127.73c-.49.15-1.28.44-1.76.64l-3.42,1.38c-.48.2-.91.57-1,.84a2.51,2.51,0,0,1-.81,1.09l-.49.41a7.38,7.38,0,0,0-1.23,1.39l-1.81,2.78c-.28.43-.71,1.16-.95,1.61l-.41.78a7,7,0,0,0-.6,1.47,1.2,1.2,0,0,1-.73.8,14.17,14.17,0,0,0-1.42.55l-1,.45c-.47.21-1.24.57-1.7.8l-2.43,1.19c-.47.22-1.22.6-1.67.84l-1.42.75-1.64.89-1.68.94a16.07,16.07,0,0,0-1.56,1l-1.58,1.21c-.4.32-1,.87-1.4,1.23l-.94.94c-.37.36-.93,1-1.26,1.38l-1.15,1.39c-.33.39-.85,1.05-1.16,1.44a3.24,3.24,0,0,0-.61,1.45c0,.41.21.39.5,0l.78-1.13a11.05,11.05,0,0,1,1.21-1.42l2.7-2.65a18.53,18.53,0,0,1,1.41-1.23l2.72-2.09a10.62,10.62,0,0,1,1.58-1l2.19-1.05,1.68-.83,1.8-.92,1.67-.85,1.72-.85a9.14,9.14,0,0,1,1.75-.63l1.07-.23a1.84,1.84,0,0,0,1.08-.57c.09-.21.32-.76.51-1.24l.18-.44c.2-.48.57-1.23.82-1.68,0,0,1.8-3.14,2-3.38s1.25-1.55,1.25-1.55a5.08,5.08,0,0,0,.77-1.16,2.81,2.81,0,0,1,.95-1l.93-.6a9.53,9.53,0,0,1,1.67-.81l3.64-1.25c.48-.17,1.28-.43,1.78-.58l6.53-2c.49-.15,1.3-.37,1.8-.48l5.52-1.28c.5-.12,1-.07,1.16.11s-.08.6-.47.93l-1.57,1.36c-.39.33-1,.91-1.38,1.27l-3.58,3.45c-.37.36-.95,1-1.29,1.37l-2.08,2.38a6.89,6.89,0,0,0-.94,1.51,6.17,6.17,0,0,0-.36,1.49,2.31,2.31,0,0,1-.65,1.29,8.12,8.12,0,0,0-1.05,1.43l-1.76,3.2a18.65,18.65,0,0,0-.79,1.7l-.46,1.23a7.08,7.08,0,0,0-.37,1.28,1.94,1.94,0,0,1-.82.93l-1,.65a18.3,18.3,0,0,0-1.48,1.15l-4.33,3.83a18.41,18.41,0,0,0-1.33,1.32l-3.58,3.94c-.35.38-.89,1-1.21,1.43l-2.32,3a18.32,18.32,0,0,0-1,1.55L158,167.4a7.25,7.25,0,0,0-.68,1.72l-.4,1.73a12.81,12.81,0,0,0-.23,1.85l0,1.28a2.41,2.41,0,0,0,.21,1.22c.14.15.35-.13.48-.63l0-.12a12.83,12.83,0,0,0,.3-1.84l.11-1.44a8,8,0,0,1,.38-1.82l.42-1.22a8.58,8.58,0,0,1,.85-1.65l1-1.46c.3-.42.82-1.09,1.15-1.48l.72-.83c.34-.39.9-1,1.26-1.39l2.74-2.85c.35-.37,1-.95,1.36-1.28l1.8-1.53c.4-.33,1-.89,1.41-1.23l4.42-4a4.65,4.65,0,0,0,.9-1,2.54,2.54,0,0,1,.53-.68,4.31,4.31,0,0,0,.73-1.12l.87-1.8c.23-.46.59-1.23.8-1.69l.68-1.53c.21-.46.51-1.21.67-1.66a2.52,2.52,0,0,1,.85-1.16,4.08,4.08,0,0,0,1-1.18l.9-1.53a12.4,12.4,0,0,1,1.09-1.52l1.61-1.88a18.23,18.23,0,0,1,1.29-1.35l.89-.82a12.65,12.65,0,0,0,1.26-1.38l1.11-1.43a15.06,15.06,0,0,1,1.26-1.38l1-.9c.38-.36.83-.55,1-.44a.64.64,0,0,1,.32.45,2.85,2.85,0,0,1-.59,1L193,128c-.33.4-.87,1.05-1.21,1.43l-1,1.18a7.69,7.69,0,0,0-1,1.55l-.56,1.13a5.38,5.38,0,0,0-.45,1.69,1.58,1.58,0,0,1-.4,1.09,1.94,1.94,0,0,0-.47,1.17l0,.33c-.06.51-.14,1.35-.17,1.86l-.12,1.84a12.16,12.16,0,0,0,0,1.62,2.2,2.2,0,0,0,.37,1,2.11,2.11,0,0,1,.17,1.26l-.11,1a10.5,10.5,0,0,0,0,1.86l.11.89a4.35,4.35,0,0,0,.39,1.41,4.08,4.08,0,0,0,.69.85.88.88,0,0,1,.32.69.85.85,0,0,0,.2.64,1,1,0,0,0,.65.33,2.07,2.07,0,0,0,.8-.24c.25-.14.18-.45-.16-.69s-.48-.55-.32-.69a1.39,1.39,0,0,0,0-1.14l-1.53-4.91c-.16-.49-.12-1,.08-1.17a1.63,1.63,0,0,0,.27-1.22l-.3-2.9a11.55,11.55,0,0,1,0-1.86l.06-.56a2.44,2.44,0,0,1,.53-1.33,3.82,3.82,0,0,0,.75-1.29l.44-1.3a12.43,12.43,0,0,1,.77-1.7l.77-1.36a7.42,7.42,0,0,1,.95-1.3c.26-.26.57-.07.67.44l0,.1c.11.5.27,1.17.35,1.47a2.08,2.08,0,0,0,.41.78,1,1,0,0,0,.52.2c.16,0,.5-.29.77-.65a5.15,5.15,0,0,0,.72-1.55l0,0c.12-.5.39-.73.59-.51a6.67,6.67,0,0,1,.77,1.26c.22.46.54,1.24.71,1.73l1,2.83c.17.49.47.93.67,1s.33.46.28.92a2.1,2.1,0,0,0,.17,1.17,5.21,5.21,0,0,0,.52.61,2.15,2.15,0,0,1,.27,1.21l-.05,2.34c0,.51.15,1,.35,1.09s.11.51-.19.92l-.36.5a5.38,5.38,0,0,0-.74,1.68l-.9,4.13a2.13,2.13,0,0,1-.48,1.08,1.29,1.29,0,0,1-.52.16c-.14,0-.21.17-.16.37a.8.8,0,0,0,.6.48,1.53,1.53,0,0,0,.89-.07,1,1,0,0,0,.4-.77,6.69,6.69,0,0,1,.39-1.44l1.73-4.31a3.43,3.43,0,0,0,.22-1.56,1.61,1.61,0,0,1,.2-1.09,2,2,0,0,0,.16-1.32l-.39-2.2a6.79,6.79,0,0,1-.09-1.57,9.65,9.65,0,0,0,.08-1.13v-.24a.56.56,0,0,0-.22-.4,1.65,1.65,0,0,1-.71-1.05,2.84,2.84,0,0,0-.43-1.3l-.51-.88c-.26-.44-.66-1.18-.9-1.64l-1.8-3.42a3.93,3.93,0,0,0-.84-1.15,1.17,1.17,0,0,1-.4-.77c0-.25.29-.52.65-.6l.16.24a2.5,2.5,0,0,0,.36.42c.38.34,1,.94,1.33,1.31l3.8,4a15,15,0,0,1,1.19,1.45l2.3,3.23a9.6,9.6,0,0,0,1,1.21,4.22,4.22,0,0,1,.83,1.32l.59,1.48c.2.48.5,1.26.69,1.74l1.43,3.74c.18.49.51,1.26.73,1.73,0,0,.25.53.49,1l.24.49a7.92,7.92,0,0,0,.89.77c.23.15.72.56,1.11.9l2.07,1.82,1.39,1.26,5.07,4.63a18.23,18.23,0,0,1,1.29,1.35l2,2.44c.33.4.85,1.06,1.16,1.48l1.72,2.35a12.3,12.3,0,0,1,.94,1.61l.67,1.45a8.47,8.47,0,0,1,.56,1.77l.47,2.52c.09.5.19,1.34.22,1.85l.06,1.13c0,.51.06,1.36.08,1.87Z"/><path class="cls-7" d="M453,922.59c-.11-1.32-.2-4.48-.2-7v-9a40.64,40.64,0,0,0-1.25-9.11,66.25,66.25,0,0,0-3.24-8.66l-2-4.3c-1.1-2.3-2.92-6.06-4.05-8.35l-3.59-7.28a85,85,0,0,1-3.55-8.55s-4.52-13.28-4.52-13.9-1.95-16.61-1.95-16.61c-.3-2.54-1.67-3.58-3-2.32a36.46,36.46,0,0,0-5,6.21L419.09,836a39.44,39.44,0,0,1-5.95,7L392,861.82c-1.91,1.7-4.69,4-6.18,5.06s-1.77,3.55-.62,5.5a71.65,71.65,0,0,0,5,7.13l4.13,5.07c1.61,2,4.16,5.29,5.66,7.35l1.81,2.49,5.47,7.49,4.7,6.43c1.51,2.06,3.3,4.59,4,5.62a15,15,0,0,1,1.77,4.37,10.29,10.29,0,0,1,0,4.15,4.58,4.58,0,0,1-2.71,2.39,15.53,15.53,0,0,1-5.3.41,22.65,22.65,0,0,1-7.15-2.59l-19.15-10.81c-2.22-1.25-4.37-2.84-4.77-3.53s-.17-1.24.52-1.24a20.9,20.9,0,0,1,5.38,2.11l16.88,8.66a23.46,23.46,0,0,0,5.69,2.22c.85,0,2.12.1,2.8.1a1,1,0,0,0,.95-1.25c-.17-.69-1.81-2.71-3.63-4.5l-4-3.89c-1.83-1.79-4.75-4.77-6.5-6.63l-3.82-4c-1.74-1.86-4.51-5-6.13-7l-1-1.16c-1.63-2-4.17-5.28-5.64-7.37l-2.74-3.85a3.43,3.43,0,0,0-5.68-.25l-1.9,2.26a72.76,72.76,0,0,0-5.42,7.52s-2.78,4.56-3.4,5.18-4.21,9-4.21,9c-1,2.35-2.64,6.19-3.66,8.54,0,0-5.64,13-6.26,13S341.33,936,341.33,936a40.13,40.13,0,0,1-5.16,7.61l-1.67,1.84a49,49,0,0,1-6.92,6.1l-1.33.93a50,50,0,0,1-8.11,4.4l-1.58.65a57.15,57.15,0,0,1-8.86,2.66l-6.48,1.3a56.9,56.9,0,0,1-9.2.91h-5.75a16.32,16.32,0,0,1-2.1-.3c-2.5-.51-5.63-1.16-6.94-1.45a16.74,16.74,0,0,1-3.53-1.15,2.92,2.92,0,0,1-1.36-1.56,1.1,1.1,0,0,1,.73-1.25,6.07,6.07,0,0,1,2.29-.1l4.47.73c1.71.28,4.84.66,7,.83s5.53.31,7.58.31a40.89,40.89,0,0,0,8.25-1.15l.78-.2a42.55,42.55,0,0,0,8.24-3.23c2.05-1.14,5.45-3.28,7.54-4.74l.71-.5a45.28,45.28,0,0,0,6.09-5.15,30.12,30.12,0,0,0,4.15-6.66c1-2.29,2.62-6.11,3.55-8.49l.59-1.53a84.74,84.74,0,0,0,2.79-8.84l1.94-7.8c.61-2.48,1.6-6.54,2.19-9l.54-2.21c.59-2.49,1.65-6.39,2.34-8.68s0-3.49-1.57-2.7-4.5,2.44-6.56,3.64a59.65,59.65,0,0,1-8.1,3.78l-.4.14a37.75,37.75,0,0,1-7.9,1.9c-2,.18-5.63.36-8.18.42l-20.24.42c-2.55,0-4.69-.32-4.74-.84s.92-1.21,2.18-1.55a27.1,27.1,0,0,1,6.91-.27l4.67.34a57,57,0,0,0,9.24-.25l2.22-.28a55.2,55.2,0,0,0,9-2.09l2.22-.75a41.4,41.4,0,0,0,6.59-2.84c1.2-.74,3.39-2.19,4.88-3.22l.41-.63c.42-.61,2.08-2.9,2.49-3.53s4.46-10.27,4.46-10.27c1-2.35,2.54-6.24,3.45-8.62l3.54-9.21c.91-2.38,2.43-6.28,3.36-8.65l1.59-4a70.57,70.57,0,0,0,2.68-8.86l1-4.44a3.39,3.39,0,0,0-3.66-4.3l-2.78.14-9.27.48-2.79.14a33.81,33.81,0,0,0-8.69,1.8c-2.23.86-5.22,2.17-6.65,2.92a26.35,26.35,0,0,0-5,3.63,13.66,13.66,0,0,0-3.12,4.57,29.29,29.29,0,0,0-.69,6.94l.34,43.11c0,2.55.13,6.73.24,9.28l.2,4.23c.12,2.55.17,6.47.11,8.69a26.12,26.12,0,0,1-.93,6.44c-.46,1.32-1.2,3.56-1.66,5a26.12,26.12,0,0,1-3.7,6.25,2.91,2.91,0,0,1-.87.29,4.46,4.46,0,0,0-1.24.46,24.23,24.23,0,0,1-6.35,2.86,49,49,0,0,1-4.9.52,25.85,25.85,0,0,1-6.12-.83c-2-.51-5.6-1.65-8-2.51l-3.33-1.21a46.67,46.67,0,0,1-8.23-4.15l-2.88-1.92c-2.12-1.41-5.47-3.91-7.42-5.54l-4.1-3.41c-2-1.64-3.14-3.07-2.62-3.18s2.67,1,4.79,2.39l7.06,4.78c2.12,1.42,5.69,3.58,7.94,4.79l3.45,1.84a76.66,76.66,0,0,0,7.73,3.54,26,26,0,0,0,6.76,1.46c1.71.06,4.09.06,5.29,0a11.58,11.58,0,0,0,3.85-.94,12.38,12.38,0,0,0,3-2.28,32.73,32.73,0,0,0,2.6-3.32,12.46,12.46,0,0,0,1.56-4.48,35.37,35.37,0,0,0-.36-7.2L303,882.58c-.37-2.53-1-6.67-1.36-9.19l-1.95-13a81.63,81.63,0,0,1-.75-9.23l-.09-6.93a61.74,61.74,0,0,1,.73-9.22l.3-1.67a28.39,28.39,0,0,1,3.25-8.51,34.13,34.13,0,0,1,2.32-3.33c.62-.62,5-5,5.61-5.41s2.4-1.44,2.4-1.44c2.22-1.26,5.89-3.25,8.16-4.42,0,0,1.51-.78,2.12-1.2s8.83-2.7,8.83-2.7c2.46-.69,6.49-1.8,9-2.45l23.67-6.33a16.13,16.13,0,0,0,7.32-4.88s2.78-3.6,3.4-4.22,6.43-7.7,7.06-8.54,8.32-5.6,9.16-6.43,8.94-6.45,9.56-7.07,8.73-5.61,9.55-6,6.45-3.56,7.08-4l.63-.42a23.92,23.92,0,0,0,3.63-3.33,33.52,33.52,0,0,1,2.71-2.91,26.08,26.08,0,0,1,4.26-2.81A30.88,30.88,0,0,0,434,744a13,13,0,0,0,2.71-4.26,15.86,15.86,0,0,1,2.81-4.59,15.33,15.33,0,0,1,4.15-2.7,13.48,13.48,0,0,1,3.95-1,13.23,13.23,0,0,1,7.69,2.28,17.86,17.86,0,0,0,5.82,2l7.52.83,15.31,1.68c2.54.28,6.67.85,9.19,1.27l3.32.55a53.6,53.6,0,0,1,8.42,2.22,62.6,62.6,0,0,1,7,3.23,54.27,54.27,0,0,1,5.51,3.63,24.4,24.4,0,0,1,4.06,4.27,31.48,31.48,0,0,0,3.33,4,14.36,14.36,0,0,1,2.6,3.54c.51,1.08,1.21,2.72,1.56,3.64a23.92,23.92,0,0,1,.93,4.36c.17,1.48.31,3.91.31,5.4a20,20,0,0,1-.83,5.2,21.59,21.59,0,0,1-2.19,4.47,55.15,55.15,0,0,1-4.26,5.09,29.8,29.8,0,0,1-6.44,5,69.47,69.47,0,0,1-7.28,3.23,49.94,49.94,0,0,1-6.75,1.87,52.35,52.35,0,0,1-7.65.45l-5.49-.08c-2.55,0-5-.11-5.47-.17s-.75,1.43-.63,3.32a47.91,47.91,0,0,0,1.44,7.91l.45,1.65a42.12,42.12,0,0,0,3.6,8.47l.06.11c1.3,2.2,3.3,5.68,4.43,7.74a56.27,56.27,0,0,0,3.95,6.13,22.71,22.71,0,0,0,4.37,4.06c1.37.92,4.35,2.62,6.63,3.79l14.82,7.61c2.26,1.17,6.07,2.88,8.44,3.82l6.74,2.63a65.14,65.14,0,0,1,8.28,4.12l3.31,2c2.18,1.33,5.46,3.5,7.28,4.81a26.75,26.75,0,0,1,5.3,5.2c1.09,1.54,3,4.61,4.32,6.81l2.38,4a56.9,56.9,0,0,1,3.86,8.4l1.35,3.9c.83,2.41,2.14,6.38,2.92,8.81l.3.94c.77,2.43,2.16,6.1,3.07,8.15a54.53,54.53,0,0,0,3.12,6,28.72,28.72,0,0,0,3.32,4.16,17.44,17.44,0,0,0,4.15,2.92c1.26.57,3.65,1.69,5.31,2.5a30.52,30.52,0,0,0,6.76,2.08,56.18,56.18,0,0,0,8.38.49l5.69-.16a64.47,64.47,0,0,0,9.19-1l.25-.05a60,60,0,0,0,8.84-2.69l1-.4a53,53,0,0,1,5.75-2.09,3.39,3.39,0,0,1,2.5.51v1.25A35.28,35.28,0,0,1,638.4,930l-2.65.93-8.54,3a51.65,51.65,0,0,1-8.77,2l-2.22.29a81.72,81.72,0,0,1-8.36.59c-2.06,0-5.05-.1-6.65-.21a42.21,42.21,0,0,1-5.82-.94,53,53,0,0,1-6.14-2.08,44.48,44.48,0,0,1-5.5-2.81,46.87,46.87,0,0,1-5.19-4.15,36.68,36.68,0,0,1-5.3-6.68l-.84-1.4c-1.32-2.19-3.43-5.8-4.7-8l-.37-.66c-1.27-2.22-3.43-5.63-4.8-7.57s-3.69-5.26-5.14-7.36l-.33-.48a42.55,42.55,0,0,0-5-6,65.3,65.3,0,0,0-6.25-4.75,4.56,4.56,0,0,0-1.55-.54c-1-.21-5.2-1.74-5.2-1.74-2.39-.88-6.36-2.21-8.8-3,0,0-9.07-2.79-9.69-2.79a88.63,88.63,0,0,1-9.36-2.27,20,20,0,0,0-2.42-.92c-2.45-.76-4.06-.53-3.6.49a6.13,6.13,0,0,0,3.32,2.7h1c1,0,4.31-2.3,4.31-2.3a30.44,30.44,0,0,0,6.39-6.53l2.1-3.11a22.89,22.89,0,0,1,3.63-4.47c.57-.35,1.78.5,2.69,1.87l-1,1.25c-1,1.24-5,7.69-5.62,7.89s-3.74,4.07-3.74,4.07a18.81,18.81,0,0,1-6,4.87,18.17,18.17,0,0,1-5.5,1.25,9,9,0,0,1-4.36-1.36c-1.09-.74-2.88-3.23-4-5.54l-.36-.77a17.68,17.68,0,0,0-5.23-6.27c-1.77-1.13-3-.2-2.7,2.09a78.5,78.5,0,0,0,1.72,8.64l1.55,5.79c.65,2.47,1.76,6.51,2.44,9l.63,2.27c.69,2.46,1.6,6.53,2,9.05l.51,2.91a74.71,74.71,0,0,1,.87,9.22l1.08,57.64a67.78,67.78,0,0,0,.93,9.21l.39,2.09a38.85,38.85,0,0,0,2.3,7.69c.8,1.72,2.54,4.91,3.87,7.09l.35.58a44.34,44.34,0,0,0,4.71,6.36,34.22,34.22,0,0,0,4.78,4.06,16.32,16.32,0,0,0,4.37,2.08c1,.23,2.39.6,3,.82a3,3,0,0,1,1.55,1.67c.24.69,0,1.3-.51,1.35a15.6,15.6,0,0,1-3.85-.83c-1.6-.52-3.89-1.36-5.09-1.87a36.41,36.41,0,0,1-4.89-2.8,32.65,32.65,0,0,1-5.58-5.51l-.49-.62a81.13,81.13,0,0,1-5.21-7.65l-.92-1.55a48.72,48.72,0,0,1-3.71-8.44l-2.9-9.43c-.74-2.44-1.81-6.47-2.37-9L489.13,957c-.55-2.5-1.38-6.59-1.85-9.1l-3.92-21c-.47-2.52-1.16-6.64-1.55-9.16l-.88-5.78a87.44,87.44,0,0,0-2-9l-.12-.44c-.71-2.45-1.9-6-2.64-7.79s-2.24-5.23-3.32-7.54L467,874.51c-1.08-2.31-1.33-2.21-.57.22l2.83,9a92.47,92.47,0,0,1,2.21,9l0,.21c.45,2.52,1,5.93,1.23,7.59a27.38,27.38,0,0,1-.1,6.44c-.28,1.89-.9,5.35-1.36,7.69s-1.43,6.27-2.17,8.71v0a64.34,64.34,0,0,1-3.43,8.59l-8.51,16.86c-1.14,2.28-3,6-4.14,8.31l-3.37,6.86c-1.13,2.28-2.81,6.11-3.73,8.49l-1.45,3.8a70.56,70.56,0,0,0-2.6,8.59,74.69,74.69,0,0,0-1.24,8c-.18,2.06-.37,5.83-.44,8.38l-.19,7.76a43.16,43.16,0,0,0,.52,7.76,59.21,59.21,0,0,0,2,6.87,20.64,20.64,0,0,0,2,4.36,1.34,1.34,0,0,1,.31,1.35,1.75,1.75,0,0,1-1.35.84c-.58.06-1.94-.88-3-2.09a16.4,16.4,0,0,1-2.91-6.14c-.52-2.17-1.21-5.81-1.55-8.1a78.4,78.4,0,0,1-.71-8.8l0-2.14c0-2.55.08-6.72.28-9.27l.93-12a67.33,67.33,0,0,1,1.49-9.13s1.17-4.64,1.37-5.25,3.44-9.77,3.44-9.77c.86-2.41,2.16-6.37,2.92-8.82l.39-1.29c.75-2.44,2.19-6.36,3.2-8.7a11.3,11.3,0,0,0,.86-3.86c0-1.87,1.45-5.64,1.45-5.64A19.75,19.75,0,0,0,453,922.59Z"/><path class="cls-8" d="M620.76,408.82c-1.33-.36-3.36-.94-4.51-1.31a4.76,4.76,0,0,0-4,1l-1.64,1.42c-1,.9-1.32,2.26-.62,3a17.47,17.47,0,0,0,2.85,2.38c.87.54.46,1-.92,1.09l-.4,0a13.92,13.92,0,0,0-4.73,1.24l-.53.27a5.85,5.85,0,0,1-4.5.09l-.76-.34a6.82,6.82,0,0,1-3.1-3.41l0-.09a4.8,4.8,0,0,0-3.18-2.85l-4.8-1L583.67,409a17.7,17.7,0,0,0-4.93-.15l-6.54.94a23.5,23.5,0,0,1-5,.06l-5.06-.6a8.8,8.8,0,0,1-4.29-2,25.27,25.27,0,0,0-3.14-2.42c-2-1.3-3-2.85-4.26-3.12a8.15,8.15,0,0,1-2.54-1.11,29,29,0,0,1-3.74-3.09,20.31,20.31,0,0,0-3.84-2.91l-1.83-1.05a5.74,5.74,0,0,0-4.25-.43c-1.13.44-2,.31-1.95-.29a7.58,7.58,0,0,1,1.22-2.65,9.91,9.91,0,0,1,3.22-2.58c1.16-.56,2.56-1.27,3.12-1.59a13.1,13.1,0,0,1,3.48-.92l.11,0c1.37-.19,2.38-.82,2.25-1.4a11.46,11.46,0,0,0-1.74-3.05l-5.39-7.12c-.84-1.1-2.23-2.87-3.11-3.93l-8.6-10.41c-.87-1.06-2.38-2.73-3.35-3.7l-9-9.1c-1-1-2.6-2.53-3.61-3.46l-4.19-3.83a14.38,14.38,0,0,1-2.87-4l-2.23-5a26.89,26.89,0,0,1-1.52-4.73l-1.78-8.63c-.27-1.35-.76-3.55-1.07-4.89L495,301.93a19.87,19.87,0,0,1-.39-4.93l.52-7.77a13.09,13.09,0,0,1,1.39-4.67s4.07-7.23,4.29-8.3a33.9,33.9,0,0,1,2.22-4.69,27,27,0,0,0,1.92-4.58s3.06-10.43,3.32-11.72a2,2,0,0,1,1.36-1.55c1.34-.32,2.16.52,1.84,1.85l-.22.88c-.33,1.34-.92,3.51-1.32,4.82L507.84,268a27.18,27.18,0,0,0-.91,4.89s-.44,5.87-.26,5,1.4-4.76,1.4-4.76a4.9,4.9,0,0,1,2.66-3c1-.33,1.65.44,1.32,1.72a42.39,42.39,0,0,0-.84,4.62,3.66,3.66,0,0,0,1.54,3.33l.6-.76c.61-.76,1.43-4.74,1.43-4.74a21.25,21.25,0,0,1,1.68-4.66l.22-.41a7.17,7.17,0,0,1,2-2.59c.47-.2.71.75.53,2.11l-.12.89c-.17,1.37-.39,3.61-.48,5l-.58,9.11c-.09,1.38-.17,3.62-.18,5l0,6.14a9,9,0,0,0,1.44,4.53l1.24,1.7a28.92,28.92,0,0,1,2.48,4.32l.71,1.58a13.68,13.68,0,0,0,2.9,3.94,3.91,3.91,0,0,0,1.41.8,6.23,6.23,0,0,1,1.77,1.13,10.24,10.24,0,0,1,2.62,4l1.73,5.69a45.21,45.21,0,0,0,1.76,4.67l.39.86a41.12,41.12,0,0,1,1.72,4.69l0,.17c.38,1.33,1,3.48,1.45,4.79,0,0,.45,1.44,1,1.78s2.84,1.87,2.84,1.87l4.14,2.81,3.29,2.26a30.81,30.81,0,0,1,3.81,3.21l1.66,1.72a10,10,0,0,1,2.19,3.45,4.88,4.88,0,0,0,2.77,2.58l.09,0a5.43,5.43,0,0,1,2.89,2.49,13.18,13.18,0,0,0,2.21,3.35c.9,1,2.33,2.68,3.17,3.76l1.69,2.17a14.06,14.06,0,0,1,2.07,3.76,3,3,0,0,0,1.91,2.08,6.53,6.53,0,0,0,3.55-1s2.91-1.71,3.69-2.22,4-3.19,5-3.87,11.48-18.42,11.48-18.42c.69-1.19,1.87-3.11,2.61-4.27l10.52-16.48a16.18,16.18,0,0,1,3.36-3.6l14.4-10.62c1.11-.82,2.86-2.23,3.9-3.13l22.67-19.81a40.45,40.45,0,0,0,3.49-3.56l13.38-16c.89-1.05,2.42-2.69,3.42-3.64l.81-.77a21,21,0,0,0,3.08-3.89l8.23-14.2c.69-1.19,1.05-1.15.79.09a22.92,22.92,0,0,1-1.56,4.5l-7.88,16.17a39.51,39.51,0,0,1-2.53,4.31l-1.9,2.72c-.79,1.13-.67,1.23.27.23l7.19-7.72c.87-.93,9.28-13.78,9.28-13.78a12.47,12.47,0,0,1,2.67-2.94c.7-.47.85.19.33,1.45l-.3.73a32.6,32.6,0,0,1-2.33,4.41l-7.1,10.94c-.75,1.16-2,3-2.86,4.11l-4.1,5.47a21.31,21.31,0,0,0-2.4,4.33l-.12.3c-.49,1.28,0,1.66,1.11.83,0,0,6.18-4.62,6.74-5.18s8.69-8.77,8.69-8.77a34.46,34.46,0,0,1,3.79-3.24l5.1-3.67c1.12-.8,1.66-.63,1.21.38a17.56,17.56,0,0,1-2.5,3.69L695.19,275c-.93,1-2.53,2.6-3.57,3.5L685,284.22c-1,.91-2.74,2.39-3.77,3.29L672,295.59c-1,.9-.78,1.43.57,1.18,0,0,3.81-.7,5.1-1.56a143.4,143.4,0,0,0,10.74-9.82c.91-1.16,6.25-5.41,7.67-5.79s5.55-1.34,5.55-1.34c1.34-.31,1.54.1.44.93l-9.5,7.15a25.33,25.33,0,0,0-3.59,3.43l-1.55,1.87c-.88,1.05-.56,1.5.72,1,0,0,7.18-2.9,7.86-3a10.5,10.5,0,0,1,2.31.25c1.35.28,1.51,1.12.36,1.88l-2.54,1.66a18,18,0,0,0-3.61,3.37l-.64.84c-.84,1.1-.39,2,1,2l5.67.1c1.38,0,1.56.67.41,1.43l-5.37,3.52c-1.15.76-3,2.1-4,3l-3.69,3.07c-1.06.87-.8,1.68.57,1.78l2,.17a28.68,28.68,0,0,1,4.89.91l.06,0c1.31.39,1.36,1.18.1,1.73l-3.29,1.48a29,29,0,0,0-4.33,2.47l-5.37,3.85a1.84,1.84,0,0,0-.1,3.05s.93.78.2,1.08-5.24,3.51-5.24,3.51c-1.12.8-2.88,2.19-3.92,3.09l-4.94,4.29a15.71,15.71,0,0,1-4.24,2.49l-1.57.58a7.76,7.76,0,0,0-3.56,3l-.79,1.42a28.62,28.62,0,0,1-2.84,4.08l-4.94,5.69-3.28,3.78-8.42,9.66a21.93,21.93,0,0,1-3.74,3.26l-1.75,1.15a33.34,33.34,0,0,0-3.89,3.11l-1.16,1.12a10.75,10.75,0,0,0-2.44,4.16,22,22,0,0,1-.8,2.42,7.06,7.06,0,0,1-1.23,1.84,17.54,17.54,0,0,1-4,2.88l-2,.93c-1.24.61-1.3,1.69-.13,2.43l2.67,1.67a16.83,16.83,0,0,0,4.57,1.86l25.25,5.41a35.7,35.7,0,0,0,4.94.64l13.13.61c1.37.07,1.93.9,1.24,1.87a13.18,13.18,0,0,1-3.4,3l-4.61,2.75a45.39,45.39,0,0,1-4.45,2.27l-2.75,1.18a15.78,15.78,0,0,1-4.8,1.07l-2.42.09a19.85,19.85,0,0,1-4.91-.57L632,411.83l-4.83-1.31Z"/><path class="cls-4" d="M450.85,809.27s0-5,0-5,0,5,0,5Z"/><line class="cls-9" x1="195.79" y1="114.04" x2="195.79"/></svg>