<svg id="Layer_1" data-name="Layer 1" xmlns="http://www.w3.org/2000/svg" viewBox="0 0 1563.65 1480.14"><defs><style>.cls-2{fill:#ff9d1f}.cls-4{fill:#4aff91}</style></defs><path d="M431.14 849.81c-.74-5.67-1.46-15-1.59-20.7l-.47-19.83c-.13-5.73-.24-15.08-.24-20.8v-4.4a48.37 48.37 0 00-5-19.53l-1.67-3.06a123.82 123.82 0 00-11.68-17.07l-23.4-27.68c-3.69-4.37-9.59-11.63-13.12-16.13 0 0-21.67-27.67-24.58-32.48S336.84 651.65 333 643s-7.84-22.9-7.84-22.9a91.49 91.49 0 01-2.81-20.42v-36.43c0-5.73 2-13.91 4.36-18.15a164 164 0 0110.66-16l2.9-3.84a171 171 0 0113.73-15.5s23.54-22.77 26.43-24.69 15.5-21.32 17.44-25.2 7.73-17.43 8.73-20.34a27.36 27.36 0 00.95-7c0-5.73-2.62-11.71-5.81-13.29a74.56 74.56 0 01-12.11-8.28 94.48 94.48 0 01-10.17-10.17c-2.13-2.63-8.5-5.5-14.15-6.37l-11.41-1.73c-5.65-.87-11.15-2.43-12.22-3.51s.24-3.88 2.92-6.28 9.18-5.44 14.51-6.8 12.09-3.3 15-4.34a42 42 0 0010.17-5.81c2.66-2.14 8.32-4.75 12.57-5.8a72.61 72.61 0 0114.55-1.94 50.07 50.07 0 0111.6 1.4 21.48 21.48 0 018.72 6.31 109.66 109.66 0 016.78 9.69c1.6 2.66 3.77 9 4.85 14.05a115.76 115.76 0 011.93 19.61v19a93 93 0 01-2.75 20.43l-.31 1.17a67.71 67.71 0 01-8.87 18.43l-3.29 4.52a124.53 124.53 0 01-13.76 15.44l-8.9 8.2c-4.21 3.86-10.71 10.58-14.45 14.9l-4.79 5.55A143.58 143.58 0 00376 533.68l-3.8 6.32c-2.94 4.91-7.09 12.42-9.22 16.66a81.06 81.06 0 00-5.73 18l-.15.87a72.76 72.76 0 00-.41 19.9 132.81 132.81 0 004.34 18.4 107 107 0 008.31 17.61l5.67 9.36a83.06 83.06 0 0013.18 15.79l9.61 8.48c4.28 3.81 11.24 10 15.47 13.91 0 0 4 3.57 7.81 3.57s27.13 4.89 30 4.89 16.73.56 16.73.56c5.71.23 12.35 1.74 14.76 3.32s8.85 4.17 14.35 5.75l7.13 2a56.2 56.2 0 0020.26 1.28l4.63-.69a64 64 0 0019.2-6.9l8.28-4.93c4.91-2.91 13-7.64 18-10.45l2.28-1.31c5-2.81 12.08-7.1 15.82-9.5a58.33 58.33 0 0111.61-5.78c2.66-.82 9.32-.07 14.77 1.64l8.22 2.53c5.45 1.71 14.32 4.7 19.69 6.64l23.09 8.38a65.43 65.43 0 0020.15 3.3l22.84-.51c5.71-.15 15.06-.26 20.77-.26H741a52.48 52.48 0 0119.68 4.65l6.59 3.33c5.12 2.55 13.26 7.13 18.11 10.17l28.87 18a94.41 94.41 0 0115.88 13.14l22.67 24.46a73.2 73.2 0 0016.2 12.59l31 16.43c5.06 2.66 13.25 7.16 18.23 10l4.18 2.35c5 2.84 10.58 8.18 12.45 11.89s7.93 5.7 13.5 4.39l12.68-3c5.57-1.3 14.71-3.29 20.3-4.42 0 0 9.18-1.81 16 2s13.56 3.88 21.28 8.71l7.77 4.83a76.15 76.15 0 01-20 .74l-3.57-.43c-5.68-.67-8.36.94-5.93 3.58s9 5.19 14.72 5.64c0 0 2.22.18 9 4.07s14.56 1 15.48 8.74a103.59 103.59 0 011 11.86c0 5.72-2.17 7.79-4.86 4.6s-6.79-5.4-9.19-4.86-3.51 4.86-2.41 9.66-1.56 6.54-5.83 3.89-7.51-2.66-7.25 0-1.49 4-3.86 2.91a6.31 6.31 0 00-7.26 1.92c-1.61 2.12-5.75 1.45-9.23-1.46a92.27 92.27 0 00-9.68-7.26c-1.87-1.07-3 1.33-2.4 5.32s-1 5.72-3.38 3.86-9-3-14.71-2.51a19.64 19.64 0 01-5.18-.89c-3.86-.92-4.26-1.43-4.26-1.43-3.5-4.5-8.13-10.82-10.26-14h-4.84c-4.83 0-7.75 2.89-7.75 7.72s1.93 12.6-1 17.48l-2.89 4.82c-4.25 2.15-10.15 3.88-13.07 3.88s-8.17 1.54-11.62 3.4-9 7.23-12.21 11.94c0 0-11.52 16.64-11.52 19.55s-7.72 14.54-10.64 13.57-32.28-3.86-32.28-3.86c-5.7-.54-13.4-2.3-17.12-3.88a46.66 46.66 0 00-15.51-2.92H794c-2.9 0-6.12.23-6.12.23a127.81 127.81 0 00-18.11 2.69c-4.24 1.07-7.11 6.56-6.34 12.24l.1.69a39.39 39.39 0 008.37 18l4.48 4.93c3.83 4.22 10.45 10.81 14.7 14.64l12.62 11.3a134.18 134.18 0 0015.48 11.81c4.27 2.65 11.55 7.59 16.18 10.93l.56.42a192.29 192.29 0 0116 13.21l2.36 2.22c4.15 3.91 8.42 9.94 9.48 13.39a122.24 122.24 0 013.17 16.61l.42 3.61a47.21 47.21 0 007.37 18.7l6.16 8.41c3.38 4.6 8.91 12.17 12.28 16.77l51.64 70.38c3.38 4.6 9 12.12 12.38 16.69l19.47 26c3.43 4.57 6.24 10 6.24 12.18s3 5.17 6.77 6.78a28.8 28.8 0 0110.66 8.74c2.12 3.19 5.39 8 7.26 10.65a21.83 21.83 0 013.39 10.64c0 3.22-3.27 5.83-7.28 5.83s-7.26 4.34-7.26 9.65-1.73 11.66-3.88 14.06-7.33 7.41-11.6 11.14l-4.83 1c-4.87 1-7.3 1.56-7.3 1.56a96.46 96.46 0 01-17.4 2.32c-4 0-4-2.83 0-6.28s8.35-9.36 9.67-13.09 1.76-10.94 1-16-4.93-11.17-9.2-13.54-7.75-6.08-7.75-8.21a22.22 22.22 0 00-1.45-7.25 76.15 76.15 0 00-6.77-10.69c-2.94-4-7.85-11.21-10.91-16l-75.05-118a113.78 113.78 0 00-12.92-16.1l-.81-.82a161.61 161.61 0 00-15.74-13.47l-4.5-3.24a119.26 119.26 0 01-15.32-13.88s-33.76-37.77-39.57-44.57-17.34-13.9-17.34-13.9c-4.86-3-13-7.57-18.14-10.1l-4.63-2.32a83.93 83.93 0 00-16.56-6.09c-4-.79-6.5 3.15-5.55 8.8l.45 2.73a149.67 149.67 0 005.12 20.06l1.92 5.57a131.38 131.38 0 014.86 20.12s1.42 10 1.42 13.9-1.35 13-1.35 13a67.45 67.45 0 01-6.39 19c-2.65 4.81-9 9.38-14 10.17a152.41 152.41 0 01-19.6 1.46H615.5c-5.71 0-15 .28-20.77.64l-26.73 1.45c-5.72.35-14.29 1.07-19.08 1.61s-13.37 1.3-19.07 1.73l-5.43.39c-5.7.43-14.07 2.73-18.6 5.14s-10 6.08-12.12 8.22-3.87 7.6-3.87 12.12a50.3 50.3 0 01-3.83 16.94l-1.93 2.91c-1.94 2.89-8.42 4.81-8.42 4.81-5.48 1.64-8.45.56-6.59-2.38a79.06 79.06 0 005.8-11.65c1.34-3.45-2-4.88-7.49-3.17a84.11 84.11 0 00-9.46 3.65c-3.86 2-27.06 16.72-27.06 16.72-4.83 3.07-12.05 5.57-16 5.57s-8.14 2-9.21 4.37-3 2-4.35-1-.89-6.87 1-8.74a111.44 111.44 0 0112-9.23l1.22-.84a79.59 79.59 0 0015-14.06l11.3-14.56a188 188 0 0010.75-15.48c2.41-4 3.93-10.73 3.4-15l2.9-3.89c2.91-3.88 2.91-12.57 5.81-13.54s2.92-4.89 10.66-4.89 108.75-1.71 108.75-1.71c5.71-.1 15.06-.18 20.78-.18h35.4c5.72 0 12.78-1.09 15.72-2.42s7.92-3.74 11.12-5.34v-3.86-4.17a68.49 68.49 0 00-1.87-20.37l-1.13-4.15c-1.55-5.52-4-14.55-5.4-20.09l-2.57-9.94a62.77 62.77 0 00-8.83-18.38l-7.85-10.47c-3.43-4.58-8.83-12.2-12-17l-5.92-8.87c-3.17-4.75-7.28-9.73-9.15-11.06s-8.06-2.79-13.76-3.2l-95.5-7.18a60.32 60.32 0 01-19.61-5.55l-9.61-4.95a111.24 111.24 0 01-17.16-11.5l-3.51-3A66.5 66.5 0 01440.36 876l-2.71-5a67.21 67.21 0 01-6.28-19.45z" fill="#ff4a68"/><path class="cls-2" d="M1003.14 1156c.61-2.7 1-4.57 1.49-6.38a7.67 7.67 0 011.24-1.94c.59.49 1.72 1.07 1.66 1.45a22.54 22.54 0 01-1.64 6.23c-.31.64-2.21.52-2.75.64z"/><path class="cls-2" d="M1175.27 1169.65c2.75 1 5.59 1.86 8.39 2.77l.37-.93c-14.3-6.38-27.23-14.48-36.56-28.69 6 2 11 3.85 16.22 5.29s10.42 2.46 15.64 3.66c-8.29-5.26-16.77-9.52-24.8-14.5-19-11.78-35.43-26.26-47.18-45.58-.91-1.48-1.51-3.72-4.26-3-.4.11-1.28-1.17-1.79-1.9-.82-1.17-1.53-2.43-2.81-4.52 1.59-3.69.41-8.27-1.13-13-1-3.17-1.24-6.64-1.65-10a21.26 21.26 0 01.47-4.3c3.57 8.67 7.08 16.25 11.59 23.28l1.33-.59-7.94-22.62 1.14-.61c13.43 33 31.22 62.57 63.65 80.32-19.9-15-36-33.25-47-55.78l.85-.84q2 2.73 4 5.48c.06-.14.12-.29.17-.43l-14.21-31.82c1.15-.17 1.5 0 1.7.29 1 1.48 2 3 3 4.49 9.15 13.82 19.33 26.73 33.19 36.2 5.67 3.88 11.66 7.23 18.65 8.3-3.25-2.93-6.73-5.5-10-8.33-22.25-19.32-39.95-42.14-51.86-69.15a91.32 91.32 0 01-7.1-23.41c-1.72-11.91-1.74-24.06-2.7-36.08-.61-7.74-1.56-15.43-8.29-20.85a5.48 5.48 0 01-2.06-3.7c.17-5.3-3.22-8.27-6.65-11.36-2.83-2.55-4.94-5.45-5.15-9.53-.19-3.72-2.72-5.79-5.74-7.7-2.65-1.68-4.73-4.25-7.23-6.21a9.56 9.56 0 00-4.17-1.94c-3.46-.54-7-.41-10.45-1.07-14.09-2.71-27.54-1.69-40 6.2-4 2.55-8.08 5-12.76 8-.42-7.19-1.78-13.69 1.65-20.19a92.26 92.26 0 007.26-16.8c3.61-12.26 4.18-25 4.61-37.7.16-4.7.24-9.5 1.26-14 2.09-9.25 4.87-18.33 7.21-27.52 1-4 1.24-8.13 2.46-12 1.54-4.91 3.89-9.56 5.58-14.43 3.82-11 7.81-22 11-33.16 2.76-9.57 4.55-19.41 6.79-29.13a9 9 0 01.63-1.63c2.08-4.57 4.94-9 1.87-13.72 5.12-6.33 6.45-13.54 7-20.72 1-.55 2.64-.87 3-1.73 1.42-3.29 2.41-6.77 3.63-10.16 1-2.76 1.76-5.69 3.23-8.19 1.63-2.75 4.12-5 5.93-7.64 5-7.32 13.78-11.78 16-21.17a2.47 2.47 0 01.59-.9c5.2-6.1 10.34-12.25 15.65-18.25 1-1.13 2.23-2.35 4.31-.92 5.58 3.84 11.35 7.41 17 11.09 3.3 2.12 6.36 5 10 6.15 4.43 1.45 6.65 4.48 8.66 8.08 6.18 11.05 10.31 11.49 22 9.72 1.76-.27 4-1.24 4.9-2.62 2.59-4.11 5.42-8.36 6.62-13 1.28-4.92 1-10.29 1-15.46 0-9.9-2.69-19-8.8-27a10.69 10.69 0 01-1.14-1.82c-3.25-6.41-6.39-12.88-9.74-19.23-5.9-11.16-11.92-22.26-17.88-33.39-1.52-2.84-11.06-10.2-14.17-10.77-4-.73-7.6 0-10.62 3.09-6.2 6.39-12.53 12.66-18.8 19-4.5 4.53-9 9-11 15.42a7.6 7.6 0 01-1.92 2.59c-1.86 2-3.73 4-5.71 5.88-.5.48-1.71 1-2.09.71-4.92-3.35-10.62-3.5-16.19-4.56-8.46-1.6-15.06.64-20.64 7.05a23.4 23.4 0 01-7.15 5.92 15.77 15.77 0 00-7.91 7.46c-4.34 8.82-10.9 15.59-18.59 21.68-10.88 8.62-22 17.16-31.63 27.1-15 15.48-28.74 32.18-43.18 48.2-5.88 6.52-12.35 12.22-20.8 15.63a133.22 133.22 0 00-19.72 10.34c-14 8.59-25.23 20.27-35.7 32.66-7 8.3-15 14.23-25.8 17-5.57 1.41-10.75 4.64-15.86 7.48s-10.41 5.09-16.66 4.89c-10.22-.33-20.06-2.64-29.93-4.82-2.23-.49-4.28-1.81-6.65-2.85 5.32-2.4 9.77-4.45 14.26-6.41a15.76 15.76 0 013.75-1.2c4.87-.78 9.79-1.2 13.9-4.52.74-.6 3.16-.48 3.62.17 2.27 3.15 4.55 3.33 8.37 2.43 12-2.82 24.1-4.8 36.17-7.15 3.73-.72 4.67-3 2.8-6.35a9.2 9.2 0 01-1.18-2.6c-2.21-11.21-6.74-21.51-12.18-31.47-6.1-11.14-12.23-22.26-18.24-33.45-5.11-9.49-11.2-18.15-19.29-25.42-2.84-2.56-4.93-2.33-7.72-.32-6.68 4.82-7.31 7.42-3.57 14.82a12.18 12.18 0 011.34 5.17c.14 11-.16 22-2.75 32.75-.64 2.63-1.64 5.17-2.48 7.74l-1.62.26c-1.28-2.48-2.59-4.95-3.85-7.45-2.7-5.38-4.93-8-10-5.2-5.84 3.23-11.79 3.67-18.2 2.86a34.6 34.6 0 00-9.68.41c-4 .63-7.8 2.43-11.73 2.55a60.48 60.48 0 00-15.24 2.33c-7.71 2.26-15.69 3.58-23.43 5.76a49.91 49.91 0 01-17.55 1.39c-6-.43-12.3-2.17-17.92 1.86a2.18 2.18 0 01-1.4.18c-11.87-1.72-23.13.08-33.49 6.24-4.49 2.67-9.92 4.91-12.85 8.88-7.75 10.5-8.49 22.33-2.51 34.1 1.59 3.12 4.24 5.74 6.61 8.41 6.44 7.25 13 14.4 19.52 21.58a5.63 5.63 0 001.45 1c2.88 1.56 6 2.78 8.62 4.72 4.8 3.57 9.19 7.68 13.93 11.34 4.93 3.81 10.69 6.73 15 11.13a128.92 128.92 0 0023.62 18.66c6.51 4.13 12.2 8.92 13.83 17.13.4 2 1.77 3.93 3 5.72 2.51 3.8 5.24 7.45 7.77 11.23 4.19 6.24 8.7 7.4 15.76 4.43 2-.83 4.42-.78 6.65-.81a40.53 40.53 0 017.21.57c1.16.2 3 .89 3.17 1.66 1.46 6.54 6.54 8 12 8.43s8.59 4.15 10.58 7.69c3.85 6.83 8.9 12.47 14.15 18 3.49 3.71 7.26 7.15 10.9 10.71.06-.47.11-.94.16-1.4h.06c.76 6.16 5.13 11.79 13.15 11.79a16.38 16.38 0 001.89-.12 4.18 4.18 0 01-.68 1.17c-1.37 1.67-.8 2.87.3 4.47 2.58 3.76 4.87 7.72 7.25 11.61 8.84 14.44 17.53 29 26.55 43.29 3.59 5.7 7.82 11 14 14.23 3.4 1.79 6.6 3.94 9.95 5.82 7.11 4 14.12 8.18 22.3 9.87 6.95 1.43 13.83 3.19 20.75 4.8.45.1 1 .36 1.36.18 4.71-2.74 6.5 2.19 9.53 3.81l-5.24-2.62a100 100 0 0011.41 8.76 35.94 35.94 0 0114 18.88c1.28 3.89.61 8.51.38 12.78-.49 9-1.35 18.05-1.86 27.09-.13 2.38.56 4.79.67 7.2.35 7.81.72 15.62.86 23.44.11 6-.2 12.09-.19 18.13 0 5.54.17 11.08.32 16.62.16 6.15 0 12.33.67 18.43.78 7.3 2.54 14.5 3.39 21.8 1.74 15 3.24 30 4.68 45.07 1.47 15.48 2.7 31 4.16 46.47.23 2.46.44 5.36 1.83 7.16a11 11 0 012.58 7.56c-.07 2.4.8 4.23 3.53 4.61 6.58.92 13.15 1.87 19.73 2.8a3.61 3.61 0 00.72-.08c5-.35 10-1 14.93-1 6.37.08 12.73 1.15 19.09 1.1 9-.08 18-.71 27-1.26 3.15-.19 4.4-2.46 4.92-5.79a57 57 0 01-6.75-1.2c-9.57-2.85-19-6.13-29.24-6-2 0-4-.84-6-1.25s-4-.74-6-1.13c-7.09-1.37-14.53-1.59-18.31-9.76-2-4.34-4-8.46-3.42-13.26.59-5.28 1.75-10.49 2.22-15.78q2.49-28 4.61-56a9.85 9.85 0 00-1.09-5.48c-1.68-2.76-2.47-4.6 2.14-4.52-1.1-5.35 2.8-11.59-5.11-15.26 4.64-1.16 4.67-3.53 3.93-6.91-1.8-8.21-3.73-16.48-4.35-24.82-.72-9.74-.11-19.57-.08-29.36v-10.34l1.4-.6c1.62 2 3.39 3.94 4.8 6.09 1.76 2.69 2.7 6.16 4.95 8.26 4.17 3.88 9.13 6.89 13.57 10.52a18.57 18.57 0 013.78 5c2 3.25 3.49 6.8 5.64 9.92 2.28 3.3 5.07 6.24 7.63 9.32-4.31 4-4.69 8.78-.69 11.07-7 4.56-3.7 10.66-2.59 16.54 3.16-8 6-16.17 14.58-20.66-1.57 13.18 2.67 24.64 7.42 36.77a14.14 14.14 0 00.81-2.26c.3-2.49-.06-5.29 1-7.42a23.63 23.63 0 015.77-7.15c.73-.64 3 .52 4.54.75a11 11 0 003.61.2c6.28-1.24 9.73 2.21 12.25 7.22 1.69 3.33 3.27 6.72 4.9 10.08 1.06-6.33-2.41-11.62-3.72-16.87 13.1-6 19.65 3.56 27.14 11.15-.55-6.36-4.44-11-7.11-16.13s-5.55-10.25-8.34-15.36l1.14-.86c2.9 3.08 6 6 8.65 9.29a115.08 115.08 0 017.49 10.56c2.22 3.46 4.15 7.11 6.2 10.67l.76-.42-6.71-16.06c8.36 6.3 13.33 15.12 18.77 23.62.17-7-2.67-13-6.31-18.48s-7.76-10.53-12-16.21a196.89 196.89 0 0040.12 17.29c-11.93-6.56-23-14.07-32.23-23.66l9.16-2.28c-6.45-1.82-12.79-2.82-18.41-5.41-7.12-3.27-11.25-9.49-10.69-14.37a26.24 26.24 0 012.19 2.51c6.62 6.52 15.15 9.58 23.5 13 7.9 3.23 16.08 5.23 23.22 10.83 12.75 10 28.29 14.73 43.65 19.39a16.86 16.86 0 003.91.26c-6.72-4.56-12.89-9.12-17.68-16.63l9.27 4c2.88 1.12 5.61 2.4 8.43 3.46zM987.94 754.46c0 .78 0 1.8-.39 2.29-4.87 5.53-4.73 12.71-6.4 19.27-.84 3.32-1.11 6.8-2 10.11q-3 11.32-6.29 22.56c-1.36 4.6-3.17 9.08-4.51 13.69-3 10.18-5.58 20.46-8.67 30.59a42.61 42.61 0 01-5.19 11.61c-2.6 3.81-7.22 4.24-11.63 4.66s-8.56 1.37-12.86 1.89a11.22 11.22 0 01-3.58-.66c-2.06-.47-4.08-1.11-6.16-1.44a140.6 140.6 0 00-14.54-2c-6.61-.34-10.65-4-10.81-10.67-.08-3.62-.14-7.25-.23-10.87-.08-3.19.7-6 3.51-7.89 3.25-2.2 4.13-5.22 3.89-9.07-.11-1.77 1.33-3.61 1.95-5.46.69-2.05 1.89-4.18 1.76-6.2-.38-5.65-.22-10.84 5-14.51a27.7 27.7 0 006-5.11c1.78-2.25 2.85-5.06 4.2-7.65 2.41-4.61 4.18-9.73 7.36-13.72 5-6.34 11.15-11.82 16.54-17.91 1.67-1.89 2.16-4.8 3.74-6.82 4.37-5.59 8.27-11.79 15-14.94 4.13-1.93 8.64-3.08 12.65-5.21 6.16-3.25 11.82-7.49 18.11-10.42 3-1.38 6.28-3.77 10.62-2.65-2.74 3.56-5.19 6.58-7.44 9.75-1.61 2.27-2.5 4.76.28 7.65-3.79.11-5.05 2.24-6.39 5-1.58 3.23-1.27 5.41 2.2 7.84l-5.66 1.32c0 1.51 0 3.25-.06 4.97z"/><path d="M941.21 739c2.34-61.76-16.13-106.34-51.23-138.35a268.19 268.19 0 01-30 19.09 125 125 0 0127.37 25.58H810c12-15.51 29.41-29.14 54.2-41.12 76.84-37.18 78.34-154.54 78.23-168.79h-28.17c0 7.43-.44 14.85-1.2 22.21h-128.7q-1.1-11.06-1.11-22.21h-28.17c-.1 13.09 1.21 113 60.89 158.1C775 626 755.72 671.15 757.17 739m27.52 0c0-5.16.1-10.17.34-15.09H913.8c1.83 4.84.52 9.94.53 15.09m-5.84-47.1a172.57 172.57 0 013.11 19.74H785.94A175.42 175.42 0 01789 691.9zm-12.85-34.32a112 112 0 019.64 22.06H792.19a112.16 112.16 0 019.7-22.06zm-41.22-87.9c-1.95 1-3.75 2-5.64 2.93-1.89-1-3.73-2-5.68-2.93-12-5.77-22.77-15.22-31.39-27.56h73.93c-8.55 12.34-19.26 21.8-31.22 27.56zm38.74-39.83h-89a151.87 151.87 0 01-10.72-25.65h110.4a153.24 153.24 0 01-10.67 25.65zm-107.35-60h125.77q-1.64 11.17-4.29 22H790q-2.6-10.76-4.19-21.96z"/><path d="M913.69 723.91a90.75 90.75 0 01.23 22.21h-128c-.73-7.37-1.17-14.78-1.18-22.21m-27.52 0c-2.1 32.76.63 113 60.31 158.1-41 32.53-60 78.21-60.17 145.49h28.82c0-5.16.17-10.17.41-15.09H914c.25 4.91 1 9.94 1 15.09h26.88c0-67.59-15.34-106.34-50.45-138.35a267.28 267.28 0 01-30 19.09 125.08 125.08 0 0127.38 25.58h-77.3c12-15.51 29.42-29.14 54.2-41.12 76.85-37.18 76.74-142.63 75.5-168.79M910 980.4a172.92 172.92 0 013.11 19.74H787.44a177.75 177.75 0 013.07-19.74zm-12.85-34.32a112 112 0 019.64 22.06h-113.1a111.6 111.6 0 019.71-22.06zm-41.22-87.9c-1.95 1-3.76 2-5.64 2.93-1.89-1-3.73-2-5.68-2.93-12-5.77-22.77-15.22-31.39-27.56h73.93c-8.55 12.38-19.27 21.8-31.22 27.56zm38.73-39.83h-89a151.84 151.84 0 01-10.71-25.65h110.4a154.11 154.11 0 01-10.68 25.65zm-107.34-60h125.77q-1.64 11.18-4.29 22H791.55q-2.64-10.76-4.23-21.96z"/><path d="M914.33 1012.79a90.78 90.78 0 01.24 22.21H786.52c-.73-7.37-1.17-14.79-1.18-22.21m-27.53 0c-2.09 32.75.64 113 60.32 158.09-41 32.54-59.3 78.21-59.52 145.49h28.17c0-5.15.17-10.16.41-15.08h127.47q.38 7.37.39 15.08h28.18c-.21-62.49-16-106.34-51.1-138.34a268.72 268.72 0 01-30 19.09 124.76 124.76 0 0127.37 25.57h-77.34c12.05-15.5 29.42-29.13 54.2-41.12 76.85-37.17 76.74-142.62 75.5-168.78m-31.21 256.49a172.57 172.57 0 013.11 19.74H788.09a177 177 0 013.07-19.74zM897.79 1235a111.61 111.61 0 019.65 22h-113.1a111.77 111.77 0 019.71-22zm-41.21-87.9c-2 .94-3.76 2-5.64 2.93-1.89-1-3.73-2-5.69-2.93-12-5.77-22.76-15.22-31.38-27.56h73.93c-8.56 12.3-19.27 21.75-31.22 27.52zm38.73-39.83h-89a151.84 151.84 0 01-10.71-25.65H906a154.11 154.11 0 01-10.68 25.65zm-107.34-60h125.77q-1.63 11.19-4.29 22H792.19q-2.62-10.81-4.19-22.01z"/><path d="M465.57 1296.9a9.81 9.81 0 00-3.5 2.2 4.85 4.85 0 01-2.67 1.49 2.24 2.24 0 01-2.38-1.48 7 7 0 011.49-7.13 6.07 6.07 0 014.15-1.78 25.67 25.67 0 005-.59c1.31-.33 1.84-1.4 1.19-2.38a12 12 0 01-1.47-4.56v-.37c-.15-1.53-.95-2.79-1.76-2.79a32.16 32.16 0 00-3.56.3 41.92 41.92 0 01-4.75.3c-1.47 0-3.87.13-5.34.3s-3.75.3-5.05.3a19.43 19.43 0 01-4.46-.6 5.4 5.4 0 01-3-2.38 22.22 22.22 0 00-2.37-3.56c-.82-1-1.09-2.31-.6-3s1.42-2 2.08-3a9.8 9.8 0 001.18-4.58v-1.53a17.2 17.2 0 011.05-5.4l.29-.73a10.12 10.12 0 013.42-4.08 3.29 3.29 0 001.2-4l-1.22-2.63c-.64-1.4-1.68-3.69-2.31-5.09l-5.44-12.11a20.21 20.21 0 01-1.39-5.34l-.68-7.49a15.9 15.9 0 01.64-5.44l.6-1.82c.48-1.46 1.68-2.66 2.66-2.66s2.43 1.07 3.25 2.38l1.82 3a46.9 46.9 0 003.27 4.53l2.35 2.82c1 1.18 1.61.9 1.37-.62l-1-6.33a22.33 22.33 0 010-5.54l.39-2.76a6.91 6.91 0 012.77-4.25 4 4 0 014.44.3 20.79 20.79 0 013.54 4.16l1.82 3a13.55 13.55 0 011.67 5.17l.78 11a54.67 54.67 0 01.07 5.58l-.33 7.48c-.08 1.53-.14 4-.14 5.59v3.3a2 2 0 002.69 2l.58-.18a13.25 13.25 0 015.43-.25l.44.08a25.05 25.05 0 015.25 1.8l2.1 1.06c1.38.69 3.57 1.93 4.87 2.75l1.81 1.15a5.49 5.49 0 004.87.25l6.85-3.42a46.28 46.28 0 015.16-2.13l9-3a28.88 28.88 0 015.44-1.12l8.09-.7a20.82 20.82 0 015.51.4l7 1.67a22.21 22.21 0 015.13 2.09l10 6a34.53 34.53 0 014.48 3.31l1.78 1.6a7.88 7.88 0 004.46 1.87 8.78 8.78 0 004.57-1.73l3.91-3.07c1.21-1 3.09-2.62 4.18-3.7l11.49-11.48a47.29 47.29 0 003.66-4.22s3.65-4.89 12-5.47 14.45-1.42 14.45-1.42a25.65 25.65 0 015.54 0l8.11 1.06a20.86 20.86 0 015.3 1.57l9.78 4.69c1.4.67 3.6 1.89 4.9 2.71l6.54 4.13c1.3.83 3.51 2 4.9 2.71l8.59 4.11c1.39.67 2.26 1.48 1.93 1.8h5.93c5.94 0 26.31-1.56 26.31-1.56a39.84 39.84 0 015.57 0s10.87.94 15 4.49a54.81 54.81 0 0010.53 6.55c1.4.65 1.32 1.49-.18 1.86l-6.39 1.66c-1.49.37-3.92 1-5.39 1.51 0 0-6.84 2.13-8.6 2.13s-10.09 1.78-14.84-.59-23.75-10.69-25.54-10.69-24.22-11.76-24.22-11.76l-5-2.58-11.06-5.73a16.78 16.78 0 00-5.27-1.52l-8.68-.73a25 25 0 00-5.53.29l-7 1.33a35.64 35.64 0 00-5.35 1.57l-6.67 2.67a21.75 21.75 0 00-4.77 2.81l-5.76 4.75a30.47 30.47 0 00-3.88 4l-4.87 6.27a25.06 25.06 0 01-4 3.89l-2.67 2a9.15 9.15 0 01-4.6 1.68 2.37 2.37 0 00-2.37 2.37c0 1.3.1 3.62.22 5.16 0 0 .36 4.33.36 6.11s-4.13 4.16 1.19 4.16a22.49 22.49 0 0010.05-2.75c1.33-.78 3.46-2.11 4.74-3l4.24-2.82c1.28-.86 3.35-2.29 4.61-3.18l3.77-2.69a17.68 17.68 0 015-2.3 7.76 7.76 0 013.82.09c1.77.59 6.53 2.38 10.68 4.15s9.49 3.57 13.05 4.75 5.94 4.75 8.32 4.75 4.75 1.19 4.75-1.19a11 11 0 01.1-2.5 6.27 6.27 0 014.47-2.24s2 0 4.93 3l3 3a8.85 8.85 0 01-1.72 4.58l-.72.93a7.29 7.29 0 01-4.09 2.5c-1.31.17-3.62.49-5.14.73l-2.2.33a9.57 9.57 0 01-5.21-.93l-7-3.82c-1.35-.75-3.48-2.07-4.75-2.94l-3.11-2.16a12.62 12.62 0 00-4.68-1.89 11.76 11.76 0 00-4.75.59c-1.3.49-1.7 1.16-.89 1.48a40.27 40.27 0 013.9 2l2.29 1.34a20 20 0 014.24 3.54l7 8.21a16.67 16.67 0 004.33 3.37 50.28 50.28 0 007 2.91c2.38.6 10.87 1.48 10.87 1.48a40.85 40.85 0 015.47 1l1.14.31a18.58 18.58 0 014.48 1.93 5.09 5.09 0 011.78 3.85 6.9 6.9 0 01-2.1 4.52l-.53.47a7.4 7.4 0 01-4.9 1.56l-6.29-.63a15.42 15.42 0 01-5.21-1.7l-5.26-3.1a19.17 19.17 0 01-4.21-3.57l-5.32-6.38a24.16 24.16 0 00-4.09-3.74l-4.9-3.36a15.66 15.66 0 00-5-2.09l-1-.18a38.16 38.16 0 00-5.55-.5h-6.86a14.1 14.1 0 00-5.31 1.26l-3.32 1.65c-1.37.69-3.58 1.9-4.9 2.69l-4.09 2.46c-1.32.79-3.43 2.17-4.68 3.06l-3.75 2.69a11.75 11.75 0 01-5.08 1.83l-2.73.2c-1.54.11-4 .2-5.59.2h-2.69a13.39 13.39 0 01-5.28-1.31l-5.15-2.72a33.41 33.41 0 01-4.64-3.09s-4.36-3.57-6.14-4.17-7.59-3.49-7.59-3.49a5 5 0 01-2.5-4s0-2-2.38.42-3.14 2.37-3.14 2.37c-1.54 0-4 .1-5.59.22l-2.14.16a38.39 38.39 0 01-5.57-.06h-.36a29.78 29.78 0 01-5.44-1.16l-1.82-.6a6.53 6.53 0 01-3.54-3c-.5-1.15-1.7-1.15-2.67 0a9.68 9.68 0 01-4.52 2.66l-2.84.61c-1.51.32-3.67.85-4.81 1.17s-3.26 1-4.71 1.55l-1.26.47c-1.45.52-3.81 1.41-5.24 2z" fill="#fbb03b"/><path class="cls-4" d="M753.59 1125.7c-1.43-1.49-3.45-3.74-4.51-5s-.36-1.69 1.54-.92l4.61 1.85c1.91.77 2.35.35 1-.93a26.37 26.37 0 00-5.93-3.83l-3.56-1.57a37.24 37.24 0 01-6.36-3.82s-9.38-7.36-9.38-8.48 1.92-5.79 1.92-7.71 4.62-9.23 5.39-10.38 1.83-5.63 1.83-5.63a55.54 55.54 0 001.11-7.37 10.21 10.21 0 00-1.77-5.49c-1.94-3.08-9.24-.39-10.41-.39s-23.47 1.16-28.1-1.52-1.93-4.24-2.31-7 1.56-7.7 2.31-10a37.15 37.15 0 012.41-5.21c1-1.79 2.54-4.79 3.39-6.65 0 0 4.23-9.3 5.38-10.83s2.68-10.41 2.68-13.1 1.09-11.69 1.09-11.69a64.82 64.82 0 011.43-7.32l1.9-7a15.57 15.57 0 013.69-6.17l1.49-1.42a45.11 45.11 0 004.88-5.62l4.16-5.84a47.46 47.46 0 003.71-6.45s6.91-15.06 7.67-17 4.62-18.1 4.62-20v-1.92c-.21-.85-2-1-3.9-.29 0 0-18 6.46-21.11 8s-20.16 10.24-20.16 10.24c-1.83.92-4.75 2.59-6.49 3.68l-19.85 12.57a56.59 56.59 0 00-6 4.47s-10.28 9.07-11.81 11-.4 26.18-.4 27.34-2.31 9.24-3.46 10.79-4.24 6.93-5.39 7.68a7 7 0 00-1.84 1.88c-1.11 1.73-2.53 4.1-3.16 5.26s-2.85 2.11-4.9 2.11h-14.35a11.43 11.43 0 00-2.88-5.6 22.66 22.66 0 00-5.37-3.83 18.87 18.87 0 00-6.64-1.34h-5.5a3.47 3.47 0 00-2.21.59 59.2 59.2 0 01-5.94 4.52s-2.25 1.44-3.4 1.44a44.19 44.19 0 00-6.07 1.56 35.46 35.46 0 01-7.29 1.34l-33.73 1.89c-2 .12-2 .25 0 .29l43.73 1a29.47 29.47 0 017.28 1.26l2.14.7a51.65 51.65 0 016.83 3l1.91 1a15.07 15.07 0 014.63 3.91l3.08 4.81c.95 1.48 2.63 4.11 3.73 5.85l1.39 2.18a27.62 27.62 0 012.77 5.83 14.76 14.76 0 01-.13 6.32l-.5 2a20.87 20.87 0 01-3.23 6.55l-1.14 1.44a40.06 40.06 0 01-5.22 5.28l-8.43 6.86-5.81 4.7s-11.34 9.21-12.48 9.59-1.44.89-1.44.89a41.33 41.33 0 00-2.57 7l-.11.44c-.5 2-1.44 5.22-2.09 7.17 0 0-1.88 5.71-2.28 6.86s-4.83 18.33-4.83 18.33c-.52 2-1.27 5.27-1.68 7.29l-5.08 25.36a39.11 39.11 0 00-.6 7.4l1.27 34.13c.08 2 1.36 3.9 2.85 4.1h3.07c3.08 0 3.08-1.93 4.23-2.68s16.94-16.55 18.1-18.1 11.56-16.55 12.71-16.93 10.72-20.88 10.72-20.88c.87-1.86 2.29-4.91 3.15-6.77l3.43-7.46a32.7 32.7 0 014-6.25s9.89-11.76 10.68-13.3 7.17-5.4 7.17-5.4a56.73 56.73 0 006.06-4.36l7.39-6.29a26.53 26.53 0 004.76-5.64l5.8-9.75a21 21 0 002.3-5.32c.22-1.17 2-1.55 3.92-.86l2.59.93a6 6 0 013.69 5v.25a25 25 0 001.63 7.18l.18.41c.8 1.9 2.19 5 3.08 6.81l2.52 5.2a154.5 154.5 0 003.44 6.64l2.16 3.87c1 1.8 3 3.1 4.5 2.89a19.77 19.77 0 005.91-2.29l2-1.22a21.91 21.91 0 005.44-4.9l3.25-4.38a4.26 4.26 0 015.44-1.11l.11.06a25 25 0 014.76 3.63 27.22 27.22 0 004.69 3.75l2.16 1.36c1.72 1.1 4.36 2.95 5.85 4.12s3.91 3 5.39 4 3 1.14 3.47.19 2.33-1.12 4.23-.38 2.31.13.88-1.36zm-12.49-7.51c-1-.32-2.8-1-4-1.55s-3-1.27-4-1.64a27.33 27.33 0 01-4.34-2.1 16.58 16.58 0 01-3.36-2.6 3.55 3.55 0 01-.77-2.4c.11-.69 1.32-1.09 2.7-.87a14 14 0 015.4 2.74l5.76 4.71a33.42 33.42 0 013.66 3.34c.43.53-.05.69-1.05.37zm5.18 6.16a9.17 9.17 0 01-2.79-1.74c-.85-.74-1.06-1.35-.48-1.35a6.7 6.7 0 012.31.58 3.91 3.91 0 011.73 1.73c.27.64-.05.99-.77.78z"/><path class="cls-4" d="M753.59 1125.7c-1.43-1.49-3.45-3.74-4.51-5s-.36-1.69 1.54-.92l4.61 1.85c1.91.77 2.35.35 1-.93a26.37 26.37 0 00-5.93-3.83l-3.56-1.57a37.24 37.24 0 01-6.36-3.82s-9.38-7.36-9.38-8.48 1.92-5.79 1.92-7.71 4.62-9.23 5.39-10.38 1.83-5.63 1.83-5.63a55.54 55.54 0 001.11-7.37 10.21 10.21 0 00-1.77-5.49c-1.94-3.08-9.24-.39-10.41-.39s-23.47 1.16-28.1-1.52-1.93-4.24-2.31-7 1.56-7.7 2.31-10a37.15 37.15 0 012.41-5.21c1-1.79 2.54-4.79 3.39-6.65 0 0 4.23-9.3 5.38-10.83s2.68-10.41 2.68-13.1 1.09-11.69 1.09-11.69a64.82 64.82 0 011.43-7.32l1.9-7a15.57 15.57 0 013.69-6.17l1.49-1.42a45.11 45.11 0 004.88-5.62l4.16-5.84a47.46 47.46 0 003.71-6.45s6.91-15.06 7.67-17 4.62-18.1 4.62-20v-1.92c-.21-.85-2-1-3.9-.29 0 0-18 6.46-21.11 8s-20.16 10.24-20.16 10.24c-1.83.92-4.75 2.59-6.49 3.68l-19.85 12.57a56.59 56.59 0 00-6 4.47s-10.28 9.07-11.81 11-.4 26.18-.4 27.34-2.31 9.24-3.46 10.79-4.24 6.93-5.39 7.68a7 7 0 00-1.84 1.88c-1.11 1.73-2.53 4.1-3.16 5.26s-2.85 2.11-4.9 2.11h-14.35a11.43 11.43 0 00-2.88-5.6 22.66 22.66 0 00-5.37-3.83 18.87 18.87 0 00-6.64-1.34h-5.5a3.47 3.47 0 00-2.21.59 59.2 59.2 0 01-5.94 4.52s-2.25 1.44-3.4 1.44a44.19 44.19 0 00-6.07 1.56 35.46 35.46 0 01-7.29 1.34l-33.73 1.89c-2 .12-2 .25 0 .29l43.73 1a29.47 29.47 0 017.28 1.26l2.14.7a51.65 51.65 0 016.83 3l1.91 1a15.07 15.07 0 014.63 3.91l3.08 4.81c.95 1.48 2.63 4.11 3.73 5.85l1.39 2.18a27.62 27.62 0 012.77 5.83 14.76 14.76 0 01-.13 6.32l-.5 2a20.87 20.87 0 01-3.23 6.55l-1.14 1.44a40.06 40.06 0 01-5.22 5.28l-8.43 6.86-5.81 4.7s-11.34 9.21-12.48 9.59-1.44.89-1.44.89a41.33 41.33 0 00-2.57 7l-.11.44c-.5 2-1.44 5.22-2.09 7.17 0 0-1.88 5.71-2.28 6.86s-4.83 18.33-4.83 18.33c-.52 2-1.27 5.27-1.68 7.29l-5.08 25.36a39.11 39.11 0 00-.6 7.4l1.27 34.13c.08 2 1.36 3.9 2.85 4.1h3.07c3.08 0 3.08-1.93 4.23-2.68s16.94-16.55 18.1-18.1 11.56-16.55 12.71-16.93 10.72-20.88 10.72-20.88c.87-1.86 2.29-4.91 3.15-6.77l3.43-7.46a32.7 32.7 0 014-6.25s9.89-11.76 10.68-13.3 7.17-5.4 7.17-5.4a56.73 56.73 0 006.06-4.36l7.39-6.29a26.53 26.53 0 004.76-5.64l5.8-9.75a21 21 0 002.3-5.32c.22-1.17 2-1.55 3.92-.86l2.59.93a6 6 0 013.69 5v.25a25 25 0 001.63 7.18l.18.41c.8 1.9 2.19 5 3.08 6.81l2.52 5.2a154.5 154.5 0 003.44 6.64l2.16 3.87c1 1.8 3 3.1 4.5 2.89a19.77 19.77 0 005.91-2.29l2-1.22a21.91 21.91 0 005.44-4.9l3.25-4.38a4.26 4.26 0 015.44-1.11l.11.06a25 25 0 014.76 3.63 27.22 27.22 0 004.69 3.75l2.16 1.36c1.72 1.1 4.36 2.95 5.85 4.12s3.91 3 5.39 4 3 1.14 3.47.19 2.33-1.12 4.23-.38 2.31.13.88-1.36zm-12.49-7.51c-1-.32-2.8-1-4-1.55s-3-1.27-4-1.64a27.33 27.33 0 01-4.34-2.1 16.58 16.58 0 01-3.36-2.6 3.55 3.55 0 01-.77-2.4c.11-.69 1.32-1.09 2.7-.87a14 14 0 015.4 2.74l5.76 4.71a33.42 33.42 0 013.66 3.34c.43.53-.05.69-1.05.37zm5.18 6.16a9.17 9.17 0 01-2.79-1.74c-.85-.74-1.06-1.35-.48-1.35a6.7 6.7 0 012.31.58 3.91 3.91 0 011.73 1.73c.27.64-.05.99-.77.78z"/><path d="M637.47 408.76c-3.12 1.38-3.87.39-1.65-2.22l6.17-7.3a115.48 115.48 0 007.37-10l6.17-9.54c1.85-2.87 4.73-7.65 6.41-10.62l4.85-8.55c1.68-3 4.28-7.92 5.77-11l6.83-14c1.5-3.09 3.8-8.17 5.11-11.32l6.83-16.21c1.31-3.14 3.11-8 4-10.86a37.2 37.2 0 013.86-8.4c1.24-1.77 3.57-4.67 5.16-6.44a37.89 37.89 0 015.8-5.16 18.51 18.51 0 017.42-2.26c2.49-.17 7.31-.32 10.73-.32h8.19a79.53 79.53 0 0012.32-1.16l1.36-.25c3.35-.64 7.13-1.89 8.36-2.79s1.1-4.09-.32-7.1a113.29 113.29 0 01-4.5-11.39l-3.27-10.09a93.73 93.73 0 01-2.84-12.05l-1.34-9a57 57 0 01-.26-12.31l1.86-17.31a62.71 62.71 0 012.61-11.67 31.7 31.7 0 016.34-9.89l2.17-2.17c2.42-2.42 6.3-6.42 8.65-8.91l1.8-1.93a64.93 64.93 0 006.83-8.71 22.58 22.58 0 002.9-7.73 16.29 16.29 0 00-1.62-7.42 35.94 35.94 0 00-6.5-8.06l-46.32-42.57c-2.51-2.31-3.12-4-1.35-3.88s5.68 1.66 8.69 3.3l20 10.84c3 1.63 7.9 4.35 10.86 6l2.76 1.58a26.24 26.24 0 0010.91 3.11c3 0 7.22.15 9.35.32a25.71 25.71 0 017.72 2.27 35.18 35.18 0 017.42 5.48 28.17 28.17 0 015.16 7.41 26.64 26.64 0 011.62 8.69 31.65 31.65 0 01-1.92 9.68 28.68 28.68 0 01-6.6 9l-1.65 1.46c-2.56 2.26-6.52 6.19-8.79 8.73l-2.69 3a77.47 77.47 0 00-7.3 10l-2.06 3.48a41.4 41.4 0 00-4.27 11.45l-.35 2a57.47 57.47 0 00-.63 12.29l.29 3.77a38 38 0 003.27 11.74l.26.49a45.62 45.62 0 007.16 10l.27.26a38.63 38.63 0 0010.08 6.85l3.43 1.49a33.18 33.18 0 0010.86 2.46h11.86a57.6 57.6 0 0012.21-1.57l.23-.06a72.19 72.19 0 0011.56-4.35l5.65-2.84a46.24 46.24 0 009.95-7.16l5.42-5.42a34.39 34.39 0 006.6-10.2l.72-1.92a47.6 47.6 0 002.47-12l.75-16.62c.15-3.41.41-9 .59-12.4l.66-12.73c.18-3.41.61-8.38 1-11a22.57 22.57 0 012.58-7.73 9.36 9.36 0 015.15-3.54c1.79-.35 5.92.15 9.19 1.11l10 2.93a63.56 63.56 0 0111.32 4.87l33.77 19.56a86.07 86.07 0 0110.1 6.92l26.6 22.33a55.9 55.9 0 018.31 9.08l10.93 15.62c2 2.79 1.45 3.25-1.13 1l-5.45-4.76c-2.58-2.24-3.43-1.57-1.91 1.48l2.19 4.4a120.47 120.47 0 014.82 11.42l5.57 16c1.13 3.22.63 3.46-1.13.52l-4-6.71a59.94 59.94 0 00-7.57-9.72l-2.17-2.18c-2.41-2.42-3.17-1.88-1.68 1.19l8.1 16.58c1.51 3.07 3.71 8.19 4.88 11.38l2.15 5.78a24.68 24.68 0 011.18 11c-.54 2.84-2.11 2.6-3.48-.52l-2.08-4.76c-1.37-3.11-3.82-8.14-5.43-11.14l-3.77-7.16c-1.62-3-2.17-2.78-1.24.51l7.57 26.74c.94 3.29.11 3.67-1.81.86l-7.15-10.41c-1.92-2.81-5.13-7.39-7.11-10.17l-18.61-26c-2-2.77-3.24-2.27-2.81 1.1l1 7.71c.43 3.39.93 8.77 1.11 11.94a33.75 33.75 0 002.9 11c1.41 2.84 1 4.14-1 2.9s-2.69 0-1.62 2.9a31.82 31.82 0 011.94 6.78c0 .89-1.74 1.16-3.87.64s-3.43 1.06-2.9 3.55 0 5.11-1.28 5.81a11.74 11.74 0 01-4.84 1.28c-1.42 0-2 1.17-1.28 2.59s3.95 3.45 7.21 4.48l4.27 1.35c3.25 1 8.63 2.52 12 3.26l30.44 6.94c3.34.74 8.76 2.1 12 3l2.22.61c3.29.9 3.62 3.12.72 4.92l-13.32 8.26a104.06 104.06 0 01-11 5.75l-3.45 1.51a39.9 39.9 0 01-11.17 2.8 62.78 62.78 0 01-11.6-.7l-14.83-2.48a40.64 40.64 0 00-12.21.2l-.74.14c-3.35.67-8.12 1.8-10.61 2.5s-1.93 2.35 1.23 3.65l10.47 4.32a75.29 75.29 0 0010.26 3.35 78.38 78.38 0 008.36 1.26 12.29 12.29 0 015.47 1.61c.9.73.9 3.48 0 6.13a46.8 46.8 0 01-5.19 9.9l-3.77 5.35c-2 2.8-4.95 7.52-6.6 10.51l-20.42 36.84a29.81 29.81 0 00-3.33 9.95 43.78 43.78 0 001.05 10.6l.46 2.06c.76 3.34-.21 4.75-2.17 3.16s-4.56-2.63-5.8-2.26-1.24 2.82 0 5.48 3.42 6.85 4.82 9.33a31.66 31.66 0 013.12 10.7l.21 2.49a36 36 0 01-.1 8.76c-.37 1.42-2.39.55-4.51-1.92s-4.36-1.77-5 1.57l-1.42 7.43-2.6-3.87c-.7-3.18-1.6-8.57-2-12l-1.16-10.24a39.36 39.36 0 00-2-9.07 37.55 37.55 0 01-1.86-9.1 8 8 0 01.56-2.82c.66-1.93 4.38-7.7 4.38-7.7 1.87-2.85 4.84-7.59 6.64-10.49l13.45-21.68c1.81-2.9 4.63-7.72 6.29-10.7l6.22-11.1a76.15 76.15 0 004.3-9 22.24 22.24 0 001.29-6.12 8.9 8.9 0 00-2.57-5.17l-1.95-.63c-1.93-.66-19.42-7.94-19.42-7.94a813.25 813.25 0 00-11.51-4.64 39.29 39.29 0 00-12-2.26h-22.4c-3.42 0-9-.23-12.39-.52l-3.13-.26a6.41 6.41 0 00-6.86 5.65l-1.25 11.53a33.17 33.17 0 001.35 12l3.71 10.84c1.11 3.24 2.9 8.54 4 11.77l5.1 15.28a98.94 98.94 0 004.23 10.43 22 22 0 011.94 9.34 21.76 21.76 0 01-3.58 9.35 113 113 0 01-7.45 9.05l-52.72 56.73c-2.32 2.5-4.52 6-4.87 7.77a27 27 0 000 7.74 31.61 31.61 0 01.3 6.76c-.18 1.24-1.63 1.68-3.23 1a8.83 8.83 0 01-3.85-3.22c-.54-1.07-1.85.71-2.93 3.95l-.6 1.77c-1.08 3.24-3.13 8.35-4.55 11.38a92.47 92.47 0 01-5.14 9.32c-1.42 2.12-3.88 3.58-5.48 3.22s-2.32-2.67-1.61-5.14a57.73 57.73 0 001.59-7.1c.18-1.42-1-1.13-2.56.64a20.26 20.26 0 00-3.88 6.78c-.54 2-1.56 2.11-2.26.34a24.45 24.45 0 01-1.28-7.42 40.74 40.74 0 01.64-7.09c.35-1.6 2.84-4.64 5.51-6.76l2.52-2a38.64 38.64 0 007.45-8c1.43-2.29 3.6-6.08 4.84-8.37a35.61 35.61 0 017-8.23l4.08-3.54c2.6-2.21 6.84-5.85 9.44-8.07l8.61-7.39a89.33 89.33 0 008.68-8.83l20.43-24.61a50.15 50.15 0 006.23-9.95c1.24-2.84 2.84-6.76 3.57-8.7a23.64 23.64 0 00.64-9 70.65 70.65 0 00-2.61-11.45l-1.23-3.7c-1.07-3.24-2.77-8.56-3.76-11.83l-4.78-15.85c-1-3.26-2.24-7.1-2.78-8.52s-2.88-4.59-5.22-7.08l-1.81-1.92a34.06 34.06 0 01-6.19-10.32c-1.07-3.2-2.23-3.91-2.58-1.61s-1.37 4.34-2.26 4.51-2.06-.71-2.59-2-1.1-.65-1.28 1.3-1.33 3.11-2.57 2.58a12.12 12.12 0 01-4.2-3.86c-1.07-1.61-2.36-1-2.9 1.28a26 26 0 01-2.89 7.1 3.14 3.14 0 01-4.83.32c-1.61-1.42-2.91-1-2.91 1s-1 3.56-2.25 3.56-2.55-1.45-2.92-3.24-1.37-1.49-2.26.64a17.28 17.28 0 01-3.54 5.48c-1.07.9-2.95-.27-4.18-2.58s-2.83-2.74-3.55-1a10.24 10.24 0 01-3.54 4.52c-1.25.7-2.84-.75-3.56-3.24s-2.32-2.91-3.55-1-3.71 3.55-5.48 3.55a4.16 4.16 0 01-3.87-3.22c-.33-1.75-1.2-.47-1.9 2.87v.08c-.7 3.34-2.57 6.08-4.18 6.08a3.75 3.75 0 01-3.55-2.25c-.36-1.25-1.36.06-2.26 2.9s-2.33 5.88-3.21 6.76a32.25 32.25 0 01-4.84 3.55l-3.22 1.28c-3.22 1.31-3.54-4.09-3.54-4.09-.2-3.41-1-3.48-1.87-.17l-.21.84c-.82 3.31-2.81 7.48-4.4 9.25s-3.34 1.19-3.87-1.3-1.59-1.8-2.36 1.53l-.45 2.08a37.54 37.54 0 01-5 11.11l-5.69 8c-2 2.77-3.61 2.25-3.61-1.17v-4.35a60 60 0 011.51-12.24l1.5-6a60.19 60.19 0 001.51-12.25v-3.68c0-3.42-.93-3.57-2.06-.36l-3.62 10.21a111.6 111.6 0 01-4.9 11.37l-5.28 10.25a47.52 47.52 0 01-7.24 9.92l-4.07 4.13c-2.43 2.43-4.53 2.21-4.72-.44a31.87 31.87 0 011.81-10.67l3.49-9.61c1.16-3.2.73-3.4-1-.44l-6.73 11.79a52.76 52.76 0 01-7 9.26c-2.12 2.14-4.15 2.28-4.51.33s.9-5.88 2.79-8.72l.86-1.28c1.89-2.84 1.26-3.42-1.41-1.29l-9.58 7.73c-2.67 2.14-6.44 4.32-8.38 4.84s-2.82-.63-1.94-2.57a46.87 46.87 0 015.6-8.3l2.31-2.75a54.11 54.11 0 006.55-10.41l.72-1.59c1.4-3.11.68-3.57-1.59-1l-7.85 8.81a83.74 83.74 0 01-9 8.44l-5.07 4a61 61 0 01-10.55 6.35z" fill="#00a99d"/><path d="M566.18 613.06a49.28 49.28 0 01-2.19-4.55 13.21 13.21 0 01-.7-4c0-1.22-.18-3.61-.39-5.32 0 0 0-.09.39-.71l.4-.6a37.57 37.57 0 012.1-3.31 8 8 0 012-2 2.8 2.8 0 001-2.1c.06-.88.1-2.51.1-3.63l-1.42-.79a33.73 33.73 0 00-4-2 3.12 3.12 0 00-3.22.19c-1.2 1-1.8 1-3.4 1.41a33.85 33.85 0 01-7 .6c-2.6 0-6 .39-7.61 0s-4.42-1.4-6.62-1.4-15.86-.8-18.08-.8h-2.19c-.88-.66-.32-1.8 1.23-2.53l3.76-1.76a27.39 27.39 0 015.94-1.82s6.93-1.12 7.92-1.53 10-2.8 10.83-3.2 5.23-2.62 6.64-3.21 1.8-1.41 2.6-1.41h1.67c1.72 0 2.46-.55 1.64-1.2s-2.65-2-4.08-3l-7.69-5.28c-1.42-1-3.83-2.44-5.34-3.26l-7.53-4.05c-1.51-.82-4-2.09-5.59-2.84l-3.55-1.69a39.08 39.08 0 01-5.34-3.23s-4.72-3.55-5.31-4.15-5.53-6.09-5.53-6.09a29.12 29.12 0 01-3.53-5.12l-2.95-5.68a16.24 16.24 0 00-4-4.64 15.29 15.29 0 01-2.3-2.15c-1-1.21-2.6-1.4-3.59-2.81s-3.82-5.42-4-6-1.4-2.19-.79-3.21.51-1.26.51-1.26c-.62-1.61-1.75-4.2-2.51-5.74 0 0-5-10-5-10.83s-2-7.83-2-7.83a49.56 49.56 0 01-1.21-6.13l-.47-4c-.21-1.7-.46-4.46-.56-6.12l.19-.79c.2-.79-.39-4 .41-4h.8a1.35 1.35 0 001.8-.9 11.45 11.45 0 01.8-2.51h.8c.8 0 2.62.42 2.81 1a48.25 48.25 0 003.37 4.25 24.74 24.74 0 013.3 5.26l1.92 4.46c.68 1.59 1.88 4.14 2.64 5.69l.61 1.21c.77 1.55 1.35 1.4 1.28-.32l-.55-15c-.07-1.71-.12-3.84-.12-4.73a5.24 5.24 0 01.48-2.31 4 4 0 011.81-1.09 3.6 3.6 0 012.31.1 10.06 10.06 0 012.52 3 21 21 0 012.12 5.58l.78 3.89c.34 1.69 1 4.44 1.41 6.1l.2.77c.45 1.67 1.21 1.68 1.68 0l.86-3c.48-1.66 1.26-4.37 1.75-6l.24-.8a43.24 43.24 0 001.09-4.5 3.69 3.69 0 011.2-2.2 2.6 2.6 0 012.4 0 11.88 11.88 0 013.16 3.31 2.3 2.3 0 01.25 1.19c0 .83 1.22 7.43 1.22 8s.09 3.29.09 3.29c.06 1.72.4 1.75.77.06l.28-1.27a11.19 11.19 0 011.87-4.37 4.71 4.71 0 012.71-1.41 7.5 7.5 0 013.41 1 7.7 7.7 0 012.71 4.11v1.61c.21.88.8.93 1.29.1a6.25 6.25 0 011.51-1.82 2.81 2.81 0 011.8.2c.66.29 2.07 1 3.12 1.52a7.32 7.32 0 012.7 2.51 7.19 7.19 0 01.8 2.72c0 .66.41 1.16.9 1.09s1.55-.11 2.32-.11a8.69 8.69 0 013.83 2 5.51 5.51 0 001.39.84l.59.19a7.61 7.61 0 012 3.53c0 .71 1.14 2.14 2.51 3.18l.6.45a14.58 14.58 0 013.1 3 8.81 8.81 0 01.42 3.72 3.15 3.15 0 001.71 3.21c1 .32 2.43.78 3.1 1a3.59 3.59 0 011.8 1.82l.21.8.18.79a3.07 3.07 0 002.52 1.7c1 .06 3.31 0 5-.06a4.83 4.83 0 011.28.16c.81.21 3.22.21 3.62 1s1.61.39 1.61 1.4v1c.21 1.65 1.29 3 2.39 3a50.2 50.2 0 005.12-.39s.11 0 .71.39 3.82 1.41 4 2 .37 1.18.37 1.18c.46 1.66 1.17 2.8 1.55 2.52a3.44 3.44 0 011.92-.41 18.66 18.66 0 012.71.51 4.34 4.34 0 012.29 1.81 10 10 0 011 2.4 1.62 1.62 0 001.62 1 13.77 13.77 0 013.8.91c1.33.49 2.46 1.21 2.51 1.6a18.1 18.1 0 01.11 1.91 2.07 2.07 0 001.4 1.71 16.2 16.2 0 003.3.7l3.71.39.2.61.22.61c.32 1.09.76 2.44 1 3a2.89 2.89 0 001.71 1.41c.73.21 2 .67 2.91 1a8.29 8.29 0 012.51 1.52 3.7 3.7 0 01.91 2.3v1.19c0 1.23.4 2.45.91 2.73s2.08 1 3.51 1.71l.19.79c.19.8 1.6 3.22 1.6 3.82v.59c.44.77 1.64.26 2.66-1.12L657.12 524c1-1.38 2.67-3.69 3.65-5.1l9.67-13.9c1-1.42 2.7-3.65 3.83-4.95l14.37-16.7c1.13-1.31 2.91-3.5 4-4.86l14.82-19.32a49 49 0 003.43-5.23l4.4-7.95c.83-1.52 2.26-4 3.15-5.43l8.35-13.7c.9-1.47 2.3-3.92 3.11-5.45l13.1-24.6a9.55 9.55 0 013.08-3.56c.88-.44 1.33.58 1 2.28l-.77 3.86a27.59 27.59 0 01-2 5.87l-27.44 53.61c-.78 1.53-1.15 3.06-.83 3.38a6.84 6.84 0 001.4 1l.22 1a28.16 28.16 0 01.38 4.21c0 1-13.36 26.12-13.36 26.12a13.06 13.06 0 00-1.47 4.78h-1.2c-1.22 0-3.21-1.81-4.22.6l-1 2.39a5.76 5.76 0 001.81 3.2l-.58 1c-.61 1-2.69 4.68-2.69 4.68-.84 1.51-2.27 2.74-3.15 2.74v2.21c0 2.2 1.21 1.2 0 2.2s-3.61 1.8-4.81 2.6-2.41.81-2 2.81 2 2.22 2 4 .39 7.62-.42 8.23-3 .2-3.59 1.79.78 5.63.78 6.24.43 3.39-.58 3.8-3 .59-4.42 1.2-6.42 1-4.82 2l1.61 1a6.06 6.06 0 012.5 4.53v1a12.89 12.89 0 00.5 3.73l-1.2 1.39c-1.21 1.42-2.21 3-3.43 3.21s-.59-2-2.2.21-1 3.42-2.41 5.23-2.69 2.65-3.5 2.65h-.8a10.66 10.66 0 01-4-3s-.36-.43-1 1.39-1.38 5.35-1.38 5.35a13.13 13.13 0 01-1.45 4.07l-.59.4c-.59.4-1.82 1-1.62 1.61s.81 2.41.21 2.8a3.7 3.7 0 00-1.6 3c0 1.59.6 3.8.2 4.81s0 1.4-1 1.79-1.8.62-1.8 2 .59 3.81 0 5.64-.8 1.79-2.41 2-2.61-1.19-2.41.8 1.21 4.82 1.8 4.82h.66a32 32 0 014.42.29 8.82 8.82 0 012.9 1.2 37.87 37.87 0 013.21 2.71 12.76 12.76 0 005 2.52l13.14 3c1.69.39 4.41 1.11 6.07 1.6l7.42 2.22c1.65.5 4 1.35 5.32 1.9a1.85 1.85 0 01.9 2.9 10.84 10.84 0 01-2.71 2.61 5 5 0 00-1.91 2.11 3.66 3.66 0 01-2.6 1.72 15.68 15.68 0 01-3.51.1c-.83-.12-1.51.78-1.51 2a3.08 3.08 0 01-1.8 2.81h-1.2a12.55 12.55 0 00-3.61.8 12.67 12.67 0 01-3.6.79l-.63-.19a3.53 3.53 0 00-2.2-.2l-1.19.2c-.45.77-2.16 1.58-3.82 1.81v-.59c0-.62-.61-1-1.62-1.42l-1-.4a2 2 0 00-2.42.79l-.79.21a34.2 34.2 0 01-4.81.2H655a5.7 5.7 0 01-3.22-.8c-.43-.43-.25.51.43 2.09l.77 1.84c.67 1.59 1.88 4.14 2.67 5.67l1.51 2.86a38.43 38.43 0 003.42 5.22l2.87 3.54c1.08 1.34 2.91 3.49 4.06 4.79l3.85 4.34a20.1 20.1 0 003.6 3.25c.83.51 2 1.28 2.61 1.72a6.84 6.84 0 011.71 2 16.58 16.58 0 011 3.7 23.5 23.5 0 001.77 5.34l10.9 22.43c.76 1.55 2.15 4 3.09 5.46l5.4 8.37a52.11 52.11 0 013 5.49l.22.52c.72 1.57 2 4.08 2.87 5.57L718.19 755a8.56 8.56 0 011.38 3.42c-.1.39-.65.34-1.21-.1a18.54 18.54 0 01-2.68-3.45l-2.86-4.52c-.92-1.45-1.32-1.47-.87 0a12.18 12.18 0 001.9 3.8 5.24 5.24 0 011.1 3v1.19a10 10 0 00.92 4.86l.78 1.7a14.56 14.56 0 011.3 4.38c0 .83-.61.23-1.34-1.34l-.92-2a38.19 38.19 0 00-3.21-5.36l-.68-.95a15.09 15.09 0 01-2.33-5.63 6.07 6.07 0 00-.73-1.93c-.6-1-2.46-3.36-2.46-3.36-1.07-1.35-1.59-2.55-1.15-2.66l-1-3.21c-1-3.21-4.42-7-5-7.63s-.22-1.39-1.2-4.19-2.79-7-2.79-7c-.68-1.59-1.92-4.12-2.76-5.62 0 0-5.52-9.9-5.9-10.91s-6.82-13.83-9.63-17.25-3-3.19-3.81-5-.2-4-.81-5.23a30 30 0 00-3.43-4.16c-1.19-1.24-3.11-3.31-4.26-4.6l-5.47-6.14c-1.14-1.3-3.07-3.35-4.3-4.56s-3.3-3.09-4.65-4.17L647 654c-1.36-1.08-3.52-2.89-4.82-4l-.09-.08c-1.31-1.14-3.28-2.93-4.38-4s-2.54-2.45-3.2-3.1a9.77 9.77 0 00-2.61-1.8c-.78-.34-2-1-2.82-1.42a2.37 2.37 0 00-2.2-.2 3 3 0 00-.8 2.1 31 31 0 00.65 4.58l.69 3.29a19.21 19.21 0 002.39 5.68s5.1 7.63 5.48 8.43 6.05 8.86 6.05 8.86c1 1.41 2.64 3.71 3.68 5.09l2.85 3.8a19.79 19.79 0 004.56 4.15 2.66 2.66 0 011.11 1.36c.2.8 1.42 2.24 1.42 2.82s.6 5.5.6 5.5c.23 1.71.72 4.49 1.1 6.16l1.81 7.76c.39 1.68 1.11 4.41 1.6 6.06l3.44 11.61c.49 1.66 1.33 4.36 1.86 6l1.27 3.9c.53 1.64 1.15 3.7 1.36 4.58h3.21a11.65 11.65 0 013.6 3l3.24 4a22.36 22.36 0 004.11 3.83 21.42 21.42 0 013 2.41 4.92 4.92 0 01.89 2.81c0 1-.27 1.36-.6.8a3.6 3.6 0 00-2.11-1.31 3.42 3.42 0 01-2-1.1 19 19 0 00-2-2.32 26.82 26.82 0 00-3.82-2.9c-1.27-.76-1.43-.3-.36 1.06l3.92 4.91c1.07 1.35 2.63 3.45 3.45 4.66a11.12 11.12 0 003.52 3.22v.6a4.09 4.09 0 00.09 1c.38 1.69.29 2.84-.2 2.56a14.35 14.35 0 01-2.6-2.81c-.94-1.26-1.53-1.31-1.31-.1a36.91 36.91 0 01.5 4.42c.06 1.22-.3 1.11-.79-.21s-1.21-3.13-1.61-4-1.37-2.84-2.19-4.36a26.91 26.91 0 00-2.13-3.47l-.6-.58a14.12 14.12 0 01-2.4-4.43l-.4 2c-.41 2 1.78 7.15 1.78 7.15.67 1.59 1.9 4.12 2.74 5.64l.39.71c.83 1.51 2.2 4 3 5.48l.74 1.37a19.47 19.47 0 011.93 5.14c.23 1.32-.32 1.36-1.2.1s-2.35-3.51-3.25-5l-2.91-4.69a62 62 0 01-3-5.52l-1.31-3.2a49.12 49.12 0 01-2.13-5.88s-1-3.57-1.18-4.19-2.41-3.4-2.8-4a6.75 6.75 0 01-.44-.7 32.13 32.13 0 01-1.47-4.51c-.17-.88-.55-3-.86-4.69l-1.1-6.07c-.3-1.7-.9-4.47-1.32-6.14l-1.48-5.93c-.42-1.66-1.19-4.38-1.71-6l-2.13-6.68c-.52-1.64-1.26-3.74-1.64-4.67A19 19 0 00651 699c-.77-1-1.84-2.34-2.38-3l-.41-.82a17.84 17.84 0 01-.62-4.62c0-.79-1.8-3.38-2.81-4.4s-5.87-8.24-5.87-8.24c-1-1.42-2.68-3.66-3.82-5l-9.11-10.5c-1.13-1.3-3.06-3.37-4.28-4.59l-5.6-5.6a40.64 40.64 0 01-3.92-4.73 26.47 26.47 0 01-2.6-5.11 18.39 18.39 0 01-.9-4.92 33.34 33.34 0 00-.21-3.81c-.12-.83-1.38-1.68-2.81-1.9a17.36 17.36 0 01-5-1.81l-.59-.4c-.61-.4-2.06-1.41-2.06-1.41-1.41-1-3-2.08-3.46-2.41a5.47 5.47 0 00-3.42.21 20.45 20.45 0 01-4.3.9c-1 0-2.63.09-3.62.09a10.09 10.09 0 01-3.51-.78c-.93-.45-2.88-1.58-4.33-2.52l-.57-.39a25 25 0 01-4.44-3.82 34.27 34.27 0 01-3.3-4.87z" fill="#bf0046"/></svg>